<?xml version="1.0" encoding="UTF-8"?>
<svg width="150px" height="28px" viewBox="0 0 150 28" version="1.1" xmlns="http://www.w3.org/2000/svg" xmlns:xlink="http://www.w3.org/1999/xlink">
    <title>FERMAX-logo</title>
    <g id="FERMAX-logo" stroke="none" stroke-width="1" fill="none" fill-rule="evenodd">
        <path d="M150,0 L150,27.3697674 L0,27.3697674 L0,0 L150,0 Z M149,1 L1,1 L1,26.369 L149,26.369 L149,1 Z" id="Rectangle" fill="#FFFFFF" fill-rule="nonzero"></path>
        <path d="M133.566977,11.1286047 L139.319651,5.46906977 L144.548721,5.46906977 L136.18186,13.6967442 L144.548721,21.9240698 L139.319651,21.9240698 L133.566977,16.264186 L127.79093,21.9244186 L122.560465,21.9244186 L130.952442,13.697093 L122.560465,5.46906977 L127.815,5.46906977 L133.566977,11.1286047 Z M76.347907,5.46906977 L80.5315116,5.46906977 L76.347907,5.46906977 Z M113.575814,5.46906977 L121.205581,21.9244186 L116.666163,21.9244186 L115.263488,18.8801163 L105.111628,18.8801163 L103.709651,21.9244186 L99.1932558,21.9244186 L106.82407,5.46906977 L113.575814,5.46906977 Z M106.65593,15.5993023 L113.74186,15.5993023 L110.200116,7.96604651 L106.65593,15.5993023 Z M68.0281395,11.8423256 L68.1704651,11.8423256 L68.2890698,11.8189535 L68.4076744,11.7711628 L68.5266279,11.7233721 L68.6459302,11.6759302 L68.740814,11.6047674 L68.8353488,11.5336047 L68.9302326,11.4383721 L69.0013953,11.3672093 L69.0966279,11.2726744 L69.1444186,11.1777907 L69.167093,11.1055814 L69.1915116,11.0574419 L69.2386047,10.9395349 L69.287093,10.8202326 L69.287093,10.7012791 L69.3101163,10.5589535 L69.3101163,10.44 L69.287093,10.2976744 L69.2630233,10.1773256 L69.2155814,10.0583721 L69.1674419,9.91604651 L69.0966279,9.82186047 L69.0254651,9.72593023 L68.9536047,9.60697674 L68.8583721,9.53511628 L68.7638372,9.46395349 L68.644186,9.39313953 L68.5493023,9.32093023 L68.4306977,9.25011628 L68.2880233,9.22639535 L68.2412791,9.20232558 L68.1690698,9.17930233 L68.0267442,9.17930233 L56.8304651,9.17930233 L56.8304651,11.8423256 L68.0281395,11.8423256 L68.0281395,11.8423256 Z M56.8322093,15.6463953 L56.8322093,21.9244186 L52.7902326,21.9244186 L52.7902326,5.46906977 L68.4795349,5.46906977 L68.7411628,5.49209302 L69.002093,5.51581395 L69.24,5.53988372 L69.4782558,5.61174419 L69.7395349,5.65883721 L69.9540698,5.73 L70.1919767,5.8022093 L70.2865116,5.84930233 L70.405814,5.89709302 L70.6196512,5.99197674 L70.834186,6.11023256 L71.0236047,6.22918605 L71.1181395,6.27732558 L71.2130233,6.34813953 L71.4031395,6.49151163 L71.5698837,6.65825581 L71.7369767,6.8005814 L71.9030233,6.96732558 L72.0453488,7.13372093 L72.1880233,7.32383721 L72.3303488,7.51395349 L72.4493023,7.7044186 L72.567907,7.89488372 L72.6624419,8.10872093 L72.7817442,8.3222093 L72.8532558,8.53639535 L72.9481395,8.77465116 L73.0186047,8.9877907 L73.067093,9.22639535 L73.1148837,9.46395349 L73.1623256,9.7255814 L73.1856977,9.96418605 L73.2090698,10.2251163 L73.2090698,10.4633721 L73.2090698,10.7246512 L73.1856977,10.9859302 L73.1623256,11.247907 L73.1148837,11.4854651 L73.067093,11.7233721 L73.0186047,11.985 L72.9481395,12.1988372 L72.8532558,12.4367442 L72.7817442,12.6509302 L72.6624419,12.8884884 L72.567907,13.1023256 L72.4493023,13.2927907 L72.3069767,13.5069767 L72.1639535,13.697093 L72.0216279,13.8872093 L71.8796512,14.0776744 L71.6884884,14.2447674 L71.522093,14.434186 L71.3556977,14.5765116 L71.1655814,14.7195349 L70.9751163,14.8615116 L70.7616279,14.980814 L70.5474419,15.0997674 L70.3336047,15.2187209 L70.1197674,15.3139535 L69.8818605,15.4084884 L69.6439535,15.4803488 L69.4060465,15.5281395 L69.1451163,15.5752326 L68.9072093,15.6233721 L68.6455814,15.6233721 L68.3839535,15.6463953 L72.7573256,21.9247674 L68.502907,21.9247674 L64.414186,15.6463953 L56.8322093,15.6463953 L56.8322093,15.6463953 L56.8322093,15.6463953 Z M80.5315116,21.9244186 L76.347907,21.9244186 L76.347907,5.46906977 L80.5315116,5.46906977 L86.8322093,15.6233721 L93.1315116,5.46906977 L97.2439535,5.46906977 L97.2439535,21.9244186 L93.1315116,21.9244186 L93.1315116,11.7230233 L86.7840698,21.9244186 L80.5318605,11.5332558 L80.5315116,21.9244186 L80.5315116,21.9244186 Z M48.1548837,9.20232558 L33.297907,9.20232558 L33.297907,11.7230233 L46.0395349,11.7230233 L46.0395349,15.4803488 L33.2975581,15.4803488 L33.2975581,17.8109302 L48.1545349,17.8109302 L48.1545349,21.9244186 L29.565,21.9244186 L29.565,5.46906977 L48.1545349,5.46906977 L48.1548837,9.20232558 L48.1548837,9.20232558 Z M24.9537209,9.20232558 L9.26476744,9.20232558 L9.26476744,11.7230233 L22.9806977,11.7230233 L22.9806977,15.4803488 L9.26476744,15.4803488 L9.26476744,21.9244186 L5.50848837,21.9244186 L5.50848837,5.46906977 L24.9537209,5.46906977 L24.9537209,9.20232558 Z" id="Shape" fill="#FFFFFF" fill-rule="nonzero"></path>
    </g>
</svg>