<?xml version="1.0" ?><svg xmlns="http://www.w3.org/2000/svg" width="134.79678mm" height="176.82774mm" viewBox="0 0 134.79678 176.82774">
    <path d="m 1991.3533,10587.778 c -22.7361,-6.553 -42.2591,-22.562 -43.249,-35.458 -0.2118,-2.778 -11.0441,-12.031 -24.0694,-20.561 -45.9021,-30.071 -98.8867,-124.652 -113.3838,-187.84 -11.8599,-51.692 2.3416,-103.739 35.016,-131.867 51.6446,-44.458 137.142,-71.753 286.6952,-58.128 68.1766,5.807 170.1915,21.452 179.2611,90.175 17.1307,137.426 -16.3917,244.576 -98.7741,293.354 -11.2129,6.639 -25.1221,18.475 -30.9091,26.305 -5.7873,7.827 -19.3096,17.072 -30.0501,20.549 -30.5621,9.884 -130.7869,12.052 -160.5368,3.471 z m 137.687,-15.751 c 20.2141,-11.157 -140.4235,-10.167 -140.4235,-6.348 0,1.953 3.9719,4.589 8.8267,5.858 12.0522,3.151 113.205,10.641 131.5968,0.49 z m 41.1726,-39.153 c 61.5901,-19.317 94.4726,-73.472 116.7948,-143.767 11.2315,-35.369 9.7367,-86.25 2.5927,-86.478 -88.8284,38.593 -164.8614,41.374 -228.8955,40.502 -163.1815,-2.223 -210.2932,-21.207 -231.1891,-50.564 -5.1042,0 -1.8127,35.135 5.7021,60.869 18.1971,62.313 63.9262,137.552 107.5927,161.524 57.1926,31.397 162.5144,38.267 227.4023,17.914 z m -136.2028,-220.132 c 5.5482,-5.546 14.6268,-10.086 20.175,-10.086 6.7247,0 10.0872,3.361 10.0872,10.086 0,9.222 3.3542,10.084 39.089,10.061 h 39.0886 l -13.4356,-11.322 c -7.3894,-6.229 -14.7412,-15.873 -16.3372,-21.429 -4.0907,-14.246 14.2835,-42.13 32.925,-49.966 l 15.563,-6.545 -16.2927,-3.256 c -24.9569,-4.994 -69.5374,-3.874 -73.0637,1.829 -1.7302,2.801 -11.5106,9.511 -21.7331,14.909 -17.0282,8.995 -17.5298,9.847 -5.9779,10.15 17.6575,0.468 55.4948,18.459 55.412,26.347 -0.041,3.6 -1.4685,11.774 -3.1787,18.16 l -3.1098,11.611 -11.1713,-10.495 c -6.9013,-6.484 -21.1083,-11.669 -37.1707,-13.572 -14.3001,-1.694 -26.0002,-5.036 -26.0002,-7.423 0,-7.433 45.0941,-4.754 61.3301,3.643 9.3908,4.854 13.976,5.618 11.7078,1.948 -6.8548,-11.09 -46.672,-25.519 -61.4876,-22.279 -10.8055,2.363 -12.316,1.83 -6.5063,-2.297 5.8421,-4.153 2.6831,-5.394 -13.8704,-5.454 l -21.4358,-0.108 10.0875,10.088 c 15.0619,15.063 12.3054,29.904 -6.8726,36.997 -7.6775,2.836 -8.2559,4.845 -3.1653,10.981 8.8675,10.683 33.479,9.283 45.3437,-2.584 z m 17.6531,5.046 c 3.945,-6.386 -2.732,-6.386 -12.6091,0 -6.5201,4.21 -6.3868,4.898 0.963,4.961 4.6911,0.04 9.9318,-2.188 11.6461,-4.961 z m -84.6412,-6.307 c -3.2599,-9.094 5.5547,-23.956 14.2065,-23.956 9.846,0 9.4442,-8.221 -0.5896,-12.071 -15.4654,-5.935 -26.4232,-2.908 -41.9257,11.571 -18.5927,17.367 -19.6833,24.241 -4.3162,27.204 23.591,4.541 34.8974,3.589 32.625,-2.748 z m 191.2955,-6.063 c -15.5082,-14.375 -16.5107,-21.169 -4.9986,-33.89 17.0438,-18.832 72.3521,-7.16 72.3521,15.268 0,12.311 -31.3566,23.369 -45.2272,15.947 -5.6395,-3.018 -10.2537,-7.542 -10.2537,-10.054 0,-7.892 10.7167,-11.599 16.5791,-5.735 9.1362,9.135 21.6088,6.552 21.6088,-4.475 0,-8.202 -3.3363,-10.073 -17.8328,-10.01 -33.0339,0.152 -40.8633,18.007 -14.7997,33.766 11.5322,6.975 15.7992,7.085 35.2619,0.915 22.6513,-7.179 29.138,-17.208 21.8604,-33.791 -2.0595,-4.694 -3.3259,-11.198 -2.8149,-14.457 1.3997,-8.921 -50.4445,-13.957 -71.6511,-6.954 -18.3063,6.041 -24.8138,11.796 -30.0893,26.612 -4.074,11.443 19.2831,39.228 32.9752,39.228 9.6643,0 9.4604,-0.852 -2.9702,-12.37 z m -240.0509,-10.82 c 11.0986,-20.736 34.0805,-37.328 51.8232,-37.415 12.1889,-0.09 14.2014,-1.245 8.4399,-4.967 -19.6698,-12.71 -66.5214,-0.54 -92.048,23.907 -9.7868,9.375 -13.8699,11.062 -13.8699,5.721 0,-11.372 25.4457,-33.478 48.0651,-41.758 11.0136,-4.033 16.4986,-7.494 12.1884,-7.687 -14.4995,-0.658 -57.6543,24.394 -66.4238,38.561 -6.9574,11.238 -8.7195,12.146 -8.8269,4.55 -0.1929,-13.613 32.3383,-42.359 54.2999,-47.983 10.285,-2.634 35.7223,-4.638 56.5276,-4.449 27.0847,0.227 33.5305,1.395 22.6967,4.055 l -15.1311,3.714 15.6819,0.599 c 8.869,0.339 28.446,-6.216 45.0615,-15.083 26.3883,-14.079 29.9831,-14.85 35.3111,-7.565 4.4392,6.071 14.6745,8.145 40.6815,8.235 19.1126,0.09 42.6935,2.141 52.4029,4.616 31.812,8.102 87.9847,30.567 101.95,40.774 13.5106,9.869 13.7515,9.873 18.9139,0.226 9.8541,-18.413 6.0755,-34.497 -11.1634,-47.519 -25.0192,-18.899 -43.8781,-30.868 -139.1039,-40.134 -70.5038,-6.862 -114.172,-4.458 -145.9674,0.177 -53.2112,7.759 -91.4074,22.942 -119.1669,47.375 -18.6655,16.432 -23.2158,23.662 -23.2158,36.878 0,16.58 9.3137,28.636 26.986,34.93 6.4395,2.293 12.2662,-0.404 18.7925,-8.7 5.2024,-6.615 14.348,-13.303 20.3233,-14.867 9.9654,-2.605 9.7215,-1.648 -2.9509,11.581 -7.5988,7.928 -12.2989,16.874 -10.4454,19.869 5.3534,8.663 10.6293,6.444 18.168,-7.641 z m 340.1886,-12.119 c 0,-3.7 -2.8371,-7.672 -6.3047,-8.826 -3.7506,-1.251 -6.3048,2.327 -6.3048,8.826 0,6.502 2.5542,10.078 6.3048,8.829 3.4676,-1.157 6.3047,-5.131 6.3047,-8.829 z m -226.6282,-42.689 c 15.0986,-6.307 37.5472,-22.877 30.9946,-22.877 -1.1942,0 -15.5419,6.778 -31.8834,15.066 -30.7583,15.595 -30.1677,20.789 0.8888,7.811 z m 48.5995,-143.878 c 1.9808,-9.904 7.6488,-35.267 -2.7986,-60.148 -22.9445,-54.6434 -1.4798,-86.8235 17.3605,-104.0671 12.9995,-11.8979 22.2433,-8.5962 11.2263,11.4471 -13.0737,23.7854 -30.0717,42.0982 -12.7886,84.773 13.43,33.161 9.6787,78.136 -2.6669,89.307 -23.1854,15.855 -12.7606,-10.18 -10.3327,-21.312 z m -55.1785,-21.233 c -1.5136,-3.947 5.6167,-16.998 8.6032,-22.58 8.0296,-15.003 0.7379,-27.281 -10.7337,-56.3861 -5.9493,-15.0936 -8.8707,-30.4996 -6.969,-36.7546 4.4701,-14.699 17.1852,-28.418 26.3406,-28.418 6.4401,0 3.4421,6.1974 -3.6631,14.0474 -11.6238,12.847 -12.8836,23.6061 1.8014,52.5552 15.3279,30.2111 16.0904,54.2841 2.215,71.9221 -11.7,14.874 -13.5068,16.267 -17.5944,5.614 z" fill="#000000" transform="translate(-10.475129,75.76773) matrix(0.26458333,0,0,0.26458333,-467.49706,-2701.7048)"/>
</svg>
