<svg xmlns="http://www.w3.org/2000/svg" viewBox="0 0 1997.01 202.67" fill="#fff"><g id="Layer_2" data-name="Layer 2"><g id="Layer_1-2" data-name="Layer 1"><path class="cls-1" d="M1250.91,10.06V43.9c-9.45-3.15-18.6-6.1-28.08-7.75-20.29-3.53-40.59-5.28-60.95-.58a42.23,42.23,0,0,0-10.24,3.8c-11.7,6.18-16.64,18.22-12.6,30.85,2.73,8.55,9.68,13.2,20.61,13.35,11.66.17,23.33,0,35,.06a97,97,0,0,1,28.08,3.92c18.48,5.65,30.08,17.59,33.85,36.78a76.27,76.27,0,0,1-.83,34.14c-5.25,20.3-19.14,32.08-38.47,38.2-16.56,5.24-33.61,6.08-50.83,5.48-18.87-.65-37.45-3.06-55.56-8.55-1.12-.34-2.21-.74-3.42-1.14V158.64a174.89,174.89,0,0,0,33.36,8.5c18.34,2.55,36.73,4.4,55.11.44,9-2,17-5.89,21.6-14.57,9.45-18-.54-34.79-21.18-35.34-11.65-.31-23.33,0-35-.07a92.3,92.3,0,0,1-27.08-3.75c-19.19-5.93-29.7-19.26-32.85-38.7a74.25,74.25,0,0,1,1.23-31.71c4.71-17.18,16.27-28.2,32.4-34.79,13.73-5.6,28.19-7.59,42.91-8.13,23.11-.84,45.88,1.26,68.09,8C1247.64,9,1249.21,9.52,1250.91,10.06Z" transform="translate(0 0)"/><path class="cls-1" d="M1995,33.85h-98.64V83.39h94.16v33.28h-94.8v51.58H1997v32.29H1859.07V1.9h136Z" transform="translate(0 0)"/><path class="cls-1" d="M1816.56,10.09V43.86a147.15,147.15,0,0,0-29.81-8.8c-17-2.85-34.07-3.43-51.07.39-25.65,5.77-40.23,20.9-44.6,46.8a105.3,105.3,0,0,0,1.63,43.11c6.06,24.58,22,38.8,46.8,43,13.28,2.26,26.5,2,39.8-2V108.83h37.31v82.81a106.61,106.61,0,0,1-29.56,8.38c-23.24,3.4-46.4,3.54-69.37-2.12-36.66-9-57.45-33-64.19-69.46a152,152,0,0,1,.56-60.5c7.21-32.93,27.47-53.75,59.78-62.16,33.45-8.7,66.89-7.52,99.89,3.14C1814.67,9.22,1815.56,9.67,1816.56,10.09Z" transform="translate(0 0)"/><path class="cls-1" d="M1500.83,1.77H1541l86.15,198.74h-40.27l-22.49-53.72h-66.22c4.42-11.19,8.62-21.83,13-32.8h39.58c-10.26-24.47-20.25-48.31-30.68-73.22-21.93,53.84-43.45,106.71-65.06,159.79h-38.49Z" transform="translate(0 0)"/><path class="cls-1" d="M824.49,200.63H798.38Q738.62,121.3,678.53,41.49l-.87.27V200.53H652.71V1.87H679L798.68,159.44l.9-.14V1.79h24.91Z" transform="translate(0 0)"/><path class="cls-1" d="M288.94.46C305.1.17,320.21,2,334.78,7.32c23.42,8.57,39.1,24.77,46.67,48.43,9.32,29.15,9.43,58.69,1.11,88s-28.09,47.31-57.43,54.51A148.17,148.17,0,0,1,253,198c-31.18-7.81-51-27.48-58.8-58.71a152.53,152.53,0,0,1,.56-78c8.61-31.72,29.91-50.49,61.73-57.67A130.37,130.37,0,0,1,288.94.46Zm71.54,99.05a113.15,113.15,0,0,0-3.25-29.21c-6-24.4-20.52-40.64-45.53-46.32-12.11-2.75-24.38-2.79-36.74-1.41-26.82,3-46.26,18.82-53.35,44.75a126.18,126.18,0,0,0,.09,67.61c5.93,21.62,19.48,36.45,41.45,42.54a99.64,99.64,0,0,0,46.48,1.42c23.36-4.61,38.47-18.41,45.77-41C359.29,125.91,360.53,113.55,360.48,99.51Z" transform="translate(0 0)"/><path class="cls-1" d="M879.66,200.31V2.37a2.67,2.67,0,0,1,2.5-.75c26,0,52-.14,78,.25a118.09,118.09,0,0,1,41,7.67c23,8.88,38.31,25.13,44.89,48.7a145.71,145.71,0,0,1-2.72,87.93c-9.72,28.39-30.31,44.86-59.23,51.45a131.82,131.82,0,0,1-29.71,3.18c-23,0-46,0-69,0C883.57,200.76,881.73,201.12,879.66,200.31ZM906.12,23V179.7c19.92-.6,39.58,1.1,59.15-1.09,25.93-2.89,44.47-15.84,53.17-41,7.28-21,8.35-42.7,4-64.46-5.56-28-23.47-44.7-51.59-48.57C949.5,21.62,928,23.87,906.12,23Z" transform="translate(0 0)"/><path class="cls-1" d="M460.49,1.91V7.45q0,58.74,0,117.47a78.88,78.88,0,0,0,2.79,21.22c4.73,17,15.69,27.88,32.76,32.22a84.44,84.44,0,0,0,42.51-.08c19.25-5,30-18,33.74-37.24a85,85,0,0,0,1.48-16.38q0-58.48,0-117V1.93h25.94c.79,1.69.39,3.37.39,5,0,40,.13,80,0,120-.06,13.75-2.34,27.16-8.64,39.6-8.15,16.09-21.41,26.18-38.46,31-24.06,6.85-48.39,7-72.35-.23-24.94-7.5-39.27-25-44.31-50.33a113.58,113.58,0,0,1-2.06-22.33q.09-58.49,0-117V1.91Z" transform="translate(0 0)"/><path class="cls-1" d="M145,8.93V32.75c-7.82-2.33-15.3-5-23.07-6.57-21-4.31-42.1-6.35-63.42-2.6a48.66,48.66,0,0,0-19.38,7.49c-11.11,7.62-15.59,21.82-11.74,37,2.89,11.46,12.54,19.1,26,20.49,10,1,20,.34,30,.5,9.31.15,18.61.34,27.79,2.32,25.9,5.61,39.61,21.76,40.6,48.15a79.48,79.48,0,0,1-1,17.42c-4,21.9-18,34.5-38.57,40.6-16,4.74-32.41,5.24-48.93,4.55a264,264,0,0,1-54.25-7.6,20.3,20.3,0,0,1-2-.77V169.94c7.68,2.13,15,4.65,22.58,6.21,20.34,4.18,40.8,6.18,61.51,3.45a56.48,56.48,0,0,0,10.65-2.51c20.48-6.88,29.9-28.78,20.89-48.52-4.83-10.56-14.15-14.41-24.83-15.92-7.12-1-14.3-.44-21.45-.51-12.47-.11-25,.22-37.28-2.5-24.25-5.35-38-21.93-39-46.84-.36-9,.05-17.95,3.21-26.52,6.1-16.58,19-25.5,35.07-30.63S71.12.15,87.8.44a238.28,238.28,0,0,1,54.27,7.37A29.51,29.51,0,0,1,145,8.93Z" transform="translate(0 0)"/><path class="cls-1" d="M1332.23,34.24h-56.84V1.82H1426V34h-56.65V200.59h-37.14Z" transform="translate(0 0)"/></g></g></svg>
