<?xml version="1.0" ?><svg xmlns="http://www.w3.org/2000/svg" viewBox="0 0 163.32419 139.86165" height="139.86165mm" width="163.32419mm">
    <path d="m 4192.4617,907.73542 c -0.8404,0.01 -1.721,0.062 -2.6446,0.1641 -29.5535,3.25 -10.8833,38.7897 3.8321,34.2246 11.6376,8.0317 24.8656,-34.667 -1.1875,-34.3887 z m -187.9766,45.3321 -23.8789,25.3379 22.7852,43.14258 c -16.357,8.9835 -6.6458,189.4133 -9.9688,282.1192 -23.6239,5.8255 -26.6568,22.2956 -32.5742,37.2754 -20.9597,5.3567 -21.9591,22.3151 -24.9102,38.1386 -17.4683,4.0099 -39.6155,35.2178 -18.2773,43.5762 l 179.0898,3.1836 c 23.8695,-3.5841 9.3583,-39.401 -23.3632,-52.332 7.5621,-28.443 -12.961,-35.4627 -38.1758,-38.8008 12.3939,-3.0949 18.1251,-27.4127 -19.9668,-28.5352 l 0.664,-288.0371 14.9473,-46.73048 c -21.9086,10.3361 -20.5934,-8.4477 -26.3711,-18.3379 z m -175.1347,101.75398 c -1.1398,-0.022 -2.3416,0.039 -3.6094,0.1914 -30.6996,3.6889 -20.4893,42.5164 6.2636,44.7715 17.491,-9.4828 20.5198,-44.5138 -2.6542,-44.9629 z m 259.8027,102.1797 c 12.75,58.9647 24.8222,56.2825 116.0762,59.4961 91.254,3.2136 116.6738,-59.4297 116.6738,-59.4297 z m -152.8477,134.0546 -223.5312,1.5918 c 6.4855,21.4236 17.394,58.7656 115.1933,57.1075 97.7993,-1.6582 108.3379,-58.6993 108.3379,-58.6993 z" color="#000" overflow="visible" fill="#FFFFFF" paint-order="fill markers stroke" transform="translate(141.39298,92.495829) matrix(0.26458333,0,0,0.26458333,-1121.5723,-331.13504)"/>
    <path d="m 3892.4258,1427.2147 c -2.7584,-2.2893 -0.275,-9.9094 3.4966,-13.1889 12.2459,-14.7854 14.9522,-37.5875 30.6718,-38.0166 2.4885,0.7898 7.5539,-0.4518 6.6715,-2.5626 -2.0528,-4.91 -2.2792,-8.3591 -0.8353,-12.7207 5.4952,-18.8639 18.3762,-19.1752 28.2434,-27.9469 -3.0528,-12.8725 5.14,-25.6395 18.3876,-30.3048 3.767,-1.3266 7.1335,-2.6965 7.4814,-3.0443 0.3478,-0.3479 0.9004,-27.296 1.228,-59.8848 0.3274,-32.5888 0.9304,-62.2523 1.3397,-65.919 4.2171,-41.4292 -1.6988,-88.51 1.6623,-131.6667 0.4473,-5.6833 0.509,-10.3333 0.1372,-10.3333 -0.6931,0 -12.1638,4.9409 -21.6746,9.3362 -51.5117,19.7198 -78.4257,36.7662 -122.2528,56.1991 -4.2939,0.774 -7.1207,4.7834 -1.3566,14.0172 35.0271,55.8609 62.9275,106.3976 89.5485,151.0892 4.2012,7.0529 11.4634,19.2291 7.8225,30.6916 -4.7352,12.8607 -12.0299,20.5271 -17.2924,28.6667 -24.8516,27.3015 -76.466,34.8892 -115.1356,32.171 -10.4906,-0.7892 -16.6464,-1.4589 -39.4492,-4.2918 -2.6304,-0.3268 -8.9304,-1.8032 -14,-3.281 -27.6052,-8.7582 -40.5306,-22.3048 -51.3148,-46.9135 -3.0989,-5.8047 0.2667,-15.6847 5.3431,-15.6847 3.2051,0 3.6801,-0.6826 13.4541,-19.3333 32.8717,-58.9533 59.0078,-106.8206 91.3942,-158.362 5.7863,-5.08 -7.364,-14.792 -8.9627,-18.6514 -10.2612,-9.9243 1.5989,-29.3963 9.1248,-34.3275 7.5093,-4.9202 20.3888,-1.6687 28.0777,7.0885 5.0595,5.7625 8.3831,20.3697 0.1738,28.6538 45.2033,-21.7361 101.1457,-47.3277 141.8612,-65.6126 2.5123,-1.7055 11.0494,-3.4653 11.7279,-6.2431 -0.225,-0.854 -4.3092,-8.8978 -9.0758,-17.87528 -7.4214,-13.9772 -9.1306,-16.3241 -11.8951,-16.3334 -4.7591,-0.016 -5.3377,-5.7225 -3.6578,-8.8612 8.7741,-7.0047 16.1353,-12.0125 22.4865,-22.0441 2.2136,-3.5975 4.9572,-6.4388 6.2174,-6.4388 4.1974,0 7.9255,3.8675 8.8175,9.1472 1.5415,9.1239 6.4432,13.3077 19.5651,16.6998 4.8566,2.3622 5.5413,9.3832 2.136,11.0272 -4.7822,0.7647 -5.1106,1.1568 -7.5055,8.9627 -3.3465,10.90728 -4.5699,16.82988 -3.4764,16.82988 29.6784,-14.34078 55.4761,-25.68278 84.6247,-41.67908 1.2833,-0.7228 3.3833,-1.9179 4.6667,-2.6559 1.2833,-0.738 3.2333,-1.6787 4.3333,-2.0904 3.5211,-1.3178 12.4845,-5.7006 18.6667,-9.1273 5.6125,-3.1109 9.021,-4.7035 28.1296,-13.1434 l 7.4628,-3.2963 0.7565,-7.3302 c 1.216,-11.781 10.1501,-26.3372 16.1651,-26.3372 18.1471,-3.2533 19.548,17.0357 23.3098,27.1089 2.4626,6.6327 2.6736,8.5926 1.4355,13.3334 -0.7984,3.0567 -2.2033,6.1577 -3.1223,6.891 -0.9189,0.7333 -2.7446,2.9833 -4.0572,5 -3.2832,5.0444 -8.9837,5.0444 -11.4298,0 -0.9779,-2.0167 -1.6479,-4.4167 -1.489,-5.3333 0.8852,-5.1027 -5.0778,1.069 -7.0457,7.2923 -28.5082,70.05128 -42.7945,98.47188 -65.5963,154.22758 l -17.6545,40.8135 8.2345,0.1172 c 62.6449,0.3733 139.0255,0.7688 192.9014,-0.4356 -26.6327,-58.7525 -72.8407,-121.4207 -100.5979,-179.76958 -4.9279,-10.5153 0.2461,-17.9301 5.623,-7.1096 26.6274,51.14298 76.2381,120.28108 100.3701,175.19758 5.9868,6.3293 14.6048,17.4422 14.6048,17.4422 0,7.0819 -0.5023,8.9443 -3.1027,11.5038 -11.5093,19.4025 -22.7318,39.9886 -40.0667,46.8644 -30.757,12.1997 -131.6094,12.2916 -164.7573,-2.1527 -14.2178,-8.8814 -28.3828,-26.8118 -30.1027,-42.1388 -6.574,-17.1078 2.1446,-15.3738 8.5094,-23.2561 1.5694,-2.2043 2.8537,-4.6242 2.8537,-5.3777 0,-0.7534 1.754,-4.8608 3.8977,-9.1275 28.8051,-64.4591 47.1289,-102.7206 76.2022,-180.55908 l 3.5968,-6.1348 -4.0616,-0.1154 c -3.905,-0.1111 -33.3578,13.0328 -52.3018,23.3406 -1.4666,0.7981 -14.6666,7.3578 -29.3333,14.5772 -14.6667,7.2195 -26.9667,13.4933 -27.3333,13.9419 -10.2954,6.97248 -42.7211,17.35098 -42.3486,21.52528 0.02,1.65 -0.6824,6.5931 -0.5189,14.436 -2.0208,94.6764 -6.2513,166.7724 -3.0771,266.6537 0.2839,0.4593 2.3,0.8858 4.4803,0.9478 11.6641,0.3317 29.1557,13.7367 23.1658,29.6158 23.2139,4.9639 35.1298,22.3721 30.7876,36.1341 -0.8912,2.7955 -0.596,2.9361 5.5991,2.6667 7.0629,-0.3072 3.0415,-0.1926 14.4603,11.426 5.1415,5.5872 33.6108,37.2965 27.2684,45.8946 l -11.3375,1.4646 c -52.643,-0.3644 -125.5366,4.3712 -221.9564,-1.984 z m 215.0404,-14.2511 c -0.5752,-2.5766 -10.8552,-16.7191 -16.636,-22.8863 -3.8217,-4.0772 -5.784,-5.033 -11.9036,-5.7975 -4.0488,-0.5059 -11.7341,-0.2291 -17.176,0.6187 -22.8274,3.5562 -37.2793,4.2596 -85.7638,4.1742 -27.7831,-0.049 -44.4119,-0.5738 -45.2667,-1.4287 -3.1975,-3.1974 -5.7472,-1.115 -10.1817,8.3154 -0.024,5.4634 -10.5196,13.0659 -9.0653,18.4181 78.2222,8.4375 135.6146,3.6931 178.9981,1.0112 5.8332,1.5601 17.5125,-0.1065 16.995,-2.4251 z m -83.5641,-37.8842 c 31.1659,-1.5794 39.1325,-2.8489 39.4851,-5.5705 2.8053,-8.1237 1.8948,-10.8079 -6.0639,-17.8099 -15.013,-5.9829 -58.259,2.7012 -91.2249,-3.541 -5.4394,-0.7786 -21.7459,1.2564 -22.6138,18.4216 -2.7604,14.4206 62.1806,9.3692 80.4175,8.4998 z m -171.3333,-36.3277 c 20.4136,-3.9873 43.7023,-7.3916 57.4196,-20.8367 9.4037,-9.5472 17.0278,-22.2889 13.3369,-22.2889 -4.3558,0.5098 -11.4652,1.6363 -17.0325,2.4705 -41.0932,4.0825 -73.4773,4.0665 -128.3907,3.6517 -7.0011,-1.0035 -25.2524,-1.3143 -26.1219,-0.4448 -0.4184,0.4184 -0.067,2.059 0.7831,3.6457 2.5555,4.7749 -3.7739,15.6962 -9.4603,16.3237 -2.8905,0.3189 -3.2413,-0.2104 -3.618,-5.4573 -0.2404,-3.3495 0.4656,-7.6702 1.6667,-10.2015 2.5191,-5.3085 2.5825,-6.1921 0.4171,-5.8138 -0.9167,0.1602 -6.3619,-0.1882 -12.1006,-0.7742 -6.3114,-0.6445 -10.9325,-0.5669 -11.696,0.1964 3.3033,10.3176 14.8055,23.2745 23.7966,27.6376 2.6865,1.4213 19.6878,9.6881 20.3338,6.4876 0,-0.5866 -1.9897,-3.1775 -2.7913,-3.9791 -1.0544,-1.0544 -1.0251,-3.5405 0.1067,-8.9895 1.4177,-6.8291 1.8337,-7.4506 4.4574,-6.6593 3.9486,1.1907 4.7516,2.0946 6.1295,6.899 0.9619,3.3539 -1.3526,9.431 -3.3864,11.2716 -2.9498,4.8427 -3.7158,2.8208 1.8783,3.934 2.3833,0.434 4.8804,0.071 6.4382,0.5281 2.5767,0.7553 2.9148,0.1714 3.744,-6.4656 0.5014,-4.0128 1.7755,-8.413 2.8312,-9.7784 1.8408,-2.3803 2.057,-2.3285 5.256,1.2586 1.8351,2.0575 3.3364,5.0103 3.3364,6.5617 0,3.2562 -3.5809,7.6973 -6.2066,7.6973 -0.9863,0 -1.7934,0.5485 -1.7934,1.2189 18.3075,4.6422 52.8147,5.5463 70.6667,1.9063 z m 182.402,-17.6101 c -0.521,-2.8281 -12.2336,-8.6266 -17.425,-8.6266 -2.2142,0 -4.7513,0.9985 -5.6461,2.2222 -2.074,2.8364 -14.4312,3.0229 -19.6573,0.2967 -5.5331,-2.8864 -12.2939,-1.2386 -17.0246,4.1492 -4.4618,5.0818 -5.1608,9.3425 -1.649,10.0526 2.0547,-0.4787 70.4956,12.0191 61.402,-8.0941 z m -30.1519,-52.6582 c 0.1376,-19.1715 0.342,-36.9573 0.4541,-39.524 0.112,-2.5666 0.6256,-21.4666 1.141,-42 6.3726,-52.9446 2.9176,-108.9909 3.4881,-160 0,-3.8919 -1.9409,-4.2527 -6.9092,-1.6835 l -2.0705,2.2358 -0.1668,21.5494 c -1.8007,81.9287 -3.0925,168.4284 -0.2824,254.8565 0.052,0.5269 0.9956,0.6127 2.0956,0.1906 1.6981,-0.6516 2.0377,-6.0281 2.2501,-35.6248 z m -82.1414,14.8838 c 5.8803,-0.811 7.1809,-0.81 9.6502,-1.8911 3.0481,-1.3346 -2.3554,-6.2737 -5.7303,-13.619 -33.803,-52.0887 -64.649,-110.9831 -93.5624,-161.5363 -0.5196,-0.5387 -1.1488,-0.8782 -4.3146,-0.3379 -28.2737,39.9935 -66.9258,105.2035 -90.2788,148.9764 -7.4658,14.168 -9.215,17.2358 -12.9106,22.6428 -1.9958,2.9203 -3.6289,5.6911 -3.6289,6.1575 0,0.4665 4.95,0.9351 11,1.0414 29.6003,0.5201 61.7165,1.7695 62.3223,2.4245 45.2778,4.6851 107.5993,-1.137 127.4531,-3.8583 z m 350.7018,-81.1341 c 11.6622,-6.8691 29.8177,-24.7769 34.3239,-37.6617 -32.9137,-4.3995 -140.4703,1.3482 -190.7848,-0.155 l -21.6504,-0.7177 -0.8519,3.3941 c -1.1407,4.5453 4.9697,16.6139 12.5373,24.7623 9.8364,10.5913 24.2998,14.2924 69.6154,17.8144 28.8865,-0.9037 73.6787,5.265 96.8105,-7.4364 z m -119.3713,-2.7796 c -2.555,-8.5275 2.4822,-14.28 7.6453,-8.7311 3.6445,3.9169 2.5096,9.579 -2.4121,12.0343 -3.6394,1.8156 -3.7138,1.7686 -5.2332,-3.3032 z m -14.5059,-2.7607 c -2.3128,-2.3129 -1.9652,-9.7704 0.5528,-11.8602 1.8424,-1.529 2.4975,-1.361 4.5432,1.1652 2.3992,2.9631 2.2432,7.2689 -0.3852,10.6283 -1.6301,2.0835 -2.6791,2.0984 -4.7108,0.067 z m -19.6291,-10.0667 c 2.0394,-10.913 8.5208,-11.3063 9.2492,-0.5612 0.2283,3.3678 -2.6433,5.5612 -7.2808,5.5612 -2.6314,0 -2.8154,-0.4672 -1.9684,-5 z m -14.9897,-0.3252 c -3.3493,-5.3632 -0.8372,-14.6748 3.9592,-14.6748 1.0888,0 3.0269,1.1572 4.3069,2.5717 2.0583,2.2743 2.1259,3.1606 0.5851,7.6666 -0.9583,2.8023 -1.7625,5.1705 -1.7873,5.2627 -0.025,0.092 -1.2536,0.5378 -2.7306,0.9901 -1.8416,0.5639 -3.2033,-0.01 -4.3333,-1.8163 z m -275.6855,-109.0798 c -0.6453,-1.6819 -1.2874,-1.9126 -2.3541,-0.846 -0.8067,0.8067 -1.0673,2.5074 -0.5792,3.7793 0.6453,1.6819 1.2875,1.9126 2.3541,0.8459 0.8067,-0.8067 1.0674,-2.5073 0.5792,-3.7792 z m 9.8667,-8.5026 c 0,-3.1783 -4.8323,-6.5645 -11.5204,-8.073 -4.4419,-1.0018 -7.0434,-1.5041 -10.4629,2.1564 -3.7147,3.9767 -11.3678,16.2975 0.762,25.4681 5.7948,4.3811 -4.1937,-5.8148 0.9118,-17.1873 2.7882,-6.7795 9.6567,-7.2869 13.765,-3.2023 3.9889,3.9659 6.5445,4.2932 6.5445,0.8381 z m 178.3997,-89.24468 c 0,0 -7.8397,-6.7819 -12.7979,-15.3945 -6.5981,5.997 -11.6387,12.2896 -15.1896,15.6433 2.1663,6.8792 15.1459,28.55478 18.1508,30.89648 5.0039,-7.3643 6.4716,-22.35068 9.8367,-31.14528 z m 167.1046,-51.2339 c 0,-2.3419 4.264,-3.5997 8.5533,-2.5232 7.7957,0.8207 -2.8213,-15.6104 -8.846,-7.0907 -2.5105,3.8971 -5.0161,11.2467 -4.1348,12.1281 1.1829,1.183 4.4275,-0.6595 4.4275,-2.5142 z" fill="#000000" transform="translate(141.39298,92.495829) matrix(0.26458333,0,0,0.26458333,-1121.5723,-331.13504)"/>
</svg>