<?xml version="1.0" ?><svg xmlns="http://www.w3.org/2000/svg" viewBox="0 0 198.88412 210.13135" height="210.13135mm" width="198.88412mm">
    <path d="m 207.96804,397.74224 c 0,0 -45.21594,11.11059 -76.99804,12.00586 -31.782103,0.89527 -61.666023,11.27148 -61.666023,11.27148 0,0 -2.79392,7.97672 -6.375,36.17774 -3.58109,28.20102 33.125,79.67969 33.125,79.67969 8.438563,-3.7511 17.148913,-8.19952 17.458993,8.95117 9.27401,-5.63101 16.4941,-6.9347 22.26757,8.4375 19.52727,1.65062 12.59301,8.78845 8.17188,18.42187 0,0 -42.07908,-3.13425 -62.222663,41.18164 -20.14359,44.31589 12.53352,51.03004 35.810553,50.13477 23.27704,-0.89527 40.32031,-39.48242 40.32031,-39.48242 7.95415,-4.06545 21.61659,36.41682 15.90039,73.00586 78.63961,-5.69034 125.51953,-53.21875 125.51953,-53.21875 14.32433,-44.76352 -42.97265,-124.44336 -42.97265,-124.44336 -5.41904,2.6119 -10.4717,9.2502 -17.00977,-0.44727 -14.71221,1.28775 -15.79927,-10.0013 -15.2207,-22.82812 -5.26527,-5.55876 -8.08859,-10.84732 -2.68555,-15.22071 -10.49231,-9.09417 -0.80288,-12.42181 4.47656,-17.00976 -13.77701,-18.30098 -18.42208,-41.16686 -17.90039,-66.61719 z m 96.99414,26.93555 c -14.18007,0.22032 -36.45592,6.78035 -41.93945,20.88086 0,0 -23.7244,5.81967 -19.24805,25.51562 4.47636,19.69595 17.00982,10.74367 26.41016,8.95313 9.40034,-1.79054 7.60938,11.63672 7.60938,11.63672 0,0 17.18712,3.9394 36.70702,-4.02735 19.51991,-7.96675 27.75233,-17.45776 27.30469,-33.125 -0.44763,-15.66723 -18.35256,-27.75438 -31.33398,-29.54492 -1.62268,-0.22382 -3.48404,-0.32054 -5.50977,-0.28906 z" color="#000" overflow="visible" fill="#FFFFFF" paint-order="fill markers stroke" transform="translate(296.45541,96.413055) matrix(0.69863727,0,0,0.69863727,-339.24125,-374.28702)"/>
    <path d="m 207.96708,397.74167 c -0.67707,-0.0749 -1.35199,0.7718 -2.02539,2.54297 -0.94922,2.49663 -0.79306,8.21147 0.5293,19.23047 2.25348,18.77778 4.89866,28.17025 10.3457,36.74804 l 4.06446,6.40235 -3.51563,3.67187 c -3.97878,4.15293 -4.49314,8.86964 -1.4414,13.22657 1.87857,2.68207 1.87855,3.24567 0,5.92773 -2.98537,4.2622 -2.59456,6.64223 1.92382,11.70313 4.29953,4.81578 4.7487,6.04607 2.66797,7.33203 -3.57846,2.21161 0.15932,14.06587 5.41406,17.16992 4.28351,2.53033 9.40791,2.80887 11.58789,0.6289 1.15934,-1.15934 1.93516,-0.66159 3.16211,2.03125 1.93638,4.24991 7.14478,5.91104 10.9961,3.50586 2.44317,-1.52579 3.06754,-1.31371 5.46484,1.85743 8.13,10.75428 26.34811,41.49911 29.71094,50.14062 7.24304,18.61253 8.83547,26.65724 9.23047,46.66602 0.20991,10.63334 0.39195,19.46468 0.40625,19.625 0.0142,0.16031 0.84503,-0.0222 1.8457,-0.40625 3.75752,-1.44189 5.40643,-7.9128 5.74414,-22.55078 0.2972,-12.88176 -0.13524,-16.28935 -3.55664,-28 -4.61134,-15.78351 -11.14886,-29.73076 -20.13476,-42.95508 -3.5957,-5.29171 -6.53907,-9.96783 -6.53907,-10.39258 0,-1.24886 -12.84684,-19.92183 -14.84961,-21.58399 -3.53619,-2.93478 -8.79606,-3.46446 -10.16211,-1.02343 -1.18903,2.12466 -1.48596,2.12646 -4.67187,0.0391 -2.16233,-1.41681 -3.70914,-1.73286 -4.24414,-0.86719 -1.15206,1.86406 -8.89372,0.27954 -11.64063,-2.38281 -2.74023,-2.65588 -4.40676,-15.78715 -2.32226,-18.29883 1.69808,-2.04605 0.53998,-4.53517 -2.10938,-4.53515 -3.29628,0 -3.57735,-2.62364 -0.76758,-7.16993 3.15889,-4.24602 2.72294,-4.48849 -0.64257,-8.12109 -4.40946,-4.75788 -3.76325,-7.85852 1.8125,-8.70898 2.40385,-0.36667 4.35749,-1.12053 4.34179,-1.67383 -0.0947,-3.33363 -2.22286,-9.18542 -5.45312,-14.99414 -4.98337,-8.96119 -7.2964,-17.35073 -9.9707,-36.18164 -1.73259,-12.19987 -3.47088,-18.41205 -5.20118,-18.60352 z m -21.30273,6.61719 c -0.40011,0.0234 -0.88523,0.34101 -1.49805,0.84961 -2.73949,2.27363 -2.65408,13.79317 0.12305,16.57031 3.37226,3.37226 4.55571,1.18152 3.76953,-6.97852 -0.76521,-7.9424 -1.19421,-10.51157 -2.39453,-10.4414 z m -17.93164,2.42578 c -0.17035,-0.006 -0.34216,-0.002 -0.51563,0.0117 -1.26158,0.10059 -2.59883,0.73309 -3.92968,1.9375 -2.80367,2.53728 -3.3294,11.0378 -0.83594,13.53125 3.79718,3.79719 12.5065,-3.13115 11.08008,-8.81446 -1.06355,-4.23747 -3.24358,-6.57301 -5.79883,-6.66601 z m -0.0625,5.07617 c 0.6478,0 1.17773,1.1645 1.17773,2.58789 0,2.65312 -1.73776,4.56302 -3.00195,3.29883 -1.04576,-1.04576 0.45433,-5.88672 1.82422,-5.88672 z m -19.2168,0.22266 c -0.16141,-0.0157 -0.33906,-0.0131 -0.53515,0.01 -2.63301,0.49903 -3.88749,6.99793 -2.45313,12.71289 1.44233,5.74668 4.03016,2.55503 4.45313,-5.49414 -0.34492,-2.64499 0.95631,-6.99349 -1.46485,-7.22851 z m -21.96484,5.19922 c -0.87957,-0.0604 -1.98841,0.77939 -2.92578,2.49023 -1.72126,3.21623 -1.74071,5.63406 -0.0801,10.00195 0.78328,2.0602 2.33546,3.41993 3.9043,3.41993 5.52011,-10e-6 10.01934,-8.77719 6.60937,-12.89258 -1.63174,-1.96928 -1.8813,-1.80969 -2.48047,1.57422 -0.36667,2.07081 -1.50852,4.04446 -2.53711,4.38671 -1.46442,0.48727 -1.69972,-0.42832 -1.08398,-4.22265 0.4767,-3.11442 -0.27538,-4.68012 -1.40625,-4.75781 z m 130.38086,0.17187 c -1.8373,-0.005 -3.71893,0.74351 -4.9043,2.11914 -2.63406,2.42095 -3.28839,5.60633 2.66992,8.69141 3.33846,2.18744 5.50126,8.74315 3.54883,10.75781 -0.61961,0.63936 -0.80969,1.98936 -0.42187,3 0.46873,1.22147 -0.28798,1.83789 -2.25782,1.83789 -3.22242,0 -12.54565,9.30675 -14.7539,14.41992 -5.06441,11.72656 -0.96993,20.74391 8.78515,26.92578 4.84854,2.99655 5.10497,3.01787 11.13868,0.85547 3.39634,-1.21721 6.51884,-2.46298 7.86328,-2.45898 4.38801,0.0118 4.1443,3.17698 -1.46289,4.55469 -3.0064,0.73868 -7.7161,2.08327 -8.15625,2.52343 -1.95329,1.9533 3.77018,3.69579 12.30273,4.38672 7.76957,0.62917 14.16335,1.70082 22.75977,0.53516 -0.13791,2.04346 -1.23851,5.07865 0.2539,6.42773 4.01058,3.62543 8.83475,-3.73396 9.48828,-6.83593 0.7641,-4.22402 7.30413,-4.31574 10.58203,-0.14844 2.3185,2.94744 3.07233,3.18369 5.95313,1.87109 2.3913,-1.08952 3.52469,-2.91688 4.12109,-6.64648 1.0832,-6.77418 6.54512,-11.11653 10.41993,-8.28321 5.82999,4.26301 11.89394,-0.23532 7.93554,-5.88672 -1.7609,-2.51202 -1.76118,-3.27835 -0.01,-6.66601 4.5454,-8.78988 1.72329,-25.06047 -5.72461,-33.00195 -7.3528,-7.84005 -16.02546,-12.26306 -27.48438,-13.97657 -13.18736,-1.97197 -29.79179,2.82587 -44.79297,11.38477 0.81437,-5.7449 -2.48685,-7.1944 -3.86328,-8.88281 1.91826,-1.91708 1.11576,-3.64927 0.65235,-5.10938 -1.01154,-1.63222 -2.80529,-2.38963 -4.64258,-2.39453 z m -149.9375,0.28516 c -0.37467,-0.0238 -0.83914,0.083 -1.39649,0.29687 -2.19861,0.84368 -4.02925,10.92705 -2.72851,15.02539 1.48964,4.69341 2.69255,3.18161 4.33203,-5.44531 1.36721,-7.19425 1.41654,-9.77382 -0.20703,-9.87695 z m -38.628913,3.27929 c -0.59996,-0.008 -1.42618,0.39498 -2.53906,1.30274 -3.42749,2.84456 -5.56389,16.33692 -5.52149,34.87305 0.0503,21.95842 1.86562,27.77057 17.84766,57.16406 5.86059,10.77856 10.98442,18.04872 12.51367,21.50586 2.22047,5.01972 3.43788,6.28515 6.04102,6.28515 4.287383,-0.0984 5.789923,-5.23088 9.683593,-5.33203 2.91173,0 3.04197,0.35402 2.19531,6 -1.05283,7.02079 1.60528,7.01126 9.6836,2.89258 7.96081,-4.05866 12.38672,-2.54184 12.38672,2.93555 0,3.07465 5.11529,9.67223 8.38281,8.91211 7.70885,-1.79331 7.79587,2.91402 4.00977,8.22851 -1.68825,2.36972 -1.6657,3.15989 -10.45899,3.69336 -8.8704,0.53813 -1.2791,-0.39209 -5.16211,-3.54101 -1.62069,-1.3143 -3.35977,0.30708 -4.79492,-2.08204 -1.77287,-5.31583 -9.95315,-6.46912 -10.17578,0.9043 -0.12524,4.14805 11.09447,2.9902 9.21484,6.1836 -1.16952,0.73631 -5.82676,5.47119 -5.85742,6.8125 -15.72051,5.41814 -26.294193,19.34391 -35.287113,30.50781 -7.2145,-0.96983 -10.94729,6.91306 -6.94922,8.44726 4.18677,1.60661 1.00396,19.32687 -4.06836,22.65039 -5.9392,3.8915 -5.0157,9.83204 1.5293,9.83204 2.06958,0 3.78597,1.24609 5.04492,3.66601 5.09636,9.79613 13.78262,13.60638 31.675783,13.89453 11.90803,0.19176 13.15039,0.45041 13.15039,2.7207 0,1.37901 1.49583,4.00166 3.32422,5.83008 4.65926,4.65927 8.67578,2.54923 8.67578,-4.55859 0,-2.76086 -0.58379,-5.60333 -1.29687,-6.31641 -0.83978,-0.83978 1.07818,-3.34122 5.4414,-7.09961 6.12505,-5.27599 7.04333,-5.66049 10.13477,-4.25195 2.77651,1.26507 3.83374,1.1569 5.76172,-0.58789 3.51272,-3.17897 4.00649,-6.94557 1.3418,-10.23633 -2.17109,-2.68117 -2.20686,-3.41197 -0.41797,-8.66211 1.07464,-3.1539 2.42681,-5.44186 3.00586,-5.08398 1.30384,0.80581 6.25782,11.12125 9.61328,20.01758 4.17422,11.06708 6.54976,24.69709 6.39062,36.66797 -0.0828,6.23333 -0.1109,11.78203 -0.0625,12.33203 v 0.002 c 0.15145,1.71976 2.34882,1.09411 4.25781,-1.21094 1.33241,-1.60883 1.80553,-6.41152 1.73633,-17.66601 -0.10855,-17.66519 -1.96838,-25.47004 -10.0957,-42.38477 -5.00084,-10.40786 -8.43454,-13.82534 -11.79883,-11.74609 -1.11579,-5.30491 -0.12567,-8.30084 -2.51953,-12.44727 -0.69912,-1.10305 -0.17514,-3.77063 1.36719,-6.96289 1.37506,-2.84604 2.96919,-7.44235 3.54101,-10.21289 0.98268,-4.76104 1.08725,-5.44224 0.24805,-5.63477 0.88943,-0.0652 3.37442,-4.6897 5.41016,-8.29687 0.84816,1.18058 2.21235,1.88121 3.66601,1.88281 2.49592,-3.4e-4 4.51919,-2.02361 4.51953,-4.51953 -3.4e-4,-2.49592 -2.02361,-4.51919 -4.51953,-4.51953 -6.8627,-1.94192 -11.51542,8.89065 -12.30078,7.56445 -1.00159,-1.93252 -3.68135,-5.16713 -5.95508,-7.18945 -4.66528,-4.14945 -4.98431,-5.29328 -2.13476,-7.6582 6.54873,-6.24269 4.14042,-17.37037 -7.14063,-14.33399 -0.95308,-0.0167 -4.00356,1.26347 -4.26172,-1.92773 0.26183,-12.83784 -11.2519,-16.75013 -15.8125,-12.35352 -2.63976,2.63976 -4.78521,1.76971 -5.67968,-2.30273 -1.54097,-6.57514 -10.87495,-5.58169 -16.304693,-2.49024 -1.17004,0.91986 -2.09366,2.78504 -5.82422,-4.80664 -2.82434,-5.74752 -8.53894,-16.79622 -12.69922,-24.55078 -13.18992,-24.58541 -14.96179,-32.23947 -12.91601,-61.66601 0.62777,-9.02994 3.99953,-21.03483 0.75976,-21.07618 z m 17.30078,2.95508 c -0.39831,-0.0429 -0.86793,0.32345 -1.38867,1.16602 -1.36176,2.20338 -2.44472,14.39045 -1.49805,16.85742 1.45972,3.80399 3.07972,0.4395 4.02344,-8.35742 0.61363,-5.71991 0.0582,-9.53719 -1.13672,-9.66602 z m 216.937503,3.47656 c 5.57689,-0.0192 10.91371,0.94009 15.64063,2.92188 3.373,1.41416 8.00617,4.68045 7.99219,5.63477 -0.004,0.2858 -3.45352,0.58335 -7.66602,0.66015 -12.4281,0.22668 -42.29405,9.7587 -39.45898,12.59375 0.67529,0.67531 7.6714,-1.04982 16.48632,-4.0664 19.26372,-6.59236 30.02164,-4.31172 35.30078,-1.56641 10.32663,7.2908 8.25681,16.89228 1.74024,27.67187 -5.00119,5.69602 -22.69009,14.40166 -33.72852,16.59961 -4.4,0.87613 -9.0487,2.14719 -10.33203,2.82422 -5.55914,1.73182 1.18395,-6.33174 1.69922,-7.63086 1.50806,-4.56946 1.32036,-8.40046 -0.73047,-14.89843 -0.88408,-2.8012 -0.55719,-3 4.94141,-3 3.23886,-10e-6 6.5355,0.64683 7.32617,1.4375 2.47566,2.47563 8.88888,0.85644 10.64648,-2.6875 2.5243,-5.08993 0.06,-8.49695 -5.31054,-7.34571 -2.33235,0.49997 -5.83984,2.64771 -6.5625,3.07813 -0.72267,0.43042 -10.56594,-1.05378 -14.78906,-1.14258 -3.58104,-3.79416 -7.69652,-8.68613 -13.54688,-10.5293 -8.34756,-3.92381 -7.88811,-6.54112 2.19141,-12.5039 8.90546,-5.26825 18.86535,-8.01879 28.16015,-8.05079 z m -112.10742,1.74415 c -1.45065,0 -1.66879,1.13893 -0.94922,4.9746 0.51338,2.73651 1.50127,6.03717 2.19531,7.33399 2.17041,4.05546 3.83594,2.59092 3.83594,-3.375 0,-5.86829 -1.74385,-8.93361 -5.08203,-8.93359 z m -16.00586,3.38867 c -4.26838,-0.0556 -7.63113,2.29986 -8.00586,5.82422 -0.27331,2.79637 0.42114,5.30768 1.92969,6.97461 3.39545,3.75193 8.64197,2.76745 10.19141,-1.91211 1.47906,-4.46699 0.3855,-9.70486 -2.23633,-10.71094 -0.64065,-0.10995 -1.26914,-0.16784 -1.87891,-0.17578 z m -1.85351,2.50781 c 0.0881,0.0103 0.17891,0.0451 0.27343,0.10352 0.73333,0.45321 1.33399,1.98872 1.33399,3.4121 0,1.42339 -0.60066,2.5879 -1.33399,2.5879 -0.73334,0 -1.33203,-1.5355 -1.33203,-3.41211 0,-1.69326 0.44152,-2.76364 1.0586,-2.69141 z m -20.70118,3.65625 c -1.1818,-0.0548 -2.54342,0.32182 -4.03711,1.15625 -4.46991,2.49702 -5.77207,10.31582 -2.29687,13.79102 5.05294,5.0529 11.89173,-0.26526 11.06641,-8.60547 -0.39725,-4.01431 -2.13247,-6.22128 -4.73243,-6.3418 z m 84.76953,2.44727 c -3.14458,-10e-6 -4.62257,3.3943 -2.56054,5.8789 1.57342,1.89587 6.21366,1.42632 7.56836,-0.76562 1.12989,-1.82818 -2.08785,-5.11328 -5.00782,-5.11328 z m -86.46093,1.33203 c 0.73333,0 1.33398,1.8 1.33398,4 0,2.2 -0.60065,4 -1.33398,4 -0.73333,0 -1.33399,-1.8 -1.33399,-4 0,-2.2 0.60066,-4 1.33399,-4 z m -20.04297,2.85547 c -0.35688,0.009 -0.75723,0.14945 -1.20117,0.42382 -2.32485,1.43684 -1.62262,6.77317 1.39648,10.61133 3.34742,4.25556 4.57748,3.66209 3.0957,-1.49414 -0.58934,-2.05081 -1.17943,-4.79696 -1.3125,-6.10351 -0.23496,-2.30747 -0.90787,-3.46563 -1.97851,-3.4375 z m 127.12109,3.48437 c 2.05483,1.64709 4.33126,2.63669 6.96875,1.21875 4.10047,-0.12323 12.71076,6.82091 13.59766,10.46484 -0.81226,1.84074 -0.17234,5.79879 2.43164,6.35938 4.1537,5.09449 2.80116,10.76241 -0.0762,16.74219 l -3.51367,-3.89453 c -4.13634,-4.58692 -6.752,-4.79764 -15.9961,-1.28516 -4.88468,1.85604 -7.56838,2.2379 -9.2793,1.32226 -13.05452,-10.00941 -4.90143,-24.73919 1.5293,-28.29101 z m -151.70703,0.33789 c -1.14914,-0.0586 -2.11066,0.3629 -2.70117,1.31836 -0.45129,0.73022 0.72687,2.03234 2.61914,2.89453 5.2772,2.40445 6.45575,11.77733 1.48047,11.77735 -1.21417,0 -2.32695,-1.83384 -2.8711,-4.73438 -0.63703,-3.39569 -1.50013,-4.61516 -3.05859,-4.31836 -2.993863,0.57018 -3.487393,5.86651 -0.91211,9.79688 1.56048,2.3816 3.33417,3.25585 6.60547,3.25586 5.12162,0 6.75909,-1.57863 7.90234,-7.61719 0.64051,-3.38315 0.0948,-5.13221 -2.59765,-8.33203 -2.11433,-2.51275 -4.55156,-3.94336 -6.4668,-4.04102 z m -17.392583,3.41406 c -0.82206,0.0353 -1.63356,0.44955 -2.46679,0.99414 -5.86912,3.85848 -7.53512,12.73212 -3.33985,17.78711 2.48604,2.9955 7.24034,2.14476 8.94727,-1.60156 2.24472,-4.92663 1.92221,-13.37272 -0.60742,-15.90234 -0.87853,-0.96906 -1.71115,-1.31266 -2.53321,-1.27735 z m 167.691413,2.34961 c -3.18742,-0.01 -4.57175,2.94378 -4.11719,5.75 0.81639,5.03999 7.39392,4.47789 8.58985,-0.28711 1.00271,-3.9951 -1.01931,-5.4522 -4.47266,-5.46289 z m -62.65625,0.89258 c -1.54946,0 -1.81885,0.97215 -1.17188,4.20703 0.46268,2.31344 1.51131,5.01344 2.33008,6 1.79284,2.16023 5.16211,2.37424 5.16211,0.32813 0,-3.17145 -4.41814,-10.53516 -6.32031,-10.53516 z m -17.10156,2.7168 c -2.54194,0.13205 -4.58191,2.68214 -4.54883,7.21679 0.0311,4.26627 3.24179,9.29418 6.63672,10.39258 6.33252,2.04881 8.66511,-5.69725 4.01367,-13.32617 -1.84496,-3.02595 -4.1245,-4.38591 -6.10156,-4.2832 z m -89.638683,1.84765 c 0.61708,-0.0722 1.06055,0.99815 1.06055,2.69141 0,1.87661 -0.60065,3.41016 -1.33398,3.41016 -0.73334,0 -1.33399,-1.1645 -1.33399,-2.58789 0,-1.42338 0.60065,-2.95889 1.33399,-3.41211 0.0945,-0.0584 0.18529,-0.0913 0.27343,-0.10157 z m 179.537113,2.5586 c -3.21686,0.10132 -3.97966,3.69701 -2.47656,5.54492 2.0532,2.47394 6.63086,1.36199 6.63086,-1.29688 0,-2.15931 -2.15003,-4.30385 -4.1543,-4.24804 z m -87.88867,3.54297 c 0.77661,0 1.41211,0.60065 1.41211,1.33398 0,0.73333 -0.2645,1.33398 -0.58789,1.33399 -0.32339,0 -0.95888,-0.60066 -1.41211,-1.33399 -0.45322,-0.73333 -0.18873,-1.33398 0.58789,-1.33398 z m -24.125,2.66797 c -1.35543,0 -2.46289,0.32934 -2.46289,0.73242 0,1.51588 4.42915,9.30439 5.78906,10.17968 2.80553,1.80577 3.28294,-0.36476 1.23047,-5.58984 -1.38844,-3.53461 -2.92032,-5.32227 -4.55664,-5.32226 z m -19.80664,1.81054 c -1.34497,0.12529 -1.54239,1.46515 -2.03711,2.26563 -1.27727,2.06665 0.25871,6.98739 3.44727,11.04101 1.53583,1.95248 3.64854,3.54883 4.69531,3.54883 2.39715,0 2.3862,-0.73223 -0.0859,-5.12695 -1.09497,-1.94648 -2.58057,-5.19037 -3.30078,-7.20703 -0.82858,-2.75784 0.10616,-3.40986 -2.0664,-4.4961 -0.24315,-0.0368 -0.46021,-0.0433 -0.65235,-0.0254 z m -21.67187,7.75 c -0.22612,-0.0218 -0.4391,-0.0146 -0.63672,0.0234 -4.72196,0.90936 -4.29511,14.49494 0.56836,18.08203 1.24284,0.91667 3.01141,1.66602 3.92969,1.66602 2.37817,0 5.82031,-5.36041 5.82031,-9.06446 0,-3.63979 -6.28995,-10.38054 -9.68164,-10.70703 z m 90.18554,2.44141 c -0.33397,0.004 -0.69153,0.11633 -1.07812,0.35937 -0.87421,0.87422 -0.19052,4.53329 0.87695,7.36133 2.20085,5.83072 5.67265,5.81827 4.50586,-0.0156 -0.84949,-2.48034 -1.96685,-7.73316 -4.30469,-7.70508 z m -88.76562,4.05664 c 0.99448,0.0955 2.87556,2.67665 2.9082,4.27344 0.0112,0.55 -0.51505,1 -1.16992,1 -1.47876,0 -3.1519,-4.10006 -2.10156,-5.15039 0.0979,-0.0979 0.22121,-0.1367 0.36328,-0.12305 z m -22.146493,0.14062 c -0.23671,0.002 -0.49498,0.0241 -0.77734,0.0645 -3.21068,0.4583 -3.20895,2.57915 0.008,11.40234 2.56061,7.02433 6.68717,8.07151 5.25782,1.33399 -0.50561,-2.38334 -1.26411,-6.31537 -1.68555,-8.73633 -0.53811,-3.09124 -1.14577,-4.08104 -2.80274,-4.06446 z m 94.509773,4.25782 c -0.57459,0.004 -1.18902,0.10028 -1.87891,0.27343 -2.33662,0.58645 -3.55664,1.78674 -3.55664,3.50196 0,3.00068 2.38397,7.96521 4.53321,9.4414 2.85025,1.95767 6.74808,0.32193 8.04297,-3.375 1.10298,-3.14911 0.79299,-4.20309 -2.08399,-7.08008 -1.96801,-1.96802 -3.33286,-2.77427 -5.05664,-2.76171 z m 56.91797,1.77734 c -2.50755,-0.0943 -4.0748,2.70209 -3.1211,6.50195 0.6518,2.59696 1.58344,3.33287 3.81446,3.01563 4.02699,-0.57263 4.86746,-6.99197 1.17383,-8.96875 -0.65932,-0.35286 -1.28853,-0.52706 -1.86719,-0.54883 z m -77.94141,0.44922 c -3.21882,-0.0335 -3.08674,2.69271 0.38281,7.93555 3.58429,5.41618 7.20508,7.10556 7.20508,3.36132 0,-2.83365 -5.67139,-11.27697 -7.58789,-11.29687 z m -19.75586,6.88867 c -0.10255,10e-4 -0.20125,0.0109 -0.29297,0.0293 -3.82702,0.76956 -3.14069,12.66895 0.91993,15.95703 4.7285,3.82892 10.64816,1.23344 10.69726,-4.69141 0.0273,-3.30231 -8.1452,-11.33281 -11.32422,-11.29492 z m 116.01172,2.42774 c -2.0821,0 -2.64552,1.57715 -1.11133,3.11132 1.53417,1.53419 3.11133,0.97076 3.11133,-1.11132 0,-1.10001 -0.9,-2 -2,-2 z m -114.7207,2.66601 c 1.32523,0 4.7207,4.38437 4.7207,6.0957 0,2.52299 -2.58175,2.44969 -3.37695,-0.0957 -0.34365,-1.1 -0.9044,-2.9 -1.24805,-4 -0.34361,-1.1 -0.38698,-2 -0.0957,-2 z m 131.98047,4 c -5.04735,0 -7.04078,3.42799 -4.6211,7.94922 2.05368,3.83732 7.44866,3.50627 10.1543,-0.62305 2.86015,-4.36514 0.6239,-7.32617 -5.5332,-7.32617 z m -64.59375,1.33399 c -0.73333,0 -1.33399,0.59869 -1.33399,1.33203 0,0.73333 0.60066,1.33398 1.33399,1.33398 0.73333,0 1.33398,-0.60065 1.33398,-1.33398 0,-0.73334 -0.60065,-1.33203 -1.33398,-1.33203 z m -85.28907,1.33203 c -2.4208,0 -2.65535,2.47428 -0.68359,7.19336 2.01088,4.81271 5.97266,6.63177 5.97266,2.74218 0,-2.82436 -3.78535,-9.93554 -5.28907,-9.93554 z m 71.72266,0.51953 c -0.67115,-0.0142 -1.36947,0.24396 -2.26758,0.72461 -4.4119,2.36117 -3.30341,13.06199 1.69922,16.40234 7.00556,4.67773 10.97642,-8.07634 4.52344,-14.5293 -1.79014,-1.79014 -2.83649,-2.57394 -3.95508,-2.59765 z m -94.9414,3.61523 c -2.58379,0.15976 -4.30457,3.0221 -2.30079,7.41992 1.29067,2.83272 2.13324,3.23725 5.17188,2.47461 4.97772,-1.24933 5.18724,-1.66639 2.89062,-5.77148 -1.52024,-2.71736 -3.51524,-3.9874 -5.23437,-4.11914 -0.17908,-0.0137 -0.35509,-0.0145 -0.52734,-0.004 z m 95.71093,3.16992 c 0.27719,-0.0542 0.6139,0.12023 0.9336,0.57618 0.49492,0.70585 1.19726,1.87582 1.19726,2.19921 0.13682,0.83646 -0.49714,1.16993 -1.23047,1.16993 -0.73333,0 -1.28841,-1.23197 -1.4375,-1.99414 -0.2216,-1.1329 0.0751,-1.86082 0.53711,-1.95118 z m -22.19531,3.36329 c -2.91567,-10e-6 -2.97917,2.91991 -0.18945,8.79882 1.38604,2.92086 3.09697,4.53321 4.80859,4.53321 2.02534,0 2.41936,-0.55367 1.65234,-2.33203 -0.5535,-1.28334 -1.66437,-4.28464 -2.46875,-6.66797 -0.9071,-2.68762 -2.35116,-4.33203 -3.80273,-4.33203 z m -17.28906,5.9082 c -2.10019,0.0509 -3.81053,1.06892 -4.06055,3.27539 -0.22466,2.14786 1.47324,7.6519 2.69531,9.7207 2.96058,5.01186 6.03003,4.74645 9.00586,-0.77929 2.33042,-4.32736 2.33555,-4.70741 0.12696,-8.07813 -1.72138,-2.66943 -5.06734,-4.20414 -7.76758,-4.13867 z m 1.0625,4.76367 c 0.75609,-0.0812 1.86004,0.67249 2.36718,1.99414 0.42213,1.1 0.28731,2 -0.30078,2 -1.38959,0 -2.84765,-1.47865 -2.84765,-2.88867 0,-0.70709 0.32759,-1.05676 0.78125,-1.10547 z m -17.54102,1.39063 c -1.10676,0.086 -2.23042,0.72073 -3.24023,1.9375 -1.38595,1.66998 -1.19721,2 1.14453,2 1.95813,-10e-6 3.06972,1.10593 3.68164,3.66601 0.48203,2.01667 1.19748,4.23116 1.5918,4.91992 1.75788,3.07055 3.20796,-4.65891 1.60156,-8.53711 -1.13855,-2.7487 -2.9347,-4.12959 -4.7793,-3.98632 z m 85.7793,4.12109 c -0.22724,0.0251 -0.43182,0.11737 -0.60156,0.28711 -0.46807,0.46807 -0.16681,2.35302 0.66992,4.18945 1.78962,3.92776 4.24609,4.41146 4.24609,0.83594 0,-2.40301 -2.7238,-5.48848 -4.31445,-5.3125 z m -20.52344,2.48242 c -2.25508,0 -2.39574,5.29754 -0.26562,9.97266 1.29574,2.84382 4.0471,4.2373 3.9375,1.99414 -0.27848,-5.70044 -2.20078,-11.9668 -3.67188,-11.9668 z m -16.89062,7.5 c -0.11658,-0.009 -0.2347,-0.009 -0.35352,0.002 -0.63373,0.0574 -1.2915,0.40897 -1.89062,1.13086 -1.77006,2.1328 -0.90251,8.04164 1.6289,11.0918 1.97825,2.38366 6.88343,1.46521 7.42774,-1.39062 0.30885,-1.6205 -0.40819,-2.33399 -2.34571,-2.33399 -2.25376,0 -2.64004,-0.59615 -2.01172,-3.09961 0.7278,-2.89979 -0.70641,-5.25879 -2.45507,-5.40039 z m -14.92383,4.98438 c -0.10321,-0.0135 -0.20433,-0.012 -0.30469,0.004 -0.37054,0.0583 -0.71813,0.31851 -1.02344,0.8125 -1.26467,2.04628 0.57481,9.61708 3.00782,12.375 2.86407,3.24655 3.43909,2.0887 2.40039,-4.83789 -0.70805,-4.72153 -2.53192,-8.15154 -4.08008,-8.35351 z m 75.3789,3.79882 c -0.0401,0.007 -0.0605,0.025 -0.0605,0.0547 0,0.53061 4.33821,9.03143 5.79297,11.35156 1.35399,2.15944 3.55334,0.83756 3.49804,-2.10156 -0.0548,-2.91266 -2.51294,-6.07148 -6.29101,-8.08398 -1.44375,-0.76906 -2.6585,-1.26727 -2.93946,-1.22071 z m -89.15625,4.45899 c -1.00039,-0.12432 -1.35733,0.94489 -1.30273,3.66797 0.0469,2.34104 0.37614,4.76439 0.73242,5.38476 0.35626,0.62038 1.53835,0.23704 2.62695,-0.85156 2.24135,-2.24132 1.31276,-6.96308 -1.58789,-8.07617 -0.1698,-0.0652 -0.32583,-0.10724 -0.46875,-0.125 z m 75.77149,1.84375 c -1.54009,0.0609 -3.12079,0.71649 -4.53125,2.12695 -2.32703,2.32703 -1.01971,7.46297 2.93555,11.53711 3.451,3.55474 7.30251,2.43254 8.72265,-2.54101 1.75412,-6.14324 -2.5067,-11.30582 -7.12695,-11.12305 z m 0.98242,5.49609 c 0.29238,0.0569 0.67294,0.56397 1.08984,1.65039 0.44596,1.16212 0.58174,3.19727 0.30274,4.52344 -0.37397,1.77767 -0.76977,1.40713 -1.50977,-1.41211 -0.7443,-2.83563 -0.52603,-4.8868 0.11719,-4.76172 z m -23.42578,1.25196 c -1.4207,-10e-6 -1.68763,1.05989 -1.05859,4.20507 0.46268,2.31343 1.50626,5.00785 2.31836,5.98633 2.0772,2.50291 3.84179,0.96963 3.84179,-3.33789 0,-3.99578 -2.12861,-6.85353 -5.10156,-6.85351 z m -83.58594,6.13476 c 9.24017,0.10291 17.71961,5.7752 16.15821,11.74609 -0.38078,1.45601 -0.0285,3.44768 0.7832,4.42579 1.08173,1.30342 1.0525,3.19034 -0.10938,7.06836 -1.28898,4.30223 -2.19837,5.29101 -4.86523,5.29101 -3.87316,0 -4.00303,0.80875 -1.07227,6.68359 3.84932,7.71616 2.03891,20.70088 -4.28906,30.76172 -4.44019,7.05945 -14.54959,15.39887 -21.56445,17.78907 -6.73608,2.29521 -21.070693,2.84384 -22.300783,0.85351 -2.0266,-3.27912 4.630173,-21.65839 11.468753,-31.66211 5.38055,-10.10215 13.54579,-17.61296 18.8789,-24.23437 2.00271,-2.4865 2.73718,-3.59845 3.01172,-4.08789 -0.0995,0.41554 0.0408,1.00209 1.5918,0.76562 12.68401,-1.93388 15.69649,-1.45749 15.61133,-4.5957 -3.7871,-4.7908 -11.28345,0.0342 -19.03516,-1.02735 l -1.51563,-11.05078 c 0.39138,-6.01541 -1.96884,-7.51266 3.26758,-8.41406 1.32405,-0.22792 2.66045,-0.3272 3.98047,-0.3125 z m 64.76563,3.19727 c -2.75135,0 -2.87277,3.01751 -0.22071,5.48828 1.54466,1.43908 2.8086,3.19368 2.8086,3.89843 0,0.70479 0.9,1.28125 2,1.28126 1.11111,-10e-6 2,-1.18649 2,-2.66797 0,-2.73214 -4.33797,-8 -6.58789,-8 z m -80.64844,2.66797 c 2.68557,5.86282 0.94578,15.67633 4.6543,16.84374 -4.31556,3.93526 -7.09809,9.0336 -12.74024,15.82227 -9.25389,13.03607 -15.413413,23.76838 -20.154303,41.22461 -1.16982,3.04857 -2.51583,2.62934 -6.40624,-1.99414 -4.84488,-5.7578 -5.46086,-9.5793 -3.60938,-22.38477 1.89413,-13.10052 4.43966,-18.63409 13.12891,-28.54687 5.757403,-6.56809 23.012383,-20.96485 25.126953,-20.96484 z m 63.24805,0.78124 c -1.01238,-0.0552 -2.00856,0.1763 -2.86524,0.74024 -1.47597,0.97161 -1.37873,1.44959 0.51953,2.56836 1.28333,0.75635 2.33399,2.33839 2.33399,3.51562 0,1.84873 -0.37775,1.79968 -2.76563,-0.36132 -1.10009,-4.24609 -8.66621,-5.18648 -4.34375,3.69531 2.64066,5.42602 8.95676,4.8831 11.9336,0.33984 1.72402,-2.63121 1.90526,-4.07975 0.81054,-6.48242 -1.08805,-2.38802 -3.39581,-3.89425 -5.62304,-4.01563 z m 90.91992,1.93946 c -1.83829,0.001 -1.62897,2.46477 0.45898,8.60742 2.55106,7.50513 4.0719,8.95475 5.49805,5.23828 1.13329,-2.95329 -1.96945,-12.5539 -4.35352,-13.46875 -0.64435,-0.24726 -1.17929,-0.37722 -1.60351,-0.37695 z m -15.60547,6.88867 c -0.78552,0.0501 -1.6347,0.34766 -2.75781,0.85937 -2.95101,1.34457 -3.36655,2.17412 -2.61524,5.23047 0.49121,1.99827 1.76674,4.98282 2.83399,6.63282 2.46796,3.81558 7.93747,3.96257 9.91601,0.26562 2.16414,-4.04373 1.09256,-7.98665 -2.99804,-11.0293 -1.93596,-1.44 -3.06972,-2.04249 -4.37891,-1.95898 z m 0.59961,5.11719 c 1.16097,0.0155 2.74023,1.72529 2.74023,3.35156 0,1.05672 -0.53458,1.92186 -1.18945,1.92188 -1.35159,0 -3.19364,-4.06223 -2.26367,-4.99219 0.19868,-0.19869 0.44497,-0.28484 0.71289,-0.28125 z m -19.56641,1.33984 c -1.8215,-0.0698 -1.89016,1.96134 -0.36133,6.59375 0.96929,2.93697 2.28487,5.33983 2.92383,5.33985 3.47604,0 2.57827,-10.17407 -1.01953,-11.55469 -0.60885,-0.23364 -1.12262,-0.36279 -1.54297,-0.37891 z m -19,4.88281 c -1.16553,-0.059 -2.25913,0.55236 -3.18554,1.875 -2.03339,2.90308 -1.19981,7.5293 2.0664,11.46485 0.78072,0.94069 3.14566,1.71093 5.25586,1.71094 4.48999,0 5.08582,-3.05409 1.82422,-9.36133 -1.87839,-3.6324 -4.01838,-5.59108 -5.96094,-5.68946 z m -46.9082,1.78711 c -0.72061,0.0438 -1.03749,1.25422 -0.33984,3.07227 0.46238,1.20496 1.37637,2.19139 2.03125,2.19141 1.51978,-10e-6 1.48697,-1.46779 -0.0899,-3.96094 -0.59061,-0.9339 -1.16919,-1.329 -1.60156,-1.30274 z m 48.64453,5.53516 c 0.27485,0.0348 0.67007,0.29506 1.14844,0.77344 0.8678,0.86779 1.26756,1.88674 0.88867,2.26562 -0.88986,0.88985 -2.4668,-0.68708 -2.4668,-2.4668 0,-0.41773 0.15484,-0.6071 0.42969,-0.57226 z m -21.42969,2.4082 c -2.36691,-0.0186 -2.0727,2.81803 1.04688,10.09571 1.70017,3.96632 3.18271,5.86025 3.9707,5.07226 1.66685,-1.66685 -2.79354,-15.15047 -5.01758,-15.16797 z m 83.69336,1.42188 c -0.4329,0.0109 -0.90464,0.24663 -1.40429,0.74804 -1.26052,1.26494 -2.72679,13.90071 -1.78907,15.41797 1.06252,1.7192 4.22298,-0.39658 5.01758,-3.35937 1.71288,-6.38668 0.51344,-12.86574 -1.82422,-12.80664 z m -19.10547,5.67578 c -0.39817,0.0226 -0.70761,0.0915 -0.89453,0.20703 -2.21861,1.37118 -1.61948,12.23012 0.8086,14.6582 3.23016,3.23016 8.86577,2.07218 10.33203,-2.12304 2.00341,-5.73213 0.10104,-10.11385 -5.14063,-11.84375 -1.91448,-0.63185 -3.91093,-0.96637 -5.10547,-0.89844 z m -80.93945,0.88867 c -2.0228,0 -1.56366,3.83331 0.97266,8.12695 2.2184,3.75545 4.3789,5.08988 4.3789,2.70313 0,-2.51556 -4.10853,-10.83008 -5.35156,-10.83008 z m 65.8125,4 c -2.09609,0 -2.3923,2.14031 -0.46094,3.33399 0.73333,0.45321 1.33399,2.62421 1.33399,4.82421 0,2.32715 -0.55827,3.65519 -1.33399,3.17579 -0.73333,-0.45326 -1.33203,-2.33392 -1.33203,-4.17774 0,-2.48651 -0.60332,-3.22862 -2.33398,-2.87305 -2.74544,0.56407 -2.94578,7.90323 -0.30274,11.08789 1.96763,2.37084 6.83197,2.56648 9.03516,0.36329 3.89896,-3.89896 0.43509,-15.73438 -4.60547,-15.73438 z m 19.53906,0 c 0.73333,0 1.33399,1.19936 1.33399,2.66602 0,1.46667 -0.60066,2.66795 -1.33399,2.66797 -0.73333,0 -1.33203,-1.2013 -1.33203,-2.66797 0,-1.46666 0.5987,-2.66602 1.33203,-2.66602 z m -38.85937,8 c -1.97522,0 -2.52706,0.60392 -1.94336,2.125 0.44826,1.16814 1.1631,3.71749 1.58789,5.66602 0.42479,1.94855 1.00276,4.29231 1.28516,5.20898 0.2824,0.91666 1.15032,1.66602 1.92968,1.66602 2.39707,0 2.91382,-3.46414 1.3711,-9.19336 -1.12275,-4.16956 -2.1294,-5.47266 -4.23047,-5.47266 z m -16.40625,8.05859 c -1.60706,-0.0452 -3.34583,0.49077 -5.06641,1.79688 -2.89226,2.19554 -3.02353,8.56701 -0.25781,12.51562 1.15897,1.65467 3.48099,2.96289 5.25781,2.9629 1.77683,-10e-6 4.09883,-1.30823 5.25781,-2.9629 4.5932,-6.5577 0.54811,-14.15124 -5.1914,-14.3125 z m 74.84961,0.0273 c -1.4387,0.0945 -3.17051,5.16393 -3.32031,7.59375 -0.31091,5.39052 0.0388,6.98633 1.52539,6.98633 2.4754,0 3.54492,-2.87865 3.54492,-9.53907 -0.32289,-3.77477 -0.9964,-5.09049 -1.75,-5.04101 z m -75.6836,4.00586 c 1.2635,-0.0701 2.76758,1.80451 2.76758,3.9082 0,3.98082 -2.50168,4.45906 -3.45508,0.66016 -0.47631,-1.89748 -0.5329,-3.7835 -0.12695,-4.18946 0.24455,-0.24455 0.52288,-0.36273 0.81445,-0.3789 z m 65.48438,0.82226 c -0.69882,-0.0367 -1.48787,0.0589 -2.36328,0.29297 -3.88567,1.03919 -6.2451,6.58686 -5.01367,11.79297 0.48786,2.06253 1.69346,3 3.85546,3 3.83988,0 5.85588,-2.25598 6.9629,-7.79101 0.90093,-4.50478 -0.4132,-7.13589 -3.44141,-7.29493 z m -85.02344,0.5293 c -2.34999,-0.14024 -2.01215,0.90581 0.97266,3.89063 2.66725,2.66723 3.72201,9.33203 1.47656,9.33203 -1.44434,0 -2.81055,-3.29184 -2.81055,-6.77539 0,-2.9661 -3.36627,-3.46309 -4.44336,-0.65625 -1.11708,2.91106 1.59981,11.19572 4.16211,12.68945 1.25446,0.73132 2.68793,1.34684 3.18555,1.36914 1.91546,0.0858 4.91811,-4.11336 5.79492,-8.10547 1.08692,-4.94872 -2.60741,-10.93564 -7.16601,-11.61328 -0.44552,-0.0662 -0.83617,-0.11083 -1.17188,-0.13086 z m 64.92188,5.22266 c -2.97756,0 -3.16715,1.29706 -1.21289,8.33398 1.31852,4.74777 4.16355,6.5265 5.9121,3.69727 0.44277,-0.71641 0.15381,-3.71577 -0.64062,-6.66602 -1.06338,-3.94914 -2.13319,-5.36523 -4.05859,-5.36523 z m -17.17579,5.33398 c -5.01976,0 -8.86687,10.70733 -5.17382,14.40039 0.88,0.88 2.95683,1.59961 4.61523,1.59961 2.38906,0 3.31254,-1.10684 4.44922,-5.32812 1.66733,-6.19202 0.0349,-10.67188 -3.89063,-10.67188 z m -22.93164,12.08984 c -1.2131,0.0627 -1.25478,0.76907 -0.71289,2.79297 0.45902,1.71443 0.84282,5.06784 0.85352,7.45118 0.025,5.96109 3.62062,5.80853 4.74805,-0.20118 1.24581,-6.64072 0.33509,-9.40503 -3.26368,-9.91601 -0.68662,-0.0975 -1.22063,-0.14785 -1.625,-0.12696 z m -18.90039,5.72071 c -1.18392,0.095 -2.45371,1.04561 -3.60742,2.18945 -3.0526,3.0526 -3.57317,10.58715 -1.01367,14.68555 5.23339,8.37997 11.73253,-3.35918 7.71289,-13.93164 -0.80981,-2.27764 -1.90787,-3.03833 -3.0918,-2.94336 z" fill="#000000" transform="translate(296.45541,96.413055) matrix(0.69863727,0,0,0.69863727,-339.24125,-374.28702)"/>
</svg>