<?xml version="1.0" ?><svg xmlns="http://www.w3.org/2000/svg" width="324.63806mm" height="381.71106mm" viewBox="0 0 324.63806 381.71106">
    <path d="m 1398.7422,-617.625 -33.1699,14.39258 9.7382,17.71094 -21.1972,9.38867 -3.3945,-4.80469 -40.2969,-7.61914 -11.0059,62.76758 15.0781,1.99023 7.8829,18.04883 -13.5352,3.07617 0.7812,18.87695 -68.1386,32.03907 11.5039,31.38086 54.6816,-19.5 -10.6777,113.78125 -31.1602,5.73047 14.3184,62.17578 100.4453,-21.12696 8.2207,20.00196 29.1719,-8.52344 -3.3281,-20.00195 13.6464,-5.34766 3.2168,23.59961 45.3887,6.61523 16.4238,-94.36523 -16.0605,-2.57227 -3.3496,-3.96093 -37.1914,-5.82813 -0.7364,13.70899 -38.5546,9.38867 -23.9903,-97.5586 57.8086,-5.83007 -20.6621,32.06445 25.2188,16.94531 30.4589,-43.98047 -11.1914,-7.88086 30.0215,-2.49218 -6.3672,-38.2754 -11.459,-19.04101 -19.3886,21.56836 -10.9453,-19.4375 -16.2168,21.42773 -10.3418,-17.48828 -16.5508,20.48438 -14.0723,-13.02735 -3.1269,14.59571 -8.4883,0.60351 -0.3223,-5.38672 2.793,-28.34375 21.957,10.93555 4.6465,-26.67578 27.6758,13.86914 0.092,-29.84766 18.7812,14.58985 -3.9296,-22.6543 -22.1368,-50.11523 -11.5468,6.49218 z m 140.7441,16.60156 c -5.6974,0.0796 -11.4883,0.90856 -13.7929,2.69727 -4.6091,3.57741 -5.9023,4.95963 -11.1211,5.94726 -5.2188,0.98763 -2.8289,2.17417 -7.0235,6.69532 -4.1945,4.52115 -11.1448,3.5776 -12.291,9.89843 -1.1462,6.32083 1.4143,9.61296 -1,13.98047 -2.4147,4.36751 -4.5858,7.50424 0.023,12.85938 3.6358,4.22429 6.3164,5.00527 12.3692,7.0039 -0.303,9.4789 2.2641,18.0791 6.7793,23.79688 14.7788,16.12089 33.465,13.20221 49.5195,6.62891 4.061,1.57793 7.7424,2.67401 8.4199,3.17382 1.4876,1.09737 -15.4863,13.89258 -15.4863,13.89258 0,0 -17.3133,-3.556 -20.6543,-1.73437 -3.341,1.82163 -2.4629,6.80468 -2.4629,6.80468 0,0 -11.9997,6.05619 -10,8.20703 1.9997,2.15084 16.1934,5.28957 17.0469,5.35547 0.8536,0.0659 8.9746,5.97071 8.9746,5.97071 0,0 1.5164,-0.45603 1.6172,-0.48633 3.7378,7.71356 9.3876,19.02881 16.7812,31.4668 10.9916,18.49063 4.6511,19.93602 -5.957,43.34765 -10.6082,23.41163 -3.5104,29.11183 16.8985,38.57227 20.409,9.46044 41.3151,-0.2387 60.8652,-30.01367 19.5501,-29.77497 -4.9974,-69.64357 -15.1699,-86.20508 -6.0987,-9.92909 -17.088,-18.75934 -27.9258,-23.74024 -0.549,-1.511 -1.4336,-3.99804 -1.4336,-3.99804 l -5.6563,-7.87891 c 0,0 -2.1965,-7.54931 -0.6601,-9.65625 1.5364,-2.10695 9.5608,-6.95793 10.6582,-11.54492 1.0974,-4.58699 2.2436,-7.74684 6.0723,-13.45313 3.8287,-5.7063 -1.1225,-9.92131 -2.3418,-12.81836 -1.2194,-2.89705 3.2677,-7.94475 2.5605,-13.80468 -0.7072,-5.85993 -7.9258,-9.72099 -10.6328,-11.65235 -2.7069,-1.93136 -5.9985,-11.63391 -9.9004,-13.43359 -3.9019,-1.79968 -6.3897,-0.0201 -9.877,0.28711 -3.4874,0.30726 -11.608,-7.24438 -14.7539,-4.91797 -3.1459,2.32642 -3.3656,2.96303 -7.2187,0.54883 -1.9266,-1.2071 -7.5292,-1.87644 -13.2266,-1.79688 z m -186.2812,200.92383 15.9765,58.71094 -25.3261,6.33398 z m 95.9336,155.12109 c 0,0 -27.7638,7.40955 -38.9239,11.78907 -8.6163,3.38125 1.1524,10.27929 1.1524,10.27929 l -137.3086,1.96094 -6.6074,31.07227 3.455,8.92578 194.209,-5.48438 -3.1797,-22.40625 102.2422,25.60742 36.795,-20.60351 z m -58.7344,74.56446 -10.6699,32.66211 155.2422,5.92968 -10.7442,-35.21093 z" fill="#FFFFFF" paint-order="markers stroke fill" transform="translate(23.586144,81.623326) matrix(0.77297748,0,0,0.77297748,-981.8449,398.05205)"/>
    <path d="m 1516.3487,-128.05554 c -4.4,-0.599 -36.5,-1.6365 -71.3334,-2.3057 -34.8333,-0.6691 -64.3833,-1.6548 -65.6667,-2.1907 -3.8717,-1.6165 -3.4954,-6.4246 1.8175,-23.2168 6.0523,-19.1294 4.6977,-17.9137 18.9801,-17.0349 47.483,2.9217 74.2511,3.7445 98.315,3.0221 25.392,-0.7622 27.6092,-0.6434 29.6282,1.5875 2.3193,2.5628 11.5926,29.7233 11.5926,33.9535 0,1.3796 -0.6211,3.6689 -1.3802,5.0873 -1.5272,2.8536 -7.0345,3.1289 -21.9531,1.0977 z m 12.6463,-8.852 c -0.07,-3.4436 -3.7331,-4.5653 -22.7352,-6.9625 -11.3178,-1.4277 -24.1711,-1.48434 -27.1044,-1.75734 -2.9333,-0.2732 0.7885,-1.93266 6.8122,-2.05596 6.0237,-0.124 16.9874,0.4621 24.3638,1.3009 7.3764,0.8388 13.712,1.2247 14.0792,0.8575 1.8413,-1.8414 -1.5147,-4.8552 -6.4775,-5.8172 -3.0714,-0.5954 -27.7844,-1.2103 -54.9177,-1.3664 -45.595,-0.2624 -50.0912,-0.4967 -59.3334,-3.0908 -9.5814,-2.6894 -6.1777,-3.6938 0.8487,-2.7376 4.0333,0.5489 26.9179,1.9773 55.1513,2.039 31.754,0.069 53.4947,0.6579 57,1.543 6.1434,1.551 6.6648,0.9078 4.8263,-5.9526 l -0.8039,-3 -44.8445,-0.041 c -30.6453,-0.028 -49.9107,-0.6528 -60.8446,-1.9721 -24.529,-2.9596 -22.635,-3.4758 -25.2355,6.8772 -1.2246,4.8749 -3.1013,10.9572 -4.1705,13.5161 l -1.944,4.6527 27.0083,-0.6648 c 31.4111,-0.7732 79.0908,0.9533 96.3418,3.4886 14.3419,2.1078 22.0074,2.5067 21.9796,1.1439 z m -252.3231,-39.9856 c -7.3778,-0.4626 -7.7541,-0.6668 -9.6666,-5.2441 -1.0945,-2.6193 -1.99,-7.0513 -1.99,-9.8487 0,-5.7729 4.6667,-26.4549 6.3489,-28.1372 1.9192,-1.91919 14.9171,-3.71129 36.9844,-5.09959 28.9829,-1.8232 139.8075,-1.7602 146.4463,0.083 4.3961,1.2207 5.4959,2.3412 7.8445,7.99249 2.4357,5.8611 3.1815,6.5779 6.8871,6.6196 5.4777,0.061 13.1756,1.70678 56.9585,13.1423 31.1569,8.13775 33.9688,11.21538 48.3049,4.8644 15.4418,-6.84078 22.767,-10.0695 21.3841,-11.3035 -0.6372,-0.5686 -9.5586,-2.6698 -19.8253,-4.6693 -26.662,-5.1923 -60.677,-14.04649 -95.5495,-24.87169 -18.0114,-4.84603 -23.0056,-11.80627 -40.0001,-6.0876 -24.9525,8.3966 -33.28,10.5824 -34.743,9.1194 -1.0592,-1.0592 -1.0091,-2.0057 0.1824,-3.4414 2.0451,-2.4642 18.732,-7.9927 32.4279,-10.7436 9.9628,-3.57387 18.1705,0.0122 28.0001,2.6218 51.1088,13.5687 83.0704,21.51279 107.6822,26.76479 28.9366,6.1748 32,7.5712 32,14.5868 0,5.6412 -13.482,14.0059 -33.2391,20.6226 -7.9943,2.6773 -8.8934,2.7318 -13.3333,0.8069 -2.6185,-1.1352 -12.2609,-3.9136 -21.4276,-6.174 -9.1667,-2.2605 -28.5456,-7.6743 -43.0643,-12.0307 -14.5188,-4.3564 -26.6126,-7.9206 -26.8752,-7.9206 -0.2626,0 -0.1637,1.2 0.2198,2.6666 0.3836,1.4667 1.1127,2.6667 1.6204,2.6667 0.5076,0 1.973,0.7677 3.2563,1.7063 2.2123,1.6176 2.1943,2.0308 -0.3465,7.9581 -3.082,7.1901 -3.0696,7.1855 -22.1438,8.2507 -57.7527,0.76771 -116.8683,8.35997 -174.3435,5.0995 z m 88.3434,-8.3764 c 82.67,-2.876 118.6618,-7.0033 52.6667,-6.0394 -34.5015,0.5038 -75.0374,1.8362 -128.3334,4.2184 -9.7166,0.4342 -17.6666,1.3006 -17.6666,1.9254 55.2525,3.1595 40.0012,1.73008 93.3333,-0.1044 z m -78.6667,-7.9578 c 13.3319,-2.0679 61.8575,-4.1346 120.2233,-5.1203 29.0894,-0.4912 53.2995,-1.3033 53.8002,-1.8045 0.5007,-0.5012 0.4865,-1.5971 -0.032,-2.4354 -0.6226,-1.0073 -5.3012,-1.4246 -13.8002,-1.2312 -7.0721,0.1611 -25.4583,-0.4336 -40.8583,-1.3214 -25.3678,-1.4624 -46.6075,-1.172 -57.3334,0.7841 -2.7634,0.504 -3.5878,0.2979 -2.6666,-0.6665 3.6131,-3.7832 61.1443,-5.8142 80.6666,-2.8478 10.5133,1.5975 32.3313,0.3002 31.6156,-1.88 -0.2691,-0.8197 -15.6148,-0.43612 -22.1579,-1.24052 -15.2145,-1.86896 -5.0734,-3.04301 9.8756,-3.71248 11.4223,-0.5116 11.8075,-0.6259 8.0001,-2.3723 -3.2158,-1.4752 -21.186,-1.9679 -91.6694,-2.5133 l -81.6693,1.3216 c -2.8431,0.16227 -5.0148,0.60654 -5.2916,1.8466 -0.4687,2.09949 -0.104,8.7816 -1.0968,14.8132 -1.7858,10.8495 -1.7755,10.9602 0.961,10.3456 1.5213,-0.3416 6.6661,-1.226 11.4327,-1.9654 z m 333.3334,-15.3468 c -1.0264,-2.6998 -2.1756,-3.3334 -6.0457,-3.3334 -5.8517,0 -4.9518,-2.2336 1.3783,-3.4212 2.5149,-0.4717 5.2734,-1.7024 6.1302,-2.7346 2.3129,-2.787 5.2039,0.2052 5.2039,5.3857 0,7.0909 -4.482,9.8496 -6.6667,4.1035 z m -19.4053,-11.3806 c -2.1379,-1.40239 -6.4401,-2.93279 -9.5606,-3.40059 -7.5064,-1.1258 -5.9483,-3.2188 2.3961,-3.2188 3.6333,0 7.7492,-0.7139 9.1463,-1.5864 3.2728,-2.044 6.7569,0.5528 6.7569,5.0361 0,4.77319 -4.0532,6.24329 -8.7387,3.16969 z m -40.9779,-4.78049 c -0.5226,-0.5225 -0.9501,-2.3347 -0.9501,-4.0269 0,-2.0907 -1.3217,-3.7604 -4.1239,-5.2095 -5.5393,-2.8644 -4.207,-3.7356 2.2492,-1.4707 3.7782,1.3254 6.0472,1.4495 8.2647,0.4519 2.3839,-1.0725 3.5441,-0.8877 5.2712,0.8393 2.0638,2.0639 2.0283,2.4651 -0.5219,5.8958 -2.6392,3.5504 -8.2281,5.4813 -10.1892,3.5201 z m -34.12,-16.3776 c -1.0101,-0.6391 -4.1601,-0.8504 -7,-0.4695 -5.3805,0.7218 -7.3367,-1.4557 -2.6454,-2.9446 1.3849,-0.4396 4.1705,-2.3307 6.1903,-4.2026 -0.6484,-6.12334 3.8583,-5.93531 7.1327,0.0571 1.8501,3.3859 3.1616,3.9343 2.0478,5.7 -1.777,2.8171 -3.386,3.3397 -5.7254,1.8596 z m 54.0211,-0.7947 c -0.4221,-1.1 -1.5363,-2.027 -2.476,-2.0601 -0.9397,-0.033 -3.5085,-0.9153 -5.7085,-1.9607 -3.9564,-1.8796 -5.4467,-3.0528 0.8175,-2.2827 5.0721,0.6236 7.8491,1.5437 7.8491,-0.0485 0,-1.0934 0.8204,-2.669 1.8231,-3.5012 2.7724,-2.3008 4.5878,0.9344 3.8455,6.8532 -0.4608,3.6746 -1.2574,5 -3.0051,5 -1.308,0 -2.7235,-0.9 -3.1456,-2 z m -302.4301,-13.6666 c -1.0957,-1.2834 -2.7,-7.1334 -3.5652,-13 -0.8651,-5.8667 -3.3545,-18.1667 -5.5319,-27.3334 -2.1774,-9.1666 -3.966,-17.7166 -3.9748,-19 -0.01,-1.439 -1.0379,-2.3333 -2.6826,-2.3333 -1.4667,0 -2.6667,-0.5569 -2.6667,-1.2376 0,-1.9447 13.004,-6.3076 24.1473,-8.1015 l 10.1473,-1.6334 0.8584,-12.2122 c 0.4722,-6.7168 2.0315,-19.4025 3.4653,-28.1906 1.4337,-8.7882 3.5354,-25.5739 4.6703,-37.3016 1.1349,-11.7277 2.3707,-22.6731 2.7462,-24.3231 0.3755,-1.65 0.1981,-3 -0.3941,-3 -0.5922,0 -7.3537,2.4423 -15.0254,5.4273 -7.6717,2.985 -18.9795,7.3006 -25.1283,9.5902 -7.4643,1.88602 -8.8255,7.07033 -13.6667,1.0917 -1.3678,-1.6892 -2.5123,-4.0548 -2.5434,-5.2569 -0.031,-1.2021 -1.7761,-7.2818 -3.878,-13.5103 -2.1018,-6.2286 -3.541,-11.7786 -3.1982,-12.3334 1.5462,-2.5017 3.4779,-0.259 8.6061,9.9914 7.5045,16.1028 6.1579,12.08891 20.5724,5.6773 7.7879,-3.4759 19.0438,-7.9003 25.0132,-9.8319 l 10.8533,-3.5121 3.2211,-16.3333 c 2.7425,-13.9067 3.5909,-16.3333 5.7105,-16.3333 2.8288,0 3.3721,-2.4117 0.7684,-3.4108 -0.9465,-0.3632 -12.4268,4.4918 -25.5117,10.7888 -35.8154,17.2361 -50.137,22.847 -50.0843,19.622 0.023,-1.398 16.8926,-10.7866 31.9652,-17.7899 6.9565,-3.2322 17.6804,-8.2939 23.8309,-11.2481 l 11.1826,-5.3712 0.1692,-9.2457 c 0.3035,-7.55998 -2.2282,-8.59011 4.8358,-10.5216 2.5666,-0.7018 4.9105,-1.468 5.2086,-1.7028 0.2981,-0.2348 -0.5324,-2.8094 -1.8455,-5.7214 -2.2202,-4.9235 -2.959,-5.4209 -10.542,-7.0979 -7.6345,-1.6884 -8.1802,-2.06119 -8.5569,-5.8461 -0.3112,-3.12705 8.7293,-49.79594 11.0792,-63.21977 0.618,-3.53052 1.5427,-2.56893 2.4994,-2.56893 1.3773,0 36.6473,5.5847 39.059,6.1846 1.5961,0.3971 3.8454,1.7645 4.9986,3.0388 1.9838,2.192 2.483,2.1384 9.2628,-0.9941 l 7.1659,-3.3109 -3.2856,-7.1768 c -2.7233,-5.9486 -2.9928,-7.5295 -1.5746,-9.2383 3.0421,-3.6655 12.2945,-9.3702 22.2938,-13.7456 9.0359,-3.9537 9.9925,-4.1213 12.8476,-2.2505 1.6967,1.1117 4.4195,4.7781 6.0506,8.1476 2.8957,5.9817 3.0399,6.0778 6.1055,4.0691 5.6628,-3.7104 6.9257,-2.6267 14.4704,12.417 10.2729,20.4835 15.9082,35.0668 18.7089,48.415 3.5271,16.8102 1.2332,19.847 -8.4103,11.1347 -2.8264,-2.5534 -5.5281,-4.2534 -6.0038,-3.7777 -0.4757,0.4757 -0.8683,3.6149 -0.8724,6.976 0,3.3611 -0.6323,8.3611 -1.396,11.1111 -1.9501,7.022 -5.4648,6.5776 -17.4395,-2.2049 -11.0243,-8.0855 -10.8236,-8.159 -12.3922,4.5383 -2.186,17.694 -2.9139,18.1956 -15.5295,10.7008 -4.9692,-2.9521 -9.38,-5.3675 -9.8018,-5.3675 -0.4218,0 -0.793,3.45 -0.825,7.6667 -0.032,4.2166 -0.5513,10.2166 -1.1543,13.3333 -0.9737,5.0335 -0.8183,5.6667 1.3914,5.6667 2.1245,0 2.4877,-1.0637 2.4877,-7.2865 0,-5.9577 0.4935,-7.5505 2.7067,-8.735 2.3127,-1.2377 3.7166,-0.5652 9.6438,4.6198 6.833,5.9773 8.9828,7.16 8.9828,4.9417 0,-0.6196 2.3869,-4.8196 5.3043,-9.3333 6.9272,-10.7179 9.1841,-10.7494 14.8033,-0.2067 2.3452,4.4 4.684,8 5.1975,8 0.5134,0 1.6753,-1.65 2.5819,-3.6667 0.9066,-2.0167 3.4853,-6.5476 5.7304,-10.0687 5.4529,-8.5519 8.3709,-8.1304 13.7435,1.9852 2.2153,4.1707 4.4007,7.9561 4.8565,8.4119 0.4558,0.4558 4.313,-3.4066 8.5716,-8.5832 4.2586,-5.1765 8.7699,-9.4119 10.0251,-9.4119 1.2552,0 3.8411,1.8527 5.7464,4.117 7.1456,8.492 9.747,15.0924 13.4148,34.0371 4.5085,23.2867 4.1814,24.436 -7.0221,24.6755 -12.6016,0.2694 -14.9531,0.3654 -14.9531,0.6105 4.5924,4.69677 8.8831,4.94111 4,11.1393 -0.4532,0.57531 -2.7811,4.4629 -6.1801,8.29 l -6.1801,6.9585 3.6781,3.1638 c 3.6748,3.1609 3.6807,3.1614 6.5134,0.5182 5.3809,-5.0207 9.4474,-4.9385 20.2687,0.4097 5.4692,2.7029 11.2363,6.6626 12.8159,8.7991 5.1323,6.9417 22.2538,10.4089 33.3374,6.7511 5.8368,-1.9263 13.8246,-10.2108 21.713,-22.5194 l 6.2271,-9.7163 -4.5833,-6.9504 c -2.5208,-3.8227 -5.5797,-8.9003 -6.7976,-11.2837 -1.2179,-2.3833 -2.3955,-4.3333 -2.6169,-4.3333 -0.2214,0 -4.0941,1.5 -8.6059,3.3333 -11.6734,4.7433 -22.9023,4.5895 -33.9523,-0.4652 -4.5673,-2.0893 -9.4358,-5.0767 -10.8189,-6.6389 -2.314,-2.6135 -2.3356,-2.9091 -0.2696,-3.7019 1.2349,-0.4738 7.0122,0.4958 12.8386,2.1548 12.3255,3.5095 18.1882,3.1278 29.6218,-1.9287 9.4098,-4.1615 9.8979,-6.2265 1.229,-5.1998 -6.9788,0.8266 -12.2645,-1.0926 -16.7941,-6.0977 -2.517,-2.7813 -2.5111,-2.858 0.4629,-6.0237 1.6568,-1.7636 4.4555,-3.5688 6.2193,-4.0115 2.277,-0.5715 3.2069,-1.7364 3.2069,-4.0175 0,-1.767 0.9967,-4.2094 2.2148,-5.4275 2.3033,-2.3033 5.6497,-2.2238 17.5242,0.4166 5.4521,1.2123 6.0185,1.0396 11.3333,-3.456 3.0769,-2.6027 4.4671,-4.3173 3.0894,-3.8102 -13.8009,5.0794 -28.9378,4.5206 -41.1212,-1.5181 l -8.2245,-4.0764 -3.8436,3.2342 c -7.3933,6.221 -10.8144,2.0277 -4.0802,-5.0012 l 3.5588,-3.7146 -3.4579,-6.3583 c -1.9019,-3.4971 -4.1746,-9.2084 -5.0505,-12.6917 -0.8759,-3.4833 -2.3578,-6.3333 -3.2932,-6.3333 -0.9354,0 -3.5642,-1.7408 -5.8417,-3.8683 -4.8982,-4.5756 -5.5899,-11.3804 -1.6512,-16.2445 2.2398,-2.766 2.3045,-3.5183 0.6441,-7.4922 -3.3528,-8.0244 1.2802,-15.3514 10.8412,-17.145 2.826,-0.5302 4.8833,-1.9437 5.8194,-3.9983 1.4796,-3.2474 6.7399,-5.4328 10.0341,-4.1687 1.0501,0.403 2.5574,-0.6463 3.5245,-2.4533 3.6587,-6.8363 21.9086,-9.7694 30.0176,-4.8243 3.3762,2.0588 4.3128,2.1672 5.7192,0.6616 0.925,-0.9902 3.188,-1.8004 5.0289,-1.8004 3.8559,0 10.7428,3.2517 11.463,5.4123 0.3488,1.0462 1.5164,1.0006 4.0604,-0.1586 6.8412,-3.117 17.0244,4.4309 17.0244,12.6188 0,2.4885 0.6987,3.4609 2.4869,3.4609 3.7037,0 9.581,5.1701 11.7335,10.3217 2.0001,4.7868 1.4097,8.8862 -1.8083,12.557 -1.7013,1.9407 -1.6716,2.7298 0.2422,6.4307 2.5673,4.9645 1.734,10.6559 -2.0632,14.0923 -1.6789,1.5194 -2.5911,4.0863 -2.5911,7.2918 0,5.9627 -4.0077,11.5553 -10.1071,14.1038 -5.0211,2.098 -4.9508,5.1177 0.2327,9.9873 1.7643,1.6574 3.21,3.6589 3.2127,4.4478 0,0.7888 3.9157,3.4564 8.6956,5.9281 12.9699,6.7065 22.7765,18.141 32.6173,38.0316 10.7278,21.6835 12.5082,29.2317 11.7225,49.7011 -0.7984,20.8004 -3.3968,26.6734 -17.8929,40.4434 -10.9172,10.3703 -20.97,15.9286 -30.8158,17.0383 -5.5369,0.6241 -6.3842,1.2744 -12.142,9.3187 -3.4043,4.7562 -10.2175,14.1209 -15.1406,20.8104 -12.2663,16.6677 -16.614,24.7421 -14.215,26.3996 3.3073,2.2849 30.3594,0.049 50.4993,-4.1727 10.6333,-2.2293 20.5638,-4.0557 22.0677,-4.0588 6.016,-1.65442 27.2656,17.8928 27.2656,19.9131 0,0.5985 -0.919,1.851 -2.0423,2.7832 -3.0173,2.5042 -11.0238,-0.2926 -19.0897,-6.6683 -9.0874,-8.12734 -9.6711,-4.4756 -21.775,-1.4188 -42.2005,10.6579 -70.5668,8.3228 -70.3912,-5.7945 0.063,-5.0516 9.7133,-21.1367 22.8909,-38.1535 7.0986,-9.1667 12.7941,-17.2596 12.6569,-17.9844 -0.1373,-0.7248 -2.9496,-2.2832 -6.2496,-3.4631 -3.3,-1.18 -6.9989,-2.5816 -8.2198,-3.1146 -3.0561,-1.3346 -10.3922,5.5321 -26.6902,24.9825 -17.8978,21.3596 -19.2673,24.9705 -10.2238,26.9568 6.0915,1.3379 9.1338,3.4903 9.1338,6.462 0,2.2804 -0.7788,2.4605 -7.8618,1.8183 -15.8222,-1.4347 -20.421,-7.3894 -14.7516,-19.1008 3.7142,-7.6726 21.4779,-30.2491 32.5558,-41.3764 l 8.1169,-8.1531 -2.6963,-3.6149 c -5.8674,-7.8664 -2.8907,-19.528 10.7855,-42.2534 4.3983,-7.3085 5.7667,-13.5633 3.3008,-15.0873 -0.6696,-0.4138 -4.5114,3.9485 -8.5374,9.6941 -11.7601,16.7828 -18.5199,21.2314 -34.0906,22.4342 -6.7846,0.5241 -10.6055,0.053 -16.5492,-2.0418 -6.9663,-2.4549 -7.809,-2.5122 -8.55,-0.5813 -0.4981,1.298 0.1828,2.8643 1.728,3.9745 4.3329,3.1138 9.8833,8.6172 9.8833,9.7998 0,1.7265 -3.9804,5.3156 -5.8952,5.3156 -0.9376,0 -4.2723,-1.8599 -7.4104,-4.1331 -5.1417,-3.7247 -6.0266,-3.9613 -8.9535,-2.3949 -3.9684,2.1238 -7.5291,0.3537 -8.1836,-4.0684 -0.3399,-2.296 -1.0868,-2.8223 -3.2156,-2.2656 -3.3508,0.8762 -7.6751,-1.2124 -7.6751,-3.7071 0,-0.9947 -1.644,-2.2211 -3.6533,-2.7255 -4.2881,-1.0762 -5.6227,-2.8073 -5.6836,-7.3721 -0.03,-2.2177 -1.7914,-4.7836 -5.2641,-7.6667 -2.8708,-2.3833 -5.71,-4.3262 -6.3093,-4.3175 -1.3563,0.02 -11.0897,13.9074 -11.0897,15.8229 0,0.7704 -1.0892,1.9837 -2.4204,2.6962 -5.2158,2.7914 -19.3942,-3.2933 -22.8886,-9.8226 -0.9946,-1.8584 -2.5665,-3.379 -3.4931,-3.379 -2.7415,0 -3.4556,-4.8099 -1.4207,-9.5688 1.0421,-2.4371 4.9996,-8.5501 8.7944,-13.5844 3.7948,-5.0343 6.7186,-9.3077 6.4974,-9.4964 -0.2213,-0.1887 -11.2024,0.3302 -24.4024,1.1532 l -24,1.4964 0.4014,3.3334 c 0.2207,1.8333 2.4328,10.8333 4.9158,20 2.483,9.1666 7.3103,27.7666 10.7274,41.3333 3.4172,13.5667 6.6881,25.1697 7.2689,25.7847 0.5808,0.6149 8.3229,-0.5466 17.2046,-2.5812 l 16.1486,-3.6992 0.018,-4.7522 c 0.011,-2.6137 0.38,-6.1021 0.8222,-7.7521 1.0279,-3.8357 4.8981,-3.8795 21.8264,-0.2467 6.9666,1.4951 14.9006,3.064 17.631,3.4866 2.9065,0.4498 5.2507,1.6648 5.6551,2.9309 0.441,1.3807 2.2614,2.1971 5.0356,2.2579 8.5195,0.1869 11.6783,1.6648 11.6783,5.4637 0,3.2765 -2.7276,18.9703 -5.1987,29.9116 -0.6274,2.7779 -0.4927,8.0712 0.3193,12.5511 1.3216,7.2912 1.2318,7.8616 -1.5249,9.692 -2.5592,1.6993 -2.93,3.1448 -2.9368,11.4489 0,5.2272 -0.59,13.0597 -1.3017,17.4056 -0.8881,5.4239 -0.8512,8.4349 0.1179,9.6027 0.7765,0.9356 1.0218,2.9298 0.5452,4.4317 -1.0731,3.3809 -3.314,3.4311 -28.6656,0.6405 -28.4348,-3.1298 -30.6881,-4.4184 -30.6881,-17.5476 0,-7.4453 -0.3033,-8.495 -2.3333,-8.0749 -1.8189,0.3763 -2.211,1.5003 -1.7783,5.0977 0.3053,2.5383 0.6053,7.0098 0.6667,9.9368 0.1106,5.2756 0.033,5.361 -8.9768,9.8274 -11.427,5.6648 -24.7593,7.2752 -28.9361,3.4953 -1.4532,-1.3152 -2.6455,-3.0481 -2.6496,-3.8512 0,-0.8029 -0.6493,-3.7715 -1.4337,-6.5965 -1.2774,-4.6002 -1.7988,-5.0688 -4.9926,-4.4863 -6.9226,1.2623 -63.7703,12.9204 -79.2379,16.2496 -18.6412,4.0124 -17.4237,3.9488 -19.9072,1.0399 z m 21.5788,-10.9986 c 9.3584,-2.3117 61.7245,-13.231 75,-15.639 2.0167,-0.3658 3.6667,-1.1187 3.6667,-1.673 0,-1.8808 -6.6656,-33.9734 -8.9615,-43.1469 l -2.2836,-9.1241 -5.3774,0.8448 c -10.0762,1.5832 -15.2136,3.4518 -15.8531,5.7665 -0.35,1.2669 -1.9312,11.6036 -3.5137,22.9703 -4.2075,30.2201 -3.5481,28.5129 -11.3929,29.4957 -3.6398,0.456 -9.0178,1.5027 -11.9511,2.3259 -7.4008,2.077 -17.4157,1.8824 -21.8784,-0.4254 -6.4824,-3.3522 -7.431,-7.9928 -5.6735,-27.7538 0.8522,-9.5824 1.277,-17.6951 0.944,-18.028 -0.8946,-0.8947 -19.9152,1.0608 -21.83,2.2442 -1.2404,0.7666 -0.516,4.4139 2.9614,14.9114 2.5319,7.6432 5.971,20.0486 7.6425,27.5677 2.4188,10.8812 3.4602,13.5479 5.1031,13.0672 1.1353,-0.3321 7.1642,-1.8636 13.3975,-3.4035 z m 108.0862,1.1678 c 4.1501,-1.7854 6.5805,-3.6582 6.5805,-5.0707 0,-5.3944 -8.8753,-40.1297 -16.2003,-63.4032 -7.8568,-24.9629 -21.596,-82.1848 -23.2578,-96.8654 -0.4672,-4.1269 -1.2715,-8.1865 -1.7875,-9.0213 -0.5159,-0.8348 -4.1967,-1.6583 -8.1796,-1.8299 l -7.2415,-0.3121 -1.1378,18.3753 c -1.0554,17.0439 -0.936,18.8794 1.6478,25.3333 1.5321,3.827 5.451,17.4581 8.7088,30.2914 3.2578,12.8334 6.6194,25.1334 7.4703,27.3334 1.2887,3.3321 19.9776,75.7981 19.9776,77.4632 0,1.5041 7.6173,0.202 13.4195,-2.294 z m -16.0345,-47.7394 c -1.9177,-3.5832 -0.3499,-6.7632 3.3345,-6.7632 3.6694,0 5.6325,4.4994 3.2274,7.3974 -2.2247,2.6806 -4.9277,2.4194 -6.5619,-0.6342 z m 87.5022,29.9035 c 4.2684,-20.9495 4.7874,-19.4475 -5.8871,-17.0377 -4.95,1.1173 -15.6,3.9238 -23.6667,6.2366 l -14.6667,4.2051 -0.3915,8.0865 c -0.2811,5.8059 0.152,8.5375 1.5357,9.6859 1.7871,1.4832 27.155,4.054 36.1386,3.6624 3.9343,-0.1715 3.9609,-0.2284 6.9377,-14.8388 z m -160.5539,0.5059 c 12.131,-2.07268 11.6623,1.77682 11.6767,-9.7855 0,-4.4296 0.9264,-14.0537 2.0491,-21.3871 1.1226,-7.3333 3.5252,-23.2333 5.3389,-35.3333 1.8137,-12.1 3.9162,-23.8 4.6722,-26 2.2266,-6.4797 10.6778,-78.8384 10.6139,-90.8756 -0.014,-2.6891 -0.858,-2.9305 -13.0153,-3.7233 -7.15,-0.4663 -15.3806,-1.3917 -18.2903,-2.0564 -2.9097,-0.6647 -5.4007,-1.0892 -5.5355,-0.9433 -0.4674,0.5056 -3.0997,35.0539 -4.5918,60.2653 -0.8246,13.9333 -2.6402,33.1333 -4.0347,42.6666 -1.3945,9.5334 -2.5557,23.0334 -2.5806,30 -0.025,6.9667 -0.9147,22.2667 -1.9774,34 -2.5338,27.9751 -2.5949,26.4288 1.0103,25.5966 6.1168,-0.9364 9.0202,-1.31892 14.6645,-2.424 z m -6.1266,-7.6108 c -2.9184,-2.88802 -2.7811,-4.7968 -0.1115,-7.4666 4.9098,-4.9097 13.5287,0.0507 9.9887,5.748 -2.7339,4.40002 -6.3552,5.20391 -9.8772,1.7186 z m 16.0155,-159.784 c -2.6046,-2.6046 1.8174,-9.7778 6.0276,-9.7778 2.2429,0 3.8505,5.3213 2.4169,8 -1.3674,2.5549 -6.5717,3.6506 -8.4445,1.7778 z m 117.3955,147.6761 c 12.3104,-3.6672 25.2324,-7.3656 28.7157,-8.2189 3.4833,-0.8534 6.3333,-2.0571 6.3333,-2.675 0,-0.6178 -1.2299,-6.3966 -2.7332,-12.8417 -1.5033,-6.4451 -2.882,-16.39893 -3.5328,-22.0747 -1.3673,-11.92508 -1.705,-10.34371 -7.1803,-9.2379 -12.7473,2.3529 -62.9196,13.5158 -63.5016,14.0978 -0.3643,0.3643 2.344,8.95 6.0185,19.0795 3.6744,10.1293 7.3734,21.0172 8.2198,24.1952 1.079,4.0509 2.0979,5.5636 3.4087,5.0605 1.0283,-0.3945 11.9417,-3.7177 24.2519,-7.3848 z m 11.2368,-28.5611 c -3.4223,-4.1236 2.564,-9.3792 6.3597,-5.5834 1.5833,1.5833 1.7301,2.6201 0.6204,4.3824 -1.9053,3.0254 -5.0211,3.5616 -6.9801,1.201 z m -92.637,-11.9992 c 0.2264,-0.2264 -0.9224,-6.5128 -5.7678,-31.5602 -1.2058,-6.2334 -2.6326,-12.5334 -3.1706,-14 -1.1054,-3.0132 -0.9063,-4.0222 -4.6034,23.3333 -1.2389,9.1667 -2.5682,18.8527 -2.9539,21.5243 l -0.7014,4.8577 8.4802,-1.9591 c 4.664,-1.0776 8.5866,-2.0657 8.7169,-2.196 z m 124.5875,-4.1616 c 1.8411,-6.2533 1.8722,-7.3652 0.2243,-7.9974 -3.6778,-1.4114 -7.3414,-0.8047 -6.6125,1.095 0.3862,1.0062 1.1185,4.6062 1.6274,8 0.5089,3.3938 1.3072,6.1694 1.7739,6.1679 0.4668,0 1.8109,-3.2708 2.9869,-7.2655 z m -35.5157,-15.1193 c 1.067,-0.6573 -9.6259,-4.168 -12.956,-4.2536 -0.55,-0.015 -1,1.5424 -1,3.4589 0,3.4015 0.1516,3.4622 6.3333,2.537 3.4835,-0.5214 6.9136,-1.3054 7.6227,-1.7423 z m 145.3774,-5.6127 c 6.6495,-6.8097 9.2898,-7.0228 8.2583,-0.6666 -0.4165,2.5666 -0.4711,4.6666 -0.1213,4.6666 4.5266,0 28.5297,-19.3884 28.5297,-23.0446 0,-0.7522 -1.8041,-0.9088 -4.3333,-0.3763 -13.3585,2.8125 -19.3857,3.262 -27.7791,2.0716 -12.3683,-1.7541 -22.6544,-5.8503 -28.1893,-11.2256 l -4.6461,-4.5124 -4.8594,6.5091 c -6.22,8.3314 -6.4057,13.4282 -0.7395,20.3022 5.9032,7.1616 14.4497,11.2647 23.9428,11.4947 3.8382,0.093 5.7107,-0.8903 9.9372,-5.2187 z m 26.3521,-25.4113 c 3.4937,-0.6793 8.352,-2.0708 10.7962,-3.0921 4.0528,-1.6934 4.5196,-2.4864 5.303,-9.01 2.3074,-19.2165 0.2189,-29.522 -10.4455,-51.5411 -8.1519,-16.8316 -16.9017,-27.3887 -27.9265,-33.6952 l -6.5874,-3.7682 -5.149,4.6518 c -6.1308,5.5388 -10.0634,7.1995 -17.0494,7.1995 -3.8672,0 -5.5723,0.6962 -6.6538,2.717 -1.7541,3.2776 -0.9857,6.0589 3.2662,11.822 3.6242,4.9124 4.156,4.4919 7.4257,-5.8724 0.9255,-2.9333 2.2779,-6.0833 3.0055,-7 1.9972,-2.5164 6.0573,-2.0001 7.6483,0.9727 1.6462,3.076 0.8891,6.8722 -3.6776,18.4394 l -3.321,8.4121 4.7447,10.2546 c 6.1892,13.3765 7.5865,18.9464 7.5895,30.2546 0,6.932 -0.6712,10.438 -2.6156,13.627 l -2.618,4.2938 4.9563,1.2921 c 9.7242,2.5352 18.4294,2.5469 31.3084,0.043 z m -28.1354,-5.0944 c -2.7611,-1.7483 -1.3938,-7.4943 1.7833,-7.4943 2.0572,0 2.6667,0.889 2.6667,3.889 0,4.16 -1.5677,5.4301 -4.45,3.6053 z m 1.7833,-17.4943 c -1.116,-1.8058 0.3899,-4 2.7454,-4 1.0567,0 1.9213,1.2 1.9213,2.6667 0,2.7604 -3.2167,3.6795 -4.6667,1.3333 z m -3.7777,-18.2222 c -0.4889,-0.4889 -0.8889,-1.9889 -0.8889,-3.3333 0,-2.8415 5.9903,-3.5077 6.9942,-0.7778 1.4101,3.8344 -3.2465,6.9699 -6.1053,4.1111 z m -6.9099,-14.6559 c -2.5293,-2.5293 -1.9632,-4.9529 1.305,-5.5864 2.3946,-0.4642 4.657,1.7788 4.6956,4.6552 0.034,2.5628 -3.7775,3.1543 -6.0006,0.9312 z m -3.2408,46.0777 c 0.8244,-1.5402 1.5243,-7.3902 1.5554,-13 0.044,-7.9299 -0.7326,-12.2603 -3.4901,-19.4601 -1.9508,-5.0933 -3.781,-9.4947 -4.0671,-9.7809 -0.2862,-0.2862 -1.1921,0.7348 -2.0131,2.2688 -1.2221,2.2836 -0.8791,3.8362 1.892,8.5647 4.4496,7.5927 4.4671,14.9073 0.051,21.4145 -4.102,6.0446 -4.1714,8.0552 -0.37,10.7178 3.8721,2.7122 4.649,2.6247 6.4416,-0.7248 z m -146.7383,-5.104 c 0,-2.298 9.212,-16.7006 16.6266,-25.9951 8.4366,-10.5756 8.366,-10.9594 -3.171,-17.2386 l -6.486,-3.5301 -13.4848,17.4642 c -7.4166,9.6054 -13.4848,18.2524 -13.4848,19.2156 0,2.4738 7.5213,8.5055 11.7694,9.4388 1.9602,0.4306 4.1639,0.9831 4.8973,1.2276 2.4533,0.8184 3.3333,0.6647 3.3333,-0.5824 z m -62.6667,-40.0669 c 4.7667,-0.6886 19.6912,-2.1799 33.1655,-3.3141 24.0222,-2.0221 24.5873,-2.14 29.0464,-6.0551 5.3531,-4.7001 9.8065,-5.0556 17.0528,-1.3612 4.3088,2.1967 6.761,2.4965 14.838,1.8137 5.3219,-0.4498 10.3352,-1.2252 11.1407,-1.723 1.3422,-0.8295 0.4573,-7.4547 -3.374,-25.2603 l -0.6895,-3.2047 -22.9232,0.8457 c -12.6079,0.4651 -32.5233,1.7299 -44.2567,2.8107 -11.7333,1.0807 -29.8781,2.1423 -40.3218,2.359 -18.943,0.393 -18.9885,0.4015 -19,3.5366 -0.01,2.3123 0.5425,2.9301 2.0851,2.3381 1.1531,-0.4425 3.3389,-0.1396 4.8573,0.673 2.6025,1.3928 2.7112,2.2335 1.8968,14.6619 l -0.8641,13.1844 4.3401,-0.026 c 2.387,-0.015 8.24,-0.5898 13.0066,-1.2783 z m -12.3276,-12.362 c -0.9928,-2.6998 0.3702,-5 2.9628,-5 2.5926,0 3.9991,2.3002 3.0573,5 -0.3197,0.9167 -1.6671,1.6667 -2.9942,1.6667 -1.3271,0 -2.6888,-0.75 -3.0259,-1.6667 z m 97.023,-11.1619 c -3.514,-3.5139 -1.9945,-6.5048 3.3047,-6.5048 3.5173,0 4.7495,0.6198 5.1267,2.5786 0.2732,1.4182 -0.5833,3.3682 -1.9032,4.3333 -3.0935,2.262 -3.91,2.2111 -6.5282,-0.4071 z m 105.7056,6.1897 c -3.9792,-5.466 -6.6524,-7.8999 -8.7342,-7.9523 -1.65,-0.042 -3,0.2484 -3,0.6443 0,1.5706 5.3244,10.9361 9.3867,16.5107 l 4.2972,5.8971 1.8923,-3.6115 c 1.799,-3.4335 1.6096,-3.9998 -3.842,-11.4883 z m -223.2568,-15.6945 c 1.1734,-7.099 1.0499,-16.3333 -0.2185,-16.3333 -0.5908,0 -3.1074,1.5 -5.5923,3.3333 -6.6434,4.9013 -10.0706,4.3956 -13.3154,-1.9648 -2.5044,-4.9091 -3.0205,-5.2377 -7.0271,-4.4752 -5.5565,0.40833 -4.4015,2.61559 -3.9724,6.7467 0.5209,4.9808 0.8752,5.4873 3.0314,4.3333 4.0576,-2.1716 5.1755,-1.5703 9.3463,5.0267 3.5007,5.5372 4.7121,6.4338 9.6373,7.1331 3.0983,0.4398 6.0047,0.8898 6.4588,1 0.454,0.1101 1.1974,-2.0498 1.6519,-4.7998 z m 196.6153,-2 c -0.2343,-1.65 -0.8761,-2.85 -1.4261,-2.6666 -0.55,0.1833 -2.65,0.3425 -4.6666,0.3537 -2.0167,0.011 -4.5667,0.6112 -5.6667,1.3333 -1.7778,1.1671 -1.7778,1.4588 0,2.6259 1.1,0.7221 4.2917,1.3221 7.0927,1.3333 4.5235,0.018 5.0451,-0.3149 4.6667,-2.9796 z m 18.3369,1.23 c 2.1421,-5.5824 -6.4523,-13.8075 -10.7235,-10.2628 -2.7433,2.2768 -2.5685,4.334 0.724,8.5197 2.957,3.7592 8.8327,4.7835 9.9995,1.7431 z m -197.6002,-2.9408 c 3.3938,-0.5089 6.1705,-1.2883 6.1705,-1.732 0,-1.9071 -14.1177,-14.8905 -16.1914,-14.8905 -1.9688,0 -2.189,1.0538 -1.6017,7.6667 0.8753,9.8553 1.4162,11.4299 3.6339,10.5789 1.0001,-0.3838 4.595,-1.1141 7.9887,-1.6231 z m 24.7514,-3.208 c 1.5865,-1.0038 1.6156,-1.5712 0.1701,-3.3129 -2.3188,-2.7941 -3.6298,-2.6503 -4.4505,0.4879 -1.026,3.9237 0.7215,5.077 4.2804,2.825 z m 201.7525,-9.0698 c 2.0167,-1.9306 3.6667,-4.3169 3.6667,-5.3027 0,-2.5884 -3.6962,-3.6207 -6.0298,-1.684 -1.1962,0.9928 -4.02,1.3848 -7.0488,0.9786 -4.3727,-0.5865 -5.7237,-0.063 -10.0344,3.8873 l -4.9814,4.5652 2.7738,3.8954 2.7738,3.8955 7.6067,-3.3625 c 4.1837,-1.8493 9.2567,-4.9421 11.2734,-6.8728 z m -170.0409,5.8073 c 0.5629,-0.5629 -4.587,-10.152 -5.4522,-10.152 -0.1516,0 -2.6121,2.7952 -5.4679,6.2116 -6.3098,7.54823 -7.0517,6.40362 2.5247,5.4152 4.2444,-0.438 8.0223,-1.1017 8.3954,-1.4748 z m 124.0095,-2.9612 c -0.4695,-0.4695 -1.9127,-0.4472 -3.2071,0.049 -1.9961,0.766 -2.0572,1.0862 -0.4019,2.1092 2.044,1.2633 5.1645,-0.6032 3.609,-2.1587 z m -100.1119,1.1221 c 1.6972,-1.0914 -1.5467,-10.9796 -3.602,-10.9796 -0.6196,0 -2.9843,2.7 -5.2548,6 -4.0804,6.40933 -6.5829,6.00857 1.6027,5.98 3.1519,-0.011 6.4162,-0.4612 7.2541,-1 z m 33.4743,-2.1994 c 0.8341,-0.8341 -5.2242,-12.7802 -6.4813,-12.7802 -1.2687,0 -10.3874,9.6135 -12.3659,13.0368 -1.0368,1.794 0.024,1.9346 8.5885,1.1387 5.3744,-0.4995 9.9907,-1.1274 10.2587,-1.3953 z m -108.123,-15.0166 c -0.3425,-0.3425 -3.1764,0.9893 -6.2975,2.9595 l -5.6746,3.5823 5.2153,4.3915 5.2154,4.3915 1.0821,-7.351 c 0.5951,-4.0431 0.8018,-7.6313 0.4593,-7.9738 z m -27.5414,9.4741 c 1.1,-0.9295 5.6,-3.7503 10,-6.2684 4.4,-2.5181 14.9,-8.9661 23.3333,-14.3288 32.6156,-20.7399 40.9958,-25.7805 52.3029,-31.4593 6.4335,-3.231 11.695,-6.3186 11.6923,-6.8612 0,-0.5427 -1.8523,-5.7866 -4.1104,-11.6533 -2.258,-5.8667 -5.9637,-15.7667 -8.2348,-22 -2.2711,-6.2333 -4.2439,-11.5058 -4.384,-11.7166 -0.4741,-0.7134 -7.266,2.8041 -7.266,3.763 0,0.5234 0.8374,3.3248 1.8607,6.2254 1.0234,2.9005 2.0734,8.2166 2.3334,11.8135 0.455,6.2956 0.3044,6.6195 -4.0332,8.6756 -2.4783,1.1747 -9.5326,3.8783 -15.6763,6.0079 -13.8488,4.8005 -14.9933,4.3553 -19.8266,-7.7125 l -1.98,-4.9436 -6.9431,3.6103 -6.9431,3.6103 0.3506,8 c 0.3959,9.033 -1.8614,29.8116 -3.9424,36.2897 -0.7579,2.3593 -3.1839,5.8093 -5.3913,7.6667 -3.6803,3.0968 -5.0676,3.377 -16.7203,3.377 -14.5481,0 -14.0795,-0.9751 -6.2611,13.0285 4.6527,8.3336 5.3427,8.6755 9.8394,4.8758 z m 221.5345,-11.2144 c 3.4163,-1.6085 3.4719,-1.8135 1.6666,-6.1342 -2.1893,-5.2397 -2.4657,-16.947 -0.4875,-20.6434 1.2203,-2.2801 0.9223,-2.579 -2.5714,-2.579 -4.2045,0 -8.1421,-2.9478 -8.1421,-6.0953 0,-1.2894 -1.5138,-1.9047 -4.6863,-1.9047 -3.6976,0 -5.1744,-0.7899 -7,-3.7441 -1.8677,-3.0222 -2.9563,-3.5809 -5.6471,-2.8981 -4.4867,1.1386 -10.8448,-0.7287 -13.5179,-3.9701 -2.1177,-2.5679 -2.2734,-2.4428 -5.0812,4.0842 -1.5983,3.7152 -3.0097,10.0294 -3.1488,14.0864 -0.23,6.71 0.098,7.6332 3.7479,10.5574 3.022,2.4209 3.4295,3.206 1.6667,3.211 -3.3252,0.01 -2.872,1.2642 2.7805,7.6972 6.9575,7.9183 15.4722,11.1649 27.5528,10.5059 5.1334,-0.28 10.9238,-1.258 12.8678,-2.1732 z m -25.2011,-2.2397 c -2.8132,-1.1351 -1.857,-2.7816 2,-3.4437 2.0167,-0.3462 4.7167,-1.0785 6,-1.6273 3.8381,-1.6414 2.8044,2.6447 -1.0627,4.4067 -3.6219,1.6503 -4.3266,1.7178 -6.9373,0.6643 z m -2.5981,-10.6593 c -1.1958,-3.1163 2.524,-9.1243 5.6492,-9.1243 3.4918,0 4.2219,5.4184 1.1827,8.7766 -2.8438,3.1424 -5.7036,3.2879 -6.8319,0.3477 z m -14.5492,-9.0273 c -0.4016,-1.0467 -0.5328,-3.2967 -0.2915,-5 0.3255,-2.2976 1.2992,-3.097 3.7721,-3.097 4.0751,0 5.2301,4.5795 1.9758,7.8338 -2.671,2.671 -4.4986,2.7591 -5.4564,0.2632 z m -124.0675,14.31 0.8251,-8.2596 -7.9718,4.7488 c -4.3846,2.6119 -7.9719,5.0127 -7.9719,5.3351 0,0.5502 13.8301,7.0236 14.1467,6.6216 0.081,-0.1024 0.5181,-3.9031 0.9719,-8.4459 z m 189.0596,7.4977 c 1.7703,-0.9474 2.5914,-2.6317 2.4377,-5 -0.3908,-6.022 -0.089,-6.5434 4.2967,-7.4205 5.8069,-1.1614 9.0875,-4.4699 9.0875,-9.165 0,-2.273 1.4373,-5.6424 3.4039,-7.9796 4.1364,-4.9157 3.9563,-10.4095 -0.4039,-12.3224 -3.8084,-1.6709 -3.7702,-3.1218 0.2249,-8.5369 4.3374,-5.879 2.6973,-10.7671 -5.1573,-15.3701 -4.1227,-2.4161 -5.9377,-4.4605 -6.5128,-7.336 -0.4385,-2.1926 -2.2881,-4.9633 -4.1101,-6.1572 -2.8189,-1.847 -4,-1.9221 -7.9213,-0.5042 -4.2698,1.544 -4.9192,1.4051 -8.8349,-1.8898 -5.062,-4.2594 -6.1536,-4.3805 -8.0219,-0.8896 -1.8531,3.4626 -4.4886,3.3702 -9.5036,-0.3334 -3.2513,-2.4011 -5.8032,-2.9943 -12.7824,-2.9718 -8.3102,0.027 -8.902,0.2462 -12.5929,4.6667 -2.8488,3.4119 -4.7423,4.5252 -7.1605,4.2101 -2.5086,-0.3268 -3.5967,0.3845 -4.5917,3.0016 -0.7975,2.0977 -3.6472,4.5683 -7.3365,6.3607 -5.9096,2.8711 -6.0324,3.0611 -6.0324,9.3317 0,4.6232 -0.7406,7.1416 -2.6666,9.0677 -3.4906,3.4905 -3.3904,9.0578 0.2324,12.9141 3.933,4.1865 5.1009,3.8845 5.1009,-1.319 0,-5.0975 4.9654,-15.5273 10.5984,-22.2618 4.7007,-5.62 6.9147,-4.4078 7.3917,4.0473 0.1729,3.0643 1.1459,6.129 2.1622,6.8105 1.7912,1.201 6.6819,0.835 12.8477,-0.9614 2.1415,-0.6239 3,-0.3163 3,1.0748 0,1.0719 1.1501,2.9897 2.5557,4.2618 2.0037,1.8132 3.1369,2.0019 5.2457,0.8733 4.931,-2.639 6.6773,-1.7655 7.1181,3.5604 0.4087,4.9383 0.4906,5.0049 6.6409,5.402 7.128,0.4603 10.3001,2.9473 7.1227,5.5843 -2.6858,2.2291 -2.6656,14.5455 0.034,21.0077 3.8085,9.1149 7.9663,11.5412 14.1273,8.244 z m -158.159,-17.5713 c 0.4671,-3.1167 0.6538,-7.9032 0.415,-10.6367 l -0.4342,-4.9701 -9.8095,5.4275 -9.8094,5.4275 8.4761,5.1621 c 4.6619,2.8392 8.8894,5.1833 9.3945,5.2092 0.505,0.026 1.3004,-2.5029 1.7675,-5.6195 z m -81.7998,-0.4408 c 3.2931,-0.7662 3.7023,-1.6693 5.6,-12.3596 3.4011,-19.1598 3.9102,-26.2923 2.2381,-31.3589 -1.783,-5.4023 -1.2965,-5.1926 -20.6678,-8.9082 -13.3621,-2.5629 -14.7443,-2.6191 -16.1788,-0.6572 -0.8627,1.1798 -2.3195,9.1156 -3.2371,17.6351 -0.9178,8.5195 -2.6901,20.197 -3.9386,25.9501 -1.2485,5.7531 -1.9172,10.8331 -1.4859,11.2889 0.9113,0.9632 32.4106,-0.3664 37.6701,-1.5902 z m -14.0201,-13.1873 c -0.7703,-2.0074 2.3035,-6.0386 4.6045,-6.0386 2.1557,0 2.9252,3.9167 1.1821,6.017 -2.1018,2.5325 -4.8192,2.5427 -5.7866,0.022 z m 111.7662,-2.3719 c -1.2308,-5.8414 -2.3029,-6.708 -5.3705,-4.3414 -2.5337,1.9547 -2.5066,2.0808 1.146,5.3384 4.8489,4.3243 5.3222,4.2126 4.2245,-0.997 z m -36.4296,-33.2898 c 1.2935,-0.4312 0.4691,-4.2261 -3.2853,-15.1237 -2.7567,-8.0015 -5.5355,-15.0715 -6.1753,-15.7112 -1.2435,-1.2435 -7.3355,0.3981 -17.7242,4.7762 -7.5443,3.06303 -6.9973,1.56572 -2.887,8.1717 1.8857,3.0305 5.427,9.7101 7.8696,14.8434 2.4425,5.1334 4.7964,9.6881 5.2309,10.1218 0.4345,0.4336 4.0423,-0.8521 8.0172,-2.8571 3.975,-2.005 8.0043,-3.9045 8.9541,-4.2211 z m -12.1494,-2.9795 c -2.5627,-3.0878 -1.1382,-6.7307 2.6318,-6.7307 2.4796,0 3.4284,0.802 3.765,3.1825 0.6673,4.7189 -3.5046,7.033 -6.3968,3.5482 z" transform="translate(23.586144,81.623326) matrix(0.77297748,0,0,0.77297748,-981.8449,398.05205)" fill="#000000"/>
</svg>