<?xml version="1.0" ?><svg xmlns="http://www.w3.org/2000/svg" viewBox="0 0 175.50768 160.87051" height="160.87051mm" width="175.50768mm">
    <path d="m 333.7793,50.070312 c -48.7445,3.790402 -96.48809,2.581936 -144.02344,0.337891 0,0 -3.74831,-2.249221 -4.75781,6.84375 -0.43354,3.905068 -0.50824,24.813108 -0.46094,47.294927 -7.50359,-28.391161 -29.34311,-33.148738 -45.13477,-28.312505 -15.24359,5.210098 -35.60958,8.694723 -42.273434,41.304685 -3.082029,10.34523 -8.247048,33.84818 -12.037109,40.07032 -3.79006,6.2221 -4.496312,6.4835 1.167969,7.1582 5.664281,0.67471 9.703428,6.3341 15.076174,3.18554 5.37273,-3.14852 0.22881,3.13954 14.41015,6.10938 14.18133,2.96984 44.64844,0.60156 44.64844,0.60156 l -1.26562,-16.60156 c 12.9775,-5.60158 22.78968,-20.92117 25.46484,-36.75977 0.10635,23.91681 0.12305,41.28711 0.12305,41.28711 7.22633,8.26151 98.47519,10.09692 150.55664,7.03711 z M 116.6875,184.75977 c -9.33978,-0.056 -20.227582,2.41517 -28.8125,12.45117 -16.159849,18.89128 -28.154556,88.72315 -27.238281,100.83008 36.609556,19.71591 89.835941,1.53515 89.835941,1.53515 l 14.09765,-66.70898 c 0,0 79.94629,7.71241 82.32031,7.5625 10.17897,-1.46286 29.88013,-17.49296 48.72852,-34.41016 0,0 9.07599,-5.86139 3.29102,-8.4707 -5.78498,-2.60931 -128.98633,-9.03321 -128.98633,-9.03321 l -9.7461,7.45899 c 0,0 -18.24245,-7.49661 -25.03125,-8.62109 -3.18225,-0.5271 -10.218,-2.54434 -18.45898,-2.59375 z" color="#000" overflow="visible" fill="#FFFFFF" paint-order="fill markers stroke" transform="translate(378.61477,-11.415561) matrix(0.61951478,0,0,0.61951478,-414.50428,-18.041346)"/>
    <path d="m 327.16602,47.595703 c -6.29867,0.05777 -17.4156,0.567922 -34.26954,1.556641 -17.7686,1.04224 -41.3181,1.042337 -69.6582,-0.002 -33.3437,-1.2286 -35.0859,-1.177802 -37.375,1.111328 -2.0976,2.09465 -3.84629,9.35803 -2.46289,10.21289 1.7435,1.07749 3.59766,-0.583256 3.59766,-3.222656 0.99129,-6.537463 11.61305,-4.503928 20.0957,-4.316406 11.8884,0.97966 71.84317,1.110752 83.91797,0.226562 16.2068,-1.18656 39.64236,-1.462865 40.63086,-0.478515 0.47864,30.705216 0.96399,56.750673 0.61914,80.167963 -0.117,7.24812 -0.21216,17.30631 -0.28516,22.34961 -0.0643,7.70982 -0.33775,9.30775 -1.71875,10.04688 -2.7051,1.44771 -18.50348,2.16112 -53.80078,2.42578 -25.41132,0.15622 -55.12909,-0.59885 -84.00586,-2.2793 -3.14719,0.16551 -3.09703,-0.19719 -4.31445,-5.28515 -1.76859,-3.647 -6.99438,-5.09067 -5.41992,2.48046 0.3633,2.74044 0.89017,5.35044 1.16797,5.80078 0.8722,1.41181 4.73415,2.48659 9.43945,2.62696 2.4931,0.0743 7.9209,0.57862 12.0625,1.12109 9.6161,1.25961 15.24641,1.43016 51.0664,1.55664 l 29.41602,0.10352 -0.0937,7.29883 c 0.0428,4.16454 3.48055,8.19724 5.11328,-0.86719 0.204,-3.53448 0.52141,-5.98996 1.53321,-6.11133 0.7764,-0.0933 10.24672,-0.68963 21.04492,-1.32422 17.8687,-1.05014 19.82834,-1.33505 21.80664,-3.16797 6.08346,-4.30142 0.27121,-19.15622 1.83594,-58.96679 -0.20761,-34.800624 -0.70365,-57.915685 -1.28126,-59.427735 -1.64368,-4.305871 -5.6179,-3.66004 -8.6621,-3.636719 z m -0.30727,9.034931 c -27.1139,-0.134351 -45.69823,-0.100757 -65.88219,-0.113056 -52.5312,-0.07026 -65.50976,0.150351 -65.50976,1.113281 0,1.88789 -1.06593,3.257072 11.95117,3.388672 35.59436,0.602288 79.58922,1.688393 117.50781,-0.09766 l 0.32031,14.314453 c 0.7955,34.236516 0.7874,48.595456 0,54.322266 0.37607,12.90265 -1.01187,22.73726 -1.2937,32.78963 0.0126,3.00874 5.04762,2.55826 4.95459,0.28349 0.37778,-4.8737 0.8513,-4.2697 1.38404,-17.10241 -1.94664,-66.317124 0.51818,-88.710589 -3.43227,-88.89867 z m -100.3275,6.349835 c -1.27185,0.07652 -2.75849,2.00375 -4.58984,5.90039 -1.96521,4.17301 -3.17534,8.410823 -1.99024,9.595703 3.89073,1.592643 5.11545,0.53944 7.4043,-1.671874 1.7289,-1.05402 3.89726,-1.677206 4.81836,-1.384766 1.9901,0.63152 7.18984,-1.154243 6.21094,-2.132813 -0.3736,-0.37432 -1.17055,-0.678877 -1.77735,-0.679687 -0.6653,-9.5e-4 -0.98019,-1.16196 -0.80469,-2.9375 0.3772,-3.77631 -2.28867,-5.183727 -3.54687,-1.873047 -0.9731,2.55824 -5.53164,6.432035 -6.71094,5.703125 -0.4401,-0.27204 0.11814,-2.385563 1.24024,-4.695312 1.5434,-3.17982 1.77577,-4.46236 0.95117,-5.28711 -0.38113,-0.381027 -0.78113,-0.562617 -1.20508,-0.537109 z m 54.46289,2.630859 c -0.93673,-0.02758 -1.72227,0.486951 -2.14258,1.582031 -0.4466,1.16464 0.35731,2.551917 2.75391,4.748047 1.8613,1.70615 3.19535,3.403498 2.96875,3.773438 -0.2288,0.37015 -2.56656,1.729441 -5.19336,3.019531 -4.9108,2.41115 -5.63924,3.489732 -3.67774,5.451172 3.59752,3.288277 10.51959,-4.166731 14.29493,-5.669922 2.3351,-1.9461 2.56673,-2.540419 1.64843,-4.255859 -1.43273,-2.564292 -5.22811,-3.105615 -6.75781,-5.94336 -1.23784,-1.73876 -2.69016,-2.669613 -3.89453,-2.705078 z m -66.52539,0.216797 c -1.53571,0.0853 -5.16744,3.225943 -9.96875,5.367187 -1.09769,0.489536 -2.4082,1.940874 -2.4082,3.876954 0,0.49378 3.86647,3.773866 6.13867,4.748046 2.94134,1.276935 3.94363,3.368938 7.20898,1.283204 1.4548,-1.75287 -0.36896,-3.723237 -3.91406,-5.191407 -1.5638,-0.64798 -2.84375,-1.501211 -2.84375,-1.894531 0,-0.39348 1.48252,-1.846395 3.29492,-3.228516 1.8116,-1.38206 3.29492,-3.126703 3.29492,-3.876953 -0.0115,-0.80069 -0.29083,-1.112418 -0.80273,-1.083984 z m 29.98242,0.662109 c -2.7818,0 -1.40565,2.111245 -2.23047,5.421875 l -1.25976,5.060547 c 1.4132,1.60549 3.14524,0.967731 4.96484,0.269532 0.8167,-0.31429 1.34961,-3.138034 1.34961,-3.939454 0,-1.2785 0.2103,-1.265437 1.7207,0.101563 0.9467,0.85677 1.95904,1.556641 2.24414,1.556641 1.1618,-10e-7 1.40965,-3.780992 0.34375,-5.238282 -1.0491,-1.43456 -1.26195,-1.437239 -2.65625,-0.04297 -1.6332,1.633699 -3.04128,2.060486 -2.17578,0.660156 0.9,-1.45598 -0.53078,-3.84961 -2.30078,-3.84961 z m -59.10937,3.240235 c -0.77426,0.01157 -2.17317,0.675557 -4.1543,2.005859 -3.3338,2.23845 -4.98457,2.693775 -9.66797,2.671875 -3.1064,-0.01579 -7.67534,-0.745754 -10.15234,-1.621094 -22.0273,-7.22648 -53.19817,8.220986 -60.58985,23.564453 -2.860167,5.937068 -6.067346,11.955088 -6.593746,21.249998 -0.5811,10.28575 -7.13701,32.50564 -11.72461,39.74024 -2.9909,4.71701 -3.229878,7.51562 -0.642578,7.51562 2.0442,0 9.32515,-14.14688 11.59375,-22.5293 0.9205,-3.39907 1.985035,-6.18164 2.365235,-6.18164 1.3664,0 1.579309,3.5221 0.349609,5.74024 -0.6865,1.24366 -1.285156,3.10171 -1.285156,4.1289 -0.0183,1.02711 -1.785882,5.55175 -3.925782,10.05469 -3.6811,7.7466 -4.26094,11.70397 -1.55664,10.62305 1.2868,-0.51432 9.21289,-18.21158 9.21289,-20.57031 10e-7,-0.76575 0.422207,-1.65439 0.941407,-1.97461 2.234201,-1.38067 -0.268663,14.86502 -2.976563,19.32031 -1.8475,3.0423 -1.676253,5.98315 0.373047,6.38086 1.9272,0.37418 5.761157,-7.49669 6.847657,-14.05664 0.8546,-5.16159 1.27513,-5.86493 2.76953,-4.625 1.2325,1.02302 0.86447,5.74622 -0.51953,6.6582 -0.4159,0.27437 -1.04805,2.32934 -1.40625,4.56641 -0.5762,3.59889 -0.45357,4.02877 1.04883,3.73633 1.0316,-0.20061 2.15017,-1.80974 2.85937,-4.09571 l 1.16407,-3.76562 0.10156,4.91015 c 0.0797,3.96983 0.47803,5.11022 2.08203,5.96875 1.0915,0.58415 2.33432,0.706 2.76562,0.26954 0.8489,-0.8605 1.63938,-4.91105 1.76368,-9.0293 0.0424,-1.42373 0.46671,-2.58984 0.94921,-2.58984 1.4921,-10e-6 1.65644,3.1334 0.36524,6.94335 -1.7444,5.13651 -1.60048,9.66212 0.32812,10.40235 2.3168,0.88893 3.07539,-0.3648 4.27149,-7.06446 0.5907,-3.32435 1.19066,-6.19369 1.32226,-6.375 0.133,-0.18102 1.76224,0.1725 3.61914,0.78516 l 3.375,1.11524 L 130,169.58203 c -0.3655,3.28868 -0.38667,6.64149 -0.0723,7.45117 h 0.0176 c 0.7559,1.96963 3.16942,1.87134 4.26172,-0.17382 0.4833,-0.90606 1.17994,-4.08369 1.55274,-7.06055 0.4562,-3.65884 1.09751,-5.41211 1.97851,-5.41211 0.7195,0 1.32617,0.10497 1.32617,0.23437 1.137,11.70787 1.96589,13.77564 4.27539,10.64649 0.7421,-1.00496 1.34961,-3.90072 1.34961,-6.4336 0,-5.62079 2.09377,-5.74759 2.63477,-0.16015 0.4702,4.82712 1.71043,7.00781 3.98633,7.00781 2.0089,0 2.20656,-0.81474 1.88476,-7.76562 -0.1651,-3.54871 0.10152,-4.47071 1.29102,-4.47071 1.0819,0 1.49805,0.90293 1.49805,3.23242 -1e-5,6.2507 3.2711,10.81906 5.8789,8.21094 0.7656,-0.76545 0.73447,-2.72101 -0.11133,-7.3125 l -1.15429,-6.26758 2.63476,-1.97656 c 7.2167,-5.41221 14.1571,-13.5588 17.4375,-20.4707 3.4705,-7.31298 7.32031,-18.5885 7.32031,-21.4375 0,-0.86927 1.1644,-2.27298 2.58789,-3.11914 6.25145,-1.2839 8.19751,-11.96372 -1.39062,-7.77344 -2.51635,-1.79006 -4.85116,-14.755414 -10.43164,-19.160156 l 4.62305,-3.146485 c 4.3317,-2.9469 6.44422,-5.860685 5.16992,-7.134765 -0.3048,-0.30493 -3.29885,0.881508 -6.65235,2.636718 -5.0848,2.66183 -6.29527,2.980522 -7.29687,1.919922 -0.8408,-0.89566 -0.88709,-1.387219 -0.14649,-1.662109 4.5708,-1.69395 9.52065,-4.978171 10.68165,-7.087891 1.16499,-2.116361 1.20249,-3.180887 0.20703,-3.166015 z m 75.08398,1.464843 c -2.3431,10e-7 -3.40692,2.36636 -1.89062,4.19336 1.5668,1.88784 3.80078,0.747597 3.80078,-1.939453 0,-1.637 -0.52096,-2.253907 -1.91016,-2.253907 z m 9.50977,1.882813 c -1.8819,0 -2.63564,1.825713 -1.30274,3.158203 1.0089,1.00891 2.61487,0.14458 2.95117,-1.58789 0.2054,-1.05827 -0.33243,-1.570313 -1.64843,-1.570313 z m -119.72852,4.326172 c 3.17456,0.04362 6.30267,0.429014 9.31445,1.197265 l 3.04688,1.285157 -2.31445,1.822265 c -3.2753,2.57645 -7.20062,15.296175 -7.50782,24.316406 -0.1241,3.88291 0.10274,10.44805 0.51953,14.58984 0.41531,4.14179 1.01239,11.34247 1.33399,16.00196 0.3187,4.65954 0.88491,9.95556 1.25781,11.76758 0.8993,4.37142 0.37523,7.24225 -1.45117,7.94335 -0.8203,0.31507 -1.61798,0.4465 -1.77148,0.29297 -0.1535,-0.15345 -0.94015,-6.57213 -1.74805,-14.26367 -1.851,-17.32786 -1.86777,-37.22104 -0.0723,-47.158201 1.6735,-9.316101 1.6727,-8.941407 0,-8.941407 -3.7454,10e-7 -6.14257,12.988738 -6.14257,33.281248 -1e-5,7.39078 0.40226,15.73956 0.88476,18.55274 0.4862,2.8131 1.05311,8.39784 1.25781,12.41015 l 0.01,0.002 c 0.3333,6.52195 0.1942,7.29492 -1.3125,7.29492 -2.2862,0 -2.36657,-0.5976 -4.13867,-31.06445 -0.7305,-12.55353 -2.24983,-20.70899 -3.85743,-20.70899 -1.2964,0 -1.65424,0.99558 -1.36914,3.91797 0.0835,0.86013 -0.22042,1.79347 -0.67382,2.07422 -0.4539,0.28045 -1.34447,-3.6015 -1.98047,-8.625 -2.2738,-17.940655 -2.25076,-17.869597 -4.84766,-14.740236 -0.9665,1.16588 -0.98999,3.814 -0.11719,13.414066 1.7839,19.61925 2.97657,37.91255 2.97657,45.67382 0,7.86014 -0.93516,9.30571 -4.88086,7.54493 -1.8711,-0.83534 -1.95313,-1.57348 -1.95313,-17.76954 0.002,-15.49756 -2.13374,-39.850914 -3.62304,-41.324214 -0.31431,-0.31116 -1.10475,0.072 -1.74805,0.851563 -1.3664,1.68181 -1.3825,14.199361 0,22.632811 1.0878,6.64177 1.2289,28.67579 0.1914,30.30664 -2.1143,3.32633 -2.78898,-1.26475 -3.27148,-22.30664 -0.2794,-12.16648 -0.81675,-22.8844 -1.18945,-23.81836 -0.4643,-1.15616 -1.46959,-1.60658 -3.15039,-1.41211 -2.8228,0.32738 -2.73784,-1.16157 -1.05274,18.64258 1.0273,12.05946 0.61516,24.47266 -0.81055,24.47266 -0.3619,0 -1.28036,-0.74045 -2.04296,-1.64649 -1.123,-1.33323 -1.38672,-5.32761 -1.38672,-20.94531 0,-14.9355 -0.26478,-19.24258 -1.17578,-19.06055 -1.5813,0.31599 -1.49844,-0.13557 0.69336,-3.74023 8.49074,-13.26626 26.96088,-22.999196 44.10351,-22.763673 z m 15.0332,4.146484 c 0.9797,0 7.04923,5.261655 11.5,13.648438 6.65604,9.944641 6.2069,24.504731 0.45704,35.789061 -3.45235,8.60882 -8.77088,15.50638 -16.3418,21.16016 l -0.54102,-4.47071 c -1.10367,-9.4825 -5.22292,-53.56442 4.92578,-66.126949 z m 86.8711,3.789063 c -1.40228,0.01459 -3.51112,1.051702 -5.83008,3.035156 -1.9667,1.68261 -5.30246,4.538153 -7.41016,6.345703 -3.5341,3.02995 -4.83607,6.222597 -3.20507,7.853517 0.9555,0.95533 1.08126,0.87969 4.82226,-2.902345 4.5731,-4.62234 11.69111,-10.589844 12.63281,-10.589844 0.4064,0 0.74414,-0.847361 0.74414,-1.882812 0,-1.262875 -0.66324,-1.87072 -1.7539,-1.859375 z m -37.31055,3.271484 c -2.2716,0 -3.08633,3.628903 -1.29883,5.783203 1.0695,1.28856 1.33564,1.258773 2.46094,-0.279297 1.7852,-2.44222 1.13929,-5.503906 -1.16211,-5.503906 z m 43.85742,0.833984 c -1.02806,-0.03552 -1.42304,1.00588 -1.20508,3.128907 0.24631,2.40083 -0.095,2.96137 -2.11718,3.46875 -2.289,0.57493 -3.28096,3.152465 -1.78516,4.648441 1.0703,1.07017 2.92721,0.70504 7.34961,-1.443363 5.0774,-2.46707 5.39556,-4.338941 1.31836,-7.769531 -1.57784,-1.327774 -2.76094,-2.005578 -3.56055,-2.033204 z m -29.84179,2.136719 c -1.44276,0.08062 -2.22885,1.825773 -1.54688,3.853516 v 0.002 c 0.4979,1.47659 1.4275,1.492922 2.875,0.04492 1.6625,-1.66273 1.37673,-3.292235 -0.67187,-3.828125 -0.23057,-0.06042 -0.45015,-0.08378 -0.65625,-0.07227 z m 48.14843,3.363281 c -0.71527,0.0343 -1.42731,0.539109 -1.69922,1.576172 -0.2704,1.03566 -0.006,2.079783 0.58594,2.320313 1.8292,0.74323 2.95899,0.04716 2.95899,-1.824219 0,-1.382091 -0.92607,-2.116363 -1.84571,-2.072266 z M 171.3418,98.494141 c -2.6064,0 -2.39627,2.478199 -1.67383,5.074219 0.75838,5.71506 1.95927,5.85095 4.25195,6.22266 1.0608,0 1.85083,-0.68634 1.92383,-1.64844 0.3765,-5.72279 -1.45485,-9.648439 -4.50195,-9.648439 z m -69.29297,9.660159 c 0.57128,-0.0507 0.81891,4.35815 0.57422,13.07812 h -0.004 c -0.1901,6.84574 -0.512,12.61267 -0.7168,12.81446 -0.9643,0.96431 -2.543362,-11.0098 -2.009762,-15.23829 0.895172,-7.0917 1.652172,-10.60955 2.156252,-10.65429 z m 125.94336,4.71093 c -0.14762,-0.008 -0.30856,-0.005 -0.48438,0.008 -1.8037,0.13598 -2.58056,2.49527 -1.25586,3.82031 1.4111,1.41087 3.13867,0.49257 3.13867,-1.66797 10e-6,-1.50005 -0.36508,-2.10347 -1.39843,-2.16016 z m 15.24609,0.16407 c -0.46172,-0.0288 -0.89547,0.15338 -1.17969,0.61328 -0.3361,0.51989 -0.35736,1.55877 -0.0723,2.31054 H 242 c 0.7647,1.99435 3.40625,1.67373 3.40625,-0.41406 0,-1.36607 -1.15219,-2.44639 -2.16797,-2.50976 z m -25.03711,0.73828 c -0.43756,-0.0452 -0.869,0.18993 -1.4707,0.68945 -0.8013,0.6661 -1.45899,2.00646 -1.45899,2.97852 h -0.002 c 0,2.17764 3.03099,2.37525 4.74609,0.30859 1.00011,-1.20374 0.94646,-1.72527 -0.30664,-2.97852 -0.62655,-0.62643 -1.07025,-0.95283 -1.50781,-0.99804 z m -82.83984,1.66992 c 0.7135,8.8e-4 1.4867,7.62001 1.7207,16.94336 0.0965,3.88291 0.48072,10.53205 0.85352,14.77539 h 0.0254 c 0.3729,4.24333 0.43703,8.39523 0.14453,9.22656 -1.1602,3.30717 -1.88794,-0.32418 -1.96094,-9.80273 -0.0439,-5.47926 -0.36528,-14.72798 -0.70898,-20.55274 -0.3654,-5.82477 -0.38872,-10.5902 -0.0742,-10.58984 z m 83.24609,12.32422 c -0.64039,0.0733 -1.48423,0.50175 -2.49023,1.41211 -0.911,0.82445 -3.03721,2.2024 -4.72461,3.06055 -1.6881,0.85816 -3.22982,2.06288 -3.41992,2.67773 -0.81166,3.69147 3.05052,5.28822 8.41211,6.44727 2.97947,1.06143 4.5332,-0.43391 4.5332,-2.06446 0,-0.74623 -1.27529,-1.89304 -2.83399,-2.54883 l -2.83398,-1.1914 2.36328,-2.22071 c 2.98943,-2.80855 2.91533,-5.79222 0.99414,-5.57226 z m 37.32031,0.88476 c -2.0332,0.0378 -4.81936,3.4554 -5.01757,5.36133 l -0.48633,4.6836 c 0.8042,2.09713 3.6955,-2.37159 6.0957,-5.41016 2.2935,-2.90815 2.0679,-4.68587 -0.5918,-4.63477 z m 7.40235,1.94336 c -0.67424,0.0599 -0.99414,0.96467 -0.99414,2.73243 0,2.38461 0.36631,2.82421 2.35351,2.82421 2.7014,0 3.1077,-1.93484 0.875,-4.16796 -0.97077,-0.97054 -1.70997,-1.43528 -2.23437,-1.38868 z m -34.26367,1.28711 c -1.0138,-0.0768 -1.5586,0.94092 -1.5586,2.98243 0,1.74168 0.43262,2.28449 1.63672,2.05273 2.012,-0.38748 2.76395,-3.55701 1.08985,-4.5918 -0.4392,-0.27149 -0.83004,-0.41776 -1.16797,-0.44336 z m 13.55859,0.50391 c -1.346,0 -2.17269,1.80105 -1.55859,3.40039 h -0.01 c 0.3013,0.78229 0.97699,1.16224 1.49609,0.83984 1.2084,-0.74045 1.25957,-4.24023 0.0723,-4.24023 z m -130.14258,48.94922 c -14.238706,0.18395 -23.598497,4.28694 -33.146482,20.57226 -10.545701,21.696 -19.149897,58.88306 -21.404297,87.14649 0.1235,8.58874 0.668872,9.90244 4.138671,9.93164 1.4571,0.0128 1.648438,-1.0479 1.648438,-9.21289 0.2895,-29.55728 13.713108,-72.44975 21.019531,-85.53906 8.351164,-12.52073 16.543849,-18.43924 34.988279,-15.98438 6.62473,0.88172 37.02403,3.16437 40.18164,12.70313 1.8313,4.58008 2.10836,6.91076 2.00586,16.62304 -0.0797,7.40451 -0.60398,12.59238 -1.52148,15.06055 -0.886,2.38251 -1.57571,3.24793 -1.88281,2.35352 -0.2668,-0.77663 -2.6986,-7.44236 -5.4043,-14.8125 -4.8231,-13.13893 -4.90179,-12.92926 -7.38281,-12.81055 -1.83672,0.0879 -3.26353,1.64608 -2.31641,3.61914 -0.2003,0.17064 2.1336,6.74382 5.8125,17.92969 l 6.68945,20.33789 c -4.48653,11.98412 -5.96907,24.64604 -7.07031,37.61133 -0.7018,13.7871 -0.43943,14.70344 3.88867,13.61718 2.227,-0.56601 2.29883,-0.76686 2.29883,-10.40429 0,-9.2473 2.24726,-27.74495 3.69336,-30.41211 0.4014,-0.73958 2.44571,2.55774 5.25391,8.47265 5.1651,10.8791 13.60596,26.01543 17.06836,30.60742 9.41307,11.65143 14.26961,6.42509 20.64453,-11.51171 2.27071,-4.56194 5.3985,-16.03241 9.1914,-24.70704 l 2.98243,-6.82031 c 41.413,1.85966 77.55072,4.62276 120.66992,8.79297 4.7469,0.30889 7.95321,-0.49287 6.22851,-1.55859 -0.4664,-0.2887 -5.48835,-0.9969 -11.16015,-1.57227 -5.6712,-0.57537 -13.4882,-1.44694 -17.3711,-1.9375 -31.8241,-3.93884 -64.72889,-5.29983 -96.17968,-7.13867 -0.97301,-0.58788 2.02574,-9.33514 4.96484,-14.47852 0.4437,-0.77658 1.71567,-3.42363 2.82617,-5.88281 1.313,-2.90785 2.60577,-4.4707 3.69727,-4.4707 2.3146,0 1.33114,3.49617 -1.72266,6.12304 -1.9111,1.64109 -2.14501,2.3343 -1.32031,3.875 0.7889,1.47467 1.72424,1.79169 4.37304,1.48243 2.792,-0.32533 3.26817,-0.13386 2.79297,1.10937 -1.052,2.7424 3.74062,3.64207 13.23242,2.48438 5.78973,-0.70601 13.06512,-0.37684 18.12305,-5.05469 14.55512,-13.04817 31.08768,-19.81515 41.68164,-37.31641 0,-4.99162 -2.54609,-5.98427 -14.83789,-5.78906 -32.82342,0.41448 -59.74142,-3.07294 -93.41406,-5.57226 -19.5143,-2.31713 -26.01167,-2.53946 -27.60547,-0.94532 -1.6764,1.67648 0.57968,2.60124 8.20508,3.36524 3.6811,0.36862 7.54097,0.83264 8.57617,1.02929 1.0361,0.19667 6.89433,0.87543 13.01953,1.50782 l 11.13672,1.15039 -3.13672,2.59961 c -3.3865,2.80945 -5.62845,3.10107 -15.75195,2.04297 -4.3522,-0.45483 -5.7112,-0.93313 -5.3457,-1.88282 0.5732,-1.4929 -0.27093,-4.09765 -1.32813,-4.09765 -0.4036,0 -2.23396,1.54669 -4.06836,3.43554 -2.3848,2.45479 -4.22674,3.47969 -6.46094,3.59375 -1.7195,0.0877 -3.81405,0.47361 -4.65625,0.85742 -1.1289,0.51485 -1.68095,0.10607 -2.09765,-1.55468 -4.37416,-9.89348 -15.25088,-14.95833 -28.6875,-16.81641 -4.62421,-0.63945 -11.43645,-0.89877 -15.06055,-1.35351 -3.86779,-0.27333 -7.41336,-0.44089 -10.69922,-0.39844 z m 103.27149,14.30273 c 3.20654,-0.064 6.94887,1.34341 10.19921,0.75781 -1.3775,1.46627 -2.71537,2.95153 -4.34179,4.1543 -1.4937,1.57176 -8.16787,-0.51464 -12.69531,-0.16601 1.60454,-1.70748 3.05599,-2.30227 4.71679,-4.42383 0.67025,-0.21418 1.38112,-0.30749 2.1211,-0.32227 z m 15.87695,1.00977 c 0,0 4.83611,0.19867 8.85352,0.70312 0,0 -1.71514,1.84454 -3.24024,4.28711 -0.52383,1.3039 0.17336,0.40625 -4.46094,0.40625 h -5.56836 z m 14.25195,1.03711 c 6.24502,1.23573 11.61733,0.27302 17.39453,1.55273 -2.51811,2.16427 -3.50409,3.3468 -5.88867,3.7207 -2.38457,0.37391 -6.16845,-0.0601 -14.2832,-1.13085 0.29323,-2.33831 2.77734,-4.14258 2.77734,-4.14258 z m 27.4961,1.53515 h 8.2207 l -3.46289,2.35352 c -2.5648,1.74278 -4.6983,2.35352 -8.2207,2.35352 -4.4421,0 -7.74204,0.44937 -4.75586,-2.35352 2.02678,-1.90237 0.0788,-2.35352 8.21875,-2.35352 z m 11.83789,0.48438 4.83593,0.0293 c 4.1708,0.13306 7.75275,0.28288 7.96485,0.33398 1.5653,0.38251 -15.91055,15.29985 -27.03125,23.07422 -4.3025,3.00756 -9.17262,6.7049 -10.82422,8.2168 -5.66118,4.92951 -13.61602,7.02718 -21.88477,7.39648 -1.7817,0 -3.24023,-0.4238 -3.24023,-0.94141 0,-0.51798 0.37914,-0.9414 0.83984,-0.9414 0.4613,0 2.88833,-1.69474 5.39453,-3.76563 2.5055,-2.07089 5.51856,-3.76562 6.69336,-3.76562 1.4914,0 2.13477,-0.554 2.13477,-1.83985 0,-1.01249 1.02846,-3.3569 2.28516,-5.20898 1.2568,-1.85208 2.46871,-3.88153 2.69531,-4.51172 0.226,-0.63021 0.75075,-0.8306 1.16015,-0.44531 0.4094,0.38514 0.10893,1.44432 -0.67187,2.35351 -1.9359,2.25125 -2.80531,4.94727 -1.59961,4.94727 0.5439,0 2.75401,-1.41843 4.91211,-3.15039 4.03457,-3.14082 8.81951,-6.22258 12.89648,-9.97461 4.7572,-3.3373 6.32354,-3.95013 9.64844,-3.77539 2.1831,0.1184 4.49569,0.15513 5.14649,0.082 2.0214,-0.2172 1.28642,-1.94468 -1.08008,-2.53906 -1.5588,-0.39113 -2.37938,-1.37647 -2.64258,-3.17774 z m -102.63086,2.54297 c 1.45466,-0.0204 3.35035,0.11852 6.13281,0.36719 4.5094,0.40284 8.5168,0.65018 8.9043,0.55078 1.2325,-0.31612 0.75653,1.4281 -0.73047,2.66211 -1.0258,0.85172 -3.32113,1.01456 -8.08203,0.57226 -6.47021,-0.60141 -6.75281,-0.53617 -10.45313,2.39453 -2.09233,1.6572 -5.0191,4.69194 -6.50586,6.74414 l -2.70312,3.73242 v -3.61328 c 0,-4.53058 3.00941,-9.07677 7.78711,-11.76172 2.027,-1.13913 3.22595,-1.61436 5.65039,-1.64843 z m 26.3457,1.91015 c 0.66708,0.0233 1.41397,0.0961 2.27539,0.21289 5.2185,0.70777 5.22592,0.7101 4.48242,2.64844 v 0.002 c -0.4175,1.08823 -1.85479,1.47256 -5.43359,1.44336 -2.6765,-0.019 -5.69864,-0.34273 -6.71484,-0.7207 -1.7356,-0.64453 -1.69584,-0.78779 0.66406,-2.33398 1.44825,-0.94866 2.72533,-1.3219 4.72656,-1.25196 z m 18.39453,0.78907 c 1.39817,0.0748 1.24839,0.75126 0.14844,2.80664 -0.5703,1.06491 -1.96448,1.82226 -3.35938,1.82226 -1.9388,0 -2.32723,-0.4007 -2.08593,-2.11914 0.231,-1.62331 1.01477,-2.1862 3.35937,-2.41211 0.832,-0.0802 1.47145,-0.12258 1.9375,-0.0977 z m 22.735,0.95364 c 0.30041,0.0297 2.86266,0.0561 2.86266,0.41745 0,0.27979 -0.92805,1.7627 -2.06055,3.29492 -1.3327,1.80185 -2.89568,2.78516 -4.42578,2.78516 -2.3578,0 -3.36919,0.24722 -0.13129,-3.00575 2.15828,-2.16876 2.85375,-3.58084 3.75496,-3.49178 z m -9.64751,0.56306 c 0.71637,-0.0387 -2.23732,2.20619 -2.55772,4.55684 0,0 -3.71819,0.84591 -5.13236,-0.53401 0.95673,-1.49794 1.50452,-2.2523 3.35342,-4.47184 0.96327,-0.30904 0.5367,0.11874 4.33666,0.44901 z m 24.70939,0.28798 c 2.6093,0 4.71484,0.31687 4.71484,0.70508 -0.0161,0.38829 -1.85875,2.08309 -4.09375,3.76563 -4.0202,3.02674 -6.66941,3.52327 -12.69141,2.38086 -2.0216,-0.38353 -1.78926,-0.71257 2.55274,-3.63672 3.8646,-2.60269 5.67788,-3.21485 9.51758,-3.21485 z m -80.61674,4.17565 c 1.64707,0.27012 3.98691,0.27573 5.34916,1.12514 -2.55729,2.3583 -1.3763,1.82249 -3.05859,3.54882 -5.16291,5.29706 -6.51408,7.27079 -5.95118,8.72852 0.4525,1.17902 1.05753,1.07979 3.83203,-0.63477 2.7752,-1.71412 3.29493,-1.802 3.29493,-0.54883 0,1.39917 2.03479,1.82822 8.65039,1.82422 2.5403,0.0297 -3.22651,4.65471 7.3125,0.60743 4.6592,0 4.66561,0.001 5.22851,3.52929 0.3115,1.94149 1.25375,5.01221 2.09375,6.82422 1.7364,3.74459 1.7016,4.21592 -0.8125,10.93555 l -1.83203,4.89844 -16.77734,-0.51172 c -2.1746,-0.0727 -23.29761,0.32994 -13.88282,2.0957 0.9606,0.18146 7.31415,0.62248 14.11915,0.97852 6.805,0.35633 14.07196,1.06237 14.69335,1.39648 -1.4066,4.35253 -15.01191,42.33802 -17.46484,40.45117 -9.24886,-8.71363 -16.02509,-27.21627 -23.9414,-42.83008 -2.62541,-5.90249 -2.61019,-6.62353 0.38671,-16.90234 1.3525,-4.63718 2.45899,-9.87811 2.45899,-11.64648 0,-2.76894 0.19849,-3.05107 1.42969,-2.0293 1.1697,0.97074 1.76842,0.88125 3.29492,-0.5 1.0257,-0.92827 1.86523,-2.20036 1.86523,-2.82617 0,-0.62552 2.08717,-3.08999 4.63867,-5.47657 3.26198,-3.0513 3.59297,-3.18671 5.07272,-3.03724 z m 20.63115,2.16525 c -1.70528,3.70347 -4.723,5.1441 -6.66088,7.83774 -2.5931,0.14574 -10.33776,-0.28078 -9.51856,-1.24813 2.33645,-1.85572 5.30427,-7.94717 5.75698,-7.45766 2.64582,-0.1527 8.99994,0.94511 10.42246,0.86805 z m 9.33886,0.41882 c -0.73005,3.08079 -3.96567,6.52542 -5.56221,9.11333 -1.71253,-0.31999 -3.08125,-0.58873 -4.82422,-0.92773 l 0.89342,-1.96788 c 1.10064,-2.42433 5.14223,-5.47621 4.87913,-6.16417 1.90649,0.26473 2.62709,-0.29139 4.61388,-0.0536 z m 8.64477,0.14849 c 0.37413,-0.0229 0.6211,-0.002 0.6211,0.0859 0,0.16325 -0.86658,2.25677 -1.92578,4.65235 -1.343,3.03565 -2.48403,4.35547 -3.76563,4.35547 -1.0111,0 -1.83789,-0.19821 -1.83789,-0.43946 0,-0.33367 2.47235,-6.06979 3.37305,-7.82617 0.1491,-0.29006 2.41279,-0.75942 3.53515,-0.82812 z m 9.17383,1.14062 c 0.11842,-10e-4 0.23339,0.0214 0.3457,0.0645 1.1259,0.43361 1.01479,1.21612 -0.66601,4.67578 -1.1105,2.28526 -2.56959,4.15429 -3.24219,4.15429 -1.6903,0 -1.53444,-1.34596 0.66406,-5.65429 1.09192,-2.14072 2.06954,-3.23191 2.89844,-3.24024 z m 11.87305,1.36328 c 1.7086,0 3.10742,0.33081 3.10742,0.73438 0,0.40334 -1.53074,2.30997 -3.40234,4.23633 -1.87074,1.92591 -4.19288,3.50195 -5.16211,3.50195 -1.6823,0 -1.66773,-0.20114 0.29297,-4.23633 1.8212,-3.74897 2.41366,-4.23633 5.16406,-4.23633 z m -27.3418,10.4043 c 0.19993,0.0151 0.4184,0.05 0.65821,0.10352 h 0.002 c 1.23283,0.27584 1.24526,0.55783 0.0996,2.10937 -1.2122,1.64269 -1.37255,1.65977 -1.93555,0.19531 -0.64479,-1.68108 -0.2278,-2.51452 1.17578,-2.4082 z m -45.74414,4.48242 c -1.70875,-0.0187 -2.38737,0.2576 -2.625,0.875 -0.7406,1.92848 -0.009,2.21454 6.92578,2.71094 6.39659,0.46993 9.50637,1.1703 16.74219,2.07812 3.81137,0.13587 7.14258,-0.80756 7.14258,-1.66601 0,-0.84397 -2.17123,-1.25519 -12.70703,-2.4082 -2.5889,-0.2833 -7.61317,-0.84399 -11.16407,-1.2461 -1.89363,-0.21436 -3.2892,-0.3325 -4.31445,-0.34375 z" fill="#000000" transform="translate(378.61477,-11.415561) matrix(0.61951478,0,0,0.61951478,-414.50428,-18.041346)"/>
</svg>