<?xml version="1.0" ?><svg xmlns="http://www.w3.org/2000/svg" width="271.53278mm" height="193.14163mm" viewBox="0 0 271.53278 193.14163">
    <path d="m 17883.193,8182.8672 c -5.742,-0.1155 -11.392,0.1325 -16.254,1 -19.447,3.4701 -29.729,8.5504 -38.279,13.5293 -8.55,4.9788 -17.435,18.1055 -17.435,18.1055 0,0 -36.212,22.0779 -39.565,26.6542 -3.353,4.5767 -0.389,13.1764 2.182,16.6465 2.57,3.4701 -15.257,19.8641 -18.666,25.1446 -3.408,5.2806 -13.578,11.5666 -7.822,19.0097 5.756,7.4431 37.384,-3.9726 37.384,-3.9726 0,0 -22.912,33.8461 -28.556,47.123 -5.644,13.2769 -9.947,17.1998 -2.682,21.4746 7.264,4.2747 44.984,-22.2793 44.984,-22.2793 0,0 -27.716,63.9212 -19.445,70.8614 8.27,6.9402 28.275,-11.4668 28.275,-11.4668 0,0 -4.079,26.0498 8.159,28.5644 12.238,2.5146 31.572,-35.8066 31.572,-35.8066 0,0 33.893,36.9744 63.133,41.6465 27.437,2.3133 98.07,-8.1983 108.017,-65.2286 9.947,-57.0303 -11.734,-114.5625 -11.734,-114.5625 0,0 10.52,-21.7324 -3.842,-38.1777 -14.361,-16.4452 -48.17,-35.0019 -48.17,-35.0019 l -35.986,0.705 c 0,0 -18.044,-3.6222 -35.27,-3.9687 z m 616.217,50.8262 c -23.536,0.6905 -69.895,18.8153 -88.918,37.8671 -20.291,20.322 -33.179,55.0715 -33.019,86.2735 0,0 4.899,34.5566 19.279,58.7129 14.379,24.1564 39.675,18.5013 85.316,15.8652 45.641,-2.6361 67.958,-21.4723 81.698,-54.1601 13.74,-32.6877 18.319,-61.5895 2.341,-99.1661 -15.977,-37.5765 -40.686,-43.4716 -62.308,-45.2929 -1.352,-0.1139 -2.82,-0.1457 -4.389,-0.1 z m -342.019,152.4375 c -3.183,-0.051 -6.462,1.7407 -9.518,2.1367 -6.985,0.9053 -32.634,4.8797 -59.402,12.1719 -26.767,7.2922 -20.396,16.7966 -20.508,36.8125 -0.657,26.0101 44.132,178.021 51.955,180.5859 7.823,2.5649 34.814,-5.3806 53.367,-13.5781 18.552,-8.1974 34.158,-23.2752 33.264,-32.0762 -0.894,-8.8009 -32.58,-146.6497 -38.057,-169.834 -3.08,-13.0412 -7.01,-16.1532 -11.101,-16.2187 z m -282.92,87.2011 c -66.621,-0.7935 -107.405,50.4752 -127.791,108.6055 -21.744,62.0055 -45.076,234.7199 -37.991,287.0508 1.832,26.7151 88.444,34.6322 131.811,34.7422 43.366,0.1099 100.537,4.0675 98.338,-15.9414 -2.199,-20.0089 -3.055,-27.5953 -3.666,-67.2832 -0.611,-39.688 15.758,-192.3927 22.599,-237.6875 6.841,-45.2948 5.131,-100.1557 -69.63,-108.6211 -4.673,-0.5291 -9.229,-0.8124 -13.67,-0.8653 z m 668.363,5.1778 c -21.982,-0.5692 -44.044,4.8716 -60.873,9.0175 0,0 -52.269,18.4694 -65.637,47.5625 -5.462,11.8877 -8.566,47.5149 -10.412,85.4102 -62.106,-5.4941 -156.469,-13.1934 -156.469,-13.1934 0,0 -10.976,7.452 -13.379,14.9454 -2.403,7.4933 -12.741,80.0144 -16.15,103.7519 -3.409,23.7375 1.062,23.3843 8.941,23.7363 5.907,0.2639 116.675,16.1024 173.598,21.3028 0,28.6688 1.729,66.9733 10.26,86.5859 14.592,33.5505 79.806,29.9303 125.021,26.5273 45.215,-3.403 124.568,-21.4717 126.432,-34.0292 1.864,-12.5575 -4.505,-107.0595 -10.896,-173.9688 -6.391,-66.9093 -17.024,-130.8281 -50.043,-170.6094 -16.51,-19.8906 -38.411,-26.4699 -60.393,-27.039 z" transform="translate(24.649582,-85.594687) matrix(0.26458333,0,0,0.26458333,-3857.3744,-641.61405) translate(-3214.0181,-5425.6289)" fill="#FFFFFF"/>
    <path d="m 14666.488,2748.5702 c -18.259,0.6188 -36.433,5.6419 -45.254,13.8594 -7.933,7.39 -7.171,11.0206 1.609,7.6816 13.213,-5.033 41.293,-7.6952 54.649,-5.1992 7.151,1.337 18.869,6.4654 26.039,11.3984 l 13.033,8.9668 -13.088,3.6954 c -12.132,3.4269 -13.527,3.2919 -19.068,-1.8711 -19.82,-18.466 -81.349,-11.4568 -119.137,13.5742 -17.63,11.677 -23.963,29.5874 -12.072,34.1504 2.614,1.002 -0.879,6.1435 -11.172,16.4355 -17.627,17.629 -20.057,28.9629 -7.912,36.9199 6.675,4.376 7.468,4.3296 14.525,-0.8144 16.17,-11.791 16.941,-8.467 2.168,9.332 -26.267,31.645 -30.478,58.9238 -9.098,58.9238 6.656,0 12.584,-2.8591 21.161,-10.2011 10.943,-9.367 11.745,-9.65 9.832,-3.459 -1.145,3.709 -3.627,9.8541 -5.512,13.6601 -1.886,3.803 -4.904,13.2028 -6.707,20.8848 -4.425,18.837 -0.79,28.918 10.429,28.918 4.417,0 9.637,-1.9348 11.6,-4.3008 3.129,-3.769 3.997,-3.2826 7.035,3.9434 1.905,4.532 6.596,10.2898 10.42,12.7968 9.671,6.335 16.596,2.013 25.645,-15.998 3.985,-7.935 7.645,-14.872 8.136,-15.418 0.487,-0.546 6.875,3.9891 14.192,10.0781 15.098,12.559 31.906,21.6059 47.158,25.3809 14.236,3.525 43.292,0.6824 61.088,-5.9746 20.706,-7.749 48.74,-34.3612 55.121,-52.3262 4.557,-12.829 5.316,-13.5195 14.881,-13.5195 10.876,0 17.885,-5.686 15.303,-12.416 -0.998,-2.597 -5.167,-4.1856 -11,-4.1856 h -9.395 v -25.664 c 0,-27.264 -5.341,-51.604 -14.949,-68.127 -3.827,-6.58 -4.593,-10.2715 -2.553,-12.3105 4.174,-4.174 3.595,-20.1379 -1.058,-29.1309 -5.831,-11.278 -25.413,-27.9438 -35.112,-29.8848 -4.636,-0.927 -9.095,-3.4219 -9.908,-5.5449 -3.756,-9.787 -36.694,-16.4668 -44.197,-8.9648 -2.142,2.141 -6.645,1.7492 -15.869,-1.3828 -9.018,-3.0615 -20.006,-4.2775 -30.963,-3.9063 z m 58.197,16.1348 c 4.451,0 20.953,7.416 20.953,9.416 0,0.536 1.884,5.487 4.188,10.998 2.303,5.512 3.234,9.8365 2.074,9.6075 -21.679,-4.239 -25.23,-6.2025 -25.014,-13.8145 0.12,-4.243 -1.368,-9.6259 -3.307,-11.9609 -2.926,-3.529 -2.739,-4.2461 1.106,-4.2461 z m 43.287,17.9843 6.963,8.3008 c 3.829,4.565 8.798,11.7252 11.041,15.9102 h -0.01 c 4.805,8.969 2.933,9.201 -9.101,1.123 -7.172,-4.814 -8.893,-7.8354 -8.893,-15.6504 z m -113.256,10.4922 c 11.637,0.259 21.915,1.7831 26.541,4.4766 3.918,2.281 4.048,2.8716 0.662,2.9316 -2.324,0.047 -8.466,2.9881 -13.646,6.5391 -7.715,5.288 -11.381,6.0938 -20.277,4.4668 -13.607,-2.488 -45.163,3.6971 -65.25,12.7871 -8.172,3.701 -15.882,6.7285 -17.129,6.7285 -4.359,0 -5.812,-5.8078 -2.467,-9.8398 5.475,-6.597 36.31,-20.1396 56.871,-24.9766 10.062,-2.3665 23.058,-3.3723 34.695,-3.1133 z m 638.592,3.1485 c -7.318,-0.2906 -15.127,0.5931 -23.355,2.6601 -24.232,6.086 -41.425,15.4239 -53.577,23.9141 -13.162,9.1961 -13.566,14.9947 -18.853,12.6484 -4.266,-1.8935 -8.937,0.1715 -21.231,8.6895 -14.756,10.227 -22.077,26.2909 -17.281,37.9199 2.088,5.06 2.681,11.7593 1.477,16.7363 -1.855,7.0762 -3.143,14.2897 -5.02,21.3575 -22.395,3.7921 -25.637,23.7425 -3.486,20.498 0,0 0,1.4143 2.445,14.3613 3.642,19.344 13.228,45.2971 19.664,53.2461 2.639,3.26 10.973,7.5834 18.518,9.6094 31.361,8.417 99.425,2.337 127.801,-11.416 17.899,-8.675 26.69,-19.1552 43.412,-51.7442 15.057,-29.342 18.497,-49.6397 12.58,-74.2597 -1.963,-8.17 -3.69,-21.7023 -3.815,-30.0723 -0.176,-11.029 -1.942,-17.5982 -6.414,-23.8672 -7.421,-10.406 -24.833,-19.5579 -29.095,-15.2949 -1.986,1.988 -5.579,0.8115 -11.639,-3.8125 -9.109,-6.9462 -19.935,-10.6896 -32.131,-11.1738 z m -574.088,11.6035 c 7.148,0.3562 12.582,1.6876 12.582,3.8086 0,1.133 -4.668,2.8057 -10.375,3.7187 -13.976,2.238 -35.902,13.5528 -47.73,24.6368 -5.327,4.9889 -16.94,17.1495 -25.809,27.0195 -14.361,15.971 -15.915,17.0325 -14.195,9.6465 7.774,-33.369 31.561,-58.7221 62.658,-66.7891 6.859,-1.779 15.721,-2.3973 22.869,-2.041 z m 570.221,6.7441 c 10.602,-0.214 33.068,10.9206 33.172,16.4336 0.04,2.283 0.981,5.6011 2.092,7.3711 1.11,1.773 0.456,3.7496 -1.458,4.3926 -9.367,10.1555 9.515,37.3048 16.588,25.5351 1.405,-2.503 4.271,-3.6109 6.836,-2.6269 7.296,2.801 11.863,18.0698 11.442,38.2598 -0.336,16.149 -1.986,22.0684 -11.067,39.7324 -15.047,29.266 -25.695,40.7341 -44.633,48.0781 -13.296,5.154 -22.965,6.3444 -60.119,7.3984 -52.544,1.492 -53.222,1.1941 -63.74,-27.8457 -8.273,-22.8331 -6.875,-33.8906 -6.875,-33.8906 12.473,0.038 22.995,-5.2779 24.172,-9.7734 1.177,-4.4954 -6.99,-8.1706 -22.619,-8.2129 0,0 0.675,-3.4698 2.4,-16.4688 2.862,-21.573 15.42,-44.4035 29.787,-54.1445 15.396,-10.438 26.121,-14.5661 38.541,-14.8281 10.973,-0.232 27.223,-4.9779 31.541,-9.2129 1.811,-1.775 -2.01,-2.1734 -11.066,-1.1523 l -13.834,1.5605 15.217,-5.2188 c 8.371,-2.87 19.001,-5.2827 23.623,-5.3867 z m -548.565,11.4571 c 1.851,-0.04 3.577,0.041 5.151,0.2519 5.969,0.798 16.728,4.3677 23.908,7.9297 10.656,5.286 14.525,9.3814 21.043,22.2734 6.659,13.166 8.222,20.2512 9.391,42.5762 1.348,25.787 1.154,26.9685 -5.221,31.8125 -5.765,4.378 -6.171,5.7662 -3.135,10.6992 2.84,4.609 2.769,7.3505 -0.375,14.6485 -5.476,12.721 -25.609,31.1704 -41.807,38.3144 -17.237,7.602 -45.845,9.503 -60.189,4 -13.673,-5.246 -32.981,-18.6943 -41.676,-29.0273 -14.163,-16.833 -18.761,-50.8359 -9.412,-69.6289 6.325,-12.719 41.41,-49.3514 55.895,-58.3614 14.481,-9.0081 33.474,-15.2104 46.427,-15.4882 z m -106.498,2.207 h 9.118 l -7.725,9.6855 c -4.441,5.564 -10.211,9.6856 -13.565,9.6856 -3.21,0 -12.698,3.6588 -21.084,8.1328 -9.097,4.857 -17.543,7.5364 -20.943,6.6484 -3.137,-0.82 -12.325,1.0152 -20.422,4.0762 -25.854,9.779 -26.37,9.7681 -15.373,-0.2949 20.179,-18.471 66.35,-37.9336 89.994,-37.9336 z m 658.67,0.9297 c -5.206,0.6126 -13.793,3.1486 -24.463,7.3808 -6.848,2.716 -20.892,7.086 -31.207,9.711 -18.822,4.79 -35.172,13.5694 -37.293,20.0254 -1.506,4.59 -2.355,4.8216 22.873,-6.1914 12.161,-5.308 24.599,-9.6861 27.643,-9.7461 3.044,-0.052 11.136,-2.7121 17.984,-5.9121 6.848,-3.198 16.093,-6.6272 20.545,-7.6172 4.451,-0.992 8.644,-3.4585 9.319,-5.4825 0.373,-1.1183 -0.121,-1.822 -1.37,-2.1308 -0.934,-0.2316 -2.296,-0.2415 -4.031,-0.037 z m -674.338,34.2715 c 1.013,-0.2392 1.641,-0.1742 1.784,0.2558 1.828,5.485 -5.258,17.3896 -11.84,19.8926 -3.87,1.471 -18.23,13.5477 -31.912,26.8398 -29.051,28.2219 -34.629,32.2047 -31.608,22.5567 3.03,-9.674 17.057,-29.1878 29.237,-40.6738 11.26,-10.619 37.249,-27.1971 44.339,-28.8711 z m 664.639,9.0722 c -8.878,0 -13.455,12.3355 -6.978,18.8125 8.232,8.232 18.772,-0.9515 13.748,-11.9765 -1.714,-3.761 -4.759,-6.836 -6.77,-6.836 z m -46.021,11.3086 c -1.365,-0.075 -2.955,0.3921 -4.7,1.4863 -5.863,3.6752 -7.677,13.8478 -3.392,19.0118 4.644,5.596 10.47,2.1609 12.574,-7.4121 1.701,-7.7475 -0.387,-12.8601 -4.482,-13.086 z m -526.665,6.7246 c -7.554,1.2581 -12.506,16.2485 -5.841,22.916 1.827,1.826 4.067,3.3204 4.98,3.3204 7.964,0 11.725,-22.9971 4.231,-25.8711 -1.159,-0.4452 -2.291,-0.545 -3.37,-0.3653 z m 593.151,0.2051 c -0.581,-0.015 -1.197,0.066 -1.824,0.2207 -2.51,0.6206 -5.222,2.4499 -6.772,4.2637 -1.989,2.3263 -7.76,4.2832 -12.9,4.2832 -10.658,0 -12.612,2.6023 -3.363,6.3183 9.189,4.8208 29.968,-6.3018 28.597,-11.8789 -0.557,-2.2644 -1.995,-3.162 -3.738,-3.207 z m -563.664,1.1289 c -9.247,0 -14.668,17.3398 -7.625,24.3828 4.62,4.62 8.447,2.8279 12.728,-5.9551 4.48,-9.1898 1.921,-18.4277 -5.103,-18.4277 z m -128,4.3887 2.019,17.4238 c 1.953,16.813 1.732,17.731 -6.287,26.166 -4.571,4.811 -12.838,15.9033 -18.371,24.6543 -16.653,26.338 -16.368,20.7947 1.104,-21.4433 5.665,-13.697 12.826,-29.8296 15.916,-35.8516 z m 699.588,5.5488 c -2.199,0.086 -5.641,1.9585 -10.604,5.627 -5.879,4.344 -10.254,5.4667 -16.488,4.2187 -9.258,-1.851 -11.565,2.1227 -3.645,6.2442 11.236,5.847 30.863,-3.7005 33.895,-11.002 1.332,-3.2094 -0.957,-5.1743 -3.158,-5.0879 z m -66.395,5.8477 c -2.007,0 -5.134,1.7847 -6.947,3.9707 -1.812,2.185 -6.956,4.7777 -11.43,5.7597 -11.586,2.543 -6.812,7.0616 6.074,6.3633 6.405,-0.3471 10.9,-3.3361 14.6,-7.9179 4.048,-4.994 3.452,-8.1758 -2.297,-8.1758 z m 6.865,11.4394 c -4.975,-0.7017 -6.692,2.8471 -8.425,5.4649 -2.166,3.2717 -17.504,10.7636 -22.026,10.7636 -1.762,0 -2.35,1.3833 -1.302,3.0723 2.604,4.219 20.81,-0.6606 27.281,-6.5156 5.137,-4.6497 7.84,-12.3101 4.472,-12.7852 z m -585.177,39.1044 c 5.7,8.8633 12.954,20.5631 39.755,24.7178 13.187,2.0443 25.043,-2.3995 28.08,-6.5256 5.16,-7.0105 1.027,-7.5097 -18.91,-7.408 -13.758,0.07 -26.937,-11.6922 -32.931,-17.6682 -8.548,-8.5222 -24.298,-6.0281 -15.994,6.884 z m -50.791,-12.3739 2.705,7.7051 c 2.023,5.758 1.552,10.586 -1.864,19.123 -2.512,6.282 -6.366,13.9861 -8.564,17.1211 -3.725,5.33 -3.992,4.8942 -3.932,-6.6738 0.03,-6.806 2.669,-17.9762 5.858,-24.8242 z m 674.3,0.2891 c -3.621,-0.4803 -9.957,1.4204 -18.146,6.6933 -12.318,7.933 -14.889,8.5525 -29.549,7.1055 -17.582,-1.733 -19.04,1.5239 -3.672,8.2129 14.957,6.509 29.96,4.989 42.83,-4.334 13.061,-9.46 14.572,-16.8773 8.537,-17.6777 z m -351.765,5.8359 c -4.219,-0.094 -9.075,0.2174 -14.67,0.9004 -35.945,4.386 -70.314,16.7775 -75.998,27.3965 -3.982,7.442 -3.328,22.2983 2.26,51.3593 l 4.789,24.9024 -7.723,14.8086 c -6.258,12.002 -7.721,18.3997 -7.721,33.7597 0,10.422 1.362,25.2939 3.024,33.0469 2.804,13.072 2.314,16.1451 -6.742,42.3321 -5.368,15.529 -12.864,39.4862 -16.651,53.2382 -3.789,13.75 -9.841,31.7369 -13.445,39.9629 l -6.559,14.961 -5.99,-16.4434 c -5.984,-16.426 -10.764,-34.9737 -35.314,-137.0957 -7.171,-29.835 -15.794,-59.7172 -19.159,-66.4063 -18.056,-35.8999 -87.682,-50.2925 -135.341,-27.9765 -50.874,23.822 -83.808,84.7702 -108.723,201.1992 -6.332,29.587 -7.253,41.3332 -8.469,107.9102 -1.378,75.507 0.132,93.3774 8.022,94.8964 6.742,1.3 7.965,-5.5695 10.744,-60.3125 4.166,-82.17 7.716,-115.3221 16.363,-152.9121 21.402,-93.041 51.417,-148.2665 90.734,-166.9375 29.098,-13.816 69.975,-11.624 94.768,5.084 7.292,4.914 10.534,10.0341 14.404,22.7461 10.559,34.687 8.96,118.8637 -3.972,209.0117 -8.064,56.204 -8.725,143.2682 -1.2,158.4082 3.771,7.585 6.909,10.377 11.663,10.377 9.596,0 11.769,-7.1503 9.656,-31.8223 -2.417,-28.239 1.059,-100.3628 6.428,-133.3808 2.279,-14.008 5.009,-36.1445 6.068,-49.1875 1.058,-13.044 2.403,-23.2354 2.988,-22.6504 0.585,0.585 3.611,10.2666 6.727,21.5156 7.899,28.538 18.774,55.2874 25.472,62.6504 8.571,9.422 19.546,8.1609 28.245,-3.2461 10.179,-13.344 25.088,-49.9773 33.134,-81.4063 9.345,-36.498 18.985,-65.5413 21.487,-64.7363 1.142,0.367 4.991,0.666 8.554,0.666 5.142,0 7.15,2.2433 9.735,10.8633 3.741,12.495 17.164,25.1094 26.718,25.1094 16.482,0 68.302,-23.751 84.18,-38.582 10.662,-9.961 10.933,-19.1246 1.832,-61.7676 -3.648,-17.095 -8.133,-40.42 -9.961,-51.834 -3.273,-20.401 -18.481,-70.2448 -26.791,-87.7988 -3.98,-8.4083 -10.909,-12.3277 -23.566,-12.6094 z m -0.744,17.4004 v 0 c 5.621,0 7.343,3.3779 15.88,31.1289 8.425,27.384 16.243,63.2636 28.481,130.7246 2.262,12.472 2.565,20.4956 0.853,22.5586 -3.418,4.118 -29.979,16.7772 -49.205,23.4512 h 0.01 c -21.661,7.518 -26.623,6.9012 -30.588,-3.8008 -1.833,-4.947 -5.076,-13.0403 -7.207,-17.9863 -3.361,-7.767 -3.348,-8.9903 0.08,-8.9903 2.18,0 5.127,2.0715 6.545,4.6055 2.374,4.241 3.741,4.1516 17.43,-1.1504 8.169,-3.165 23.999,-9.125 35.176,-13.248 20.097,-7.4634 20.84,-3.9091 18.482,-20.295 -3.427,-23.786 -10.029,-54.1601 -18.418,-84.7422 -4.596,-16.7389 -9.055,-36.3481 -9.914,-43.5781 -1.487,-12.53 -1.961,-13.1328 -10.166,-13.1328 -12.037,0.013 -54.962,11.8334 -63.65,17.5273 -3.968,2.5991 -7.213,7.1332 -7.213,10.0762 0,7.41 15.665,81.4463 20.742,98.0293 4.654,15.195 5.315,23.7715 1.836,23.7715 -3.238,0 -7.949,-16.3683 -13.137,-45.6543 -2.427,-13.696 -6.78,-34.8641 -9.674,-47.0391 -2.894,-12.1728 -5.261,-26.2435 -5.281,-31.2675 -0.02,-7.943 1.33,-9.6977 10.356,-13.4727 13.113,-5.485 60.214,-17.5156 68.58,-17.5156 z m -3.567,13.1015 c 1.875,-0.1676 3.833,1.3684 5.764,10.795 3.139,15.3267 21.867,84.6883 26.545,112.7168 3.398,20.3566 2.42,16.5028 -0.518,17.3144 l -23.644,7.8321 c -14.254,4.7209 -27.182,10.4437 -28.916,12.1757 -3.543,3.545 -10.342,4.2484 -10.342,1.0684 0,-1.143 5.741,-5.1256 12.76,-8.8496 15.534,-8.24 20.848,-17.5176 13.974,-24.3926 -4.4,-4.4 -5.534,-4.3815 -18.732,0.3066 -7.726,2.743 -14.579,4.4605 -15.227,3.8145 -2.841,-2.843 -23.217,-90.7852 -23.871,-103.0352 -3.943,-19.1853 10.972,-16.8678 26.944,-21.3593 15.218,-4.281 28.287,-6.4422 33.42,-7.8809 0.602,-0.2053 1.218,-0.45 1.843,-0.5059 z m -12.853,31.1075 c -5.527,0.01 -11.417,1.8156 -17.434,5.4843 -15.766,9.6139 -21.329,29.4281 -14.726,52.4551 6.147,21.43 22.372,28.9874 42.818,19.9434 20.372,-9.012 15.613,-20.5586 -5.522,-13.3906 -6.02,2.042 -13.141,3.2268 -15.824,2.6328 -7.291,-1.608 -13.286,-15.2332 -13.105,-30.7071 0.156,-13.3748 7.604,-25.6689 21.09,-28.0527 12.336,-2.1804 20.919,14.8438 21.533,21.9746 0.867,10.0795 -6.207,14.8663 -12.401,-3.7441 -3.841,-11.5389 -19.217,-9.0999 -24.64,5.1601 -5.895,15.505 6.211,30.6626 19.015,23.8106 2.99,-1.6 7.406,-2.1584 9.809,-1.2344 6.076,2.33 17.615,-6.2289 18.164,-12.8281 0.657,-7.8972 -2.071,-21.3832 -5.269,-26.7364 -6.097,-9.7707 -14.298,-14.7761 -23.508,-14.7675 z m 408.058,27.4101 c -6.999,-0.2497 -14.022,0.1103 -20.849,0.3867 -40.965,1.6589 -79.022,16.6476 -104.157,42.2579 -14.866,15.15 -16.083,17.4484 -21.863,41.3046 -3.366,13.8929 -6.195,32.6098 -6.275,41.5918 l -0.143,16.334 -8.547,-1.5097 c -4.698,-0.83 -36.749,-1.8563 -71.222,-2.2793 -58.365,-0.718 -63.079,-0.4071 -68.502,4.5019 -10.955,9.913 -20.879,51.1548 -29.35,121.9668 -0.737,6.161 0.227,14.1363 2.176,17.9863 4.258,8.421 25.351,16.3155 44.088,16.4805 11.911,0.11 13.378,0.8803 17.289,9.1113 9.623,20.252 51.828,32.8887 76.73,22.9727 6.571,-2.617 16.017,-7.8461 20.991,-11.6211 5.665,-4.304 11.796,-6.5401 16.414,-5.9941 l 7.375,0.8691 0.722,29.0527 c 0.918,36.882 3.052,51.4285 8.313,56.6895 l -0.01,0.018 c 7.423,7.425 15.57,2.94 15.736,-8.668 0.143,-9.583 -6.096,-64.0807 -8.111,-70.8457 -1.232,-4.136 0.502,-4.8543 11.887,-4.9043 22.939,-0.105 24.982,-3.3307 34.281,-54.0547 9.959,-54.322 12.692,-91.0791 7.498,-100.8301 -3.769,-7.077 -16.099,-12.2878 -36.311,-15.3418 l -10.623,-1.6054 1.977,-39.2559 c -3.95,-54.2289 36.089,-73.1603 81.041,-80.9766 23.219,-3.735 27.503,-3.715 42.887,0.211 61.236,15.6353 83.993,49.5631 93.556,144.4668 -6.454,-8.4035 -13.085,-17.3983 -19.982,-27.4043 -6.898,-10.0084 -12.565,-18.1198 -17.803,-25.5488 -12.935,-25.2164 -42.958,-35.245 -55.123,-35.5489 -1.06,-0.026 -2.138,-0.02 -3.248,0.01 -21.322,0.5775 -62.562,18.6462 -83.547,36.6035 -4.73,4.0474 -7.815,7.5536 -9.172,10.3477 -1.357,2.795 -0.985,4.8778 1.196,6.0781 4.253,2.3396 10.478,0.2664 23.218,-7.7285 14.149,-8.8794 35.22,-19.3214 34.647,-17.17 -0.225,0.8411 -1.319,4.1112 -2.428,7.2696 -1.108,3.1567 -1.259,8.1053 -0.336,10.9961 0.921,2.8905 1.247,6.0655 0.719,7.0566 -0.523,0.9945 -0.366,3.848 0.359,6.3496 1.465,5.0462 6.428,7.0885 11.743,4.8262 2.551,-1.0844 3.428,-0.735 4.943,1.9785 2.223,3.976 9.645,8.3128 11.973,6.9981 1.12,-0.6334 2.304,0.018 3.568,1.9629 7.871,12.108 19.686,8.7791 45.129,-19.4903 0.623,-0.6919 1.178,-1.297 1.691,-1.8437 9.052,13.466 32.357,46.2436 42.235,59.1797 4.423,5.7924 9.118,11.2205 13.929,16.3046 1.798,23.4842 4.044,51.3128 5.809,68.5332 2.166,21.1208 4.069,51.0023 4.215,66.4063 0.151,15.402 1.141,31.1103 2.197,34.9062 2.364,8.4982 11.112,10.6483 16.02,3.9375 4.447,-6.0811 4.933,-60.2874 0.855,-95.2324 -0.986,-8.4531 -3.343,-34.7669 -5.416,-57.3144 17.651,13.1807 34.438,20.0514 44.6,17.4843 24.183,-6.1088 14.686,-44.684 -19.043,-123.3964 -21.195,-49.4643 -64.119,-96.0837 -94.037,-105.8262 -9.893,-6.0069 -21.393,-11.3392 -35.194,-15.7676 -6.738,-2.1623 -13.715,-3.0218 -20.715,-3.2715 z m -413.959,7.1348 c 0.167,0.062 0.349,0.3211 0.541,0.7969 0.768,1.901 0.768,5.0149 0,6.9179 -0.768,1.902 -1.394,0.3441 -1.394,-3.4609 0,-2.853 0.353,-4.4408 0.853,-4.2539 z m 521.369,86.0391 c 10.156,13.0859 19.048,27.3376 23.188,36.1992 9.222,20.0398 46.26,99.1019 29,96.9179 -9.829,-2.3791 -23.004,-12.4517 -38.463,-29.0371 -5.355,-37.6767 -6.279,-73.2802 -13.725,-104.08 z m -494.304,13.0703 c -0.979,0.09 -1.925,0.3891 -2.799,0.9394 -6.168,3.882 -7.591,11.2392 -3.201,16.5332 4.332,5.219 13.487,4.0113 17.445,-2.3027 3.84,-6.1259 -4.594,-15.7976 -11.445,-15.1699 z m 94.771,40.1093 22.137,2.0411 c 12.175,1.121 28.246,2.3893 35.717,2.8183 49.441,2.85 123.767,9.9613 128.349,12.2793 2.266,1.147 -6.891,8.9818 -24.902,21.2988 -15.668,10.715 -40.485,25.9181 -55.15,33.7832 -15.084,6.6326 -22.612,20.7315 -32.366,5.2383 -3.137,-4.985 -21.023,-24.4527 -39.744,-43.2597 z m -6.402,3.5332 22.57,27.3282 c 12.414,15.033 28.316,35.3522 35.34,45.1562 9.961,13.901 14.762,18.2238 21.818,19.6348 10.546,2.108 24.071,-1.2923 41.401,-10.4063 l 12.349,-6.4961 12.553,22.5743 c 6.904,12.413 14.284,25.8921 16.401,29.9531 6.294,12.076 16.904,13.2328 16.904,1.8418 0,-8.392 -7.049,-20.2834 -23.549,-39.7344 l -14.984,-17.6621 13.039,-7.5195 c 7.174,-4.133 21.497,-13.7188 31.834,-21.3008 10.334,-7.581 19.554,-13.0229 20.488,-12.0899 1.82,1.821 -0.682,20.4609 -10.545,78.5469 -5.825,33.65 -2.714,37.3013 -16.871,36.2925 -14.635,-1.0428 -32.073,-2.4961 -49.516,-4.8374 -8.972,-0.295 -9.863,-1.0009 -8.73,-6.9199 2.1,-10.987 -4.934,-11.9521 -13.383,-1.8321 l -7.605,9.1094 0.369,-15.7344 c 0.249,-10.648 -0.855,-16.4912 -3.412,-18.0722 -6.844,-4.229 -11.105,0.2729 -16.567,17.5039 l -5.39,17.0019 -0.166,-19.7636 c -0.119,-14.912 -1.175,-20.1555 -4.307,-21.3575 -9.448,-3.625 -13.824,2.4457 -19.172,26.5957 -0.927,4.183 -2.743,7.6075 -4.035,7.6075 -2.503,0 -5.765,-15.8143 -5.815,-28.1973 -0.08,-18.214 -12.921,-10.6779 -15.548,9.1211 -1.777,13.388 -1.904,13.5317 -11.815,13.5117 -5.51,-0.016 -14.844,-0.8268 -20.744,-1.8008 -18.293,-1.3962 -13.385,-14.779 -10.082,-33.6007 4.724,-26.9218 8.501,-56.8215 14.16,-81.3895 z m 45.641,69.4258 c -3.076,0.5005 -7.708,2.621 -13.106,6.584 -13.01,9.547 -41.35,37.4964 -41.35,40.7774 0,4.053 39.644,-23.7815 53.262,-37.3965 7.134,-7.1325 6.322,-10.799 1.194,-9.9649 z" transform="translate(24.649582,-85.594687) matrix(0.26458333,0,0,0.26458333,-3857.3744,-641.61405)" fill="#000000"/>
</svg>