<?xml version="1.0" ?><svg xmlns="http://www.w3.org/2000/svg" width="219.57137mm" height="197.17839mm" viewBox="0 0 219.57137 197.17839">
    <path d="m 34674.4,10970.686 c -14.482,-29.058 1.781,-25.212 44.989,-48.608 43.208,-23.395 410.121,-175.413 440.034,-188.98 29.914,-13.567 83.568,-41.984 103.51,-7.905 19.942,34.078 200.965,386.828 215.447,412.146 14.482,25.318 39.884,42.197 -3.205,66.02 -43.09,23.823 -525.264,227.332 -546.156,239.618 -20.891,12.285 -39.647,21.045 -55.078,-9.401 -15.432,-30.446 -199.541,-462.89 -199.541,-462.89 z" fill="#FFFFFF" paint-order="markers stroke fill" transform="translate(13.709162,7.2965566) matrix(0.26458333,0,0,0.26458333,-9186.6103,-2840.7354)"/>
    <path d="m 34911.749,11355.331 c -6.846,-6.846 -4.568,-20.751 4.357,-26.599 5.488,-3.595 7.628,-7.284 6.425,-11.078 -3.459,-10.895 24.067,-28.562 58.468,-37.521 15.5,-4.038 19.514,-4.118 25.113,-0.487 4.744,3.077 9.225,3.455 15.57,1.312 13.3,-4.488 29.49,5.75 30.835,19.497 0.84,8.582 -0.1,10.334 -5.572,10.334 -3.624,0 -8.887,-3.51 -11.695,-7.797 -2.81,-4.29 -7.264,-8.625 -9.896,-9.635 -3.868,-1.486 -4.393,0.252 -2.738,9.071 2.9,15.456 -2.292,22.68 -21.835,30.38 -36.609,14.423 -60.833,16.338 -65.127,5.147 -1.504,-3.922 -2.949,-4.023 -8.538,-0.61 -5.074,3.098 -6.302,6.286 -4.994,12.982 1.859,9.538 -3.334,12.043 -10.373,5.004 z m 75.735,-34.307 c 19.11,-9.748 22.394,-14.856 15.914,-24.742 -2.912,-4.447 -6.662,-8.086 -8.33,-8.086 -3.214,0 -23.764,7.907 -49.412,19.013 -16.228,6.382 -16.75,5.405 -4.841,17.538 10.23,10.424 11.075,10.683 22.246,6.824 6.386,-2.205 17.376,-6.952 24.423,-10.547 z m 114.697,8.485 c -2.13,-2.13 -3.873,-5.803 -3.873,-8.163 0,-2.36 -10.76,-25.672 -23.909,-51.804 -13.152,-26.132 -27.13,-55.14 -31.061,-64.459 -7.8,-18.483 -9.158,-19.086 -27.984,-12.443 -15.8,5.573 -29.085,3.331 -33.776,-5.703 -1.964,-3.779 -3.927,-7.304 -4.365,-7.834 -1.833,-2.217 -76.999,35.275 -80.606,40.206 -5.076,6.943 -14.554,3.46 -14.554,-5.35 0,-3.662 2.545,-7.414 5.65,-8.341 3.106,-0.925 12.184,-5.328 20.173,-9.783 7.988,-4.454 25.054,-13.137 37.925,-19.293 23.922,-11.443 26.483,-14.106 19.296,-20.07 -2.985,-2.477 -10.951,-0.429 -29.192,7.502 -13.798,6.001 -28.291,11.847 -32.205,12.992 -3.917,1.147 -10.906,6.543 -15.534,11.992 -10.342,12.181 -20.012,10.508 -18.432,-3.183 0.862,-7.449 2.922,-9.163 12.959,-10.78 6.562,-1.058 13.851,-3.515 16.194,-5.461 2.344,-1.944 16.125,-9.874 30.628,-17.623 16.24,-8.678 25.514,-15.459 24.149,-17.659 -1.491,-2.409 -19.608,3.018 -55.471,16.608 -67.128,25.44 -98.619,41.114 -101.016,50.272 -2.774,10.617 -16.485,7.449 -17.814,-4.118 -0.888,-12.176 2.863,-9.745 12.317,-10.651 4.437,-0.421 19.618,-7.437 33.73,-15.587 14.113,-8.151 46.43,-23.041 71.814,-33.087 27.352,-10.825 46.157,-20.029 46.157,-22.595 0,-3.302 -4.012,-2.716 -16.946,2.479 -9.319,3.742 -28.564,11.099 -42.767,16.345 -60.16,22.227 -90.71,35.923 -97.205,43.58 -7.64,9.003 -18.289,8.979 -20.027,-0.05 -1.675,-8.705 5.442,-15.372 14.089,-13.201 4.967,1.245 13.549,-1.459 25.575,-8.058 9.954,-5.464 42.375,-19.579 72.042,-31.368 29.668,-11.789 54.97,-22.351 56.229,-23.472 1.256,-1.118 1.021,-4.081 -0.526,-6.582 -2.309,-3.735 -11.36,-1.503 -50.7,12.508 -26.34,9.383 -54.742,20.518 -63.116,24.748 -18.657,9.426 -26.243,9.632 -38.318,1.033 -5.144,-3.662 -10.879,-5.718 -12.745,-4.565 -4.11,2.541 -12.791,-4.113 -12.791,-9.807 0,-2.253 2.476,-5.049 5.502,-6.211 4.842,-1.857 10.697,0.145 33.995,11.578 3.081,1.515 7.552,2.752 9.932,2.752 10.477,0 123.2,-47.584 117.423,-53.706 -1.056,-1.119 -72.87,31.723 -104.146,42.461 -6.644,2.748 -7.431,3.325 -13.453,0.484 -7.49,-3.534 -24.392,-12.003 -27.539,-13.037 -7.773,-2.549 -10.412,-10.717 -5.411,-16.744 6.026,-7.26 16.902,-4.341 21.768,5.846 5.965,12.481 13.832,11.583 66.829,-7.635 24.852,-9.013 47.73,-17.144 50.836,-18.066 6.202,-1.845 7.115,-6.522 2.651,-13.576 -3.481,-5.5 -19.216,-0.283 -59.064,19.582 -13.718,6.838 -27.376,12.433 -30.351,12.433 -2.978,0 -14.641,-5.161 -25.922,-11.47 -11.28,-6.308 -21.786,-10.683 -23.345,-9.719 -1.559,0.963 -4.629,-0.412 -6.822,-3.055 -3.169,-3.815 -3.162,-5.803 0.02,-9.647 4.987,-6.01 12.428,-6.199 19.112,-0.482 2.801,2.399 13.244,7.667 23.205,11.707 17.824,7.226 18.381,7.255 35.079,1.709 9.33,-3.101 27.626,-10.561 40.652,-16.579 21.467,-9.918 23.885,-11.99 25.781,-22.095 1.15,-6.131 3.95,-12.692 6.221,-14.577 6.008,-4.985 -30.69,-79.139 -40.422,-81.683 -4.875,-1.276 -6.548,-3.864 -5.792,-8.962 2.391,-16.132 22.043,-16.648 22.043,-0.576 0,4.984 1.956,11.929 4.348,15.432 2.391,3.5 10.561,17.986 18.155,32.186 16.672,31.187 21.593,37.26 24.355,30.063 1.048,-2.735 -2.181,-12.069 -7.175,-20.745 -9.136,-15.859 -20.206,-37.904 -26.563,-52.891 -1.883,-4.437 -5.11,-10.412 -7.172,-13.278 -8.555,-11.891 7.446,-22.012 16.863,-10.666 3.021,3.641 3.289,6.648 0.934,10.489 -2.573,4.2 1.022,13.356 16.333,41.598 19.063,35.162 23.767,39.827 33.762,33.496 3.527,-2.234 0.247,-10.702 -15.931,-41.102 -11.206,-21.058 -22.518,-39.893 -25.142,-41.857 -6.202,-4.64 -2.714,-13.551 6.698,-17.117 9.891,-3.747 16.384,1.818 13.859,11.879 -1.373,5.468 0.859,12.312 7.451,22.832 5.176,8.262 14.157,24.101 19.954,35.196 10.981,21.007 14.125,23.077 24.055,15.814 5.655,-4.134 5.106,-5.981 -10.68,-35.967 -17.766,-33.748 -20.196,-46.721 -11.796,-62.964 3.754,-7.262 4.042,-11.121 1.28,-17.182 -7.01,-15.384 9.373,-29.141 19.775,-16.606 3.305,3.982 3.309,6.632 0.02,13.715 -2.244,4.83 -6.78,16.537 -10.082,26.014 -4.155,10.669 -3.302,20.747 6.379,35.505 6.809,10.048 15.519,24.445 19.356,31.988 6.156,12.103 16.529,18.855 16.529,10.757 0,-5.047 -11.571,-30.111 -22.167,-48.018 -11.542,-19.503 -12.285,-25.875 -4.711,-40.363 2.971,-5.682 5.094,-15.197 4.718,-21.148 -0.765,-12.178 4.053,-19.845 12.477,-19.845 14.863,0 16.354,23.445 1.842,28.964 -5.645,2.145 -8.235,6.311 -9.843,15.827 -1.975,11.68 -0.416,16.025 16.275,45.389 10.153,17.86 19.523,32.472 20.826,32.472 1.3,0 8.397,-2.128 15.768,-4.728 14.084,-4.97 24.709,-3.161 31.828,5.415 3.208,3.866 10.702,1.216 47.602,-16.841 l 43.791,-21.431 25.696,-31.564 c 14.133,-17.361 25.697,-32.658 25.697,-33.994 0,-1.334 3.684,-6.403 8.189,-11.264 6.662,-7.187 9.068,-8.105 12.91,-4.916 2.597,2.154 4.723,5.18 4.723,6.722 0,3.496 -14.842,23.012 -44.491,58.512 -24.51,29.342 -21.237,27.34 -98.476,60.291 -14.05,5.994 -15.144,7.219 -11.886,13.307 1.973,3.687 4.58,6.19 5.79,5.558 1.213,-0.63 20.802,-10.342 43.535,-21.584 31.83,-15.737 43.83,-23.498 52.189,-33.747 5.969,-7.321 18.598,-22.569 28.061,-33.886 9.465,-11.319 19.504,-24.391 22.312,-29.049 2.806,-4.66 7.87,-8.472 11.252,-8.472 11.133,0 8.511,10.494 -6.551,26.214 -8.126,8.482 -24.362,28.076 -36.079,43.544 -20.365,26.883 -22.527,28.679 -49.158,40.807 -15.318,6.979 -34.752,15.292 -43.186,18.475 -14.006,5.284 -18.446,10.399 -13.403,15.442 1.06,1.06 21.757,-8.187 45.994,-20.552 40.581,-20.7 47.003,-25.278 81.184,-57.875 20.417,-19.471 39.282,-35.019 41.923,-34.552 7.143,1.259 7.942,11.741 1.082,14.203 -3.237,1.162 -14.728,10.235 -25.537,20.162 -43.745,40.182 -56.974,49.543 -96.616,68.364 -26.96,12.799 -40.274,20.841 -40.274,24.319 0,3.982 1.699,4.612 7.262,2.692 3.994,-1.38 14.219,-2.285 22.724,-2.009 11.283,0.363 20.44,-2 33.89,-8.739 10.136,-5.081 39.059,-18.279 64.273,-29.327 25.217,-11.051 47.544,-22.136 49.618,-24.636 2.075,-2.498 7.226,-4.544 11.445,-4.544 6.018,0 7.674,1.728 7.674,8.008 0,6.066 -2.149,8.523 -8.874,10.138 -14.389,3.454 -60.725,22.886 -105.116,44.077 -36.314,17.337 -42.174,19.247 -47.96,15.635 -8.47,-5.289 -26.074,1.032 -24.573,8.824 0.731,3.798 5.054,5.113 17.095,5.195 12.528,0.1 24.375,-3.551 53.232,-16.345 20.417,-9.051 52.371,-22.014 71.011,-28.807 18.639,-6.795 37.146,-14.437 41.126,-16.984 8.801,-5.63 16.971,-3.096 16.971,5.268 0,8.79 -6.841,13.302 -19.605,12.929 -12.089,-0.356 -55.646,16.241 -111.115,42.339 -32.322,15.207 -36.502,16.403 -46.638,13.348 -6.122,-1.847 -11.765,-2.726 -12.537,-1.951 -1.815,1.813 5.943,20.612 9.385,22.738 1.443,0.893 28.04,-11.058 59.103,-26.561 55.236,-27.565 56.621,-28.054 62.99,-22.287 7.468,6.756 12.554,6.027 47.12,-6.752 12.425,-4.595 26.444,-11.922 31.15,-16.287 9.494,-8.804 19.821,-8.748 21.528,0.121 1.532,7.957 -5.181,15.14 -14.152,15.14 -4.115,0 -8.323,1.358 -9.347,3.016 -3.299,5.338 -52.796,22.806 -64.624,22.806 -6.294,0 -14.125,-1.675 -17.4,-3.721 -6.103,-3.81 -4.515,-4.425 -91.594,35.474 -10.206,4.677 -18.557,10.339 -18.557,12.583 0,2.241 1.44,4.079 3.202,4.079 1.763,0 23.259,-10.167 47.769,-22.596 24.512,-12.425 46.58,-22.592 49.039,-22.592 2.46,0 7.575,2.914 11.368,6.478 6.827,6.414 7.071,6.419 24.416,0.392 9.634,-3.346 32.612,-12.806 51.058,-21.02 35.525,-15.819 42.31,-15.87 42.31,-0.324 0,8.356 -7.792,12.624 -15.34,8.4 -3.476,-1.944 -11.567,0.05 -25.372,6.238 -30.01,13.464 -65.128,25.658 -73.901,25.658 -4.246,0 -9.148,-2.542 -10.898,-5.65 -2.987,-5.304 -4.03,-5.326 -17.105,-0.378 -32.351,12.244 -78.553,35.311 -79.487,39.688 -0.697,3.254 9.855,-0.121 33.89,-10.816 54.058,-24.074 58.877,-25.485 63.845,-18.69 3.878,5.304 6.913,4.698 47.311,-9.439 23.743,-8.308 44.111,-16.541 45.263,-18.293 3.326,-5.057 13.019,0.372 11.818,6.623 -0.738,3.839 -5.224,6.272 -13.956,7.567 -7.078,1.051 -29.027,7.95 -48.778,15.331 -40.535,15.151 -42.556,15.49 -47.988,8.063 -3.578,-4.895 -6.682,-4.294 -35.861,6.916 -43.041,16.536 -55.106,22.898 -61.269,32.305 -5.011,7.65 -4.774,8.557 6.066,23.36 6.202,8.47 21.058,34.283 33.009,57.36 11.954,23.077 24.769,45.292 28.478,49.366 5.255,5.771 5.979,8.623 3.275,12.912 -5.626,8.916 -15.159,6.747 -18.371,-4.18 -3.234,-11.005 -28.202,-61.451 -49.768,-100.556 -14.326,-25.974 -14.638,-26.277 -23.793,-23.084 -5.106,1.779 -9.279,3.755 -9.279,4.389 0,0.634 3.774,6.667 8.388,13.401 4.614,6.737 19.726,34.832 33.583,62.434 13.859,27.603 27.364,51.985 30.01,54.183 6.25,5.185 3.222,16.667 -4.396,16.667 -4.13,0 -8.577,-6.047 -14.835,-20.172 -17.632,-39.795 -59.119,-121.844 -61.559,-121.742 -1.368,0.05 -5.161,2.128 -8.429,4.604 -7.444,5.641 -5.769,11.494 12.51,43.709 7.555,13.314 21.959,39.095 32.007,57.29 10.049,18.196 19.642,33.084 21.317,33.084 1.675,0 3.046,3.631 3.046,8.068 0,5.837 -1.734,8.071 -6.268,8.071 -4.783,0 -11.205,-9.736 -27.148,-41.153 -52.192,-102.845 -50.819,-100.581 -58.788,-96.953 -7.204,3.283 -7.17,3.397 7.243,25.68 7.962,12.309 23.333,40.825 34.156,63.367 10.826,22.545 22.296,44.411 25.488,48.597 7.364,9.646 2.753,20.746 -7.986,19.216 -5.148,-0.734 -7.332,-3.61 -8.111,-10.686 -0.589,-5.325 -6.515,-21.302 -13.172,-35.505 -35.026,-74.713 -49.94,-104.898 -51.825,-104.898 -1.153,0 -4.685,1.893 -7.846,4.205 -5.42,3.963 -5.193,5.149 3.914,20.598 5.319,9.018 20.095,38.715 32.84,65.997 12.745,27.282 25.36,52.041 28.035,55.021 6.843,7.623 2.663,19.477 -6.41,18.17 -5.29,-0.76 -7.425,-4.04 -9.117,-14.013 -1.218,-7.161 -15.628,-41.451 -32.026,-76.196 l -29.814,-63.176 -9.204,3.473 c -10.259,3.871 -11.394,8.533 -4.655,19.119 2.503,3.932 15.8,31.114 29.55,60.405 13.752,29.291 27.865,56.45 31.363,60.354 10.119,11.291 0.673,23.859 -9.949,13.237 z m -83.123,-152.142 c 3.246,-2.374 5.338,-5.829 4.65,-7.676 -1.876,-5.042 -15.776,1.167 -15.776,7.047 0,6.086 3.401,6.277 11.126,0.629 z m 30.741,-14.923 c 2.612,-1.654 3.81,-3.941 2.665,-5.089 -2.822,-2.82 -15.483,1.414 -15.483,5.178 0,3.842 6.677,3.793 12.818,-0.1 z m -10.203,-19.323 c 17.201,-8.782 47.979,-23.508 68.395,-32.726 20.414,-9.218 38.413,-17.925 39.996,-19.351 2.721,-2.445 -40.792,-91.778 -59.103,-121.34 l -8.346,-13.479 -35.496,14.442 c -19.523,7.943 -51.898,21.083 -71.944,29.199 -20.049,8.12 -36.026,15.675 -35.505,16.791 0.52,1.116 15.834,32.271 34.028,69.233 18.197,36.96 33.084,68.551 33.084,70.202 0,4.63 1.528,4.064 34.891,-12.971 z m 34.505,6.284 c 1.096,-1.774 0.457,-3.226 -1.424,-3.226 -1.88,0 -3.418,1.452 -3.418,3.226 0,1.777 0.639,3.23 1.424,3.23 0.782,0 2.321,-1.453 3.418,-3.23 z m 75.849,-35.502 c 2.663,-1.721 3.389,-3.13 1.615,-3.13 -1.777,0 -5.408,1.409 -8.071,3.13 -2.663,1.719 -3.389,3.127 -1.612,3.127 1.774,0 5.405,-1.408 8.068,-3.127 z m -130.858,-270.901 c 1.021,-1.653 0.38,-3.917 -1.424,-5.033 -1.803,-1.116 -3.28,0.243 -3.28,3.005 0,5.669 1.937,6.504 4.704,2.028 z m -138.305,462.682 c -6.901,-17.981 13.939,-44.237 47.324,-59.625 29.83,-13.75 66.427,-16.447 76.498,-5.638 3.604,3.868 6.552,9.663 6.552,12.878 0,7.896 -10.377,7.541 -17.753,-0.608 -7.856,-8.68 -10.673,-8.131 -11.889,2.319 -0.692,5.939 -4.151,10.361 -10.704,13.687 -5.326,2.702 -17.86,9.647 -27.858,15.435 -19.935,11.537 -28.984,13.024 -35.026,5.744 -6.173,-7.436 -16.195,-0.418 -16.195,11.344 0,10.337 -7.521,13.401 -10.949,4.464 z m 68.241,-39.088 c 16.669,-7.79 22.666,-17.131 10.995,-17.131 -4.902,0 -26.405,6.475 -48.553,14.626 -3.599,1.324 -3.335,2.902 1.349,8.08 6.531,7.216 9.968,6.686 36.209,-5.575 z m 350.815,-30.997 c -1.02,-2.661 -5.559,-3.724 -12.455,-2.917 -10.034,1.171 -11.148,0.375 -14.755,-10.557 -4.505,-13.653 -2.977,-15.466 23.586,-27.972 11.583,-5.454 16.901,-6.468 20.85,-3.98 3.776,2.385 7.654,2.121 13.5,-0.917 13.014,-6.761 88.521,-42.969 89.56,-43.077 0.843,-0.09 7.779,1.45 2.476,5.278 -3.138,2.265 -49.927,27.685 -84.861,41.662 -12.309,4.926 -12.172,6.892 -9.247,14.486 1.384,3.592 3.914,8.974 10.297,5.458 l 40.63,-20.67 c 31.944,-16.251 49.277,-23.861 53.129,-22.385 3.408,1.308 4.536,3.348 2.779,5.021 -5.98,5.689 -123.1,64.753 -128.404,64.753 -3.014,0 -6.202,-1.884 -7.085,-4.183 z m 6.214,-23.937 c 6.216,-3.166 8.179,-5.773 5.991,-7.964 -4.282,-4.282 -34.334,8.703 -31.344,13.544 2.297,3.716 10.741,1.859 25.353,-5.58 z m -67.188,-29.109 c -8.458,-9.124 -10.034,-14.111 -5.808,-18.371 1.334,-1.341 2.421,-6.11 2.421,-10.598 0,-7.57 5.12,-10.322 71.01,-38.154 43.249,-18.269 72.206,-28.845 74.075,-27.059 4.791,4.59 0.513,6.974 -51.482,28.705 -69.712,29.139 -83.501,35.435 -81.644,37.294 0.91,0.911 8.516,-1.287 16.901,-4.882 8.388,-3.595 17.81,-6.536 20.937,-6.536 6.972,0 16.372,9.874 16.372,17.199 0,2.966 1.276,5.394 2.834,5.394 1.562,0 24.305,-9.441 50.546,-20.981 26.238,-11.537 49.652,-20.978 52.034,-20.978 8.763,0 3.967,6.069 -7.778,9.843 -6.657,2.14 -36.796,15.107 -66.975,28.819 -65.59,29.799 -64.014,29.215 -69.512,25.817 -2.418,-1.494 -6.909,-1.349 -10.041,0.327 -4.352,2.331 -7.567,0.98 -13.89,-5.839 z m 31.728,-15.631 c 16.169,-7.403 23.46,-14.287 15.128,-14.287 -6.911,0 -41.92,17.163 -40.313,19.763 2.602,4.209 5.323,3.616 25.185,-5.476 z m -490.568,-160.909 c -2.937,-7.652 1.217,-15.379 7.606,-14.15 3.573,0.688 5.659,4.031 5.659,9.071 0,9.201 -10.188,13.101 -13.265,5.079 z m -20.075,-13.956 c -5.636,-10.956 3.074,-18.485 11.563,-9.995 2.562,2.561 2.726,5.582 0.533,9.683 -4.006,7.487 -8.349,7.599 -12.096,0.312 z m 26.078,-9.414 c -5.611,-2.244 -5.047,-12.356 0.969,-17.347 4.134,-3.433 5.945,-3.21 10.435,1.278 8.127,8.129 -0.581,20.4 -11.404,16.069 z m 336.694,-88.9 c -2.747,-3.924 -8,-8.741 -11.67,-10.707 -8.219,-4.398 -39.855,-70.983 -37.117,-78.119 1.653,-4.304 3.139,-3.941 9.915,2.425 8.86,8.323 14.696,6.229 8.828,-3.166 -5.933,-9.502 2.787,-15.072 10.41,-6.65 6.938,7.667 11.353,5.735 11.353,-4.967 0,-9.264 2.2,-9.809 10.237,-2.537 5.575,5.045 5.902,4.875 5.902,-3.036 0,-10.816 5.347,-13.992 12.561,-7.463 7.5,6.788 10.032,6.507 10.032,-1.106 0,-8.434 5.582,-11.346 14.026,-7.321 3.824,1.823 9.324,4.062 12.217,4.973 6.938,2.186 39.432,59.136 37.142,65.101 -0.976,2.546 -0.388,5.487 1.309,6.538 4.396,2.716 3.835,14.437 -0.692,14.437 -2.079,0 -6.471,-2.435 -9.761,-5.412 -7.746,-7.011 -15.756,-1.051 -9.201,6.848 2.254,2.716 3.256,7.134 2.225,9.818 -2.893,7.541 -11.489,5.781 -15.575,-3.185 -2.021,-4.437 -4.653,-8.069 -5.849,-8.069 -4.875,0 -5.875,4.273 -2.331,9.95 2.917,4.669 2.823,6.952 -0.419,10.143 -3.398,3.343 -5.347,2.687 -10.402,-3.496 -3.827,-4.687 -8.172,-6.86 -11.307,-5.657 -4.609,1.767 -4.594,2.445 0.145,7.177 6.454,6.454 4.91,12.235 -3.604,13.501 -4.321,0.641 -7.679,-1.799 -10.252,-7.446 -2.135,-4.685 -5.372,-7.442 -7.323,-6.239 -2.505,1.55 -2.503,3.155 0.02,5.67 5.077,5.074 4.312,15.129 -1.147,15.129 -2.564,0 -6.909,-3.212 -9.656,-7.134 z m 35.455,-40.051 c 19.438,-9.973 35.851,-18.589 36.47,-19.148 1.562,-1.406 -15.938,-33.174 -20.247,-36.749 -3.936,-3.266 -77.713,22.982 -77.708,27.645 0,4.541 21.658,46.388 24.004,46.388 1.177,0 18.042,-8.16 37.481,-18.136 z" transform="translate(13.709162,7.2965566) matrix(0.26458333,0,0,0.26458333,-9186.6103,-2840.7354)" fill="#000000"/>
</svg>