<?xml version="1.0" ?><svg xmlns="http://www.w3.org/2000/svg" width="264.00388mm" height="259.45132mm" viewBox="0 0 264.00388 259.45132">
    <path d="m 11868.611,12746.336 -112.724,0.396 2.394,390.288 -0.685,109.166 c 0,0 -30.868,-11.287 -51.676,-8.1 -20.807,3.187 -32.926,11.287 -32.926,11.287 l -5.029,-358.84 0.914,-35.326 -113.412,4.25 -3.43,164.547 -6.631,119.656 -50.761,7.305 21.951,49.402 -6.86,18.86 c 0,0 -15.548,10.625 -26.98,22.578 -11.433,11.952 -22.408,34.129 -22.408,34.129 l 0.226,-300.67 -108.838,-2.125 -2.972,380.486 74.66,2.418 c 0,0 -5.488,4.647 -6.86,13.146 -1.371,8.5 31.327,39.046 69.741,44.623 38.413,5.578 62.879,18.859 133.533,9.696 70.654,-9.164 53.961,-47.545 53.961,-47.545 0,0 68.597,7.305 84.832,3.453 16.234,-3.851 6.631,-39.576 6.631,-39.576 l 117.756,2.39 -15.092,-553.132 z m -593.246,318.971 -97.404,3.584 c 0,0 -3.889,283.008 -3.889,288.851 l 107.01,-0.797 z m 54.276,322.935 c -16.748,0.287 -40.08,6.14 -47.483,18.807 0,0 -10.746,68.394 -4.801,81.808 5.945,13.413 30.183,22.709 44.36,26.959 14.176,4.25 58.762,-9.829 62.191,-18.328 3.43,-8.5 9.377,-69.59 5.719,-80.082 -3.659,-10.491 -36.814,-27.49 -53.277,-28.951 -2.058,-0.183 -4.317,-0.254 -6.709,-0.213 z m 466.066,6.299 c -0.97,0 -1.959,0 -2.967,0.02 -32.24,0.664 -48.929,9.83 -57.39,21.915 1.601,13.015 21.493,26.03 53.046,26.162 31.554,0.133 50.763,-12.085 50.077,-24.303 -0.665,-11.836 -12.703,-23.672 -42.766,-23.797 z m -318.096,68.094 c -1.115,0.03 -2.097,0.09 -2.925,0.191 -13.262,1.593 -22.409,6.908 -17.379,20.985 12.119,28.42 73.626,20.185 89.175,16.998 15.548,-3.187 11.433,-23.374 2.745,-27.623 -8.146,-3.985 -54.879,-11.003 -71.616,-10.551 z" fill="#FFFFFF" paint-order="fill markers stroke" transform="translate(366.07815,-128.26169) matrix(0.26458333,0,0,0.26458333,-3292.9736,-3190.7696)"/>
    <path d="m 11313.176,13522.581 c -17.46,-5.34 -36.619,-23.536 -30.854,-29.303 3.182,-3.181 6.223,-2.925 10.846,0.912 3.534,2.933 19.637,6.15 35.785,7.149 26.665,1.65 30.803,0.828 45.099,-8.962 8.656,-5.928 16.781,-9.736 18.055,-8.463 4.347,4.347 -5.285,23.695 -15.48,31.095 -12.217,8.868 -46.023,12.903 -63.451,7.572 z m 162.136,-16.661 c -11.759,-4.519 -23.335,-11.872 -25.727,-16.341 -6.423,-12.001 4.783,-26.873 22.794,-30.251 19.757,-3.707 62.046,-0.232 67.852,5.572 8.055,8.056 0.683,9.955 -20.776,5.353 -23.488,-5.037 -57.359,-1.759 -57.359,5.552 0,5.295 20.149,12.343 47.758,16.704 12.658,1.999 19.912,0.966 27.328,-3.893 5.553,-3.638 12.907,-6.615 16.344,-6.615 9.695,0 7.681,18.884 -2.797,26.223 -12.638,8.853 -49.303,7.732 -75.417,-2.304 z m -180.975,-27.943 c -16.833,-9.176 -24.762,-20.584 -21.043,-30.276 3.133,-8.163 4.755,-8.056 23.635,1.57 20.143,10.27 49.184,14.622 60.634,9.088 7.35,-3.553 4.661,-4.36 -15.53,-4.661 -42.446,-0.635 -74.426,-21.112 -69.315,-44.383 6.289,-28.633 54.387,-36.343 96.81,-15.52 27.093,13.299 33.35,21.808 27.449,37.33 -2.239,5.889 -4.07,15.064 -4.07,20.39 0,5.325 -4.272,14.648 -9.492,20.718 -8.567,9.959 -12.633,11.179 -41.717,12.515 -26.548,1.219 -34.891,0.03 -47.361,-6.771 z m 67.78,-52.854 c 11.792,-4.483 12.707,-7.655 5.181,-17.947 -11.738,-16.054 -74.105,-11.209 -74.105,5.756 0,12.3 46.845,20.585 68.924,12.191 z m 394.593,24.4 c -10.825,-4.374 -25.999,-23.377 -25.999,-32.559 0,-18.166 31.195,-30.252 71.423,-27.67 24.706,1.585 32.475,3.769 40.613,11.414 10.863,10.205 13.446,28.695 4.975,35.61 -15.751,12.858 -71.759,20.984 -91.012,13.205 z m 58.961,-27.045 c 16.575,-3.315 16.108,-8.665 -1.396,-15.979 -16.378,-6.843 -41.77,-7.659 -57.089,-1.834 -28.961,11.01 19.182,25.674 58.485,17.813 z m -299.483,19.026 c -64.982,-13.828 -90.074,-27.25 -100.731,-53.886 -8.822,-22.047 -5.505,-40.393 11.635,-64.344 7.208,-10.074 16.365,-28.388 20.35,-40.7 8.962,-27.694 22.479,-46.035 38.956,-52.86 17.823,-7.383 18.612,-3.536 2.729,13.305 -9.59,10.169 -16.028,22.931 -21.195,42.02 -4.081,15.078 -13.474,36.215 -20.873,46.971 -16.36,23.783 -17.772,42.767 -4.132,55.58 11.314,10.629 57.764,28.276 88.357,33.567 28.171,4.873 83.95,-4.623 103.98,-17.701 19.009,-12.412 24.31,-24.428 23.686,-53.687 -0.902,-42.277 -11.131,-69.168 -36.382,-95.641 -19.407,-20.346 -26.887,-32.603 -19.897,-32.603 7.127,0 36.336,18.455 48.568,30.688 11.557,11.556 14.353,12.879 14.353,6.787 0,-4.161 4.695,-11.977 10.433,-17.367 8.667,-8.142 15.534,-10.984 40.757,-11.332 23.846,-0.329 35.778,-2.798 50.791,13.529 0,0 9.005,10.253 8.427,16.36 -2.381,25.174 -2.719,59.014 -2.719,59.014 -3.279,71.201 -2.811,70.517 -46.64,68.13 -16.788,-0.915 -33.729,-3.078 -37.647,-4.808 -5.279,-2.33 -7.122,-1.287 -7.122,4.029 0,12.249 -20.661,34.992 -39.263,43.221 -17.387,7.691 -72.851,20.071 -86.245,19.251 -3.721,-0.229 -21.8,-3.613 -40.176,-7.523 z m 239.96,-80.325 c 8.542,-4.915 1.408,-8.419 -9.442,-4.637 -12.366,4.311 -39.884,2.911 -53.642,-2.73 -4.972,-2.038 -7.122,-1.019 -7.122,3.375 0,4.269 4.91,6.821 15.262,7.931 15.556,1.669 49.419,-0.759 54.944,-3.939 z m -6.883,-31.982 c 7.284,-5.796 5.995,-6.101 -16.519,-3.921 -13.431,1.301 -30.372,0.595 -37.647,-1.569 -7.659,-2.279 -13.227,-2.39 -13.227,-0.266 0,10.744 55.201,15.458 67.393,5.756 z m 6.698,-33.638 c 1.576,-1.545 -8.81,-2.202 -23.08,-1.459 -19.335,1.006 -30.63,-0.722 -44.326,-6.78 l -18.379,-8.13 3.261,8.815 c 1.793,4.848 5.187,8.814 7.542,8.814 2.356,0 5.809,1.565 7.674,3.478 3.765,3.861 62.773,-0.293 67.308,-4.738 z m 1.965,-35.597 c 0.783,-2.363 -5.082,-7.4 -13.034,-11.192 -24.709,-11.783 -63.022,-7.34 -63.022,7.308 0,5.148 7.79,7.616 36.629,11.603 11.869,1.64 38.022,-3.479 39.427,-7.719 z m -210.364,126.396 c -0.216,-9.186 1.841,-9.444 -7.879,-10.387 -2.519,-0.245 -6.298,1.961 -6.734,7.795 -0.738,9.874 -13.917,10.247 -13.111,-2.409 0.4,-6.278 1.409,-7.653 -17.565,-9.186 -10.177,-0.823 -22.088,-4.725 -21.865,-12.45 0.131,-4.541 4.506,-5.607 19.333,-4.57 l 19.332,1.354 v -18.651 c 0,-12.91 -1.685,-18.65 -5.474,-18.65 -3.011,0 -8.796,-3.671 -12.856,-8.157 -9.583,-10.588 -3.546,-25.37 14.083,-34.486 6.813,-3.523 10.072,-7.915 10.276,-11.769 0.451,-8.525 12.447,-5.761 12.314,1.076 -0.09,4.534 -4.645,4.443 6.847,4.496 9.705,0.04 9.99,-1.406 10.339,-6.312 0.472,-6.654 10.451,-7.267 9.111,0.47 -1.25,7.218 2.933,7.028 15.212,11.305 19.078,6.644 18.093,19.732 0.206,14.602 -7.26,-2.082 -13.67,-3.785 -14.245,-3.785 -0.574,0 -0.586,5.439 -1.044,12.051 -0.711,10.269 -1.44,15.298 9.744,20.006 12.9,5.431 15.403,12.996 18.593,20.483 6.147,14.841 0.221,27.434 -14.352,31.322 -14.155,3.776 -16.075,3.851 -16.267,14.293 -0.222,12.032 -13.695,14.464 -13.998,1.559 z m 3.458,-39.865 c -0.987,-16.571 3.529,-17.688 -9.435,-19.149 -7.683,-0.866 -5.931,4.378 -6.233,16.279 -0.391,15.41 3.103,16.235 6.611,16.721 2.896,0.401 9.95,1.142 9.057,-13.851 z m 21.776,-3.684 c -3.799,-3.798 -4.884,-2.713 -4.884,4.884 0,7.597 1.085,8.683 4.884,4.884 3.799,-3.798 3.799,-5.969 0,-9.768 z m -21.164,-43.955 c 0,-9.497 -1.809,-12.21 -8.14,-12.21 -5.387,0 -8.362,-0.152 -8.429,10.01 -0.09,12.966 2.249,10.255 7.412,11.604 3.917,1.024 7.58,2.074 8.14,2.334 0.559,0.259 1.017,-5.023 1.017,-11.738 z m -28.49,0 c 0.261,-6.583 -0.491,-8.514 -2.729,-8.514 -2.239,0 -5.41,6.276 -5.41,8.514 0,2.239 1.831,4.07 4.07,4.07 2.238,0 3.858,1.251 4.069,-4.07 z m -408.167,65.352 c -25.477,-3.526 -29.578,-5.488 -25.447,-12.172 1.592,-2.577 18.256,-4.341 41.016,-4.341 h 38.334 l -2.591,-141.808 c -1.958,-107.152 -1.415,-142.535 2.223,-144.783 2.648,-1.637 28.308,-4.02 57.022,-5.297 42.091,-1.872 52.913,-1.223 55.848,3.353 3.271,5.099 8.306,137.738 9.37,246.819 l 0.407,41.716 h 24.419 24.42 l 0.832,-88.521 c 0.458,-48.686 0.916,-133.829 1.018,-189.205 0.156,-85.478 1.107,-101.088 6.29,-103.351 3.358,-1.467 28.082,-3.475 54.944,-4.462 39.209,-1.442 50.444,-0.59 56.979,4.324 7.794,5.861 8.14,10.874 8.14,118.166 0,83.399 -1.284,113.33 -5.02,117.069 -2.761,2.764 -6.367,3.677 -8.015,2.03 -3.742,-3.742 -3.41,-171.607 0.4,-201.994 4.172,-23.076 4.248,-22.378 -18.054,-22.478 l -65.33,1.917 c -19.7,-1.359 -16.21,3.39 -15.378,21.183 0.81,17.326 3.294,110.223 2.111,193.47 l -2.15,151.359 10.635,1.264 c 12.65,1.504 16.812,9.867 6.399,12.859 -13.133,3.772 -234.577,6.239 -258.822,2.883 z m 157.173,-155.909 c -0.477,-95.831 -2.043,-139.084 -5.011,-138.402 -2.375,0.546 -22.697,2.197 -45.162,3.669 l -40.844,2.676 1.928,12.611 c 1.061,6.936 2.939,46.494 4.175,87.905 1.236,41.412 3.406,96.814 4.823,123.116 l 2.574,47.821 h 39.105 39.106 z m 599.694,143.239 c -68.224,-7.93 -75.798,-13.746 -24.148,-18.547 16.514,-1.535 28.276,-4.385 26.95,-6.532 -7.173,-11.606 -9.365,-83.671 -9.598,-315.551 l -0.24,-238.158 c 2.274,-22.989 -3.471,-19.337 -24.383,-19.775 l -60.839,0.51 c -17.342,0.01 -21.414,-4.305 -18.731,13.228 1.114,7.274 3.132,105.716 4.485,218.758 2.032,169.747 1.497,206.836 -3.072,213.022 -5.258,7.119 -5.823,7.137 -11.422,0.364 -5.002,-6.05 -5.798,-41.266 -5.271,-233.371 l 0.552,-201.6 c -2.318,-26.509 1.537,-24.91 25.903,-29.294 32.386,-5.827 77.145,-6.706 90.126,-1.771 19.597,7.451 22.162,38.495 25.417,307.566 1.218,100.714 3.859,204.782 5.87,231.261 2.009,26.479 2.745,50.512 1.635,53.406 -1.584,4.128 14.47,5.87 74.516,8.089 42.095,1.555 79.741,3.757 83.658,4.894 11.577,3.36 8.193,8.978 -8.14,13.514 -17.408,4.835 -131.633,4.826 -173.269,0 z m -345.951,-118.698 c -17.923,-4.75 -27.599,-19.299 -19.404,-29.174 3.923,-4.728 2.346,-10.402 -7.974,-28.689 -10.436,-18.492 -11.926,-23.928 -7.889,-28.793 7.587,-9.142 34.869,-14.952 55.606,-11.842 11.074,1.661 27.339,0.683 40.275,-2.42 19.098,-4.582 22.944,-4.39 32.078,1.594 15.828,10.371 13.446,24.031 -8.231,47.205 -16.539,17.682 -18.079,20.883 -13.847,28.79 6.186,11.559 -1.152,19.376 -22.933,24.429 -19.203,4.454 -27.442,4.264 -47.681,-1.1 z m 11.496,-21.132 c -16.86,-5.306 -24.224,-4.591 -20.175,1.961 1.287,2.083 10.017,3.648 19.398,3.476 l 17.057,-0.313 -16.28,-5.123 z m 34.595,-18.187 c 0,-1.973 8.623,-11.969 19.163,-22.214 10.54,-10.245 18.04,-19.752 16.666,-21.125 -1.374,-1.374 -10.968,0.377 -21.32,3.892 -14.453,4.907 -22.81,5.47 -35.998,2.427 -24.806,-5.725 -43.63,-5.203 -43.63,1.21 0,2.955 6.553,13.028 14.562,22.385 13.019,15.209 16.469,17.012 32.559,17.012 9.899,0 17.998,-1.614 17.998,-3.587 z m 91.622,16.151 c -3.971,-28.87 -4.325,-299.532 -0.426,-325.345 3.274,-21.678 3.244,-21.764 -6.306,-18.315 -5.278,1.907 -29.073,3.186 -52.877,2.843 l -43.282,-0.623 -2.973,108.993 c -2.888,105.872 -5.164,124.777 -13.959,115.981 -5.433,-5.433 -6.714,-91.711 -2.385,-160.644 1.897,-30.219 3.603,-59.442 3.791,-64.94 0.507,-14.892 26.009,-21.041 82.323,-19.85 31.969,0.763 44.284,-8.549 47.896,23.542 3.512,31.199 3.755,342.442 0.275,351.231 -4.908,12.39 -9.236,7.776 -12.076,-12.873 z m -595.537,-151.473 c 17.066,-30.462 67.121,-66.132 99.65,-71.009 19.514,-2.927 46.111,4.342 46.111,12.601 0,8.287 -5.8,10.488 -32.981,12.515 -13.698,1.022 -32.236,5.679 -41.641,10.461 -21.811,11.09 -60.481,37.288 -67.471,45.71 -10.608,12.782 -12.934,6.263 -3.668,-10.278 z m 162.27,-70.693 c -0.34,-27.15 43.642,-80.463 87.664,-106.261 25.976,-15.224 59.567,-17.242 80.618,-4.845 18.499,10.894 25.095,19.829 21.519,29.147 -2.321,6.049 -4.416,5.915 -23.183,-1.482 -27.517,-10.846 -42.966,-10.252 -68.852,2.647 -21.377,10.652 -66.692,50.645 -86.867,78.759 -4.369,6.088 -10.672,20.159 -10.899,2.035 z m 211.407,-107.247 c 0,-4.143 4.596,-16.178 10.214,-26.744 29.98,-56.384 102.944,-112.095 146.947,-112.2 19.443,-0.05 38.196,12.33 38.196,25.208 0,7.486 -1.624,8.066 -15.262,5.456 -8.395,-1.606 -20.438,-2.722 -26.764,-2.479 -27.894,1.071 -89.163,46.053 -125.218,91.932 -21.434,27.274 -28.113,31.747 -28.113,18.827 z m 205.722,-122.395 c -4.612,-7.463 10.106,-29.116 43.268,-63.659 31.681,-32.999 78.036,-67.883 132.494,-99.706 l 26.601,-15.545 -22.374,2.309 c -25.433,2.625 -33.258,-2.932 -18.106,-12.86 12.372,-8.106 93.41,-26.566 104.218,-23.739 14.732,3.852 13.774,15.876 -3.986,50.013 -11.57,22.238 -19.292,32.64 -24.233,32.64 -10.501,0 -12.975,-10.596 -6.236,-26.723 5.82,-13.93 5.792,-14.015 -3.093,-9.264 -37.594,20.102 -131.495,86.669 -159.555,113.11 -37.222,35.074 -66.384,57.654 -68.998,53.424 z" transform="translate(366.07815,-128.26169) matrix(0.26458333,0,0,0.26458333,-3292.9736,-3190.7696)" fill="#000000"/>
</svg>