<?xml version="1.0" ?><svg xmlns="http://www.w3.org/2000/svg" width="288.33218mm" height="255.13283mm" viewBox="0 0 288.33218 255.13283">
    <path d="m -1641.1475,18390.861 c 5.4717,-30.59 -6.3007,-108.932 -6.3007,-108.932 0,0 -153.5381,36.261 -219.8612,48.945 -66.323,12.684 -231.6334,37.753 -329.1283,11.192 -97.495,-26.562 -195.0428,-76.249 -195.0428,-76.249 -105.2079,-36.832 -96.2906,-205.953 -87.9911,-395.141 2.1068,-13.663 9.8208,-23.763 19.3995,-32.68 l 1.3265,-97.888 c -3.5941,-29.355 8.6276,-40.461 25.7003,-65.657 l 88.3754,-19.698 153.2164,-4.195 -4.9842,-24.306 16.865,-5.55 2.8187,-160.861 182.7443,-1.379 10.0901,74.199 104.1273,5.969 -9.2853,77.147 59.1934,2.09 18.1385,74.106 183.4838,-13.523 2.1554,98.337 c 0,0 87.5466,58.793 104.7906,99.381 17.244,40.588 8.6856,125.575 -11.898,156.682 0,0 34.1564,10.445 71.4631,26.113 37.3068,15.669 82.5723,66.255 62.5096,85.803 -20.0628,19.548 -57.3695,41.036 -57.3695,41.036 0,0 30.3426,52.973 29.5137,92.666 -0.829,39.693 -13.0988,91.771 -13.0988,91.771 0,0 -6.4519,63.776 -200.9517,20.622 z" fill="#FFFFFF" transform="translate(30.017288,-106.77887) matrix(0.26458333,0,0,0.26458333,627.22691,-4507.9683)"/>
    <path d="m -2158.6916,18362.694 c -20.7363,-3.158 -43.8575,-10.612 -81.0928,-26.142 -15.0442,-6.275 -43.07,-17.932 -62.2798,-25.904 -19.2095,-7.973 -47.375,-20.006 -62.5896,-26.74 -15.2147,-6.735 -31.8442,-14.022 -36.9543,-16.193 -9.5121,-4.043 -13.1984,-8.851 -8.6728,-11.312 1.3978,-0.762 4.8393,-0.502 7.6481,0.576 2.8087,1.078 14.2506,5.047 25.4266,8.819 47.6696,16.094 105.3328,36.523 129.784,45.981 14.4632,5.594 37.0813,13.671 50.2625,17.948 23.8257,7.73 24.2304,7.789 69.1754,10.179 25.3953,1.351 53.4544,1.743 64.0215,0.897 71.4997,-5.722 223.1476,-30.507 313.3364,-51.211 42.6198,-9.784 61.0108,-12.695 78.4353,-12.419 6.568,0.104 11.9682,-0.288 12.0001,-0.871 -4.0189,-17.081 -10.012,-32.155 -12.9163,-50.78 l -1.7339,-11.642 -6.2771,0.961 c -70.0038,7.504 -149.9636,4.067 -212.027,-3.802 -124.7031,-16.192 -197.5638,-34.054 -247.8544,-60.758 -13.529,-7.186 -15.0144,-7.571 -21.0571,-5.464 -3.5756,1.246 -12.7657,2.532 -20.4223,2.856 -22.6457,0.962 -40.7451,-8.534 -64.7753,-33.984 -10.6819,-11.313 -19.4816,-27.077 -19.0873,-34.193 0.1093,-1.969 2.1594,-6.952 4.5564,-11.073 2.3967,-4.121 4.4252,-8.708 4.5074,-10.193 0.083,-1.485 3.3351,-5.22 7.2281,-8.3 4.8085,-3.804 7.6185,-7.983 8.762,-13.032 0.9258,-4.088 2.918,-8.347 4.4269,-9.465 2.2466,-1.664 1.7386,-5.077 -2.8048,-18.845 -3.0517,-9.248 -5.9606,-19.963 -6.4642,-23.813 -1.1422,-8.729 4.2625,-20.662 9.8749,-21.802 5.9526,-1.209 5.1089,-5.391 -1.1395,-5.647 -4.8207,-0.197 -5.4308,-1.006 -5.6099,-7.43 -0.1699,-6.101 1.0584,-8.393 7.9977,-14.924 11.3365,-11.082 35.8616,-6.296 50.5278,-1.069 4.8043,1.824 6.4859,1.444 11.0893,-2.502 9.3652,-8.027 12.299,-5.47 7.2733,6.341 -2.2672,5.328 -2.0775,6.885 1.5033,12.334 7.5337,11.467 7.1056,35.126 -0.8728,48.234 -2.0149,3.311 -1.9815,4.358 0.1647,5.186 1.4793,0.57 5.2848,4.087 8.4569,7.816 8.9142,10.479 12.4672,31.032 12.7026,73.486 0.1077,19.522 0.4285,36.547 0.7121,37.831 0.705,3.195 60.2931,26.189 87.7274,33.854 55.7551,15.578 181.8194,34.958 253.0495,38.906 41.8417,2.318 126.0403,-3.409 129.9152,-8.836 1.0183,-1.426 1.9568,-4.248 2.0857,-6.272 0.501,-7.872 16.6513,-44.536 23.8877,-54.228 48.8527,-51.654 134.1266,-40.297 168.7614,0.207 20.1238,23.866 37.2214,54.735 45.2705,81.738 7.4442,24.972 10.2533,45.33 10.7785,78.113 0.8231,51.36 -3.9947,64.367 -6.9274,79.84 -2.0311,10.715 -17.7602,1.333 -19.1289,-4.916 -0.855,-3.905 -0.7418,-22.135 0.2514,-40.513 2.911,-53.847 0.224,-80.715 -11.3978,-113.988 -6.8242,-19.538 -29.7714,-58.075 -45.0958,-75.735 -25.5615,-24.965 -60.3785,-26.594 -85.8521,-16.072 -26.9584,11.189 -37.9174,22.512 -49.4303,51.071 -7.4874,18.573 -7.4088,19.136 2.5186,18.018 13.7411,-1.545 45.6625,-9.318 62.0533,-15.11 16.8783,-5.964 24.6882,-5.84 28.3462,0.454 4.1919,7.211 -2.4303,15.673 -16.9075,21.605 -13.8777,5.687 -44.0923,13.19 -68.7025,17.06 -15.4635,2.433 -16.4222,2.876 -16.6677,7.704 -0.416,8.176 3.3894,23.805 12.5344,51.487 9.9817,30.216 14.437,50.798 16.0868,74.316 2.2582,32.191 -4.071,51.22 -16.8015,50.516 -8.0742,-0.447 -9.4954,-5.158 -8.2782,-27.437 0.5731,-10.612 0.4469,-25.093 -0.2951,-32.182 -1.3624,-13.014 -8.8775,-45.833 -10.5162,-45.925 -6.8697,-0.381 -47.6016,10.175 -75.2184,19.492 -36.1397,12.193 -78.6048,22.695 -119.3425,29.516 -102.5992,17.178 -168.5198,26.572 -205.6663,29.312 -13.7299,1.011 -81.1501,1.835 -83.8422,1.023 -0.5334,-0.161 -8.8305,-1.49 -18.4383,-2.953 z m -20.0575,-346.24 c -0.7495,-2.808 -2.0218,-3.139 -7.3889,-1.916 -8.4493,1.925 -20.2008,-1.924 -23.857,-7.812 -4.4065,-7.096 -3.2771,-7.942 7.9019,-5.911 12.7588,2.317 18.2424,0.189 22.5768,-8.757 3.7652,-7.773 4.3268,-14.737 2.033,-25.215 l -1.7019,-7.775 -5.2169,5.036 c -6.7274,6.494 -11.8243,5.372 -11.1882,-2.462 0.2607,-3.211 0.9221,-7.144 1.47,-8.742 0.7659,-2.23 -1.1363,-3.157 -8.2397,-4.011 -11.3704,-1.365 -17.3813,1.161 -17.73,7.454 -0.1446,2.601 -1.2845,5.285 -2.5343,5.966 -1.4182,0.771 -2.0167,4.389 -1.5924,9.624 0.7488,9.237 7.8483,36.482 11.9889,46.007 4.0008,9.204 35.7047,43.1 38.2127,40.854 4.3734,-18.378 -0.3953,-26.51 -4.734,-42.34 z m -226.2068,164.466 c -2.012,-14.053 -3.7114,-58.925 -2.8324,-74.791 0.5716,-10.318 0.301,-29.308 -0.6014,-42.197 -1.46,-20.85 -1.5865,-54.548 -0.5256,-139.848 l 0.3206,-25.77 -25.8313,-3.425 c -22.6466,-3.003 -27.1049,-4.203 -36.1602,-9.73 -18.5476,-11.321 -11.9974,-19.601 11.2445,-14.214 6.8769,1.593 22.313,3.441 34.3022,4.106 20.1024,1.113 22.212,1.595 27.1082,6.201 l 5.3094,4.995 33.8675,-6.62 c 18.6271,-3.641 51.4749,-9.27 72.9949,-12.51 21.5201,-3.239 47.0539,-7.757 56.7419,-10.039 9.6878,-2.282 22.1042,-5.127 27.5916,-6.32 14.0878,-3.066 64.0998,-9.053 71.9785,-8.616 13.2709,-1.218 -12.4613,-9.52 -14.5339,-8.012 -49.8072,14.316 -106.8957,20.212 -147.5321,23.63 -102.3158,8.425 -124.283,8.098 -145.1646,-2.169 -4.016,-1.973 -13.3057,-5.443 -20.6441,-7.71 -12.2572,-3.786 -13.0711,-4.364 -10.0075,-7.106 4.6953,-4.203 20.6847,-5.056 34.0279,-1.817 6.2241,1.512 13.2506,2.855 15.6144,2.985 l 4.2977,0.239 1.7205,-46.638 c 0.9463,-25.649 1.3988,-47.228 1.0057,-47.95 -0.3932,-0.723 -11.1016,-2.513 -23.7964,-3.979 -12.6949,-1.464 -23.84,-3.507 -24.7669,-4.538 -5.115,-5.691 14.4428,-11.604 32.3437,-9.777 l 10.4568,1.065 1.6985,-22.792 1.6985,-22.793 -5.588,-1.441 c -3.0733,-0.794 -9.0152,-1.632 -13.2037,-1.864 -9.5957,-0.532 -10.0965,-5.299 -0.8068,-7.679 17.1367,-4.392 31.1829,-2.401 30.808,4.364 -0.2066,3.731 1.14,3.808 11.8432,0.687 9.5693,-2.792 57.7787,-8.511 124.9685,-14.827 l 44.5892,-4.191 -64.4307,-2.405 c -42.8596,-1.6 -67.3222,3.405 -64.3209,-4.392 0.4073,-1.058 10.9645,-4.781 23.0489,-4.874 11.6612,-0.09 32.6675,-0.566 46.8024,-1.273 35.0682,-1.755 47.5611,0.409 62.1675,0.822 11.5401,0.327 12.3763,0.06 11.6405,-3.8 -5.1566,-27.003 1.7815,-35.136 23.5224,-27.577 4.5473,1.581 8.7217,1.513 14.9964,-0.244 4.7822,-1.339 18.3884,-2.966 30.236,-3.617 19.6476,-1.077 21.5275,-1.528 21.3878,-5.133 -0.084,-2.173 -0.2106,-20.785 -0.2814,-41.36 -0.071,-20.574 -0.3461,-37.651 -0.6125,-37.948 -1.6218,-1.813 -25.5379,2.877 -26.586,5.213 -0.6863,1.529 0.5461,14.656 2.7387,29.168 3.5434,23.454 3.6499,27.002 0.9583,31.9 -1.6657,3.033 -5.3017,6.508 -8.0798,7.726 -10.2903,4.509 -29.2042,0.379 -38.554,-8.417 -9.4659,-8.903 -11.5978,-31.826 -4.5375,-48.784 2.7261,-6.547 3.9476,-17.205 5.5844,-48.731 1.1527,-22.192 2.2133,-41.896 2.3579,-43.786 0.3328,-4.352 5.4374,-4.196 7.6036,0.233 1.4462,2.957 3.0158,3.161 13.3094,1.726 6.4186,-0.896 29.0395,-2.895 50.2689,-4.445 134.6552,-9.831 127.6465,-9.501 130.6578,-6.137 1.1353,1.268 2.2467,12.379 2.4699,24.69 0.2232,12.311 0.6416,28.674 0.9299,36.364 0.4283,11.425 -0.086,14.527 -2.8135,16.969 -4.1204,3.687 -1.2747,6.188 5.0105,4.402 2.4689,-0.701 8.9249,-1.28 14.3466,-1.287 5.4217,-0.01 13.8569,-0.133 18.7446,-0.291 4.8878,-0.152 19.9785,-0.322 33.5351,-0.375 31.4977,-0.133 31.8858,0.161 36.1658,26.66 3.3027,20.45 2.2627,33.29 -3.4869,43.043 -4.382,7.435 -12.0824,9.142 -17.3401,3.845 -3.4786,-3.506 -3.6612,-5.313 -1.8145,-17.936 1.1297,-7.721 1.7803,-19.883 1.4456,-27.027 l -0.6077,-12.99 -25.291,-1.401 -25.2909,-1.401 5.2835,8.215 c 2.9061,4.519 6.1185,12.799 7.1387,18.403 1.7466,9.593 0.034,30.222 -3.0852,37.175 -1.2178,2.715 3.8382,3.217 49.5254,4.923 37.7324,1.41 56.2707,2.987 59.488,4.945 6.0967,3.711 7.722,19.947 10.3658,40.912 3.7511,29.749 2.9196,27.331 8.99,26.15 16.847,-3.277 41.1217,-4.969 71.6551,-4.994 18.9756,-0.01 49.7434,-0.06 68.3727,-0.09 18.6292,-0.03 35.231,0.543 36.8928,1.289 3.7129,1.665 3.6235,7.584 -0.157,10.383 -5.3265,3.945 -24.5357,4.863 -90.2175,4.314 -36.3067,-0.305 -71.6667,-0.418 -78.5777,-0.254 l -12.5656,0.296 0.9059,7.256 c 0.4984,3.992 0.5366,27.473 0.086,52.182 -0.4516,24.707 -0.4134,45.378 0.084,45.935 0.4984,0.557 3.2356,0.564 6.0828,0.01 4.6202,-0.89 4.9498,-1.466 3.0642,-5.347 -3.3243,-6.843 -0.3459,-53.562 3.6422,-57.132 1.7202,-1.541 10.2739,-3.813 19.0084,-5.052 22.202,-3.146 22.8222,-3.394 17.1203,-6.829 -4.2874,-2.584 -4.6889,-4.032 -3.9726,-14.334 0.7703,-11.079 1.0023,-11.507 6.9873,-12.87 11.2489,-2.561 15.5033,0.312 17.8168,12.038 1.1369,5.762 1.7903,11.961 1.4516,13.775 -0.4657,2.497 1.1557,3.546 6.661,4.312 5.2862,0.736 7.4122,2.035 7.7727,4.747 0.273,2.053 -0.6045,4.333 -1.9499,5.065 -1.9059,1.036 -2.1389,5.214 -1.0623,18.906 0.7656,9.666 0.9156,20.654 0.3332,24.418 -1.0512,6.789 -1.1242,6.833 -9.8759,5.858 -12.1213,-1.351 -51.6059,3.568 -53.8151,6.703 -1.3701,1.946 0.3661,2.888 7.4392,4.035 7.6321,1.239 9.2912,2.246 9.6002,5.827 0.3041,3.527 -1.0398,4.64 -7.2322,5.997 -4.1832,0.915 -10.7064,1.585 -14.4961,1.489 -15.1908,-0.383 -16.6794,0.767 -18.7729,14.505 -1.4991,9.837 -2.9512,13.309 -6.8172,16.296 -13.5165,10.444 -14.6982,12.711 -13.1867,25.287 2.5839,21.501 5.4046,81.826 5.5163,117.977 0.061,19.714 1.2011,49.653 2.5336,66.533 1.3327,16.88 2.5433,36.183 2.6905,42.894 0.2623,11.967 0.3621,12.174 5.1316,10.657 7.6937,-2.447 71.937,-11.246 86.118,-11.795 15.9142,-0.616 19.7171,1.52 14.734,8.277 -4.6372,6.289 -11.7775,7.93 -42.3457,9.726 -14.1416,0.831 -34.2877,2.064 -44.7689,2.74 l -19.0567,1.227 -2.4946,7.004 c -1.3721,3.851 -3.1273,9.392 -3.9004,12.311 -0.8362,3.156 -3.6461,6.29 -6.9329,7.729 -6.6879,2.931 -33.5846,7.831 -63.202,11.513 -43.8626,5.453 -92.3396,3.654 -97.7525,4.3 -11.4675,1.367 -34.3824,-7.65 2.9433,-11.76 10.9751,-1.209 38.5306,-5.923 38.8894,-6.243 0.3587,-0.322 -2.0009,-1.859 -5.2436,-3.418 -6.7232,-3.232 -9.4114,-7.81 -8.9952,-15.321 0.4085,-7.373 20.5427,-24.784 30.1086,-26.035 21.8169,-2.855 36.8827,21.553 21.9284,35.526 l -5.6916,5.318 21.0172,-2.889 c 16.446,-2.262 20.0661,-3.303 16.6442,-4.79 -10.4531,-4.538 -13.8693,-14.571 -7.5085,-22.051 5.7184,-6.723 26.2943,-10.6 32.3058,-6.085 2.8748,2.158 6.1637,9.723 5.9448,13.673 -0.1004,1.801 -3.459,6.207 -7.465,9.792 -4.0059,3.586 -5.9294,6.084 -4.2743,5.551 1.6549,-0.531 7.4589,-1.308 12.8977,-1.725 13.0037,-0.997 14.4963,-2.85 12.7687,-15.853 -0.7665,-5.769 -1.1765,-14.409 -0.911,-19.199 0.4198,-7.578 0,-8.585 -3.2172,-7.755 -4.671,1.201 -78.9166,7.065 -118.1125,9.327 -16.3164,0.94 -31.863,2.005 -34.548,2.365 -4.8685,0.651 -4.8659,0.663 0.9902,3.909 7.0261,3.898 10.6068,10.805 9.9089,19.115 -1.0409,12.398 -13.9333,22.099 -30.7701,23.153 -8.3556,0.523 -10.3752,-0.09 -15.0645,-4.601 -4.1697,-4.01 -5.2822,-6.791 -4.8373,-12.097 0.899,-10.715 7.1756,-20.285 16.5277,-25.196 l 8.383,-4.403 -18.943,0.185 c -13.8155,0.133 -19.3047,-0.481 -20.2786,-2.272 -0.7347,-1.349 -0.8652,-2.876 -0.2901,-3.39 2.1034,-1.883 193.7998,-21.521 204.3616,-20.935 4.4285,0.245 4.9791,-0.399 4.4365,-5.176 -2.2368,-19.691 -2.9428,-42.557 -2.4847,-80.473 0.2882,-23.838 0.2138,-53.562 -0.1652,-66.053 -0.3789,-12.49 -0.2204,-31.428 0.3524,-42.084 0.9509,-17.696 0.7366,-19.262 -2.4799,-18.09 -10.7334,3.916 -110.6678,12.873 -162.9587,14.606 -39.8884,1.322 -67.7325,2.98 -68.9944,4.109 -0.5201,0.466 0.8255,11.367 2.9901,24.225 2.1647,12.858 4.5169,28.733 5.2273,35.277 6.3903,58.883 8.2773,98.769 7.0338,148.686 -1.0113,40.601 -1.8086,43.818 -10.7391,43.324 -6.452,-0.358 -8.3213,-9.099 -6.9972,-32.718 1.5357,-27.396 -0.086,-87.388 -3.955,-146.303 -4.5972,-70.005 -3.7196,-65.148 -11.9814,-66.308 l -6.9036,-0.97 0.576,16.391 c 0.5249,14.933 -0.027,56.237 -2.334,174.929 -0.8535,43.893 -2.0971,51.14 -8.7131,50.774 -5.4932,-0.305 -9.0417,-5.765 -9.6527,-14.851 -0.31,-4.612 0.2073,-30.523 1.1494,-57.578 0.9424,-27.054 1.2192,-55.87 0.6152,-64.037 -0.6038,-8.166 -0.3665,-39.406 0.5274,-69.422 1.6078,-53.991 1.5806,-54.569 -2.5328,-53.925 -2.2866,0.357 -18.9559,2.517 -37.0425,4.8 -18.0866,2.283 -40.4049,5.955 -49.5965,8.161 -17.0794,4.098 -55.1596,10.269 -72.2277,11.704 l -9.5092,0.8 0.5957,8.276 c 1.3839,19.232 3.2492,69.741 3.6242,98.143 0.2222,16.818 1.3226,46.155 2.4456,65.192 1.1229,19.037 1.7521,49.235 1.3982,67.107 l -0.6435,32.492 22.8837,0.02 c 12.5861,0 27.9894,-0.372 34.2298,-0.84 8.1081,-0.607 12.1582,-0.09 14.1933,1.793 3.7938,3.521 3.381,7.37 -0.9434,8.796 -10.087,3.325 -42.2067,8.604 -63.1677,10.38 -13.0728,1.109 -43.4411,4.819 -67.4852,8.247 -10.4357,-0.273 -53.9443,14.068 -56.9125,-3.164 z m 67.9541,-18.085 c 13.1288,-2.118 25.4431,-4.215 27.3652,-4.658 3.1053,-0.716 3.6581,-3.757 4.9617,-27.286 0.807,-14.564 0.7755,-45.777 -0.069,-69.363 -1.444,-40.292 -1.4866,-115.281 -0.08,-141.187 0.6013,-11.12 0.4717,-11.479 -3.1444,-8.553 -5.2727,4.265 -8.4227,3.598 -8.1279,-1.723 0.3192,-5.759 3.9893,-9.043 9.7492,-8.724 3.9862,0.221 4.5733,-0.708 4.9694,-7.857 0.4488,-8.099 0.4491,-8.107 -6.0092,-7.183 -18.6858,2.677 -75.8286,8.81 -79.9586,8.581 -2.6291,-0.148 -4.7828,-0.05 -4.7859,0.227 -3e-4,0.272 1.3594,15.65 3.0276,34.175 2.4015,26.665 2.5992,41.462 0.9489,71.023 -2.1922,39.275 -3.1824,108.723 -2.0158,141.439 0.3813,10.696 -0.9417,17.49 -1.294,25.063 -0.9305,7.804 14.9593,2.277 54.4629,-3.974 z m -24.7134,-16.515 c -2.0951,-1.327 -7.3494,-6.481 -11.6764,-11.453 l -7.8672,-9.04 2.7885,-14.026 c 4.9238,-24.768 16.8926,-37.203 32.6088,-33.875 15.3791,3.255 22.2043,10.716 25.0133,27.345 2.2993,13.612 -9.9168,37.721 -21.3806,42.197 -6.3465,2.478 -14.5274,1.996 -19.4864,-1.148 z m 15.2727,-23.937 c 4.3352,-5.871 5.3307,-16.594 1.9626,-21.142 -1.2313,-1.663 -4.3415,-3.14 -6.9116,-3.282 -6.6219,-0.368 -6.2841,5.152 0.3854,6.296 7.5269,1.292 7.896,8.65 0.7678,15.31 -2.9705,2.775 -4.8321,5.68 -4.1371,6.457 2.2328,2.495 4.0029,1.683 7.9329,-3.639 z m 24.7008,-39.273 c 0.3041,-5.49 7.7766,-14.621 11.7836,-14.398 4.1788,0.23 2.9636,8.687 -2.07,14.404 -5.4565,6.199 -10.0573,6.195 -9.7136,0 z m -38.5226,-29.07 c -12.7893,-4.617 -16.6468,-14.69 -12.9459,-33.804 4.1707,-21.539 14.312,-33.093 28.3641,-32.315 7.6623,0.425 18.9587,14.301 20.5473,25.239 2.5798,17.764 -6.9534,35.638 -21.6507,40.596 -4.3492,1.465 -8.1065,2.579 -8.3498,2.472 -0.2432,-0.103 -2.9274,-1.091 -5.965,-2.188 z m 9.1389,-34.57 c 2.4307,-0.329 3.6515,1.275 4.2724,5.617 1.1068,7.739 4.327,6.171 4.7984,-2.335 0.4016,-7.247 -6.2084,-19.879 -11.0358,-21.089 -2.3695,-0.594 -3.8213,1.666 -5.8575,9.123 -5.0465,18.478 -3.3108,34.661 1.8799,17.527 1.6065,-5.303 3.7892,-8.551 5.9426,-8.843 z m 24.7176,-30.055 c 0.2391,-4.315 10.2235,-14.197 12.6411,-12.511 2.847,1.984 1.8339,5.996 -2.8615,11.329 -4.9898,5.667 -10.0621,6.281 -9.7796,1.182 z m -31.5125,-24.285 c -3.3742,-1.076 -8.269,-4.799 -10.8771,-8.272 -4.075,-5.427 -4.6339,-8.159 -3.9724,-19.428 1.4886,-25.343 13.46,-38.18 32.4409,-34.783 12.3213,2.206 17.9703,6.187 21.029,14.824 3.5353,9.979 2.3994,18.679 -3.8782,29.704 -8.915,15.655 -21.5257,22.173 -34.7422,17.955 z m 5.7643,-29.364 c 2.0237,-7.242 6.6148,-6.488 7.7244,1.27 0.8601,6.015 1.0482,6.141 3.9778,2.685 3.7424,-4.417 4.8061,-16.645 1.7454,-20.065 -3.2914,-3.678 -10.8374,-3.473 -13.1273,0.357 -3.0648,5.126 -5.8231,19.444 -4.2889,22.264 0.7524,1.383 1.6178,1.686 1.9227,0.672 0.305,-1.015 1.2258,-4.246 2.0459,-7.183 z m 341.8772,183.32 c 2.8129,-1.845 5.1827,-4.588 5.2661,-6.092 0.438,-7.906 -21.0454,-1.493 -22.7283,6.785 -0.8427,4.144 -0.3803,4.435 5.7155,3.587 3.6477,-0.508 8.9336,-2.433 11.7467,-4.28 z m 76.5253,-4.424 c 4.8136,-4.308 1.8023,-7.265 -7.95,-7.805 -9.1395,-0.507 -18.3856,4.855 -15.9844,9.269 1.7066,3.137 20.0467,2.016 23.9344,-1.464 z m 56.3134,-9.172 c 0.018,-0.31 -1.2674,-1.146 -2.8542,-1.858 -1.7402,-0.781 -2.9473,-0.178 -3.042,1.53 -0.095,1.704 1.0386,2.44 2.8543,1.857 1.6558,-0.533 3.0247,-1.221 3.0419,-1.529 z m -475.8192,-263.203 c 8.4662,-0.741 12.24,-3.982 5.0965,-4.377 -6.3073,-0.35 -16.5375,-8.31 -21.6079,-16.814 -7.7878,-13.062 -2.7124,-33.32 10.3765,-41.416 3.5105,-2.172 6.8546,-4.46 7.4316,-5.086 4.1941,-4.547 12.351,-7.182 20.7848,-6.714 8.4699,0.469 10.3905,1.413 15.7178,7.728 15.9789,18.94 12.6729,51.882 -6.0991,60.771 -6.6466,3.147 -4.1998,3.318 18.3446,1.287 49.1464,-4.427 77.3234,-7.637 97.213,-11.071 12.0424,-2.078 26.3475,-4.079 31.7893,-4.446 l 9.894,-0.668 1.0383,-8.813 1.0384,-8.815 -6.8437,6.847 c -8.7846,8.788 -13.5725,10.75 -24.7173,10.133 -11.4517,-0.635 -23.2503,-7.383 -27.825,-15.914 -4.9254,-9.484 -6.5956,-33.607 8.8938,-42.496 3.9113,-4.576 14.7918,-8.847 21.5802,-8.471 7.4349,0.412 20.4326,7.718 23.433,13.173 3.6838,6.697 5.1643,4.757 5.8528,-7.67 0.646,-11.662 -2.1712,-23.961 -6.1184,-26.713 -1.1048,-0.77 -7.6456,-0.435 -14.5352,0.746 -18.0803,3.097 -72.3403,8.683 -113.5981,11.695 -19.5965,1.429 -50.5566,3.813 -68.8006,5.297 l -33.1706,2.697 -0.4618,9.908 c -0.2545,5.449 -0.031,16.142 0.4953,23.761 0.5264,7.619 1.5712,22.939 2.3216,34.043 1.2019,17.79 1.843,20.322 5.3882,21.274 12.4912,0.93 25.1267,1.106 37.088,0.118 z m 83.3156,-18.02 c -2.6429,-1.222 -7.5259,-5.158 -10.851,-8.748 -5.2832,-5.705 -5.9746,-7.806 -5.484,-16.662 0.716,-12.924 6.6703,-21.006 19.8538,-26.953 8.6925,-3.921 10.526,-4.104 17.1617,-1.708 9.0218,3.257 18.3205,14.546 19.5175,23.695 1.2498,9.553 -6.8967,25.305 -15.5102,29.991 -7.0601,3.841 -16.8798,3.995 -24.6878,0.385 z m 17.6973,-16.554 c 4.765,-4.713 5.4497,-14.581 1.3311,-19.183 -1.8767,-2.098 -6.618,-3.809 -11.8437,-4.274 -8.18,-0.73 -8.8644,-0.395 -11.1613,5.454 -2.8609,7.287 -1.7612,12.442 3.7299,17.484 5.3126,4.876 13.3046,5.108 17.944,0.519 z m 173.8292,46.749 c 9.6759,-1.389 10.3765,-1.789 6.1072,-3.481 -4.0461,-1.605 -39.0049,-7.644 -39.0545,-6.748 -0.015,0.161 0.8248,3.217 1.8524,6.791 1.8286,6.355 2.0668,6.481 11.0171,5.753 5.0314,-0.409 14.0663,-1.451 20.0778,-2.315 z m 54.0109,-14.122 c 10.3825,-0.682 10.6731,-0.848 6.3231,-3.619 -8.6802,-5.53 -21.157,-20.018 -25.1018,-29.149 -8.7406,-20.232 -5.5235,-40.996 8.2634,-53.336 10.7465,-9.618 18.9323,-12.265 35.1489,-11.366 26.2807,1.455 41.2068,16.788 42.4054,43.56 0.9616,21.474 -3.3786,35.759 -14.1224,46.481 l -4.4514,4.441 c 5.7434,-1.515 17.2794,0.735 21.4955,-3.944 0.9259,-1.197 1.6212,-10.165 1.5456,-19.928 -0.075,-9.761 -0.059,-35.045 0.037,-56.182 0.1898,-41.619 -0.6191,-78.701 -1.7441,-79.957 -0.387,-0.432 -4.3744,-0.173 -8.8607,0.577 -4.4862,0.75 -12.7448,1.273 -18.3525,1.161 -15.109,-0.301 -16.6648,-2.906 -15.7399,-26.348 0.4203,-10.653 1.7076,-20.148 2.9087,-21.456 2.7089,-2.947 23.3483,-1.979 29.7903,1.398 5.1497,2.7 6.692,7.213 6.1381,17.959 -0.197,3.847 0.9256,8.79 2.4977,10.981 2.6218,3.655 2.8449,2.378 2.6938,-15.429 -0.09,-10.678 -0.4994,-20.459 -0.9085,-21.736 -0.8819,-2.753 -28.9326,-3.993 -70.6464,-3.127 -37.0177,0.771 -37.8862,1.735 -33.6348,37.336 2.0294,16.994 2.9144,84.177 1.9117,145.124 -0.3583,21.778 0.212,34.031 1.6313,35.053 2.5875,1.86 15.6416,2.499 30.7715,1.506 z m 18.0045,-104.255 c -1.0509,-1.421 -2.3787,-5.005 -2.9501,-7.968 -0.9932,-5.149 -1.6542,-5.445 -15.0636,-6.738 -10.7476,-1.036 -13.9876,-2.024 -13.8654,-4.229 0.2002,-3.614 14.6369,-7.282 45.4134,-11.539 22.6414,-3.131 23.369,-3.115 27.0722,0.63 8.4802,8.575 1.1516,14.658 -18.3198,15.209 l -14.0967,0.399 0.074,6.197 c 0.1137,9.605 -4.0816,13.686 -8.2638,8.039 z m -35.4112,-61.254 c -2.1769,-3.76 -2.5373,-8.804 -1.458,-20.408 1.4356,-15.433 3.7445,-18.814 7.0671,-10.346 1.268,3.232 2.7923,4.114 5.7303,3.32 2.2016,-0.595 7.235,-1.33 11.1853,-1.631 5.8807,-0.449 7.7147,0.31 10.1185,4.181 1.6146,2.6 2.777,7.595 2.5828,11.1 -0.4085,7.374 -4.7335,10.212 -14.7237,9.658 -4.8927,-0.272 -7.0927,0.722 -8.7265,3.94 -3.057,6.022 -8.3496,6.106 -11.7758,0.186 z m -288.5538,143.059 c 7.1574,-5.791 4.565,-27.525 -3.7268,-31.245 -5.5943,-2.51 -16.4927,0.133 -20.8228,5.053 -5.8626,6.66 -6.02,16.909 -0.3567,23.236 5.5273,6.175 18.9568,7.77 24.9063,2.956 z m 257.9015,0.31 c 0.4743,-8.563 0.3589,-16.131 -0.2566,-16.818 -0.6154,-0.688 -3.2102,-0.585 -5.766,0.228 -5.1257,1.63 -39.2751,-3.16 -46.9873,-6.593 -2.7904,-1.241 -4.6447,-3.676 -4.5197,-5.932 0.3273,-5.908 12.3239,-8.208 36.3642,-6.974 l 21.1319,1.087 0.3239,-5.833 c 0.582,-10.48 0.6255,-80.147 0.071,-111.732 l -0.5431,-30.874 -59.2464,-2.612 c -39.9864,-1.763 -59.2197,-1.932 -59.1648,-0.527 0.044,1.147 0.047,5.124 0,8.839 l -0.078,6.752 10.8345,-0.515 c 7.1425,-0.34 11.7742,0.357 13.5924,2.045 1.5169,1.408 5.0595,2.942 7.8721,3.408 7.9971,1.331 9.4574,4.571 9.8788,21.928 0.2162,8.905 0.5792,23.743 0.8067,32.972 0.2397,9.724 1.9153,21.008 3.9851,26.834 3.5666,10.042 4.3886,23.093 4.5475,72.209 l 0.074,22.676 33.108,2.5 33.1078,2.499 0.8625,-15.567 z m -45.7503,-42.576 c -5.2511,-1.182 -10.7621,-3.506 -12.2465,-5.164 -4.2914,-4.795 3.4149,-10.23 16.2109,-11.435 l 10.62,-0.998 -13.4728,-2.197 c -21.204,-3.454 -25.0388,-12.244 -6.8912,-15.795 5.3002,-1.038 15.9174,-2.019 23.5938,-2.185 17.1392,-0.366 22.4079,2.218 21.9348,10.757 -0.2665,4.811 -1.4818,6.361 -6.1376,7.83 l -5.8054,1.831 6.0068,3.429 c 6.8728,3.926 8.3417,10.414 3.3657,14.866 -3.7196,3.329 -20.0395,2.918 -37.1785,-0.939 z m -11.7434,-67.976 c -9.3497,-3.046 -12.1278,-8.338 -6.6868,-12.739 5.0367,-4.076 34.8536,-4.729 41.141,-0.902 5.0962,3.102 5.0964,11.744 6e-4,15.185 -4.1975,2.835 -23.6892,1.961 -34.4548,-1.544 z m 6.3931,-26.709 c -15.7535,-4.808 -17.638,-6.044 -14.0795,-9.229 3.2743,-2.93 37.3615,-2.403 44.18,0.684 6.2474,2.829 6.7557,9.33 0.9411,12.039 -5.4717,2.55 -14.6102,1.521 -31.0416,-3.494 z m -20.7292,-23.862 c -2.9392,-3.969 -1.0315,-6.305 6.8945,-8.443 9.8756,-2.663 39.5004,-3.568 43.3535,-1.324 5.1015,2.97 3.7485,10.649 -2.2919,13.008 -7.7928,3.041 -45.1743,0.517 -47.9561,-3.241 z m 237.3713,173.761 c 0.9384,-0.776 -1.1307,-2.58 -4.5979,-4.008 -3.4672,-1.429 -9.885,-6.897 -14.2618,-12.153 l -7.9576,-9.553 -0.786,14.186 -0.7861,14.187 c 8.09,-2.157 21.2586,2.163 28.3894,-2.659 z m -83.9567,-8.61 c 0.8024,-1.15 -1.8048,-1.938 -6.6719,-2.016 -4.3939,-0.07 -8.0297,0.609 -8.0798,1.513 -0.1284,2.33 13.1617,2.784 14.7517,0.503 z m 158.4076,5.379 c 1.3889,-1.128 5.9449,-102.788 4.8051,-107.215 -0.7986,-3.102 -1.5031,-3.228 -6.3236,-1.118 -9.0446,3.958 -37.7244,6.029 -63.7053,4.599 -31.4618,-1.731 -34.1727,-3.331 -35.029,-20.66 -0.1343,-2.718 -1.2252,-8.739 -2.4242,-13.379 -1.6832,-6.514 -1.6157,-9.044 0.2964,-11.105 2.6368,-2.842 34.8136,-5.538 48.7557,-4.087 4.3122,0.451 16.8512,0.579 27.8646,0.288 23.1993,-0.612 22.9584,-0.797 24.217,18.442 0.6659,10.179 2.8643,15.47 5.462,13.145 0.9804,-0.877 -2.5908,-70.467 -3.9959,-77.869 -0.7726,-4.069 -1.7063,-4.275 -20.8383,-4.606 -11.0162,-0.19 -35.7579,-0.678 -54.9815,-1.083 -38.6452,-0.815 -36.9566,-1.453 -33.7163,12.719 0.8772,3.837 2.1438,20.314 2.8144,36.616 0.6709,16.301 1.7472,35.877 2.3922,43.503 0.6447,7.625 1.3111,22.569 1.4805,33.205 l 0.3081,19.34 5.2401,-8.191 c 11.9277,-18.639 26.24,-26.327 50.4479,-27.094 13.3159,-0.422 14.1816,-0.18 20.6417,5.775 9.7274,8.966 15.8059,23.875 17.4133,42.712 1.7358,20.338 -1.3899,31.091 -11.8302,40.701 l -7.3598,6.773 c 9.0134,-1.24 19.355,1.289 28.0651,-1.411 z m -93.5672,-161.481 c -5.1871,-5.795 -4.1071,-29.529 1.5522,-34.107 5.2987,-4.288 10.1106,-3.499 12.2608,2.009 1.4977,3.837 3.2851,4.748 9.773,4.978 14.5491,0.517 14.9588,11.728 0.573,15.678 -4.5685,1.257 -7.1611,3.298 -7.7332,6.093 -0.7975,3.897 -7.6617,9.778 -11.1846,9.583 -0.8406,-0.05 -3.199,-1.952 -5.2412,-4.234 z m 40.738,-4.23 c -3.0506,-5.27 -0.9685,-22.775 3.3329,-28.022 2.8882,-3.524 15.8127,-5.621 30.3938,-4.936 12.0199,0.565 14.9585,3.931 16.2706,18.633 1.1756,13.173 -3.051,16.931 -20.7432,18.437 -21.6444,1.84 -26.1779,1.203 -29.2541,-4.112 z m 27.8335,-14.726 c 5.4984,-0.685 7.498,-1.899 7.6499,-4.64 0.1737,-3.136 -1.2945,-3.796 -9.4605,-4.247 -5.3164,-0.296 -11.0355,-1.151 -12.7089,-1.902 -2.3494,-1.054 -3.1157,-0.04 -3.363,4.414 -0.392,7.075 1.131,8.986 6.3955,8.034 2.2236,-0.403 7.3927,-1.15 11.487,-1.659 z m -331.7222,148.971 c 5.7656,-4.665 5.2986,-11.92 -0.946,-14.698 -10.1967,-4.539 -21.1182,4.278 -15.8371,12.783 3.283,5.287 11.461,6.22 16.7831,1.915 z m 321.3098,15.826 c 2.7799,-1.61 5.94,-4.382 7.0231,-6.161 1.6249,-2.669 0.3391,-2.52 -7.3618,0.858 -23.1223,10.14 -45.7825,-1.987 -44.571,-23.853 0.6137,-11.078 4.6112,-18.931 12.4213,-24.403 8.0605,-5.647 29.3189,-4.28 35.8467,2.304 l 4.6523,4.695 -3.5037,-7.095 c -3.0563,-6.187 -4.5996,-7.234 -12.0827,-8.192 -11.6711,-1.496 -24.1886,2.907 -32.9509,11.587 -8.751,8.669 -12.3384,18.152 -10.656,28.164 1.4638,8.711 11.1708,20.568 19.3114,23.587 7.9068,2.932 25.6651,2.1 31.8713,-1.491 z m -122.0879,-7.757 c 4.1164,-1.606 5.2075,-3.4 5.5124,-9.058 0.735,-13.642 -2.1235,-20.954 -9.3991,-24.049 -7.9181,-3.371 -21.5705,-1.363 -23.7482,3.49 -1.8055,4.024 -2.186,16.525 -0.6446,21.187 2.6971,8.157 17.5995,12.599 28.2795,8.43 z m 114.9696,-12.182 c 3.8081,-3.409 4.0556,-5.215 1.9697,-14.372 -1.8888,-8.293 -8.3822,-16.4 -13.3564,-16.676 -2.0227,-0.119 -5.9687,1.846 -8.769,4.353 -6.1755,5.527 -7.7694,18.957 -2.956,24.907 3.8976,4.817 18.467,5.945 23.1117,1.788 z m 100.6673,-17.505 c 6.0384,-1.348 16.1208,-3.19 22.4054,-4.095 l 11.4269,-1.645 0.9723,-17.549 c 0.7045,-12.716 0.2962,-17.593 -1.4832,-17.708 -1.3506,-0.09 -13.4719,0.287 -26.9367,0.831 l -24.481,0.99 0.1062,19.429 c 0.1122,20.327 0.8906,24.121 4.7061,22.921 1.2677,-0.398 7.2454,-1.827 13.2834,-3.174 z m -220.9417,-15.674 c -0.876,-1.61 -4.0126,-2.149 -9.31,-1.6 -12.3606,1.28 -13.4168,3.237 -2.6799,4.966 10.3664,1.67 14.1512,0.607 11.9899,-3.366 z m -361.4037,-23.699 c 32.9809,-5.455 33.8469,-5.725 34.7392,-10.815 0.8213,-4.685 -0.324,-5.892 -11.1757,-11.783 -17.3693,-9.426 -31.3815,-9.204 -46.4481,0.736 -8.3979,5.54 -18.8373,19.264 -18.1036,23.801 0.7445,4.604 1.7131,4.557 40.9882,-1.939 z m 87.3651,-11.233 c 15.2609,-1.465 28.6833,-3.542 29.8273,-4.619 1.4392,-1.356 0.5821,-1.682 -2.782,-1.06 -6.0742,1.122 -15.3701,-3.82 -22.2206,-11.811 -6.5204,-7.607 -13.176,-8.218 -25.9677,-2.381 -14.3213,6.534 -16.6362,8.611 -15.7251,14.11 1.459,8.807 1.8935,9.512 5.52,8.965 1.9805,-0.3 16.087,-1.741 31.3481,-3.204 z m -117.1814,-27.313 c 3.8477,-2.932 8.7355,-6.233 10.8615,-7.337 2.9768,-1.546 1.3595,-1.765 -7.0361,-0.948 -20.5708,2 -19.7975,1.501 -20.4447,13.185 -0.7277,13.131 0.9978,15.173 5.8357,6.904 2.0832,-3.56 6.9358,-8.872 10.7836,-11.804 z m 165.9691,18.505 c 0.1122,-2.03 1.5578,-4.693 3.2119,-5.917 2.445,-1.811 3.8642,-1.193 7.5914,3.304 5.6962,6.872 12.1689,6.081 12.5911,-1.539 0.3022,-5.454 4.3223,-8.897 8.3567,-7.158 1.3639,0.589 3.0557,-0.214 3.7599,-1.783 3.1091,-6.93 13.9229,0.156 11.5413,7.562 -0.6871,2.136 -0.4475,3.928 0.5323,3.983 0.9797,0.06 2.3261,-9.734 2.9919,-21.749 l 1.2104,-21.849 -5.4754,0.975 c -3.0115,0.536 -15.2784,1.993 -27.26,3.238 l -21.7846,2.263 -1.1921,21.036 c -0.8796,15.529 -0.5489,21.074 1.2643,21.18 1.351,0.07 2.5484,-1.517 2.6608,-3.546 z m 7.2354,-14.946 c -3.7042,-1.739 -2.2722,-11.649 2.3957,-16.579 3.8853,-4.104 4.3612,-4.17 6.6134,-0.922 2.2379,3.227 2.6891,3.264 5.7896,0.49 2.6457,-2.368 3.9356,-2.479 6.0502,-0.515 2.1268,1.973 2.9751,1.852 4.0647,-0.576 1.8658,-4.159 9.9916,-2.349 10.6229,2.365 0.7364,5.499 -2.8468,7.807 -7.6176,4.903 -3.6619,-2.23 -4.0474,-1.936 -4.3379,3.308 -0.3424,6.18 -3.6397,8.31 -9.7952,6.332 -2.1131,-0.681 -4.4896,-0.307 -5.281,0.828 -1.5018,2.153 -4.4283,2.28 -8.5048,0.366 z m -82.7137,-13.889 5.4173,-5.382 -8.575,0.606 c -4.7162,0.334 -9.0573,1.038 -9.6466,1.565 -0.5895,0.527 -0.6555,4.661 -0.1462,9.183 0.9223,8.199 0.9353,8.211 4.2293,3.818 1.8175,-2.425 5.7423,-6.83 8.7218,-9.79 z m -23.7087,4.37 c 0.4172,-7.531 -0.3656,-7.885 -14.1008,-6.389 l -7.6006,0.826 9.1977,5.928 c 5.0588,3.261 9.8559,6.06 10.6602,6.221 0.8043,0.161 1.6338,-2.804 1.8435,-6.586 z m 79.0513,-3.506 0.49,-8.845 -7.5341,-0.417 c -4.1438,-0.229 -8.004,0 -8.5786,0.518 -1.1791,1.055 11.3959,17.042 13.666,17.374 0.8066,0.118 1.6871,-3.766 1.9567,-8.63 z m 378.9389,20.711 10.4779,-0.599 -0.028,-10.113 -0.027,-10.113 -16.6706,-1.56 c -20.0984,-1.881 -51.3158,0.508 -52.9051,4.051 -0.6156,1.371 -0.7169,5.57 -0.2251,9.328 0.8644,6.607 1.2332,6.88 11.0968,8.222 10.7563,1.463 30.757,1.788 48.2807,0.784 z m 108.3486,-6.025 c -1.9965,-2.231 -3.2827,0.667 -2.0082,4.525 1.1958,3.62 3.7819,5.016 4.6598,1.633 0.4382,-1.649 -2.2885,-4.792 -2.6516,-6.158 z m -221.8078,-37.64 6.9795,-0.761 -0.4585,-10.191 -0.4583,-10.193 -10.2854,-1.165 c -11.387,-1.291 -11.2251,-1.528 -8.7478,12.775 1.844,10.647 1.9641,10.736 12.9705,9.535 z m -80.2408,-53.731 c 5.7699,-0.281 10.2456,-1.119 9.9463,-1.863 -0.2994,-0.744 -3.1718,-7.162 -6.3831,-14.261 -6.584,-14.555 -10.8582,-37.974 -8.4858,-46.494 1.9178,-6.888 12.1914,-17.709 20.2444,-21.323 3.2503,-1.459 11.3934,-2.702 18.0961,-2.761 22.9422,-0.205 29.4202,-1.366 28.0747,-5.027 -0.6665,-1.813 -0.8862,-16.868 -0.4879,-33.453 l 0.7243,-30.156 -7.1842,0.621 c -3.9511,0.343 -13.4043,0.809 -21.0069,1.037 -7.6026,0.228 -25.835,1.058 -40.5164,1.843 -14.6812,0.787 -45.1236,1.583 -67.6495,1.772 -22.5258,0.188 -41.3561,0.7 -41.8447,1.137 -0.4887,0.437 -1.0795,13.653 -1.3129,29.368 l -0.4246,28.574 17.9151,0.663 c 11.8066,0.435 22.685,-0.504 31.9042,-2.757 10.7175,-2.619 15.1126,-2.884 18.7917,-1.138 3.2467,1.541 7.0619,1.76 11.7781,0.675 9.0982,-2.091 34.7234,-0.639 39.4471,2.236 4.6229,2.814 4.4347,9.288 -0.3345,11.51 -2.0401,0.95 -12.3885,0.705 -23.8574,-0.567 l -20.2542,-2.244 0.4028,16.586 c 0.4299,17.702 3.3142,60.71 4.3067,64.222 0.5951,2.105 16.4702,2.855 38.1106,1.8 z m 41.1486,-6.387 c -0.6083,-1.117 -1.9381,-2.078 -2.9551,-2.134 -1.0174,-0.06 -1.8986,0.782 -1.9585,1.863 -0.061,1.08 1.2701,2.041 2.9553,2.134 1.6852,0.09 2.5665,-0.745 1.9583,-1.863 z m 34.0528,0.623 4.5692,-0.956 -4.0609,-3.194 c -3.4284,-2.695 -4.3523,-2.784 -5.933,-0.569 -3.8339,5.37 -2.6414,6.408 5.4247,4.719 z m 27.4234,-0.729 c 1.7667,-0.991 1.5869,-2.448 -0.6804,-5.511 -3.0691,-4.147 -3.1068,-4.143 -8.6661,1.03 l -5.5835,5.196 6.2639,0.315 c 3.445,0.176 7.3448,-0.289 8.6661,-1.03 z m -72.2633,-15.32 c 1.4867,-4.784 -4.0459,-27.484 -7.7823,-31.931 -2.8763,-3.423 -2.5088,29.342 0.3728,33.233 3.5204,4.754 5.6439,4.382 7.4095,-1.302 z m -124.7567,-30.034 c 0.022,-14.364 -0.2333,-26.462 -0.5688,-26.882 -0.3355,-0.419 -3.8219,-0.342 -7.7477,0.172 -9.3296,1.219 -14.6167,8.9 -17.2608,25.076 -3.4815,21.297 -0.5834,25.924 17.0119,27.157 l 8.5242,0.596 0.041,-26.119 z m 152.3753,22.535 c 0.4362,-12.237 -5.0455,-29.049 -11.7746,-36.111 -7.0712,-7.421 -8.8901,-3.299 -5.6055,12.701 3.3788,16.458 5.4901,23.119 9.5527,30.137 4.5094,7.792 7.3985,5.309 7.8274,-6.727 z m 27.3891,5.821 c 1.6184,-2.321 -6.429,-33.496 -9.1332,-35.381 -3.0164,-2.104 -1.4361,21.967 1.9951,30.389 2.6999,6.629 4.9161,8.178 7.1381,4.992 z m 24.0175,-23.705 c -1.0392,-4.701 -3.4723,-10.145 -5.4068,-12.101 -3.365,-3.403 -3.5303,-3.321 -3.82,1.907 -0.1663,3.004 1.8295,11.015 4.4352,17.801 4.3435,11.31 4.8188,11.862 5.7096,6.638 0.5344,-3.136 0.121,-9.546 -0.918,-14.245 z m -88.543,-16.916 c 2.8317,-3.713 5.1908,-7.511 5.2423,-8.441 0.2085,-3.763 -6.5552,-1.691 -12.231,3.748 -6.309,6.046 -7.0566,9.026 -5.5583,22.155 l 0.9056,7.937 3.2464,-9.325 c 1.7854,-5.127 5.5631,-12.361 8.395,-16.074 z m 44.2691,-4.525 c 2.1581,-4.92 0.062,-7.313 -6.7793,-7.738 -5.5267,-0.344 -5.6401,1.145 -0.5486,7.206 4.9336,5.869 4.9846,5.874 7.3279,0.532 z m 25.1968,-3.522 c -1.9965,-2.232 -3.2828,0.667 -2.0081,4.525 1.1956,3.618 1.3005,3.63 2.1782,0.248 0.5074,-1.955 0.4308,-4.103 -0.1701,-4.773 z m -82.7733,521.219 c -3.1302,-1.464 -4.2339,-3.642 -3.9986,-7.889 0.2643,-4.772 1.6412,-6.406 7.3684,-8.744 10.7082,-4.373 16.6637,0.212 13.4999,10.396 -1.0736,3.454 -9.6094,9.358 -12.1541,8.406 -0.2157,-0.07 -2.3376,-1.057 -4.7156,-2.169 z m 113.1773,6.298 c -14.1645,-3.292 -23.2791,-14.385 -24.7555,-30.13 -1.0758,-11.472 5.9809,-24.594 19.1934,-35.688 9.85,-8.272 10.1263,-8.738 4.7757,-8.068 -6.3797,0.802 -82.2175,5.688 -100.844,6.499 -8.6813,0.378 -12.4665,-0.197 -13.4709,-2.042 -0.8438,-1.552 -0.1063,-3.199 1.8636,-4.163 2.343,-1.146 3.0242,-3.245 2.4208,-7.463 -0.9854,-6.891 8.7964,-34.218 18.0592,-50.451 7.2615,-12.726 15.2731,-19.199 32.2314,-26.045 18.8035,-7.59 36.5011,-7.427 57.7208,0.53 9.0287,3.387 18.1598,6.705 20.2912,7.377 3.5785,1.128 3.6144,1.038 0.4696,-1.181 -4.2992,-3.031 -28.6061,-12.918 -39.2568,-15.965 -22.9239,-6.56 -66.7509,11.185 -76.5592,30.998 -5.3833,10.876 -14.9067,42.922 -15.4316,51.929 -0.28,4.788 -1.736,9.047 -3.5562,10.395 -2.6012,1.925 -3.5152,1.064 -5.8457,-5.505 -4.3086,-12.147 -2.1697,-34.066 5.226,-53.547 5.3903,-14.201 7.6215,-17.546 17.391,-26.082 19.8353,-17.329 56.3493,-28.887 78.9918,-25.004 14.9907,2.57 49.1337,16.474 62.5354,25.466 l 11.2471,7.547 4.3715,-4.791 c 3.203,-3.509 5.1199,-4.25 7.1698,-2.772 2.3867,1.72 2.0913,2.87 -2.009,7.817 l -4.8071,5.802 3.7355,5.912 c 5.8274,9.224 15.8984,35.105 16.7354,43.006 1.5247,14.396 -4.9665,21.912 -14.1141,16.344 -3.0294,-1.843 -7.4814,-2.035 -17.8634,-0.767 -15.2099,1.857 -18.3772,3.624 -10.7456,5.995 8.3504,2.595 25.6675,14.577 28.7414,19.889 1.7709,3.059 2.907,10.885 2.9301,20.181 0.035,14.186 -0.3275,15.572 -5.5111,21.083 -7.3154,7.776 -17.1471,10.265 -31.457,7.963 -9.0192,-1.451 -11.4641,-1.264 -11.5833,0.887 -0.2139,3.861 -9.8809,5.999 -18.2902,4.044 z m 5.8394,-23.585 c -1.5937,-5.01 -2.0807,-16.545 -1.087,-25.746 0.3112,-2.88 3.1256,-7.96 6.2543,-11.285 4.3935,-4.671 4.783,-5.623 1.7102,-4.18 -10.2565,4.812 -17.5584,15.687 -18.1903,27.091 -0.3574,6.453 0.7218,9.453 5.2018,14.458 6.3147,7.056 8.4257,6.94 6.111,-0.338 z m 41.2095,-1.375 c 5.1919,-4.646 6.3444,-18.491 2.1074,-25.314 -2.6486,-4.265 -4.043,-4.721 -12.7917,-4.172 -12.8649,0.805 -15.4474,2.988 -16.0328,13.551 -0.3661,6.609 0.6109,9.913 4.0752,13.784 5.7734,6.452 16.68,7.487 22.6419,2.151 z m -139.7849,-53.06 c 1.4079,0.06 2.0335,-3.274 1.7816,-9.498 -0.5467,-13.507 5.6688,-29.922 14.7282,-38.898 16.0898,-15.939 49.4359,-19.227 81.7346,-8.059 3.6863,1.276 4.4539,0.898 4.0535,-1.996 -0.3388,-2.448 -5.3346,-5.595 -15.9079,-10.021 -17.6677,-7.395 -30.8485,-7.928 -49.893,-2.017 -16.9553,5.263 -24.4508,13.477 -36.6108,40.122 -12.0796,26.468 -13.3742,32.644 -6.5436,31.213 2.4682,-0.516 5.4641,-0.897 6.6574,-0.846 z m 29.9133,-4.629 c 11.5668,-1.475 12.5545,-1.974 11.4246,-5.774 -2.448,-8.232 -0.4378,-16.997 5.0176,-21.879 7.0192,-6.283 20.4423,-7.2 29.2631,-2.002 6.2415,3.679 6.4225,3.667 10.1785,-0.694 5.4337,-6.309 5.1017,-6.928 -4.825,-8.983 -20.4911,-4.244 -48.6586,1.674 -56.866,11.946 -3.3522,4.196 -13.0616,24.703 -13.2426,27.97 -0.069,1.24 6.2743,1.045 19.0498,-0.584 z m 40.4228,-5.371 c 2.6095,-1.547 2.4092,-2.42 -1.3668,-5.96 -5.5853,-5.236 -9.1324,-5.452 -12.0062,-0.731 -1.7752,2.917 -1.5434,4.184 1.0816,5.914 4.2613,2.81 8.4189,3.071 12.2914,0.777 z m 35.4134,-3.143 c 8.4072,-1.202 8.2541,-5.656 -0.5768,-16.781 l -7.1667,-9.029 -5.0237,9.023 c -4.889,8.781 -4.9327,9.135 -1.631,13.216 3.6904,4.561 5.0737,4.904 14.3982,3.571 z m 28.0824,-4.261 c 0.034,-0.621 -3.0651,-7.225 -6.888,-14.674 -8.5037,-16.57 -15.6225,-24.625 -19.0505,-21.557 -1.7948,1.607 -0.5166,4.398 5.1774,11.305 4.1581,5.045 8.4453,12.857 9.5268,17.36 1.5747,6.555 2.8843,8.238 6.5692,8.442 2.5314,0.147 4.6305,-0.254 4.6651,-0.876 z m 7.4416,-25.866 c -3.5275,-8.07 -8.0928,-14.533 -13.1904,-18.674 -11.0728,-8.995 -13.2027,-8.043 -3.4831,1.558 4.5138,4.458 11.0217,13.182 14.4621,19.385 3.4402,6.203 6.5591,11.007 6.9305,10.675 0.3715,-0.332 -1.7522,-6.158 -4.7191,-12.944 z m 235.0831,131.896 c -13.8323,-4.549 -28.8246,-12.499 -38.9521,-20.658 l -8.0898,-6.517 -13.0949,5.266 c -8.3457,3.356 -20.2437,5.979 -32.8054,7.233 -10.8408,1.082 -22.6318,2.298 -26.2026,2.704 -13.5226,1.536 -25.5613,-9.312 -24.8373,-22.38 0.4664,-8.418 7.4849,-18.798 15.3038,-22.634 4.8467,-2.378 5.8987,-2.106 14.2915,3.699 4.9827,3.445 11.0894,8.373 13.5703,10.949 2.5401,2.64 7.0175,4.825 10.2488,5.005 4.9548,0.275 23.4472,-3.765 25.663,-5.604 0.4212,-0.35 -1.7389,-4.185 -4.8003,-8.524 -3.0613,-4.338 -8.608,-14.233 -12.3264,-21.988 l -6.7606,-14.1 -7.6282,1.463 c -10.0163,1.92 -14.0853,-0.96 -13.6047,-9.633 -1.6254,-10.274 14.5794,-10.331 14.3396,-18.47 -3.5607,-38.798 -1.3886,-67.993 6.4371,-86.521 2.5019,-5.922 5.0859,-12.124 5.7427,-13.782 0.9633,-2.432 -1.5579,-3.597 -13.0552,-6.034 -16.4123,-3.48 -20.9083,-7.703 -20.2797,-19.049 0.3465,-6.253 2.1673,-8.652 14.8387,-19.549 25.8303,-28.565 68.4677,-29.005 92.1386,-34.858 -4.1107,-11.341 -8.755,-25.269 -0.7198,-34.031 4.6988,-4.888 6.0725,-5.195 19.8152,-4.433 18.6909,1.035 23.208,4.469 31.5165,23.958 l 6.1064,14.323 c 33.8439,1.423 63.892,23.21 81.4684,42.47 10.6585,11.908 14.1395,18.993 20.299,41.314 6.4502,23.375 8.5154,43.919 7.8717,78.308 -0.9717,51.915 -9.9389,78.712 -34.4556,102.96 -14.3948,14.238 -37.5032,27.8 -54.6459,32.071 -15.9259,3.97 -51.005,2.429 -67.3928,-2.958 z m 56.0474,-19.487 c 20.8841,-3.284 51.662,-25.136 62.248,-44.198 3.0748,-5.536 6.8142,-14.615 8.3098,-20.174 3.8886,-14.451 7.6792,-51.061 6.2145,-60.017 -1.1177,-6.834 -2.2161,-8.014 -10.8604,-11.666 -17.6102,-7.438 -40.2524,-18.821 -47.4556,-23.857 -3.9144,-2.736 -7.162,-4.166 -7.2168,-3.179 -0.055,0.99 2.4471,3.616 5.5598,5.836 6.5924,4.705 21.1003,23.206 25.354,32.333 1.8438,3.956 2.6728,10.744 2.2211,18.189 -0.9354,15.414 -9.1602,30.189 -25.6581,46.092 -20.6854,19.939 -42.3493,26.259 -63.6501,18.569 -7.3838,-2.665 -7.4074,-2.656 -20.3915,8.094 -7.1494,5.919 -13.0509,11.699 -13.1144,12.844 -0.1912,3.45 23.9756,16.181 35.4372,18.665 15.3665,3.334 31.5812,4.264 43.0025,2.469 z m -82.4256,-43.655 c 17.9272,-10.775 18.2073,-11.293 12.7779,-23.709 -7.0041,-16.015 -8.5093,-30.729 -4.8333,-47.245 5.0051,-22.485 17.3904,-39.048 36.2713,-48.505 5.112,-2.56 9.6518,-4.896 10.0887,-5.189 1.002,-0.675 -2.8988,-18.596 -4.0617,-18.659 -0.4721,-0.03 -3.8424,1.976 -7.4894,4.452 -10.4165,7.069 -20.3801,9.775 -33.3516,9.056 -17.8513,-0.989 -28.2163,-8.606 -29.576,-21.731 -0.4302,-4.153 -1.4068,-7.586 -2.1703,-7.628 -0.7636,-0.04 -5.7471,7.887 -11.0745,17.622 -13.0003,19.479 -19.9685,73.821 -10.6009,86.209 13.7113,0.49 17.7739,13.662 9.8968,18.448 -1.9626,1.193 -3.179,4.006 -3.2617,5.498 -0.3641,6.571 19.3453,38.062 23.9827,38.318 0.938,0.05 6.9689,-3.069 13.402,-6.937 z m -38.1841,-85.766 c -2.0792,-6.535 0.091,-12.731 4.8941,-13.968 6.0243,-1.55 9.6543,3.233 8.5334,11.245 -0.8425,6.023 -1.75,7.059 -6.4195,7.337 -4.2574,0.252 -5.7791,-0.75 -7.008,-4.614 z m 108.0698,62.001 c 15.8747,-8.513 31.9168,-29.048 32.6209,-41.756 0.3988,-7.198 -12.2575,-23.689 -20.0286,-26.095 -2.7793,-0.861 -22.241,17.735 -23.6271,3.082 l -1.4025,-14.826 -6.4455,4.841 c -12.2854,9.227 -17.3379,18.693 -19.2351,36.041 -1.4554,13.309 -1.1247,17.184 2.1612,25.315 2.1337,5.28 5.6631,11.003 7.8432,12.717 5.6205,4.42 20.4711,4.779 28.1135,0.681 z m -414.1206,64.73 c -1.5859,-4.933 0.5334,-9.36 6.2894,-13.182 4.5873,-3.041 6.0294,-3.21 8.4326,-0.979 6.4608,5.995 -0.015,17.818 -9.4626,17.295 -2.3812,-0.133 -4.7478,-1.543 -5.2594,-3.134 z m 30.2052,-7.312 c -1.652,-3.037 1.0368,-5.858 5.356,-5.619 2.5046,0.133 3.7401,1.562 3.597,4.142 -0.2308,4.169 -6.8907,5.266 -8.953,1.477 z m -57.7363,-19.936 c -3.186,-3.56 -5.3095,-14.087 -3.3952,-16.832 0.7138,-1.024 4.5436,-1.498 8.5106,-1.055 5.5223,0.617 7.8257,2.058 9.8292,6.146 2.3463,4.787 2.2394,5.85 -1.0362,10.292 -4.0768,5.529 -9.7297,6.117 -13.9084,1.449 z m 27.6904,-4.541 c -3.5059,-3.919 -3.487,-9.687 0.04,-12.153 4.2491,-2.972 14.7206,-3.616 17.0205,-1.047 2.7875,3.115 2.2313,11.998 -0.9279,14.825 -3.5242,3.155 -12.6795,2.232 -16.132,-1.625 z m 31.5464,1.854 c -4.4472,-4.969 -3.3778,-9.959 3.6,-16.798 5.4799,-5.369 6.835,-5.827 11.5157,-3.884 3.0964,1.286 5.9677,4.484 6.897,7.681 3.3307,11.461 -14.1503,21.785 -22.0127,13.001 z m -273.6352,-43.376 c -1.4948,-2.748 4.242,-6.466 8.3767,-5.429 5.4484,1.365 3.8778,6.675 -2.0802,7.033 -2.8891,0.172 -5.7225,-0.549 -6.2965,-1.604 z m 446.8482,-11.732 c 1.8569,-4.173 3.3252,-4.691 12.0937,-4.274 8.3022,0.396 10.4378,1.266 12.701,5.176 4.9634,8.575 -3.4977,18.687 -15.0986,18.045 -9.8691,-4.321 -12.8499,-11.772 -9.6961,-18.947 z m 13.4509,1.77 c -1.8872,-2.109 -6.0843,0.852 -4.5922,3.595 1.1272,2.073 5.064,2.725 5.8404,0.765 0.4682,-1.358 -0.9114,-3.313 -1.2482,-4.36 z m -457.9685,-16.773 c -2.5143,-3.396 -0.7852,-7.031 3.2381,-6.808 3.6049,0.201 8.8713,6.261 7.3438,8.452 -1.8651,2.675 -8.1014,1.705 -10.5819,-1.644 z m 14.9433,-21.929 c -4.68,-5.229 -4.5221,-10.109 0.3186,-9.84 4.123,0.227 10.3905,9.465 8.3795,12.348 -1.9651,2.818 -4.6144,2.053 -8.6981,-2.508 z m 95.6718,3.614 c -5.0707,-6.269 1.1945,-14.019 10.8966,-13.482 5.9731,0.331 10.6279,7.346 7.875,11.87 -4.1716,6.853 -13.8577,7.685 -18.7716,1.612 z m -75.3943,-18.326 c -1.5267,-6.355 -1.3932,-8.533 0.6321,-10.315 2.0242,-1.782 3.3152,-1.232 6.1016,2.591 4.8124,6.604 4.2395,16.281 -0.9466,15.993 -2.7963,-0.155 -4.3824,-2.421 -5.7873,-8.269 z m 32.7079,1.931 c -1.7993,-3.308 1.7608,-14.076 4.3188,-13.064 2.9112,1.153 2.2118,13.797 -0.8089,14.62 -1.2754,0.349 -2.8549,-0.351 -3.5099,-1.556 z m 378.7189,20.711 c -4.0958,-1.798 -4.3226,-2.909 -3.1004,-15.204 1.2162,-12.236 1.6799,-13.296 5.9767,-13.662 9.3952,-0.803 13.27,2.08 18.7947,13.99 6.8543,14.776 5.3378,18.112 -7.8882,17.354 -5.1501,-0.296 -11.3523,-1.41 -13.7828,-2.478 z m -343.2878,-31.027 c -3.3291,-3.719 -2.4865,-7.047 2.5806,-10.194 10.3031,-6.397 21.9745,-0.419 17.1496,8.783 -2.0085,3.832 -3.9118,4.653 -9.9918,4.316 -4.1308,-0.229 -8.5131,-1.535 -9.7384,-2.905 z m 95.5705,-15.227 c -3.8682,-1.987 -2.4843,-6.258 2.3781,-7.338 4.1754,-0.929 4.2497,-1.159 1.0586,-3.288 -4.9559,-3.306 -0.6845,-7.103 9.2458,-8.22 10.5692,-1.189 14.376,2.504 7.4084,7.186 l -4.8867,3.285 5.4123,1.682 c 4.8929,1.52 5.1031,1.959 2.1908,4.564 -3.2852,2.941 -18.4697,4.359 -22.8073,2.129 z m -93.4195,-11.754 c -1.6533,-3.04 0.8292,-5.911 6.7331,-7.789 7.2408,-2.303 12.7179,0.239 11.6839,5.424 -0.6853,3.435 -2.3656,4.246 -9.0472,4.362 -4.5129,0.07 -8.7294,-0.82 -9.3698,-1.997 z m 254.7182,9.32 c 0.3254,-5.873 5.7304,-10.34 8.6136,-7.119 3.1702,3.542 -0.4443,12.259 -4.9791,12.008 -2.7892,-0.155 -3.8199,-1.541 -3.6345,-4.889 z m 82.2202,1.568 c -2.3199,-2.63 -3.0709,-6.846 -2.6314,-14.777 0.5746,-10.372 0.9612,-11.166 5.9051,-12.12 7.2532,-1.398 10.6573,1.442 15.4248,12.872 3.2785,7.86 3.6134,10.642 1.7165,14.261 -1.8863,3.599 -3.8363,4.392 -9.7631,3.97 -4.3623,-0.312 -8.7398,-2.041 -10.6519,-4.206 z m -106.5569,-10.879 c -1.436,-4.466 0.986,-8.981 4.7079,-8.775 2.2486,0.118 2.881,1.656 2.2273,5.393 -1.0455,5.977 -5.4158,8.107 -6.9352,3.382 z m 101.0541,-32.132 c -3.0958,-3.587 -0.4301,-4.457 17.5013,-5.712 20.0307,-1.401 27.7636,0.365 21.5941,4.934 -3.6079,2.671 -36.8891,3.334 -39.0954,0.778 z m 106.4521,-81.892 c -2.0242,-3.722 2.6967,-6.104 12.9093,-6.518 10.9656,-0.444 15.1945,3.031 8.769,7.203 -4.5113,2.931 -19.9773,2.442 -21.6783,-0.685 z m -0.1858,-12.52 c 0.1804,-3.256 4.1676,-4.522 14.4777,-4.598 8.9685,-0.06 11.5708,2.333 6.27,5.776 -4.6024,1.593 -20.309,3.299 -20.7477,-1.178 z m 9.4208,-27.708 c -5.8638,-3.346 -6.706,-4.848 -6.8303,-12.181 -0.1736,-10.25 5.7997,-16.548 18.1646,-19.153 9.8754,-2.08 17.7872,1.65 21.0116,9.91 2.6627,6.822 2.5254,8.148 -1.6364,15.794 -5.5196,10.142 -18.6028,12.541 -30.7095,5.63 z m 18.4713,-13.149 c 0.2835,-5.117 -2.4821,-6.72 -9.5968,-5.566 -4.0603,0.659 -5.9851,2.145 -6.1286,4.735 -0.1714,3.093 1.2097,3.853 7.6526,4.21 6.4716,0.359 7.8988,-0.239 8.0728,-3.379 z m -107.084,6.271 c -0.1078,-0.818 -0.015,-6.605 0.2195,-12.857 l 0.4166,-11.367 7.9376,-1.675 c 10.6386,-2.244 13.2375,0 15.9753,13.754 1.9928,10.015 1.9057,11.587 -0.7233,13.052 -3.5654,1.988 -23.5432,1.228 -23.8257,-0.907 z m 12.9151,-14.562 c 0.1693,-3.057 -0.8415,-4.975 -2.6759,-5.077 -3.172,-0.176 -3.742,1.599 -2.1274,6.621 1.5711,4.887 4.4992,3.945 4.8033,-1.544 z" fill="#000000" transform="translate(30.017288,-106.77887) matrix(0.26458333,0,0,0.26458333,627.22691,-4507.9683)"/>
</svg>