<?xml version="1.0" ?><svg xmlns="http://www.w3.org/2000/svg" width="407.69604mm" height="293.4007mm" viewBox="0 0 407.69604 293.4007">
    <path d="m 19752.473,3460.9316 c -0.973,0 -1.966,0.011 -2.981,0.037 -260.922,6.8533 -493.904,-3.3554 -582.631,11.7519 -17.513,2.9819 -34.007,7.7457 -32.795,16.3359 1.212,8.5902 -4.8,38.2403 -4.8,38.2403 0,0 10,300.1515 9.242,315.832 -0.757,15.6804 64.543,7.4981 64.543,7.4981 l 0.167,67.5162 84.395,6.3457 4.409,106.6565 137.212,8.7383 c 7.804,78.6348 -9.366,234.8475 23.411,235.9042 l 171.571,-3.2003 10.569,190.6028 168.5,-1.4209 c 81.094,6.7706 -14.223,-418.8488 -10.613,-963.4414 0.157,-23.6551 -10.05,-37.3394 -40.199,-37.3965 z m -796.098,13.1817 c -0.262,-0.01 -0.525,0.01 -0.793,0.039 -429.046,7.4727 -511.272,6.8541 -611.236,2.795 -10.303,0.1214 -43.104,3.0401 -42.459,17.3281 -16.732,247.8516 3.344,138.2368 1.267,971.3494 2.154,40.609 150.583,-10.2902 225.875,-15.4353 l 5.901,-146.5 135.039,-31.5333 -9.211,-140.9355 c 0,0 102.48,-0.6217 119.521,-1.8652 17.042,-1.2435 23.95,-18.8592 22.338,-35.2325 -1.612,-16.3732 3.082,-114.3632 3.082,-114.3632 l 104.463,-5.459 c -1.675,10.3882 -2.85,21.8069 -3.484,34.4043 -3.893,77.3441 31.449,114.4754 100.576,120.6406 69.127,6.1651 93.57,-77.3444 80.803,-147.9629 -11.95,-66.1049 -56.78,-93.0409 -105.116,-98.2832 -5.832,-155.1436 4.095,-408.3678 -26.566,-408.9863 z m 50.232,724.9629 c -3.483,0 -6.909,0.2002 -10.252,0.6074 -35.654,4.3437 -56.048,22.5586 -56.048,22.5586 -13.078,13.8715 -28.708,76.784 -26.528,151.7461 2.179,74.9622 -7.652,157.649 -5.275,177.8867 2.377,20.2377 184.38,12.39 206.799,9.0273 22.42,-3.3628 36.431,-28.7223 35.808,-43.1543 -0.623,-14.432 -28.802,-265.1014 -51.377,-283.8769 -20.458,-17.0154 -59.458,-34.836 -93.127,-34.7949 z" transform="translate(232.57422,58.253915) matrix(0.26458333,0,0,0.26458333,-4196.4678,-327.73418) translate(-3313.5291,-2437.8203)" fill="#FFFFFF"/>
    <path d="m 15594.965,2114.053 c -7.014,-15.3917 -10.568,-50.317 -12.374,-121.5919 l -1.849,-72.9691 -10.488,21.2827 c -24.15,49.0164 -39.621,65.3681 -61.847,65.3681 -16.546,0 -28.119,-11.5927 -35.889,-35.9507 -5.164,-16.1991 -7.093,-33.4914 -9.549,-85.6643 -1.695,-35.9525 -3.327,-65.6723 -3.63,-66.0443 -0.303,-0.3716 -8.793,2.1382 -18.867,5.5776 -25.268,8.6279 -39.704,4.7615 -59.839,-16.0276 l -14.646,-15.1202 2.099,21.3123 c 2.092,21.2333 2.064,21.3455 -7.755,30.3138 -6.605,6.0335 -14.5,9.6675 -23.941,11.0213 -7.743,1.111 -20.239,5.0045 -27.764,8.6525 -11.584,5.6167 -18.395,6.5579 -44.454,6.1443 l -30.772,-0.4887 -1.883,15.6904 c -1.038,8.63 -1.958,36.8972 -2.046,62.8165 -0.246,73.2817 -3.898,83.5087 -28.6,80.123 -8.548,-1.1719 -22.869,0.8398 -44.111,6.1967 -48.603,12.2558 -63.999,10.449 -63.999,-7.5093 0,-6.1268 2.071,-8.8905 8.36,-11.1581 13.414,-4.8353 67.681,-16.6234 85.89,-18.6582 l 16.722,-1.8684 1.966,-63.8479 c 3.356,-109.1281 3.176,-395.424 -0.334,-525.9848 -4.779,-177.8356 -6.678,-328.1127 -4.23,-334.4978 3.658,-9.5282 7.079,5.3908 9.205,40.13 1.88,30.7403 5.346,37.8425 7.893,16.1734 0.74,-6.2931 1.448,-2.5042 1.735,9.273 0.277,11.2402 -0.987,21.389 -2.898,23.2997 -2.485,2.4866 -2.479,12.9375 0.02,39.3729 1.877,19.7933 4.152,44.8808 5.063,55.7501 l 1.651,19.7624 45.902,-0.9172 c 28.28,-0.565 47.085,0.2686 48.987,2.1711 1.699,1.6986 4.769,11.6885 6.823,22.1996 3.37,17.2517 3.756,11.5547 3.953,-58.5332 0.183,-66.726 6.812,-174.4952 10.98,-178.6623 0.666,-0.6675 2.771,-0.2507 4.675,0.9258 2.478,1.5316 3.183,22.9932 2.483,75.5537 -0.919,68.8568 4.866,267.831 8.444,290.3786 l 1.619,10.2184 47.685,-1.9914 c 49.925,-2.0851 58.086,-0.662 53.73,9.3712 -1.343,3.0952 -2.274,6.9957 -2.064,8.6679 0.206,1.6722 3.07,20.7969 6.358,42.4992 4.239,27.9902 5.044,40.5828 2.766,43.3253 -3.822,4.6055 -11.584,5.1448 -11.584,0.805 0,-1.9517 -7.707,-2.3453 -21.259,-1.0858 -22.052,2.0496 -66.913,-3.6114 -66.913,-8.4442 0,-1.4357 13.34,-2.618 29.644,-2.6274 16.305,0 34.973,-1.4965 41.487,-3.305 l 11.842,-3.2883 -1.767,-33.4911 c -0.971,-18.4201 -2.196,-33.8457 -2.72,-34.2789 -0.527,-0.4331 -20.452,-1.6807 -44.281,-2.772 l -43.325,-1.9843 v 55.0556 55.0556 l 14.525,-1.9977 c 21.931,-3.0165 71.603,-6.3578 77.534,-5.2153 5.714,1.1 7.343,9.6825 1.838,9.6825 -2.123,0 -2.705,3.1331 -1.555,8.3611 1.012,4.5987 3.356,19.8782 5.208,33.9545 2.577,19.5805 4.848,26.7909 9.664,30.6904 7.16,5.7981 5.463,15.1651 -2.748,15.1651 -2.846,0 -7.801,2.3762 -11.009,5.2801 -5.338,4.8299 -6.141,4.863 -9.414,0.387 -1.967,-2.6915 -9.711,-5.8222 -17.209,-6.9575 -21.753,-3.2947 -57.707,-12.2139 -57.711,-14.3171 0,-3.8067 14.212,-5.5928 44.843,-5.6336 l 31.164,-0.041 v -31.9239 -31.9239 h -42.98 -42.981 l 1.888,87.4106 c 2.212,102.5516 3.717,119.3126 10.731,119.3874 2.714,0.028 8.303,3.6024 12.422,7.9413 8.11,8.5447 13.097,4.4679 5.344,-4.3692 -11.568,-13.1873 -7.488,-28.6986 4.239,-16.1121 6.65,7.138 27.674,18.6344 33.735,18.4463 2.155,-0.067 0.282,-2.0972 -4.162,-4.512 -15.866,-8.6167 -26.084,-34.4737 -17.152,-43.404 6.226,-6.2254 11.297,-4.0671 15.807,6.7264 6.836,16.3635 15.321,23.0692 29.189,23.0692 6.689,0 12.161,-0.6059 12.161,-1.3463 0,-0.7406 -2.839,-6.1579 -6.307,-12.0383 -6.961,-11.7972 -6.849,-24.1126 0.228,-25.3649 4.832,-0.8552 28.703,19.944 37.395,32.5852 6.494,9.4421 6.665,27.0002 0.351,36.0137 -4.294,6.1332 -4.461,14.3025 -1.514,75.3245 3.374,69.8696 9.24,106.6248 17.523,109.804 2.331,0.8944 7.079,-0.934 10.552,-4.0632 7.782,-7.0144 40.326,-71.5777 55.741,-110.5823 6.278,-15.886 13.121,-30.936 15.204,-33.4443 2.085,-2.5083 4.636,-8.1378 5.672,-12.51 3.305,-13.9467 21.26,-37.3375 36.459,-47.496 19.916,-13.3091 34.991,-17.163 67.367,-17.2214 24.237,-0.044 30.056,1.0978 50.928,9.9899 40.078,17.0743 53.59,29.2827 72.092,65.1322 48.379,93.7378 56.843,107.718 74.728,123.4209 15.81,13.8799 22.203,11.8953 33.322,-10.3417 8.556,-17.112 9.118,-20.4088 9.092,-53.2066 -0.03,-28.3655 -1.608,-40.9565 -8.397,-66.7143 -4.601,-17.4627 -10.402,-34.8585 -12.892,-38.6579 -6.713,-10.2467 -5.667,-18.6922 6.528,-52.6428 8.378,-23.3254 12.241,-30.5496 15.962,-29.8432 6.013,1.1419 8.282,27.1203 3.79,43.3889 -1.899,6.8769 -1.904,10.6927 0,10.6927 6.756,0 32.537,-30.4178 42.515,-50.1661 8.866,-17.5434 12.052,-21.2826 18.129,-21.2826 6.063,0 7.541,1.7196 8.311,9.6632 0.516,5.3146 -1.756,15.2339 -5.046,22.0425 -7.933,16.4205 -3.879,15.7151 8.467,-1.4726 7.318,-10.191 11.672,-13.6064 16.477,-12.9217 8.355,1.1912 10.399,15.1356 3.711,25.3433 -6.084,9.2824 -6.014,11.0309 0.391,9.925 3.323,-0.5733 6.248,2.0843 8.173,7.4202 2.572,7.138 1.691,9.9322 -6.225,19.7623 -5.071,6.297 -15.02,15.5536 -22.107,20.5702 -11.427,8.0881 -15.354,9.1208 -34.674,9.1187 -11.985,0 -24.422,-1.265 -27.637,-2.8082 -4.978,-2.3877 -5.512,-1.9344 -3.585,3.0428 11.498,29.7118 17.924,60.5643 19.261,92.4991 1.67,39.7961 -2.442,59.4859 -17.318,82.9446 -12.549,19.7857 -20.949,24.5107 -40.671,22.8753 -26.808,-2.223 -46.192,-21.6187 -72.653,-72.6911 -6.844,-13.2111 -12.812,-23.652 -13.262,-23.2018 -0.451,0.4501 3.857,33.631 9.571,73.7354 10.879,76.3331 13.105,116.211 6.84,122.4751 -4.763,4.7653 -16.036,4.6739 -20.052,-0.1619 -4.179,-5.0371 -16.899,-84.0425 -24.84,-154.2884 -12.34,-109.1797 -17.054,-124.3112 -43.308,-139.0448 -27.008,-15.1565 -45.802,-19.968 -71.946,-18.4169 -30.978,1.8379 -40.445,7.1633 -50.492,28.4016 -16.578,35.0407 -18.254,52.1697 -18.279,186.8272 -0.02,67.7243 -1.129,124.8454 -2.481,126.9357 -4.093,6.323 -13.071,4.2749 -16.759,-3.8236 z m -336.316,-259.8678 c 13.793,-1.7932 29.53,-6.6526 44.001,-13.588 12.39,-5.9377 26.498,-10.7962 31.354,-10.7962 8.006,0 8.673,-0.7784 7.167,-8.3611 -0.915,-4.5986 -3.336,-30.4136 -5.382,-57.3671 -3.362,-44.2675 -4.237,-48.871 -9.066,-47.6086 -3.439,0.8996 -9.156,-2.7612 -16.038,-10.2708 -5.881,-6.4176 -11.363,-10.9889 -12.181,-10.1587 -0.821,0.8305 1.072,22.0325 4.203,47.1156 3.132,25.0832 4.917,48.1542 3.974,51.269 -1.507,4.9567 -3.865,5.4319 -18.89,3.8085 -40.89,-4.4176 -43.013,-5.0403 -43.013,-12.6265 0,-9.9211 9.331,-11.9565 27.356,-5.969 8.291,2.7535 16.222,4.297 17.625,3.4301 2.955,-1.8275 -3.201,-69.7686 -9.775,-107.8676 -3.198,-18.5232 -3.562,-27.1669 -1.264,-29.9362 4.698,-5.66 7.014,-3.1377 17.3,18.8451 5.086,10.8676 10.521,19.7593 12.08,19.7593 1.557,0 -0.5,-11.2874 -4.571,-25.0831 -14.456,-49.0012 -16.358,-57.0975 -18.538,-78.9693 l -2.207,-22.1233 -19.002,-0.905 c -28.817,-1.3728 -23.961,-6.6592 12.98,-14.1346 15.37,-3.1101 19.436,2.6774 24.211,34.4532 2.351,15.645 8.394,42.304 13.427,59.2426 5.035,16.9386 10.927,36.9543 13.09,44.4792 3.676,12.7694 3.996,10.3368 4.784,-36.4847 0.464,-27.5914 0.464,-105.5771 0,-173.3014 -0.728,-106.2461 -1.454,-123.0011 -5.297,-122.1577 -2.448,0.5375 -20.918,1.7415 -41.044,2.6753 -29.279,1.3583 -38.859,0.744 -47.927,-3.075 -6.235,-2.6248 -11.76,-3.8286 -12.278,-2.6753 -0.517,1.1536 0.05,32.1971 1.233,68.9858 1.194,36.7885 3.163,151.3727 4.377,254.6314 1.213,103.2589 3.024,187.701 4.023,187.6494 1,-0.052 11.479,-1.3499 23.288,-2.8853 z m -13.871,-335.6483 c 0,-8.6822 54.179,-25.3638 58.688,-18.0696 3.582,5.7957 -3.256,9.7853 -27.293,15.9221 -29.309,7.4833 -31.395,7.6262 -31.395,2.1475 z m -0.62,-37.619 c -6.504,-7.5178 -8.734,-18.9673 -5.037,-25.8716 3.044,-5.6884 3.319,-5.6462 8.204,1.2516 l 5.056,7.1378 1.518,-13.6817 c 1.241,-11.1481 2.647,-13.6816 7.602,-13.6816 4.833,0 6.273,2.3413 7.024,11.4014 l 0.944,11.4013 15.779,-0.046 c 23.471,-0.068 24.922,-1.8251 24.759,-29.9588 -0.182,-33.2521 -0.886,-33.8426 -39.756,-33.8426 -24.2,0 -31.552,-0.9406 -31.552,-4.0368 0,-2.9044 8.652,-4.8306 30.841,-6.866 45.826,-4.2036 54.22,1.7662 56.697,40.3237 2.581,40.1514 -3.955,49.6289 -34.225,49.6289 -16.543,0 -20.171,0.9625 -22.91,6.0806 -4.1,7.6602 -18.591,8.1016 -24.944,0.7603 z m 173.922,318.3216 c -8.739,-5.9496 -21.282,-12.1483 -21.282,-10.5171 0,2.2772 19.071,13.7004 22.803,13.6574 1.671,-0.023 0.987,-1.4326 -1.521,-3.1403 z m -123.262,-465.5161 17.611,-3.5366 -1.881,-18.0047 c -1.036,-9.9024 -2.554,-19.0928 -3.377,-20.4228 -0.821,-1.3301 -13.485,-3.3439 -28.143,-4.475 -14.655,-1.1309 -31.094,-2.8147 -36.531,-3.7418 l -9.879,-1.6859 v 24.7593 c 0,22.8348 0.531,24.9732 6.84,27.5092 9.732,3.9113 34.791,3.7296 55.36,-0.4017 z m 1024.438,693.6465 -9.415,-6.0339 -1.991,-35.7201 c -1.095,-19.6459 -3.327,-39.5016 -4.964,-93.012 -2.954,-96.5633 -11.523,-260.7094 -14.027,-268.6555 -1.018,-3.2357 -2.254,-3.3534 -5.647,-0.5372 -3.173,2.6326 -15.675,3.0304 -46.332,1.4743 -23.092,-1.1723 -43.334,-2.2987 -44.987,-2.5032 -1.651,-0.2053 -3.887,5.8225 -4.97,13.3935 -1.084,7.571 -6.234,28.631 -11.441,46.7999 -5.208,18.1694 -9.47,34.8919 -9.47,37.1612 0,3.1483 6.075,4.1261 25.633,4.1261 24.267,0 25.682,-0.3644 26.604,-6.8408 0.604,-4.2534 3.413,-7.1893 7.426,-7.762 8.218,-1.1726 8.855,2.2286 9.894,52.9272 0.682,33.243 0,40.6521 -4.054,44.7164 -12.142,12.1434 -17.016,-2.209 -14.509,-42.7557 l 1.551,-25.0831 -27.033,-0.041 c -36.092,-0.055 -40.713,-1.4815 -40.713,-12.5657 0,-4.8715 6.157,-28.688 13.682,-52.9256 7.525,-24.2375 13.681,-47.3368 13.681,-51.3318 v -7.2636 l 49.405,-0.6149 c 27.175,-0.3382 52.009,-0.526 55.188,-0.4178 5.481,0.1868 5.673,-1.7094 3.717,-36.8936 -1.576,-28.3176 -5.916,-272.0307 -5.092,-286.0134 0.09,-1.4588 -1.555,-1.2482 -3.646,0.4684 -4.693,3.854 -88.334,10.726 -113.253,9.3052 -10.045,-0.5726 -17.953,-2.4066 -17.598,-4.0806 0.355,-1.6721 25.314,3.3685 48.646,-9.4866 l 48,-6.4463 -52.955,-1.1549 c -36.853,-0.8037 -53.315,-2.2369 -54.14,-4.7144 -1.72,-5.174 26.857,-8.3581 76.195,-8.4895 39.686,-0.1055 42.372,0.2652 47.467,6.548 2.969,3.6632 12.146,12.0138 14.179,7.601 l 8.781,0.9408 0.999,-76.0093 c 0.577,-43.9014 -0.573,-94.0726 -2.725,-118.7704 -2.048,-23.5186 -2.777,-47.8036 -1.621,-53.9667 2.795,-14.8969 9.731,-14.7568 9.695,0.1961 -0.02,6.2708 1.66,45.6056 3.729,87.411 2.063,41.805 5.046,155.363 6.624,252.351 2.216,136.2445 4.579,199.1557 10.386,276.6743 9.138,121.9456 14.209,196.3337 14.934,296.7381 0.474,65.6988 1.124,74.9953 5.103,73.1353 2.508,-1.1718 19.763,-2.6606 38.345,-3.3082 28.72,-1.0013 34.058,-0.4568 35.628,3.6343 4.699,12.247 0,13.9353 -38.573,13.8817 -31.579,-0.044 -46.336,3.4806 -46.336,-6.085 z m -1149.789,-79.5137 c -2.056,-2.0553 -3.737,-7.6819 -3.737,-12.5034 0,-4.8216 -1.026,-8.2407 -2.28,-7.598 -34.234,17.5444 -54.551,20.5853 -88.932,13.311 -22.166,-4.6899 -34.444,-10.8981 -40.481,-20.4699 -5.259,-8.3369 0.626,-26.3445 12.787,-39.1295 11.031,-11.5946 12.391,-12.1405 30.264,-12.1405 h 18.713 v -15.0032 c 0,-8.2517 -2.295,-25.0116 -5.097,-37.2445 -2.803,-12.2331 -5.24,-27.0302 -5.416,-32.8828 -0.182,-5.8528 -1.265,-12.1608 -2.422,-14.0177 -3.696,-5.9359 1.22,-7.2651 26.873,-7.2651 28.89,0 34.707,1.5463 34.707,9.2235 0,7.169 -6.307,8.2499 -29.977,5.1373 -10.638,-1.3984 -20.085,-1.7973 -20.994,-0.8863 -0.912,0.9112 1.935,10.2236 6.328,20.6945 9.456,22.5507 13.008,38.1885 15.859,69.8199 2.068,22.962 1.966,23.4543 -5.195,25.2516 -4.015,1.0081 -11.1,0.389 -15.743,-1.3759 -14.912,-5.6698 -26.073,-3.8918 -35.641,5.6781 -4.888,4.888 -8.889,10.8787 -8.889,13.313 0,7.9789 18.366,12.764 48.985,12.764 26.057,0 31.247,-0.9665 47.887,-8.92 l 18.664,-8.92 v -76.9707 c 0,-42.3335 1.137,-76.9703 2.528,-76.9703 8.716,0 16.655,83.297 15.064,158.062 -0.718,33.818 -1.681,41.1629 -5.496,41.8938 -2.541,0.4875 -6.304,-0.7954 -8.359,-2.8509 z m 1223.56,41.5329 c -4.53,-4.531 -1.083,-11.8541 18.817,-39.9715 11.464,-16.1978 23.314,-34.239 26.334,-40.0917 6.496,-12.5943 9.887,-7.2066 4.403,6.9952 -5.74,14.8587 -27.352,57.3322 -33.959,66.7338 -5.711,8.1292 -11.462,10.4656 -15.595,6.3342 z m -22.218,-36.0024 c -1.024,-2.665 9.301,-20.2112 25.463,-43.2742 14.953,-21.3351 33.003,-47.4478 40.113,-58.0281 7.11,-10.5801 13.584,-18.5795 14.389,-17.7766 4.701,4.7024 -63.94,118.0716 -73.775,121.8455 -2.458,0.9438 -5.245,-0.3013 -6.19,-2.7666 z m -17.966,-41.27 c -2.361,-3.8181 10.397,-29.108 30.525,-60.5089 7.747,-12.0855 13.554,-22.5036 12.907,-23.1514 -0.648,-0.6476 -8.362,-2.5402 -17.144,-4.2056 -8.778,-1.665 -17.227,-3.8078 -18.768,-4.7615 -9.263,-5.7242 1.952,-7.4555 48.298,-7.4555 39.586,0 52.435,0.9819 57.007,4.3559 11.137,8.2193 -4.786,29.5359 -29.746,11.24 l -28.201,-0.6712 -6.01,11.54 c -20.491,39.3452 -42.139,76.9082 -44.306,76.9082 -1.391,0 -3.445,-1.4806 -4.562,-3.29 z m -127.544,-67.2125 c -6.82,-1.6844 -27.246,-2.2079 -46.522,-1.1923 -21.843,1.1511 -36.553,0.6394 -40.37,-1.4044 -6.649,-3.5579 -4.74,-10.3876 2.161,-7.7388 2.388,0.9166 14.22,-0.4191 26.295,-2.9683 29.323,-6.1912 123.311,-3.1098 126.09,4.1339 3.222,8.3969 -8.25,12.801 -32.51,12.4787 -12.64,-0.1688 -28.454,-1.6569 -35.144,-3.3088 z m -103.272,-25.8803 c -1.201,-3.0083 -4.199,-32.8333 -6.66,-66.2774 -3.47,-47.1214 -4.097,-94.8773 -2.789,-212.1792 0.93,-83.2543 0.376,-184.4989 -1.227,-224.9879 -3.798,-95.9141 -5.263,-259.4442 -2.347,-262.3673 5.131,-5.1418 6.445,4.6438 8.9,66.3728 1.417,35.5361 4.612,109.0768 7.104,163.4235 2.49,54.3469 5.553,189.7956 6.804,300.9972 2.958,262.6116 3.227,238.4034 -2.661,239.5373 -2.716,0.523 -5.922,-1.5106 -7.124,-4.519 z m -1054.984,-86.3097 c -2.72,-4.4008 1.333,-5.628 25.777,-7.8082 12.51,-1.1156 34.601,-3.9884 49.094,-6.3836 30.152,-4.9833 43.068,-2.1346 41.436,9.1387 -0.862,5.9659 -3.141,6.2436 -57.731,7.0447 -32.712,0.4802 -57.569,-0.3651 -58.576,-1.9916 z m 1306.037,30.9739 c -9.566,-8.9357 -10.645,-13.3002 -9.454,-38.2428 1.019,-21.3776 18.31,-44.325 33.11,-43.9417 7.618,0.1984 7.68,0.335 1.505,3.3269 -3.544,1.7169 -9.193,8.1231 -12.552,14.2361 -18.442,33.5632 -5.91,63.6256 21.809,52.3157 5.14,-2.0969 12.443,-4.5213 16.232,-5.3873 5.691,-1.3025 6.535,-0.592 4.872,4.1083 -1.103,3.1261 -5.483,9.4462 -9.733,14.0448 -6.322,6.8429 -10.322,8.3608 -22.035,8.3608 -11.596,0 -16.102,-1.6732 -23.754,-8.8208 z m -1304.643,-48.82 c 0,-1.7436 4.446,-4.6099 9.881,-6.3696 45.701,-14.7968 103.87,-20.4273 111.84,-10.8249 7.182,8.6516 -1.728,11.5405 -43.377,14.0651 -22.188,1.345 -48.89,3.3126 -59.343,4.3722 -12.39,1.2567 -19.001,0.8242 -19.001,-1.2428 z m 313.275,-8.5048 c -17.338,-4.6596 -21.951,-8.404 -19.196,-15.5807 1.318,-3.4346 6.779,-3.8795 27.842,-2.2672 19.444,1.4886 31.675,0.7245 47.426,-2.9624 11.674,-2.7325 25.698,-5.1364 31.164,-5.3421 5.466,-0.2052 9.994,-1.8621 10.058,-3.6815 1.515,-42.2163 -1.129,-300.6246 -3.844,-375.7538 -4.26,-117.9555 -4.965,-235.5321 -1.43,-239.0795 1.345,-1.3497 3.471,-0.7953 4.725,1.2323 2.298,3.7177 15.825,210.5447 15.699,240.0574 -0.07,13.5527 1.031,16.6109 7.389,20.7767 7,4.5858 7.88,4.4899 14.381,-1.5677 3.808,-3.549 10.133,-7.2575 14.052,-8.241 9.438,-2.3687 22.079,3.6526 24.13,11.4932 1.569,6.0014 1.94,5.9093 8.291,-2.0552 5.372,-6.7376 8.206,-7.9461 14.776,-6.2977 9.481,2.3796 10.918,8.0044 2.045,8.0044 -9.436,0 -8.339,14.5193 1.279,16.9334 17.201,4.3172 25.728,-5.5668 15.018,-17.4038 -5.432,-6.0022 -5.354,-6.0828 4.957,-5.0944 20.717,1.9854 23.762,29.7208 4.24,38.6148 -14.727,6.71 -35.922,1.3789 -43.761,-11.0071 -2.871,-4.5341 -3.639,-4.6465 -5.201,-0.76 -4.76,11.8487 -20.833,23.3586 -35.374,25.3314 -8.116,1.1009 -15.892,1.2995 -17.283,0.4409 -1.389,-0.8584 -1.777,-6.1706 -0.862,-11.8048 0.914,-5.6341 0.109,-12.7918 -1.806,-15.906 -2.617,-4.2737 -2.982,18.1991 -1.489,91.6295 1.088,53.5106 2.488,97.8555 3.11,98.5444 0.623,0.6886 12.428,-0.491 26.231,-2.6217 27.313,-4.2157 39.17,-3.6596 41.006,1.9234 2.127,6.4625 -11.416,10.5787 -40.519,12.3149 l -28.596,1.7061 v 61.774 c 0,58.3599 -0.331,61.9514 -5.993,64.9812 -4.432,2.373 -5.598,5.3662 -4.479,11.5085 0.835,4.5656 0.452,9.7985 -0.846,11.6284 -3.158,4.4445 -53.808,13.4458 -74.247,13.1946 -8.957,-0.1092 -23.759,-2.2084 -32.893,-4.6629 z m 152.828,-363.6594 c 2.6,-5.367 4.06,-10.8398 3.24,-12.1617 -2.243,-3.6311 -11.469,-2.8827 -17.334,1.4066 -4.499,3.2888 -4.681,4.9477 -1.341,12.1377 5.089,10.9597 9.658,10.5508 15.435,-1.3826 z m 126.106,355.1324 c -19.101,-5.1438 -46.109,-23.4339 -55.451,-37.5528 -4.153,-6.2751 -11.315,-20.297 -15.916,-31.1595 -7.395,-17.461 -8.348,-23.4502 -8.208,-51.6743 0.265,-53.647 11.42,-86.1075 39.28,-114.3096 19.32,-19.5554 39.32,-26.9998 66.647,-24.8064 37.521,3.012 63.938,22.6965 85.125,63.4317 6.43,12.3628 12.101,22.9759 12.607,23.5845 0.502,0.6089 4.593,-1.7855 9.088,-5.3205 10.263,-8.0736 18.333,-8.2209 20.385,-0.372 1.523,5.8225 -6.26,14.5116 -20.447,22.8281 -4.424,2.5935 -4.664,4.3814 -1.621,12.1615 5.283,13.5088 4.701,52.4608 -1.008,67.5976 -11.062,29.3264 -40.678,61.428 -66.261,71.8238 -15.618,6.3461 -47.664,8.2264 -64.22,3.7679 z m 54.584,-24.0858 c 23.359,-8.477 49.941,-44.8936 55.764,-76.3955 2.678,-14.4701 2.15,-21.0857 -3.461,-43.5661 -8.291,-33.2192 -17.703,-52.005 -35.79,-71.4392 -14.614,-15.7024 -44.566,-32.5888 -57.812,-32.5932 -25.669,0 -58.858,37.5973 -70.241,79.5925 -5.947,21.9384 -2.877,79.2724 5.208,97.2628 8.422,18.7382 26.68,38.6249 41.77,45.4982 14.086,6.4149 48.965,7.3013 64.562,1.6405 z m 18.974,-139.0065 c -1.831,-3.4216 -2.905,-10.6045 -2.388,-15.962 0.709,-7.3299 2.421,-9.7406 6.907,-9.7406 8.091,0 15.277,13.4632 12.688,23.7735 -2.485,9.906 -12.346,11.0115 -17.207,1.9291 z m -356.408,144.1619 c -5.491,-1.6196 -7.048,-5.8188 -3.041,-8.2012 4.673,-2.7786 58.527,-5.6289 58.527,-3.0978 0,8.2502 -38.94,16.1799 -55.486,11.299 z m -251.387,-9.8615 c -2.025,-3.786 -3.23,-31.5548 -3.204,-73.9126 0.05,-65.7147 1.202,-81.5299 5.988,-81.5299 3.927,0 9.666,63.3104 10.19,112.4158 0.448,41.9003 -0.05,47.1593 -4.613,48.0693 -2.813,0.5618 -6.576,-1.7072 -8.361,-5.0426 z m 36.927,-3.9937 c -4.49,-4.4887 -4.807,-39.3415 -0.689,-75.4395 1.622,-14.2137 4.298,-41.2863 5.947,-60.1614 6.173,-70.6526 11.804,-45.4136 12.068,54.0808 0.135,48.6094 -0.909,70.5387 -3.577,75.7692 -4.537,8.8925 -8.817,10.6831 -13.749,5.7509 z m -100.821,-8.2567 c -4.278,-7.9908 -10.102,-89.6707 -7.662,-107.4188 1.539,-11.1862 3.241,-14.4908 7.463,-14.4908 6.693,0 7.977,3.339 8.773,22.8029 0.342,8.3611 1.89,33.3425 3.439,55.5142 1.55,22.1718 2.036,42.3523 1.078,44.8455 -2.425,6.3237 -9.395,5.657 -13.091,-1.253 z m 37.351,-10.1757 c -1.304,-2.0901 -3.295,-19.5343 -4.419,-38.7649 -1.127,-19.2303 -3.065,-49.3299 -4.31,-66.8881 -1.242,-17.5581 -1.22,-30.9583 0.05,-29.7777 9.017,8.3587 22.532,139.2313 14.378,139.2313 -1.829,0 -4.397,-1.7103 -5.701,-3.8006 z m 1274.413,14.7639 c -31.301,-15.6998 -41.74,-77.0368 -17.46,-102.5876 16.386,-17.246 36.61,-21.4796 46.379,-9.7088 2.904,3.4972 1.703,3.9225 -7.06,2.5008 -9.03,-1.4656 -12.22,-0.1892 -22.061,8.8315 -10.407,9.5373 -11.635,12.2994 -12.836,28.9056 -1.567,21.6586 2.75,36.7706 13.599,47.6216 15.552,15.5515 54.556,7.364 68.112,-14.2974 8.107,-12.9538 6.05,-24.9253 -7.625,-44.3789 -5.986,-8.5159 -10.882,-16.2095 -10.882,-17.0968 0,-0.8872 5.341,1.1114 11.866,4.4411 14.125,7.2062 29.396,24.8008 31.754,36.5855 4.091,20.4564 -11.251,44.4053 -36.797,57.4375 -15.184,7.7461 -43.31,8.6078 -56.989,1.7459 z m -358.766,-56.7136 c -50.618,0 -46.642,-10.5588 -49.229,-23.0288 -3.158,-15.2394 -3.121,-477.9295 0.05,-500.0563 2.769,-19.3924 6.382,-22.4744 9.291,-7.93 3.373,16.8635 8.417,227.7657 8.962,374.5978 l 0.529,142.4398 48.645,-1.0623 c 48.627,-1.0619 48.648,-1.0599 49.626,5.8416 0.773,5.4394 -1.302,7.8583 -9.782,11.4014 -13.562,5.6654 -26.498,-2.2032 -58.086,-2.2032 z m 185.499,-26.5444 c -36.929,-1.493 -42.661,-2.4056 -43.526,-6.9315 -0.965,-5.0348 2.305,-6.5964 19.168,-9.1557 5.671,-0.8607 6.013,-2.868 5.092,-29.7621 -0.542,-15.8614 -3.026,-49.3617 -5.518,-74.4449 -6.552,-65.9194 -8.718,-130.0859 -4.63,-137.1252 2.682,-4.6196 3.389,-1.5215 3.546,15.5103 0.109,11.7054 2.169,37.0165 4.577,56.2468 6.018,48.0182 13.237,115.3198 15.408,143.6578 l 1.806,23.5631 h 15.093 15.094 l -1.773,-17.4823 c -8.776,-86.5337 -15.218,-212.9143 -11.362,-222.7076 2.632,-6.6842 3.233,-5.4008 4.995,10.6414 1.105,10.0332 5.343,44.9215 9.42,77.5296 8.509,68.0144 14.422,140.313 11.995,146.6366 -1.213,3.1608 2.246,5.0715 12.907,7.1304 12.756,2.4635 14.561,3.755 14.561,10.4132 0,8.9443 -0.285,8.9713 -66.853,6.2801 z m -679.804,-64.5223 c -0.182,-0.8361 -0.575,-21.3587 -0.863,-45.6056 -0.471,-39.6598 -0.159,-42.5595 3.041,-28.8837 4.393,18.7337 5.113,65.2494 1.108,71.449 -1.621,2.5083 -3.1,3.8765 -3.286,3.0403 z m 27.701,-46.1123 c 0.109,-53.9059 5.435,-51.0432 6.667,3.5864 0.625,27.7763 -0.137,37.6942 -2.96,38.6743 -2.925,1.0154 -3.779,-8.6904 -3.707,-42.2607 z m -494.154,28.3872 c -23.485,-11.1918 -31.924,-26.0925 -31.924,-56.3651 0,-14.1371 1.925,-22.7973 7.553,-34.0064 13.419,-26.7166 36.783,-46.0366 52.125,-43.1034 6.64,1.2693 7.213,0.3886 7.228,-11.1217 0.02,-13.9874 4.333,-31.8767 11.26,-46.7043 5.92,-12.6687 18.071,-13.3152 33.213,-1.7665 20.908,15.9488 30.07,51.3249 19.724,76.1774 -3.789,9.1103 -3.528,10.4593 3.741,19.0967 24.616,29.2555 10.823,75.815 -28.43,95.9632 -16.204,8.3176 -58.687,9.3612 -74.49,1.8301 z m 31.924,-13.7316 c 0,-0.5793 -2.394,-5.7099 -5.32,-11.4014 -4.252,-8.2708 -5.321,-18.1736 -5.321,-49.3234 0,-33.9563 0.686,-39.3588 5.321,-41.9563 8.477,-4.7493 6.431,-9.6936 -3.041,-7.3523 -16.569,4.0956 -37.623,31.3507 -41.547,53.7823 -2.046,11.6992 1.842,34.777 6.675,39.6082 1.773,1.7757 2.3,-2.8888 1.388,-12.3597 -1.852,-19.2813 1.265,-40.4231 7.051,-47.8235 4.04,-5.1664 4.295,-3.9161 2.59,12.6839 -1.937,18.8364 4.364,52.7337 11.369,61.1737 2.853,3.4374 20.835,5.9993 20.835,2.9685 z m 36.326,-6.0332 c 34.142,-17.4622 35.734,-60.9585 3.078,-84.2112 l -9.001,-6.4088 v 10.0884 10.0883 l -5.315,-10.3854 c -6.59,-12.8762 -15.8,-19.3192 -22.055,-15.4311 -6.761,4.2019 -5.874,56.9286 1.331,79.0229 4.805,14.7348 11.552,24.4994 16.75,24.2374 0.935,-0.049 7.782,-3.1974 15.22,-7.0005 z m -7.079,-21.8697 c -5.522,-5.5221 -6.957,-33.2759 -1.883,-36.4123 1.832,-1.1327 3.039,2.943 3.039,10.264 0,6.6788 1.407,15.8424 3.126,20.3637 3.845,10.1121 2.228,12.2958 -4.282,5.7846 z m 21.501,-103.9284 c -1.671,-16.1795 -13.39,-37.3768 -20.666,-37.3768 -3.594,0 -17.921,31.1801 -17.921,39.0036 0,2.9623 -1.642,7.0278 -3.648,9.0344 -4.155,4.156 -4.6,3.9275 10.325,5.294 6.182,0.5657 15.075,3.045 19.763,5.5096 7.579,3.9841 8.82,3.9585 11.189,-0.2308 1.464,-2.5913 1.896,-12.1466 0.958,-21.234 z m 878.987,178.6575 c -13.2,-5.0515 -13.278,-12.7604 -0.365,-35.4815 6.394,-11.2519 12.313,-23.814 13.153,-27.9156 l 1.525,-7.4578 7.596,7.6269 c 4.178,4.1949 10.3,12.6812 13.607,18.859 3.305,6.1777 6.726,11.2122 7.602,11.1876 0.873,-0.026 5.691,-9.4938 10.708,-21.0425 8.464,-19.4835 9.5,-20.6571 14.366,-16.2753 2.884,2.597 8.181,10.7918 11.773,18.2108 15.214,31.4266 -5.488,62.0068 -30.242,44.6698 -6.53,-4.5748 -7.415,-4.4702 -13.92,1.6407 -8.203,7.7057 -24.277,10.3894 -35.803,5.9779 z m 23.174,-16.7397 c 6.564,0 6.089,-8.1441 -0.136,-20.1721 l -4.941,-9.5542 -5.574,10.4652 c -9.718,18.2489 -5.693,25.5309 10.647,19.2611 z m 45.333,-7.7279 c 1.988,-7.6013 -0.648,-23.2949 -4.29,-25.546 -3.188,-1.97 -9.821,22.1749 -7.648,27.837 2.491,6.4899 10.02,5.0448 11.938,-2.291 z m 173.884,13.3737 c -2.813,-7.0998 -8.918,-163.3617 -6.617,-169.3617 0.992,-2.5848 2.955,-4.6998 4.361,-4.6998 2.181,0 5.258,26.1719 17.947,152.7572 1.186,11.8223 0.523,18.9403 -2.052,22.0428 -5.078,6.1189 -11.048,5.7956 -13.639,-0.7385 z m 106.912,-2.1247 c -19.526,-6.9632 -35.776,-23.0554 -43.373,-42.9494 -7.544,-19.7507 -4.994,-61.9369 4.957,-82.0197 8.533,-17.2225 31.598,-34.8063 45.658,-34.8063 10.329,0 23.229,5.4469 25.227,10.6516 1.055,2.7522 -2.131,3.3452 -11.99,2.2336 -17.002,-1.9161 -32.127,7.4597 -40.846,25.3193 -7.485,15.3293 -8.558,60.6407 -1.748,73.6805 10.291,19.6953 30.727,31.0127 55.999,31.0127 h 13.776 l -12.489,-10.6901 c -14.716,-12.596 -19.75,-25.7152 -19.398,-50.5641 0.425,-30.395 12.598,-57.3204 25.908,-57.3204 7.559,0 8.966,6.3006 2.429,10.8795 -17.575,12.3091 -13.824,73.0324 5.136,83.1798 7.452,3.9883 26.425,4.8755 40.645,1.9007 10.854,-2.2703 11.401,-2.0063 11.401,5.4843 0,8.4767 -7.894,15.0655 -21.957,18.3257 -4.553,1.0552 -10.728,4.5493 -13.725,7.7648 -11.663,12.5199 -42.331,16.2205 -65.61,7.9175 z m -784.897,-44.9547 c -1.018,-2.6394 -0.683,-13.5848 0.744,-24.3229 l 2.595,-19.524 2.365,18.7843 c 1.471,11.6969 1.191,20.8737 -0.746,24.3228 -2.718,4.8431 -3.34,4.9359 -4.958,0.7398 z m 302.09,10.4324 c -5.08,-13.3476 -8.318,-103.1943 -9.304,-258.2584 -0.651,-102.421 0.05,-155.8738 2.051,-155.9986 9.281,-0.5795 14.922,77.6551 19.854,275.3222 1.753,70.2328 3.813,129.748 4.577,132.2564 1.051,3.4493 6.62,4.6392 22.855,4.8834 11.805,0.1779 23.029,1.8879 24.942,3.8006 4.241,4.2403 3.995,4.2744 -33.824,4.6868 -27.072,0.2953 -28.618,-0.036 -31.151,-6.6924 z m -130.07,-44.7728 c -5.077,-6.1187 -0.779,-14.067 7.607,-14.067 5.649,0 7.278,1.6285 7.278,7.2756 0,4.0017 -2.165,8.1063 -4.81,9.1212 -6.323,2.4264 -6.079,2.4829 -10.075,-2.3298 z m -69.628,-15.7998 c -12.861,-9.0077 -5.694,-23.9179 10.599,-22.0499 7.161,0.8211 8.544,2.3982 8.544,9.7302 0,12.3728 -9.938,18.7679 -19.143,12.3197 z m -313.777,-1.4489 c 0,-1.7502 4.095,-5.5126 9.102,-8.3612 8.912,-5.0713 9.101,-5.6847 9.122,-29.4291 0,-13.3373 -1.981,-45.4893 -4.422,-71.4486 -2.444,-25.9595 -5.904,-80.7193 -7.692,-121.6884 -1.787,-40.969 -4.068,-84.7504 -5.066,-97.2919 -2.618,-32.84 3.361,-23.9943 9.244,13.6817 2.613,16.7219 6.162,50.2421 7.887,74.489 8.002,112.3755 9.783,132.9587 12.371,142.8978 1.724,6.621 2.157,-35.592 1.142,-111.7339 -1.015,-76.4045 -0.541,-122.3751 1.261,-122.3751 1.59,0 3.777,12.6555 4.86,28.1236 1.085,15.4678 3.26,43.1732 4.833,61.5676 4.142,48.3882 4.86,113.9737 1.907,173.9713 l -2.576,52.3565 13.216,-6.7508 c 7.272,-3.713 13.693,-6.997 14.272,-7.2979 1.45,-0.752 0.137,-133.0165 -2.187,-219.8802 l -1.906,-71.4488 -10.068,-0.9663 c -13.273,-1.2747 -11.034,-7.8707 3.084,-9.0759 6.53,-0.5577 12.553,0.8444 15.262,3.5539 5.949,5.9486 7.882,39.6965 10.407,181.6872 l 2.034,114.3913 -7.32,7.4379 c -4.962,5.0425 -13.679,8.6814 -27.072,11.2984 -10.863,2.1232 -20.44,4.7704 -21.281,5.8826 -1.857,2.4518 -21.827,9.591 -26.83,9.591 -1.973,0 -3.584,-1.4318 -3.584,-3.1817 z m 258.925,-5.1795 c -1.518,-2.9263 -3.666,-23.1068 -4.774,-44.8454 -1.109,-21.7388 -4.096,-72.3611 -6.643,-112.494 -2.545,-40.133 -4.891,-103.3558 -5.213,-140.4952 -0.51,-58.7643 0.05,-68.1689 4.35,-72.4768 4.559,-4.5701 5.081,-3.7035 6.817,11.2795 1.035,8.9264 3.292,40.1726 5.019,69.4361 1.726,29.2638 5.091,82.6224 7.481,118.5747 6.173,92.9146 8.745,162.0856 6.312,169.7537 -2.52,7.938 -9.542,8.6047 -13.349,1.2674 z m -90.185,-1.8434 c -17.793,-2.2615 -25.416,-4.2757 -21.795,-5.7582 8.039,-3.2892 74.314,-2.8116 76.391,0.5507 4.701,7.6041 -18.406,9.8083 -54.596,5.2075 z m -23.562,-16.2144 c -12.557,-3.2815 -3.639,-7.0245 16.722,-7.0188 12.124,0 34.123,-2.2115 48.892,-4.9221 19.801,-3.6341 27.743,-4.0347 30.251,-1.5261 5.242,5.2412 -0.392,8.6292 -20.416,12.2765 -17.628,3.2116 -64.864,3.957 -75.449,1.1905 z m 232.855,-11.9115 c -7.876,-12.0191 -7.898,-86.2405 -0.05,-102.0517 11.943,-24.01 24.277,-15.6117 27.468,18.7049 2.127,22.9112 -5.019,80.2876 -10.898,87.4731 -4.891,5.9806 -10.897,4.4823 -16.539,-4.1263 z m 253.062,43.1488 c -5.793,-5.7911 -6.485,-37.392 -1.38,-62.8151 3.092,-15.3935 4.235,-17.0877 12.66,-18.7729 13.408,-2.6818 29.876,9.0758 20.675,14.7626 -2.603,1.6101 17.595,40.9114 21.129,41.1091 0.89,0.05 4.88,-13.2492 8.868,-29.5534 3.991,-16.304 8.34,-30.8886 9.664,-32.4105 4.018,-4.6082 14.067,10.446 23.843,35.7108 11.212,28.9831 11.741,41.1532 2.18,50.1366 -7.874,7.3956 -31.61,9.3139 -37.865,3.0599 -2.706,-2.7076 -6.364,-2.7076 -15.401,0 -17.026,5.1012 -38.643,4.5036 -44.373,-1.2271 z m 27.775,-10.424 c 10.408,0 10.708,-0.3172 8.9,-9.3528 -2.289,-11.4557 -24.474,-49.179 -27.274,-46.3798 -1.109,1.1107 -2.018,14.9353 -2.018,30.7215 0,24.9233 0.634,28.4591 4.809,26.8565 2.645,-1.0149 9.657,-1.8454 15.583,-1.8454 z m 55.48,-12.9216 c -0.07,-5.4347 -1.92,-13.9857 -4.1,-19.0024 l -3.961,-9.1211 -2.355,13.557 c -1.605,9.237 -1.268,13.9195 1.058,14.695 1.879,0.6262 3.415,3.0766 3.415,5.4456 0,2.3689 1.369,4.3072 3.04,4.3072 1.671,0 2.979,-4.4466 2.903,-9.8813 z m 346.708,12.1616 c -13.639,-22.3689 -0.956,-71.8245 16.684,-65.0556 3.681,1.4124 3.024,3.2978 -3.376,9.6999 -7.521,7.519 -7.868,9.203 -6.436,31.2714 0.832,12.8282 2.518,25.7184 3.745,28.6448 3.922,9.3659 -4.273,5.8454 -10.617,-4.5605 z m -751.978,-56.9475 c -3.19,-3.5253 -6.902,-18.3727 -10.192,-40.7479 l -5.175,-35.202 8.246,-12.4584 c 9.004,-13.6071 13.912,-15.2826 20.908,-7.1382 7.755,9.0319 8.932,16.2509 8.75,53.7065 -0.137,29.3208 -1.142,37.2881 -5.229,41.8053 -6.377,7.0456 -10.953,7.0549 -17.308,0.034 z m 233.487,22.8815 c -5.97,-5.9705 -7.46,-10.5605 -7.46,-22.9539 0,-14.5572 6.514,-33.4314 11.537,-33.4314 1.243,0 1.749,10.1366 1.124,22.5256 -1.046,20.6873 -0.593,22.8174 5.543,26.1017 3.677,1.967 9.977,2.7497 14.002,1.7396 8.703,-2.1848 9.465,1.474 1.758,8.4493 -7.897,7.1457 -17.839,6.2339 -26.504,-2.4309 z m -389.03,-98.4286 c -14.089,-3.1007 -22.802,-8.1228 -22.802,-13.1456 0,-4.8005 2.718,-5.1754 27.345,-3.7712 42.725,2.4363 68.641,-10.6505 60.984,-30.7956 -3.395,-8.9283 -6.519,-9.7864 -15.411,-4.2331 -14.427,9.0098 -21.151,-9.4536 -16.664,-45.76 1.587,-12.8435 3.033,-15.9419 7.076,-15.1751 3.859,0.7317 5.445,5.3429 6.599,19.1787 1.495,17.9172 1.681,18.2311 11.285,19.1599 14.454,1.3974 25.2,15.507 25.2,33.0908 0,11.9014 -1.574,15.378 -11.402,25.1993 -8.415,8.4084 -15.622,12.2974 -27.514,14.8442 -16.012,3.4301 -33.064,3.967 -44.696,1.4077 z m 828.504,35.7071 c -29.007,-13.1503 -42.627,-35.7108 -42.458,-70.332 0.07,-12.1793 1.769,-25.1074 3.8,-28.7294 9.578,-17.0795 35.678,-27.0949 64.404,-24.7127 9.093,0.754 15.833,0.2378 14.976,-1.1477 -0.855,-1.385 1.94,-2.5186 6.216,-2.5186 10.203,0 29.979,17.9948 38.014,34.5974 7.951,16.4262 8.15,41.5132 0.463,58.4416 -6.527,14.368 -24.775,33.7148 -35.731,37.8809 -12.394,4.7118 -35.128,3.1194 -49.684,-3.4795 z m 37.754,-10.7111 c 7.074,-2.714 5.866,-12.3715 -1.798,-14.3754 -8.237,-2.1539 -11.634,-0.1756 -11.634,6.7725 0,8.8465 4.118,11.1774 13.432,7.6029 z m -22.599,-15.4319 c 0.07,-8.8536 -11.709,-12.8321 -16.912,-5.7162 -4.037,5.5206 -8.394,1.903 -5.85,-4.8557 0.885,-2.3504 -2.326,-6.2661 -7.59,-9.2539 -18.623,-10.5694 -4.981,15.3891 14.158,26.9401 12.3,7.4232 16.103,5.7523 16.194,-7.1143 z m 50.841,-9.3258 c 14.143,-25.55 11.356,-48.0631 -8.389,-67.8088 -11.495,-11.4949 -12.829,-12.0011 -31.62,-12.0011 -17.851,0 -35.044,4.3287 -35.149,8.8491 -0.02,0.9857 -0.867,4.8704 -1.877,8.6329 -1.643,6.1405 -0.743,6.8409 8.809,6.8409 8.316,0 11.15,-1.4946 12.977,-6.8409 2.144,-6.2785 2.438,-6.0521 3.566,2.7539 0.922,7.1776 3.139,10.0731 8.801,11.4945 9.739,2.4444 13.371,0.052 13.371,-8.8086 0,-4.711 -3.347,-9.2654 -9.882,-13.4509 -15.621,-10.0042 -1.88,-7.9343 18.809,2.8334 9.815,5.1077 18.482,11.8637 19.316,15.0579 1.46,5.5763 -4.173,44.1923 -8.372,57.4306 -3.333,10.4906 2.842,7.2998 9.64,-4.9829 z m -16.214,-10.2371 c 1.433,-7.172 0.572,-10.6278 -3.41,-13.6485 -7.468,-5.6696 -8.975,-5.2503 -11.066,3.0805 -1.01,4.0251 -2.583,9.2636 -3.496,11.6408 -0.993,2.5913 1.134,5.5977 5.309,7.5063 8.905,4.07 10.325,3.1082 12.663,-8.5791 z m -23.805,-13.466 c 0,11.3508 1.255,-12.6253 -6.028,-15.9436 -6.287,-2.8647 -8.237,-2.8347 -9.143,0.1391 -0.633,2.0801 -2.656,8.4843 -4.499,14.2313 -3.575,11.1641 -2.252,14.0511 7.374,16.094 8.306,1.7622 12.296,-28.966 12.296,-14.522 z m -26.457,-4.0131 c 4.71,-15.7269 4.435,-21.5985 -1.041,-22.1461 -2.508,-0.2509 -6.147,-0.5929 -8.086,-0.76 -1.94,-0.1665 -5.217,5.1685 -7.283,11.8575 l -3.756,12.1614 -0.319,-9.9788 c -0.175,-5.4886 1.733,-14.8906 4.242,-20.894 5.769,-13.8027 5.74,-14.0565 -1.199,-10.3433 -6.504,3.4799 -12.483,18.2 -12.483,30.73 0,6.1168 2.659,10.0718 9.883,14.6968 13.67,8.755 16.007,8.1339 20.042,-5.3235 z m 58.247,-11.7489 c 0,-5.3012 -8.453,-16.0219 -12.633,-16.0219 -4.788,0 -2.602,16.0276 2.718,19.9177 6.163,4.5064 9.915,3.0321 9.915,-3.8958 z m -1360.098,33.7784 c -23.016,-8.175 -35.434,-25.7744 -35.434,-50.2254 0,-18.489 10.405,-41.0782 24.309,-52.778 9.666,-8.1349 34.268,-20.241 41.129,-20.241 4.926,0 22.257,19.6344 25.982,29.4366 l 2.844,7.4788 8.006,-6.2962 c 15.538,-12.2234 40.295,-6.4178 59.154,13.8726 15.849,17.0487 19.628,28.3781 14.989,44.9441 -3.983,14.2253 -17.937,30.0357 -30.476,34.5314 -12.749,4.5709 -97.151,4.0188 -110.503,-0.7229 z m 47.765,-20.6316 c -6.742,-12.9956 -6.049,-36.2098 1.538,-51.5447 l 6.017,-12.1637 -10.699,-14.8916 c -5.883,-8.1903 -11.141,-14.8916 -11.684,-14.8916 -0.542,0 -3.389,-0.9217 -6.323,-2.0482 -4.005,-1.5362 -4.882,-0.8623 -3.516,2.6965 1.298,3.3828 0.342,4.3575 -3.33,3.3973 -16.105,-4.2111 -43.041,32.9002 -43.041,59.2979 0,11.9049 1.511,15.045 12.08,25.0994 12.48,11.8712 18.005,13.532 48.045,14.4432 l 16.041,0.4866 z m 58.42,1.1081 c 12.94,-7.8911 18.427,-21.7516 13.407,-33.8717 -4.722,-11.4019 -32.042,-36.4051 -39.779,-36.4051 -7.639,0 -21.108,20.8481 -23.11,35.7723 -3.914,29.1701 25.078,49.3859 49.482,34.5045 z m 662.556,59.4144 c -3.405,-7.1496 -5.947,-197.9371 -3.01,-225.9146 1.316,-12.5355 3.238,-18.7615 5.554,-17.9912 2.582,0.8592 3.77,29.922 4.388,107.3399 0.855,107.4339 -1.229,148.5366 -6.932,136.5659 z m 197.362,-4.3866 c -11.35,-2.714 -16.456,-5.6526 -16.456,-9.4746 0,-3.1377 90.6,-4.0712 98.563,-1.0153 2.645,1.0148 4.809,4.4353 4.809,7.6008 0,5.3623 -2.648,5.7341 -38.765,5.4442 -21.32,-0.1711 -42.988,-1.321 -48.151,-2.5551 z m -705.85,-53.0956 c -4.09,-5.1606 -7.841,-160.5117 -4.017,-166.3753 4.002,-6.1361 5.268,-1.6271 7.664,27.278 1.038,12.5416 3.131,33.7483 4.652,47.1259 3.193,28.0881 3.956,83.901 1.245,90.9625 -2.221,5.7913 -5.48,6.1356 -9.544,1.0089 z m -33.465,-4.3358 c -1.249,-3.0501 -2.271,-44.8126 -2.271,-92.8057 0,-65.7548 0.937,-88.1963 3.802,-91.0592 2.378,-2.3778 4.809,-2.7184 6.499,-0.9107 1.484,1.5885 3.194,44.59 3.8,95.5589 1.027,86.3994 0.742,92.7416 -4.23,93.7164 -3.012,0.5911 -6.315,-1.3657 -7.6,-4.4997 z m 725.898,33.1284 c -7.248,-5.1419 0.402,-8.1812 30.224,-12.0057 43.859,-5.6243 60.988,-3.5574 60.988,7.358 0,3.139 -3.45,4.4536 -11.689,4.4536 -6.428,0 -25.925,0.7715 -43.325,1.7143 -20.222,1.0957 -33.281,0.5473 -36.198,-1.5202 z m -340.623,-40.9541 c -3.569,-26.4636 -6.812,-178.6222 -3.808,-178.6222 2.984,0 5.854,37.1253 9.547,123.4941 2.078,48.588 1.708,55.8881 -2.818,55.8881 -1.551,0 -2.864,-0.342 -2.921,-0.76 z m -420.26,-17.4822 c -10.057,-22.9687 -10.443,-127.6958 -0.471,-127.6958 2.919,0 4.346,3.6653 4.442,11.4013 0.07,6.2709 1.261,32.9985 2.634,59.3948 1.373,26.3962 1.496,52.3913 0.274,57.7671 l -2.222,9.7739 z m 609.626,19.7442 c -4.513,-1.8208 -5.136,-10.1479 -0.759,-10.1479 1.671,0 3.039,1.9382 3.039,4.3073 0,2.3689 1.711,4.9972 3.801,5.8406 2.089,0.8435 2.431,1.5336 0.76,1.5336 -1.672,0 -4.751,-0.6901 -6.841,-1.5336 z m 77.277,-0.023 c -3.118,-3.117 -2.402,-15.6247 1.012,-17.7356 1.674,-1.0334 3.042,0.2424 3.042,2.8354 0,2.5926 2.735,6.423 6.079,8.5115 3.344,2.0885 6.081,4.8366 6.081,6.1066 0,2.8437 -13.419,3.0773 -16.214,0.2821 z m 83.864,-1.1089 c 0,-4.0556 -6.99,-5.1881 -7.17,-8.1685 -0.183,-2.9803 -0.942,-39.6229 -1.694,-81.4279 -0.753,-41.8053 -1.631,-80.7981 -1.952,-86.6507 -0.524,-9.5268 0.621,-11.2307 10.927,-16.2667 14.347,-7.0082 35.612,-10.2427 35.612,-5.4163 0,1.8924 -1.369,3.4408 -3.04,3.4408 -7.861,0 -1.697,8.8036 9.788,13.9798 15.73,7.09 29.735,18.5333 29.735,24.2951 0,5.6041 -10.384,5.5326 -15.062,-0.1031 -2.005,-2.4166 -10.381,-8.7159 -18.615,-13.9987 -8.232,-5.2829 -14.967,-11.5147 -14.967,-13.8488 0,-5.7271 -6.137,-5.2391 -14.401,1.1447 -6.61,5.1074 -6.71,6.0122 -3.559,32.6165 1.78,15.0499 2.788,51.8634 2.239,81.8078 -1.081,58.7467 0.873,66.0906 12.503,46.9703 9.013,-14.8233 10.704,-33.5663 6.498,-72.1363 -2.697,-24.7509 -2.834,-35.502 -0.482,-37.8527 5.851,-5.8517 8.851,1.4829 18.312,44.7736 11.541,52.7935 16.761,64.4653 28.296,63.2579 6.63,-0.6938 8.36,0.3861 8.36,5.2136 0,8.3123 -9.76,13.1458 -19.255,9.5355 -8.658,-3.2916 -17.23,-14.3108 -17.23,-22.1513 0,-2.9724 -1.368,-5.4043 -3.04,-5.4043 -1.671,0 -3.039,2.1067 -3.039,4.6816 0,9.1518 -12.518,29.0483 -20.084,31.9254 -8.972,3.4105 -18.68,9.4874 -18.68,-0.2167 z m 195.331,-3.706 c 0,-2.2161 -1.721,-11.3252 -2.185,-20.5225 l -0.843,-16.722 -5.825,9.6221 c -8.232,13.5986 -17.838,17.441 -26.365,10.5377 -6.484,-5.252 -6.569,-6.1142 -2.968,-30.7279 2.036,-13.9286 6.811,-36.0611 10.612,-49.1834 3.802,-13.1224 6.493,-23.8589 5.982,-23.8589 -0.512,0 -5.97,3.4205 -12.129,7.6011 -12.205,8.2817 -21.216,9.4472 -32.677,4.2252 -23.011,-10.4839 -17.373,-61.6189 10.264,-93.1211 13.005,-14.8234 29.142,-25.0955 39.423,-25.0955 7.558,0 7.55,0.032 -1.521,5.6018 -30.142,18.513 -51.171,58.5035 -45.806,87.1068 2.639,14.0616 10.093,13.9928 30.823,-0.2845 28.574,-19.6802 37.166,-8.4001 26.401,34.6666 -3.632,14.5341 -7.518,31.2142 -8.631,37.0669 -2.007,10.544 -1.968,10.5906 4.185,5.0764 3.415,-3.0609 9.401,-5.1131 13.301,-4.5606 6.505,0.9213 7.323,3.0861 9.88,26.1309 3.105,27.983 2.073,27.3295 26.693,16.8746 22.438,-9.5291 28.326,4.3033 6.978,16.3938 -13.717,7.7682 -45.592,10.2247 -45.592,3.1728 z m -567.018,-84.3952 c 0,-5.0472 1.606,-13.0282 3.569,-17.7356 l 3.569,-8.5591 1.907,10.6414 c 2.127,11.8706 -0.228,21.887 -5.535,23.6598 -2.137,0.7119 -3.51,-2.4214 -3.51,-8.0065 z m -517.653,1.2837 c -6.287,-2.2433 -13.559,-5.846 -16.162,-8.0062 -12.958,-10.7525 -17.064,-33.9269 -9.306,-52.4957 4.784,-11.4489 21.203,-26.3638 29.025,-26.3638 9.739,0 9.689,4.1567 -0.1,7.4231 -18.773,6.2698 -27.411,38.2309 -14.701,54.3899 6.061,7.7046 22.094,14.1453 35.296,14.1795 4.776,0.023 9.101,-4.5033 15.963,-16.6591 5.175,-9.1717 9.41,-19.9118 9.41,-23.8667 0,-8.8453 -16.596,-32.4264 -22.821,-32.4264 -2.5,0 -4.542,-1.3681 -4.542,-3.0403 0,-7.5454 17.417,-0.8908 30.077,11.492 7.221,7.0648 11.855,24.9588 9.344,36.0914 -3.163,14.027 -20.74,36.5932 -31.513,40.4626 -11.222,4.0298 -15.893,3.8458 -29.979,-1.1803 z m 1111.818,40.9345 c -7.067,0 -14.277,-144.677 -12.118,-159.082 2.175,-14.5071 7.194,-18.2901 10.003,-7.542 1.282,4.8978 3.271,5.8998 8.905,4.4857 4.524,-1.1355 7.806,-0.3624 8.723,2.0545 8.905,23.4911 18.504,116.0676 14.404,138.9331 -2.743,15.2897 -8.58,19.3337 -12.779,8.8545 l -2.843,-7.0955 -0.183,7.7529 c -0.292,11.7048 -5.178,11.6388 -14.104,11.6388 z m 12.618,-71.8628 c -3.301,-3.3026 -3.94,19.0777 -2.288,9.9058 l 1.96,9.1211 1.04,-8.6388 c 0.572,-4.7512 0.251,-9.426 -0.712,-10.3881 z m -1.252,-29.3552 c -0.611,-7.6699 -2.52,-13.9456 -4.24,-13.9456 -1.927,0 -2.409,4.3855 -1.248,11.4015 1.038,6.2708 1.899,13.1923 1.917,15.3814 0.02,2.1888 1.079,3.3338 2.359,2.5441 1.277,-0.7897 1.821,-7.7114 1.212,-15.3814 z m -3.536,-38.522 c 0,-11.0128 -1.092,-15.091 -3.802,-14.1883 -2.09,0.6968 -3.664,2.8631 -3.495,4.8138 0.159,1.9511 0.509,8.3359 0.76,14.1885 0.715,16.7164 6.537,12.43 6.537,-4.814 z m -729.016,89.297 c -11.236,-7.8717 -7.77,-10.4689 13.974,-10.4689 11.404,0 27.989,-2.1547 36.856,-4.7881 l 16.122,-4.7882 -1.617,-12.0532 c -2.497,-18.6269 -6.766,-21.9464 -25.402,-19.7561 -23.794,2.7966 -26.718,-1.3882 -24.039,-34.4151 1.159,-14.2889 2.768,-26.6405 3.576,-27.4479 3.751,-3.75 7.131,9.3406 7.171,27.7797 l 0.05,20.3029 16.225,-1.6744 c 20.283,-2.0935 27.02,1.399 35.166,18.2241 8.506,17.5679 8.332,32.7471 -0.463,40.7073 -13.791,12.4818 -64.014,17.9032 -77.614,8.3779 z m 858.231,18.2233 c -3.344,-0.8146 -8.425,-3.5583 -11.288,-6.0967 -2.864,-2.5386 -7.293,-3.8153 -9.839,-2.8375 -2.593,0.9946 -11.21,0.4781 -13.037,-5.4429 l -8.4,-7.2208 -1.652,-54.2358 c -1.509,-49.5364 0.1,-71.7541 4.217,-58.7966 4.779,14.9917 8.074,35.2379 8.074,49.6123 0,25.8632 2.652,34.7616 10.982,36.8523 4.004,1.005 13.725,8.0018 21.601,15.5487 13.363,12.8032 14.891,13.4857 22.83,10.1967 4.682,-1.939 13.283,-7.896 19.116,-13.2378 8.713,-7.9828 10.603,-11.8722 10.603,-21.8373 0,-6.6686 -1.929,-14.7623 -4.286,-17.986 -4.214,-5.7641 -4.552,-5.7488 -20.33,0.9172 -14.516,6.1326 -16.7,6.348 -22.934,2.2627 -3.981,-2.6087 -7.742,-9.0354 -8.9,-15.2182 -2.266,-12.0859 0.871,-43.1842 4.59,-45.4827 1.34,-0.8295 3.388,8.1196 4.549,19.8873 2.372,24.0895 5.384,27.061 19.843,19.5835 5.657,-2.9251 14.779,-4.5683 22.317,-4.0204 11.717,0.8513 13.308,2.0288 19.592,14.4923 8.713,17.2768 8.941,37.0462 0.584,50.5676 -14.74,23.8488 -44.85,38.1881 -68.232,32.4921 z m -1.52,-18.9124 c 0,-2.3673 -22.834,-21.466 -25.666,-21.466 -4.082,0 -1.01,6.6506 7.597,16.4545 5.54,6.3101 11.067,9.9052 13.682,8.9015 2.413,-0.9261 4.387,-2.6764 4.387,-3.89 z m -460.11,9.951 c -4.775,-4.7738 -1.352,-30.7761 7.265,-55.2235 14.91,-42.2908 19.519,-41.774 8.95,1.0036 -3.305,13.3776 -6.025,28.9178 -6.045,34.5337 -0.02,9.2744 0.636,10.0424 7.283,8.3742 4.025,-1.0104 9.498,-2.6732 12.161,-3.6955 6.757,-2.592 6.048,3.6683 -1.238,10.9537 -5.885,5.8869 -23.962,8.469 -28.376,4.0538 z m -65.768,-16.0154 c 3.669,0 -3.01,-11.7857 -2.842,-19.0022 l 0.306,-13.1217 2.698,11.4521 c 1.484,6.2979 4.923,14.8494 7.644,19.0022 4.469,6.8203 4.482,7.5505 0.137,7.5505 -2.641,0 -11.617,-5.8809 -7.949,-5.8809 z m -209.847,-46.8613 c 0.02,-2.1889 1.375,-6.032 2.994,-8.5403 2.396,-3.7078 2.956,-3.3149 2.994,2.1007 0.02,3.6637 -1.321,7.507 -2.994,8.5404 -1.672,1.0336 -3.02,0.089 -2.994,-2.1008 z" fill="#000000" transform="translate(232.57422,58.253915) matrix(0.26458333,0,0,0.26458333,-4196.4678,-327.73418)"/>
</svg>