<?xml version="1.0" ?><svg xmlns="http://www.w3.org/2000/svg" viewBox="0 0 649.69067 696.97906" height="696.97906mm" width="649.69067mm">
    <path d="m 14415.344,7390.3151 c -27.706,7e-4 -50.164,21.2254 -50.164,47.4064 0,26.1793 22.46,47.4014 50.164,47.4021 27.701,-7e-4 50.159,-21.2228 50.161,-47.4021 0,-26.181 -22.458,-47.4057 -50.161,-47.4064 z m 918.394,27.1831 c -14.333,-2e-4 -25.95,13.2253 -25.952,29.5409 0,16.3172 11.619,29.5455 25.952,29.5452 14.334,3e-4 25.954,-13.228 25.951,-29.5452 0,-16.3156 -11.619,-29.5411 -25.951,-29.5409 z m -1199.934,1.3712 c -16.768,0.049 -30.329,11.555 -30.329,25.7307 0,14.2113 13.629,25.7313 30.438,25.7304 16.809,9e-4 30.435,-11.5191 30.435,-25.7304 0,-14.2116 -13.626,-25.7316 -30.435,-25.7307 -0.05,0 -0.07,0 -0.116,0 z m 454.978,141.7671 c -77.121,0.1252 -139.57,59.2977 -139.567,132.246 0,73.035 62.594,132.2411 139.806,132.2416 77.214,-5e-4 139.808,-59.2066 139.808,-132.2416 0,-73.0368 -62.592,-132.2455 -139.808,-132.246 z m 684.739,48.375 c -69.026,0.09 -124.934,50.8738 -124.934,113.4888 0,62.6776 56.014,113.4876 125.11,113.4888 69.097,0 125.114,-50.8098 125.114,-113.4888 0,-62.679 -56.017,-113.49 -125.114,-113.4888 h -0.186 z m -1229.222,114.9596 c -77.631,0.039 -140.541,62.156 -140.541,138.767 0,76.6384 62.954,138.7665 140.613,138.7667 77.658,-2e-4 140.614,-62.1283 140.614,-138.7667 0,-76.6388 -62.956,-138.7666 -140.614,-138.767 h -0.07 z m 794.649,297.0195 c -13.457,-0.025 -26.955,1.2998 -40.236,3.9506 -96.396,19.2389 -160.992,102.7251 -144.278,186.4721 16.715,83.7457 108.407,136.0391 204.803,116.8014 96.398,-19.2389 160.994,-102.7253 144.28,-186.4721 -14.08,-70.5425 -82.29,-120.5928 -164.569,-120.752 z m 398.338,29.9753 c -35.189,0 -63.716,23.2803 -63.716,51.9952 0,28.713 28.529,51.9896 63.716,51.9905 35.192,9e-4 63.72,-23.2759 63.72,-51.9905 0,-28.7163 -28.526,-51.9961 -63.72,-51.9952 z m -944.464,77.0922 c -84.26,0.525 -153.68,53.2824 -166.997,126.9107 -15.693,86.764 51.213,172.2221 149.439,190.8752 98.222,18.6534 190.57,-36.5595 206.265,-123.322 15.693,-86.764 -51.213,-172.2221 -149.437,-190.8752 -12.982,-2.4662 -26.149,-3.6694 -39.27,-3.5887 z m 1132.353,2.8781 c -13.211,7e-4 -23.92,10.3006 -23.92,23.0064 0,12.7076 10.709,23.0103 23.92,23.0108 13.214,-5e-4 23.923,-10.3032 23.92,-23.0108 0,-12.7058 -10.709,-23.0057 -23.92,-23.0064 z m -1599.594,57.8419 c -31.284,0.2583 -56.501,24.4302 -56.499,54.1582 0,29.91 25.517,54.1571 56.99,54.1583 31.478,0 56.996,-24.2467 56.996,-54.1583 0,-29.9118 -25.518,-54.1596 -56.996,-54.1582 -0.162,-7e-4 -0.327,-7e-4 -0.491,0 z m 1441.848,187.9065 c -61.625,0.049 -94.486,42.2499 -94.486,98.8657 0,56.6501 32.919,106.282 94.581,106.2822 61.663,-2e-4 121.363,-42.2156 121.363,-98.8657 0,-56.6501 -59.7,-106.282 -121.363,-106.2822 z m -628.747,11.6752 c -18.121,5e-4 -32.813,12.2515 -32.813,27.3641 0,15.1127 14.692,27.3639 32.813,27.3644 18.123,0 32.817,-12.2503 32.817,-27.3644 0,-15.114 -14.694,-27.3657 -32.817,-27.3641 z m 160.306,186.7029 c -66.255,0 -119.969,49.69 -119.969,110.9865 0,61.2979 53.712,110.9909 119.969,110.9909 66.259,0 119.973,-49.693 119.97,-110.9909 0,-61.2965 -53.713,-110.9865 -119.97,-110.9865 z m -848.059,34.6047 c -80.648,-6e-4 -146.027,57.6274 -146.029,128.7162 0,71.0908 65.379,128.7217 146.029,128.721 80.65,0 146.027,-57.6318 146.027,-128.721 0,-71.0874 -65.38,-128.7148 -146.027,-128.7162 z m 1417.722,175.8062 c -24.585,0.086 -44.462,17.2678 -44.462,38.433 0,21.2256 19.986,38.433 44.643,38.4327 24.655,3e-4 44.643,-17.2071 44.64,-38.4327 0,-21.2259 -19.985,-38.4333 -44.64,-38.433 -0.07,-3e-4 -0.116,-3e-4 -0.185,0 z m -752.726,112.9818 c -4.356,0 -8.723,0.2977 -13.056,0.8962 -43.792,6.0555 -75.178,40.7247 -70.101,77.436 5.076,36.7122 44.693,61.5636 88.488,55.5069 43.79,-6.0558 75.175,-40.7249 70.099,-77.4362 -4.5,-32.5269 -36.415,-56.3925 -75.43,-56.4029 z m -267.406,110.2896 c -10.549,0.058 -19.066,8.2747 -19.066,18.3906 0,10.1547 8.586,18.386 19.175,18.386 10.588,0 19.17,-8.2313 19.172,-18.386 0,-10.1565 -8.584,-18.3906 -19.172,-18.3906 -0.05,0 -0.07,0 -0.116,0 z m 659.704,5.1723 c -16.369,0.1298 -29.562,12.1076 -29.564,26.8393 0,14.8254 13.352,26.844 29.826,26.8438 16.473,2e-4 29.828,-12.0184 29.825,-26.8438 0,-14.8235 -13.354,-26.8395 -29.825,-26.8393 -0.09,-2e-4 -0.186,-2e-4 -0.262,0 z m -272.768,106.7781 c -20.949,6e-4 -37.933,17.1832 -37.93,38.3785 0,21.1953 16.981,38.3779 37.93,38.3788 20.948,-9e-4 37.931,-17.1835 37.931,-38.3788 0,-21.1953 -16.983,-38.3779 -37.931,-38.3785 z" color="#000" overflow="visible" fill="#FFFFFF" paint-order="fill markers stroke" transform="translate(142.99802,133.45839) matrix(0.38301229,0,0,0.38301229,-5413.4171,-2960.6337)"/>
    <path d="m 14687.53,9161.2532 c 0,-10.7547 9.969,-30.9894 18.06,-36.6561 5.565,-3.8978 5.672,-5.0655 1.557,-17.0105 -4.372,-12.6854 -46.64,-83.0666 -49.886,-83.0666 -0.927,0 -10.827,3.6668 -22.006,8.1487 -25.074,10.0543 -45.915,10.5856 -65.467,1.6691 -13.058,-5.9543 -28.962,-20.5588 -35.91,-32.9757 -2.551,-4.56 -5.728,-4.4207 -36.557,1.6033 -51.633,10.0889 -99.104,21.2076 -108.608,25.4376 -4.711,2.0959 -12.785,8.217 -17.947,13.6025 -11.824,12.3381 -29.064,16.2507 -40.007,9.0802 -12.323,-8.0735 -14.05,-26.055 -3.843,-40.0085 6.091,-8.3277 29.944,-10.4287 40.425,-3.5606 5.218,3.4181 11.738,4.7979 18.193,3.8495 66.322,-18.8167 89.959,-21.2388 135.024,-33.1847 5.595,0 6.332,-1.926 6.332,-16.5308 0,-18.8654 10.586,-42.3222 24.207,-53.6358 35.771,-20.0034 63.482,-23.2205 101.526,-13.877 l 27.685,-35.9814 c 33.63,-43.7124 49.6,-69.2241 44.415,-70.9523 -116.597,-52.8888 -36.29,-205.8104 39.142,-216.3737 8.951,-4.5461 18.724,-6.6072 31.335,-6.6072 20.72,0 20.84,-0.139 21.633,-24.714 0.908,-28.116 14.559,-156.2225 19.193,-180.1001 4.831,-24.8954 6.921,-23.4807 -31.876,-21.5713 -30.12,2.5486 -42.819,-1.7593 -67.212,-12.2552 l -13.206,11.9693 c -7.264,6.5831 -18.603,16.4866 -25.199,22.0078 -19.358,16.2009 -24.008,26.0657 -19.766,41.9267 5.137,19.1986 1.747,28.3198 -13.936,37.5104 -22.996,13.4762 -53.376,9.5578 -62.486,-8.059 -7.194,-13.9122 -5.618,-28.1819 4.092,-37.0268 14.752,-13.4375 24.856,-18.1314 39.022,-18.1314 7.564,0 14.216,-1.2087 14.784,-2.686 0.565,-1.4773 14.583,-14.051 31.149,-27.942 16.566,-13.8906 30.041,-26.2359 29.944,-27.434 -0.09,-1.1981 -6.919,-7.3109 -15.158,-13.584 -8.241,-6.2733 -21.681,-21.1369 -29.865,-33.0304 -8.185,-11.8934 -17.567,-22.3261 -20.847,-23.1841 -3.281,-0.8577 -13.742,0.5665 -23.249,3.1652 -9.506,2.5986 -43.565,11.4167 -75.687,19.5959 l -58.403,14.871 -0.47,28.8956 c -0.711,43.8555 -13.538,68.4731 -49.543,95.0944 -70.395,52.0492 -154.439,65.6039 -216.959,34.9912 l -16.383,-8.0223 -9.834,9.0225 c -5.407,4.9624 -15.46,15.2283 -22.344,22.813 -6.881,7.5847 -25.537,27.742 -41.455,44.7939 -28.243,30.2515 -96.81,110.7629 -98.627,115.8041 -0.5,1.3911 9.02,11.3553 21.159,22.1424 26.637,23.6749 32.902,35.1296 37.372,68.3275 3.955,29.4034 1.232,44.4329 -13.758,75.9005 -10.936,22.9589 -43.565,54.6617 -69.466,67.4924 -46.344,22.9573 -136.783,5.4328 -183.189,-35.496 -9.061,-7.9923 -17.416,-19.5257 -23.169,-31.9866 -8.287,-17.9468 -8.999,-22.2968 -8.999,-55.0139 0,-34.1428 0.396,-36.2818 10.132,-54.9254 13.105,-25.094 27.416,-40.6918 52.852,-57.6014 51.869,-34.4829 99.053,-39.4694 142.479,-15.0582 18.774,10.5538 18.582,10.6488 48.774,-24.1003 56.545,-65.0758 74.299,-85.2985 89,-101.3733 29.434,-32.187 53.732,-60.2543 53.605,-61.9246 -0.07,-0.9152 -8.207,-7.9197 -18.082,-15.5656 -32.958,-25.5159 -60.465,-68.716 -66.032,-103.7067 -3.631,-22.8234 -3.802,-23.1274 -14.55,-25.8468 -5.983,-1.5134 -23.39,-4.388 -38.682,-6.388 -30.192,-3.949 -84.359,-12.6812 -123.568,-19.9205 -13.594,-2.5095 -29.9,-4.6114 -36.24,-4.6707 -10.067,-0.095 -11.779,0.9676 -13.526,8.3878 -5.746,24.4005 -28.157,41.4823 -60.184,45.8722 -48.16,6.6009 -83.324,-41.4816 -61.255,-83.7612 19.666,-53.6726 113.541,-56.3693 120.232,3.0259 0,4.7884 9.187,7.1764 97.311,25.2935 25.213,5.1829 95.567,13.2806 116.159,13.3696 l 14.217,0.06 5.317,-20.8524 c 2.924,-11.4688 7.334,-26.5439 9.799,-33.5002 5.257,-14.843 35.706,-46.8187 51.966,-54.5725 6.087,-2.9022 11.066,-6.3605 11.066,-7.6848 0,-1.3246 -4.722,-9.4184 -10.491,-17.9861 -5.769,-8.568 -23.987,-41.9133 -40.486,-74.1006 -16.497,-32.1874 -30.245,-58.8046 -30.554,-59.1493 -0.305,-0.3448 -7.923,3.0189 -16.929,7.4751 -13.67,6.7652 -20.786,8.1426 -43.137,8.3497 -116.864,2.0079 -176.847,-95.0082 -156.627,-169.6113 22.938,-146.1313 234.017,-169.7337 285.59,-46.0277 8.114,20.0009 9.158,21.2081 17.581,20.3086 20.472,-2.1865 147.127,-42.0527 197.397,-62.1343 47.08,-18.806 44.796,-16.7511 44.796,-40.2856 -7.685,-59.3759 25.308,-122.127 81.549,-141.3895 -1.872,-1.3053 -5.714,-7.239 -8.533,-13.1859 -6.071,-12.8022 -59.583,-80.3201 -63.656,-80.3201 -32.156,21.8186 -76.818,20.4863 -88.411,-19.0801 l -7.829,-15.4486 -54.645,1.8948 c -69.71,2.4175 -108.319,4.7075 -117.545,6.9721 -4.011,0.9847 -11.705,6.6035 -17.097,12.4859 -11.941,13.0321 -32.087,16.8763 -47.277,9.0222 -11.918,-6.1633 -20.092,-22.8225 -17.516,-35.7002 2.345,-11.7288 20.141,-28.1095 30.535,-28.1095 20.769,3.5834 31.772,9.4054 42.391,25.6102 l 59.102,-1.9754 c 32.507,-1.0867 73.66,-3.5987 91.452,-5.5827 l 32.349,-3.607 17.078,-17.7683 c 23.181,-24.1167 39.863,-28.8485 70.073,-19.8769 37.199,18.5484 32.871,52.3362 22.685,78.7531 l 16.747,25.139 c 15.155,22.7506 41.318,52.9112 53.542,62.97 l 10.042,8.2612 c 77.777,-23.6837 130.475,11.8379 170.894,61.866 6.506,8.6058 12.423,27.0902 19.228,60.068 2.428,11.7721 23.51,14.2992 163.594,19.6105 42.476,1.6107 88.352,4.2646 101.945,5.8978 13.591,1.6332 43.479,3.7937 66.417,4.8011 22.938,1.0074 46.865,2.6028 53.169,3.5456 10.628,1.5892 11.603,1.0776 13.385,-7.0326 5.683,-25.8653 19.36,-47.9111 44.395,-71.5558 24.693,-23.3252 66.509,-40.68 98.017,-40.68 h 16.312 l 3.429,-13.1293 c 8.334,-31.922 24.436,-86.5819 25.954,-88.0976 0.915,-0.9149 -3.684,-7.4647 -10.22,-14.5554 -55.81,-75.0069 64.033,-101.1354 62.538,-31.2973 -0.312,13.5301 -2.171,19.6401 -8.489,27.9222 -4.446,5.8313 -11.216,11.0469 -15.044,11.5905 -9.534,1.354 -19.026,22.2031 -30.312,66.5913 -11.321,44.5113 -11.446,49.533 -1.295,52.08 38.245,16.8447 67.066,31.2864 80.518,64.004 22.852,56.3707 16.589,88.2776 -25.556,130.2337 -18.579,18.4938 -53.359,35.4495 -77.578,37.8209 -9.685,0.9483 -19.152,2.9342 -21.037,4.4131 -6.349,4.9795 -11.402,50.4791 -18.524,166.7839 l -2.011,32.8388 11.475,3.7868 c 24.641,8.1322 41.835,30.9403 41.835,55.4916 0,10.3238 1.163,12.6646 6.951,13.9948 53.873,9.9616 77.8,16.9103 87.841,11.459 9.908,-5.3903 24.337,-4.4858 37.773,2.3679 12.421,6.3375 15.605,12.6771 15.677,31.214 0.07,17.0343 -5.811,22.6308 -23.763,22.6308 -19.847,0 -35.405,-8.7698 -39.406,-22.2138 -2.442,-8.1985 -5.202,-10.5485 -15.447,-13.1576 -26.603,-8.341 -56.445,-14.7287 -79.089,-19.4279 l -13.032,12.6319 c -48.823,41.0384 -95.734,23.7061 -114.399,-12.2401 -4.249,-8.7738 -6.197,-9.7981 -19.638,-10.318 -17.136,-0.6631 -126.87,9.7195 -134.774,12.7517 -4.406,1.6913 -5.287,6.6023 -5.419,30.2639 -0.313,55.6416 -6.186,80.7446 -24.223,103.5154 -22.361,28.2278 -63.63,49.9887 -115.977,61.153 -16.098,3.4333 -16.042,3.2071 -27.787,110.7157 -10.595,96.9853 -9.969,134.1296 2.359,139.7866 17.681,0.3344 64.165,39.2301 67.694,54.9159 l 5.396,10.4049 16.228,-4.638 c 14.522,-4.1501 58.908,-18.5049 152.155,-49.2079 16.99,-5.5945 43.213,-14.0212 58.268,-18.7259 15.058,-4.7045 28.987,-10.1649 30.957,-12.1336 1.969,-1.9689 6.631,-5.2128 10.361,-7.2086 l 6.78,-3.6293 -10.756,-20.8004 c -13.674,-26.4436 -18.621,-52.0906 -13.788,-71.482 4.324,-17.3387 14.97,-36.0011 27.134,-47.5612 107.348,-83.4174 232.59,-27.692 190.704,105.1509 -4.571,16.2277 -8.408,22.2376 -24.339,38.1232 -10.403,10.3722 -22.778,20.8741 -27.5,23.338 -8.19,4.2735 -8.491,5.2186 -6.55,20.572 1.119,8.8511 5.406,29.2994 9.525,45.4405 4.117,16.1414 8.705,35.6036 10.19,43.2495 12.324,63.3847 23.985,92.4543 38.892,96.9515 24.782,7.4769 29.687,15.6214 29.541,49.0457 -0.07,16.8487 -1.092,20.1459 -8.082,26.1732 -4.397,3.7928 -15.298,9.0189 -24.223,11.6131 -14.558,4.2321 -17.864,4.2305 -32.159,-0.023 -8.971,-2.6641 -20.058,-8.8556 -25.371,-14.1676 -8.114,-8.1141 -9.436,-11.6961 -9.436,-25.5836 0,-12.6256 2.018,-19.3276 9.242,-30.7215 5.083,-8.0152 12.729,-15.8988 16.992,-17.5193 8.955,-3.4047 9.418,-6.8544 3.267,-24.2876 -2.463,-6.984 -6.024,-23.9793 -7.912,-37.7679 -1.889,-13.7882 -6.678,-36.3996 -10.647,-50.2475 -3.966,-13.8478 -10.252,-38.4953 -13.971,-54.7719 l -6.756,-29.5944 -23.684,1.3452 c -19.154,1.088 -27.226,0.032 -42.216,-5.5164 -25.306,-9.3671 -35.866,-9.3057 -66.42,0.3867 -89.315,28.3347 -128.487,41.1234 -154.463,50.4282 -16.139,5.7821 -43.326,14.8532 -60.411,20.1575 l -31.066,9.6445 1.328,27.7672 c 1.013,21.1918 0.09,31.0261 -3.927,41.5289 -8.737,22.8781 -44.606,51.3427 -83.553,66.3099 -3.399,1.3058 -10.067,3.9374 -14.819,5.8479 -12.486,5.0194 -50.901,4.2662 -69.879,-1.37 -8.973,-2.6642 -16.645,-4.4019 -17.053,-3.8616 -0.405,0.5403 -5.41,7.9331 -11.121,16.4286 -5.709,8.4955 -20.697,29.3479 -33.306,46.3386 -32.36,43.61 -31.922,42.0641 -16.204,57.3195 28.445,27.6041 29.432,60.0766 2.685,88.2834 -7.324,7.7251 -8.549,10.8397 -6.08,15.4463 10.195,19.0157 43.019,72.0919 49.418,79.9116 7.523,9.1919 21.066,16.6786 32.949,18.2152 3.397,0.4395 8.635,1.8923 11.64,3.2284 46.626,-8.9781 95.912,-38.35 136.644,-53.6837 53.623,-20.1666 59.302,-23.5495 61.741,-36.7697 3.374,-18.281 22.414,-34.4799 40.528,-34.4799 10.76,0 30.567,20.3596 35.315,36.2982 4.511,15.1428 0.162,26.613 -13.165,34.744 -15.612,9.5221 -29.11,10.9739 -42.127,4.5312 -6.181,-3.0599 -14.717,-5.2314 -18.964,-4.8254 -69.401,16.927 -123.96,46.1113 -186.874,72.9223 l 0.989,11.4827 c 1.335,15.5056 -8.653,32.128 -26.153,41.7711 -30.192,16.1554 -71.229,6.6945 -72.172,-32.3868 z m 77.705,-15.4877 c 0,-8.2323 -16.288,-16.2114 -28.746,-16.2114 -9.28,0 -13.777,2.2505 -22.551,11.2863 -12.991,13.3765 -14.467,26.2899 -4.245,37.1702 50.236,17.7827 57.367,-10.985 55.542,-32.2451 z m 260.708,-94.8466 c 8.544,-8.5457 9.112,-12.4326 3.334,-22.8526 -5.318,-9.5865 -29.562,-12.3561 -36.724,-4.1948 -7.924,9.0293 -9.379,18.8594 -4.006,27.0583 6.988,10.666 26.724,10.6604 37.396,-0.023 z m -672.084,-18.6364 c 4.502,-5.4226 2.041,-13.941 -4.024,-13.941 -5.897,0 -15.526,11.2503 -13.054,15.2516 2.947,4.7678 12.653,4.0232 17.078,-1.3106 z m 281.319,-17.8012 c 114.594,-53.959 -8.665,-151.7833 -74.264,-89.1541 -12.023,12.0234 -15.014,17.2961 -16.884,29.7635 -1.983,13.2213 -1.448,15.8188 4.196,20.3887 7.086,5.7375 8.265,12.0261 3.205,17.0865 -4.317,4.3166 10.412,21.9742 23.19,27.8015 13.1,5.9744 39.668,3.392 60.557,-5.8861 z m -631.375,-161.4407 c 25.132,-10.5006 56.024,-41.1997 69.916,-69.4813 9.08,-18.4819 9.845,-22.4158 9.615,-49.428 -0.312,-37.1566 -4.149,-45.8652 -32.196,-73.075 -18.813,-18.2533 -24.003,-21.5769 -37.923,-24.2912 -13.167,-2.5672 -16.311,-4.4121 -17.118,-10.0469 -1.369,-9.5641 -8.978,-12.8133 -35.196,-15.0295 -20.09,-1.6983 -24.974,-0.9557 -44.128,6.7069 -41.68,16.6747 -73.378,43.2925 -89.997,75.5757 -7.952,15.4465 -8.753,19.939 -8.807,49.4277 -0.05,27.7291 0.976,34.5415 7.081,46.9343 16.907,34.3237 56.941,59.638 106.859,67.5703 21.376,3.3968 58.067,0.9149 71.894,-4.863 z m 1390.39,-9.2573 c 10.47,-12.1259 9.46,-28.844 -2.365,-39.2217 -12.162,-10.6716 -24.91,-13.3648 -36.031,-7.613 -13.795,7.1334 -20.134,16.1694 -21.816,31.0932 -1.471,13.055 -0.969,14.213 8.86,20.3967 14.807,9.3161 41.371,6.9081 51.352,-4.6552 z m -570.736,-57.7699 c 19.759,-5.8553 52.814,-24.919 66.834,-38.5449 25.363,-24.6496 31.026,-48.3643 19.662,-82.3321 -8.585,-25.657 -24.178,-45.1436 -49.972,-62.4499 -35.261,-23.6581 -68.062,-29.6933 -92.573,-17.0331 -66.716,25.3588 -133.636,134.4862 -25.136,189.0376 8.5,-0.7321 10.903,0.3374 12.24,5.4471 1.603,6.1292 3.385,6.7886 28.786,10.653 9.448,1.4375 25.717,-0.4981 40.159,-4.7777 z m 480.376,-219.8211 c 24.863,-6.657 52.847,-27.76 62.872,-47.4097 3.464,-6.7886 7.936,-21.7474 9.937,-33.2419 5.343,-44.9526 -23.222,-94.7485 -71.057,-93.6146 -40.174,1.708 -78.602,9.937 -100.469,31.8049 -16.808,16.8077 -24.219,35.9354 -22.63,58.3994 2.074,29.2911 13.313,48.8599 43.014,74.9017 14.807,12.9846 49.084,16.9926 78.333,9.1602 z m -939.024,-132.2478 c 30.336,-9.0733 76.855,-37.6406 92.617,-56.8771 17.154,-20.9333 24.249,-39.6404 24.33,-64.1385 -7.074,-42.5613 -26.228,-97.7181 -53.292,-130.7476 -63.831,-61.8409 -157.989,-53.7701 -211.241,-25.9589 -2.957,3.5197 -8.992,6.3996 -13.415,6.3996 -11.383,0 -35.491,19.9659 -48.765,40.3869 -13.642,20.9863 -23.767,57.9212 -24.186,88.2329 -0.257,18.5797 1.2,25.2594 9.286,42.5374 5.276,11.2733 15.788,28.5488 23.359,38.3899 14.792,19.2227 44.136,43.7706 52.324,43.7706 2.757,0 6.473,2.7288 8.257,6.0638 2.025,3.7845 12.227,9.0275 27.138,13.9477 20.994,6.926 27.836,7.7337 56.332,6.6496 22.296,-0.8482 40.196,-3.5544 57.256,-8.6563 z m 280.344,-3.677 c 22.254,-9.4187 26.033,-25.2874 8.218,-34.5002 -7.778,-4.0222 -10.384,-4.0757 -19.089,-0.3925 -21.3,9.0138 -27.363,29.2684 -10.76,35.949 9.388,3.7778 10.317,3.7326 21.631,-1.0563 z m 179.662,-110.5022 c 77.496,-14.476 104.938,-25.1209 135.897,-52.7127 24.48,-21.8193 29.701,-33.6319 33.09,-74.8911 2.496,-62.4037 -17.968,-113.4258 -59.343,-139.9799 -60.162,-35.7335 -116.352,-25.0553 -171.659,-3.4033 -40.329,15.9059 -50.445,21.2546 -64.501,34.1022 -30.385,27.7677 -42.857,67.9409 -35.941,115.7649 2.086,14.4315 4.979,28.5645 6.428,31.4065 1.448,2.8419 4.045,8.6426 5.771,12.8905 5.762,14.1798 30.317,44.6901 43.076,53.5231 41.682,22.6191 58.362,31.9521 107.182,23.2998 z m -991.459,-30.805 c 25.998,-7.1021 41.705,-26.5008 41.705,-51.5149 -8.427,-41.3755 -48.843,-53.7903 -82.932,-24.2802 -23.151,21.1165 -19.743,61.197 6.295,74.0287 12.108,5.967 18.389,6.2846 34.932,1.7664 z m 699.759,-27.5448 c 22.913,-5.1316 59.474,-14.9512 81.248,-21.8213 l 39.59,-12.4915 -2.169,-9.8433 c -11.29,-51.2533 -3.374,-101.476 20.544,-130.3238 17.317,-20.8865 34.562,-32.5724 66.005,-44.7279 14.536,-5.6197 26.429,-11.526 26.429,-13.1249 0,-10.5972 -99.721,-212.4556 -104.957,-212.4556 -1.425,0 -12.104,4.3127 -23.732,9.584 -15.521,7.3878 -64.856,15.2449 -76.229,6.0699 -4.595,-4.595 -11.33,-4.1204 -11.33,0.7984 -28.876,40.4846 -39.221,61.6248 -55.674,93.2157 -31.934,70.4425 -85.738,141.6691 -104.966,208.2554 0,1.6176 3.091,3.9223 6.87,5.1215 14.154,4.4921 38.556,23.4926 50.305,39.1675 14.189,18.9326 36.529,61.1327 41.964,79.2742 2.081,6.9474 3.932,12.6317 4.115,12.6317 0.185,0 19.075,-4.1985 41.987,-9.33 z m 904.991,-98.5905 c 5.352,-9.9999 3.67,-14.2375 -7.215,-18.1738 -12.952,-4.6832 -19.949,-2.2018 -22.504,7.9798 -1.423,5.6672 -0.39,9.023 3.705,12.0163 8.445,6.1743 22.254,5.2073 26.014,-1.8223 z m -149.375,-57.6188 c 3.401,-55.4064 -71.602,-63.6669 -91.76,-29.2953 -22.476,23.1716 -22.309,38.9671 0.647,61.4126 26.142,23.0842 81.211,1.9677 91.113,-32.1173 z m -948.173,12.3279 c 33.433,10.1804 29.721,13.0237 60.11,-46.0446 37.595,-82.7111 86.834,-160.4759 120.93,-244.0499 1.592,-8.7455 0.524,-9.9276 -18.948,-20.9728 -12.901,-7.3185 -25.766,-17.927 -34.335,-28.309 -19.035,-23.0659 -24.211,-23.3762 -80.441,-4.8192 -80.717,26.6382 -162.224,51.994 -174.602,54.3158 -6.677,1.253 -13.567,3.8023 -15.31,5.6654 -1.74,1.8632 -2.954,13.6427 -2.694,26.1771 -0.529,67.4398 -27.044,87.8731 -59.921,115.2258 l -9.99,8.2673 5.743,11.8126 c 48.737,100.2316 75.032,144.8665 83.296,141.3937 39.803,-12.4876 92.571,-28.802 126.162,-18.6622 z m 742.395,-9.261 c 28.035,-2.7085 52.363,-6.0034 54.061,-7.322 1.701,-1.3188 8.2,-3.3176 14.446,-4.442 9.55,-1.7196 12.393,-4.1878 17.884,-15.5304 7.702,-15.908 30.056,-34.3582 47.785,-39.4394 6.909,-1.9805 12.9,-3.804 13.313,-4.0519 3.626,-2.1772 11.724,-65.6402 16.163,-126.6385 1.605,-22.088 3.818,-46.4549 4.914,-54.1485 l 1.995,-13.9885 -18.628,-3.8477 c -17.296,-3.1395 -28.638,-12.0332 -43.76,-19.0248 l -60.592,61.5803 c -33.325,33.8691 -62.182,63.4825 -64.126,65.8075 -1.944,2.3248 -15.853,15.2482 -30.908,28.7184 -22.653,20.2664 -47.995,48.0024 -69.202,75.7356 11.921,18.6841 35.403,32.4773 40.495,63.798 6.24,-0.6691 48.125,-4.4974 76.16,-7.2061 z m -78.125,-126.5516 c 45.083,-41.8473 122.45,-121.1961 147.042,-150.8069 l 20.204,-24.328 -12.004,-15.185 c -6.601,-8.3518 -15.023,-23.4698 -18.714,-33.5952 -5.855,-16.0566 -7.748,-18.4161 -14.796,-18.4553 -4.444,-0.025 -13.946,-2.0885 -21.117,-4.5864 -7.168,-2.4978 -24.545,-5.2541 -38.616,-6.1252 -29.712,-1.8397 -59.985,-4.8202 -68.829,-6.7764 -3.396,-0.7518 -39.541,-2.5968 -80.319,-4.1 -40.778,-1.5032 -98.05,-3.6883 -127.271,-4.8558 l -53.129,-2.1228 -1.502,7.3549 c -0.825,4.0453 -2.266,11.9389 -3.202,17.541 -2.676,16.0413 -27.587,48.0107 -49.584,63.6322 -6.013,4.2712 -5.999,4.5087 1.374,20.8574 16.042,35.5781 77.976,158.687 90.096,179.0902 12.347,20.7798 13.151,21.4795 22.404,19.4728 49.55,-16.9963 92.68,-13.5587 131.625,10.859 7.646,4.936 15.593,9.084 17.658,9.2177 22.715,-12.5056 41.549,-41.1274 58.68,-57.0882 z m -910.701,-1.4697 c 83.632,-34.2238 112.417,-139.9796 54.603,-206.3958 -85.724,-75.4089 -202.764,-25.8275 -234.916,65.8191 -18.492,71.2468 28.929,120.0228 81.625,141.4662 41.024,16.4453 66.596,16.2148 98.688,-0.8895 z m 1220.646,-163.7187 c 11.713,-3.4026 26.186,-10.5281 34.425,-16.9471 96.093,-69.4746 21.995,-171.4364 -47.119,-180.6703 -3.081,0 -6.462,-1.3902 -7.514,-3.0892 -3.501,-5.6651 -29.223,-3.1844 -54.916,5.2963 -56.301,19.2243 -91.827,80.8407 -77.941,129.7006 30.131,67.9546 91.516,82.8168 153.065,65.71 z m -676.508,-9.7635 c 27.027,-13.3942 55.289,-37.5686 66.716,-57.0667 10.106,-17.2463 12.919,-47.7142 7.326,-79.3606 -5.285,-29.8993 -10.232,-38.1318 -36.432,-60.6177 -39.042,-42.8131 -111.305,-45.1416 -150.097,-19.6146 -50.913,33.2984 -67.801,75.0868 -68.234,119.9384 -0.139,21.7993 0.883,26.4897 8.689,39.7727 15.28,25.9945 28.352,37.7291 58.514,52.5195 43.81,20.5808 77.056,22.3732 113.518,4.429 z m -208.003,-337.8318 c 35.91,-15.2401 25.273,-65.2021 1.235,-72.3469 -25.349,-6.8254 -56.89,17.5605 -56.531,43.7045 5.647,37.6344 31.358,40.4105 55.296,28.6424 z m 916.379,-0.9052 c 2.831,-3.1288 5.479,-11.0194 5.885,-17.5343 -2.507,-45.3451 -58.811,-13.6333 -32.766,17.5736 6.577,7.2694 20.284,7.2493 26.881,-0.039 z m -1198.762,-12.2434 c 9.836,-10.2656 10.58,-19.2092 2.227,-26.7691 -18.693,-16.9155 -43.904,7.6855 -29.277,28.5677 6.536,9.3294 17.06,8.6294 27.05,-1.7986 z" fill="#000000" transform="translate(142.99802,133.45839) matrix(0.38301229,0,0,0.38301229,-5413.4171,-2960.6337)"/>
</svg>