<?xml version="1.0" ?><svg xmlns="http://www.w3.org/2000/svg" viewBox="0 0 82.019287 174.78671" height="174.78671mm" width="82.019287mm">
    <path d="m 11887.528,3992.2083 c -29.281,-0.3753 -57.227,21.8402 -92.156,58.6264 -42.093,50.6681 32.157,192.5849 126.983,78.3863 48.446,-58.3429 33.005,-110.5506 -7.323,-130.0873 -9.451,-4.5789 -18.541,-6.8105 -27.504,-6.9254 z m -21.493,227.3121 c -42.534,0.046 -62.656,38.61 -64.399,57.1737 -2.03,21.6015 -14.472,151.5277 -14.649,196.8749 9.509,10.4826 106.802,45.7243 159.105,13.0236 47.829,-224.1946 0.795,-247.304 -57.358,-263.7434 -8.178,-2.3117 -15.739,-3.3362 -22.699,-3.3288 z" color="#000" overflow="visible" fill="#FFFFFF" paint-order="fill markers stroke" transform="translate(151.84358,44.918062) matrix(0.26458333,0,0,0.26458333,-3239.6991,-1060.8048)"/>
    <path d="m 11938.001,4483.5253 c 4.456,-10.1451 6.554,-21.5521 8.98,-31.7482 5.138,-21.5831 6.281,-27.0834 9.304,-44.7598 7.562,-44.2301 6.84,-77.7108 -2.581,-119.7793 -4.722,-20.6242 -13.455,-32.586 -30.609,-44.0551 -20.963,-11.605 -53.915,-19.9125 -78.285,-10.5039 -19.991,8.6225 -23.878,12.613 -32.877,33.7552 -2.827,6.6425 -6.106,27.3272 -6.131,38.6723 -0.01,3.6947 -0.281,9.5546 -0.605,13.0219 -1.212,12.9147 -4.433,57.4879 -5.739,79.4326 -0.301,20.4594 -4.349,40.9695 -3.57,61.4366 0.394,9.551 -2.894,15.6405 -11.331,14.2586 -9.17,-1.5492 -9.226,-1.6919 -7.889,-20.2183 0.651,-9.0149 1.809,-26.6036 2.574,-39.0859 1.402,-22.8702 2.147,-34.1345 5.741,-86.8235 1.082,-15.8538 1.666,-29.127 1.296,-29.496 -24.314,27.17 -52.808,57.0102 -81.852,72.0173 -14.669,9.867 -29.189,-2.0246 -33.207,-15.4075 -2.605,-10.3778 3.89,-51.3842 11.612,-73.3085 1.587,-4.5076 4.945,-14.153 7.462,-21.4343 14.408,-34.8253 26.516,-62.5798 43.254,-91.4409 2.819,-4.8709 6.529,-10.261 8.244,-11.978 1.714,-1.7169 4.227,-5.1075 5.583,-7.5347 1.357,-2.4271 3.267,-4.4893 4.246,-4.5826 0.978,-0.094 2.788,-0.2352 4.023,-0.3153 2.03,-0.1315 1.97,-0.5171 -0.63,-4.0505 -2.557,-3.4738 -2.84,-5.1441 -2.557,-15.1188 0.211,-7.4392 0.924,-11.96 2.121,-13.4313 8.872,-10.9137 13.825,-16.1923 18.233,-19.4344 4.134,-3.0401 5.184,-4.6074 5.22,-7.794 0.09,-7.9059 5.867,-27.608 9.822,-33.4934 4.363,-7.1761 8.171,-15.1761 13.35,-21.2543 2.441,-2.826 2.44,-2.8732 -0.134,-6.3539 -3.711,-5.0189 -4.763,-10.8022 -2.332,-12.8195 2.53,-2.0992 9.171,-0.8011 12.656,2.4738 2.634,2.473 2.65,2.4699 7.35,-1.4044 5.594,-4.6115 24.364,-14.9085 32.371,-17.7597 12.805,-4.5589 24.771,-6.4076 37.441,-5.784 10.762,0.5297 13.407,1.1378 20.428,4.6964 9.629,4.9988 21.291,3.5786 29.891,10.0475 14.634,13.3366 18.403,24.6466 18.811,41.4314 0.376,17.2786 -3.35,38.3297 -9.759,55.1356 -9.128,23.9386 -28.805,50.36 -46.378,62.2727 -7.196,4.8784 -23.177,12.9646 -26.477,13.3976 -1.04,0.1365 -4.374,0.9396 -7.407,1.7849 -3.033,0.8452 -10.976,1.6025 -17.652,1.6827 -11.445,0.1376 -12.766,-0.128 -23.202,-4.6676 -6.086,-2.6474 -13.633,-6.7734 -16.769,-9.1687 -9.232,-7.0488 -19.628,-9.1142 -29.475,-5.8561 -3.088,1.0219 -6.908,1.5335 -8.487,1.1371 -3.509,-0.8807 -6.918,-7.0803 -6.43,-11.6948 0.236,-2.2432 -0.297,-3.5354 -1.569,-3.7985 -1.53,-0.3165 -1.831,0.6214 -1.457,4.5365 0.516,5.4127 -0.924,8.3998 -11.682,24.2438 -19.492,32.8378 -34.58,66.9336 -45.502,100.7647 -7.305,19.3895 -12.259,39.7735 -14.461,59.992 -2.933,28.2776 4.431,27.9286 36.492,-1.7291 30.01,-27.7607 63.032,-62.771 62.179,-65.9235 2.722,-3.4557 5.428,-8.0192 7.151,-11.5672 5.46,-11.3202 12.862,-20.1858 21.16,-25.3466 23.1,-13.2406 42.805,-16.3027 62.035,-15.3835 10.207,0.442 18.971,1.605 25.218,3.3463 17.06,4.7558 35.215,14.6161 44.921,24.397 3.625,3.6541 12.268,14.662 14.137,18.0075 9.505,21.8151 12.97,46.9629 15.302,64.6405 2.82,34.6898 -0.184,69.4367 -6.894,101.2048 -3.05,15.9273 -6.933,33.8189 -10.909,47.8271 -3.954,13.9034 -4.489,14.9653 -9.286,18.44 -13.208,8.8275 -19.35,3.3385 -14.483,-7.7488 z m -66.335,-324.5373 c 10.088,-3.6973 12.298,-4.9358 22.317,-12.5069 9.092,-6.8706 17.015,-15.984 27.254,-31.3473 5.57,-8.3598 13.378,-26.3647 16.205,-37.3742 2.263,-8.8075 4.173,-27.3366 3.687,-35.7543 -0.231,-10.9919 -4.305,-25.7767 -19.125,-34.3884 -1.578,-0.8838 -7.534,-3.0805 -13.236,-4.8818 -9.088,-2.8709 -11.844,-3.1948 -22.348,-2.6257 -10.852,0.5881 -22.219,3.051 -28.056,6.0784 -5.025,2.6068 -6.949,3.5384 -13.699,6.6343 -3.893,1.7859 -10.303,5.8733 -14.244,9.0832 -7.164,5.8355 -7.164,5.8365 -6.331,11.3942 0.618,4.1172 0.299,6.375 -1.23,8.7081 -2.479,3.7836 -6.5,4.1242 -7.414,0.6281 -1.034,-3.9535 -2.576,-3.0343 -6.873,4.0977 -10.182,16.8981 -17.463,37.7506 -10.884,31.1722 2.13,-2.1305 13.454,-2.8869 20.523,-1.371 10.169,2.1809 22.435,8.5415 23.328,12.0963 0.875,3.4889 -0.177,6.8771 -2.223,7.1573 -4.755,0.6509 -8.376,0.5718 -8.376,-0.183 0,-1.5537 -5.761,-3.5478 -12.73,-4.407 -5.87,-0.7236 -8.034,-0.3182 -15.639,2.9298 -6.422,2.7427 -8.935,4.4856 -9.228,6.3986 -0.328,2.1389 0.259,2.6289 3.152,2.6275 6.256,0 26.167,5.284 28.606,7.5957 2.674,2.5329 3.161,11.6207 0.778,14.4924 -1.115,1.343 -0.851,2.0929 1.183,3.3631 3.895,2.4322 3.627,10.1631 -0.444,12.8304 -2.825,1.8511 -3.481,1.8236 -8.511,-0.3576 -2.997,-1.2997 -7.426,-2.7787 -9.842,-3.2865 l -4.393,-0.9233 4.393,4.9578 c 6.023,6.7974 12.876,11.915 23.306,17.4035 8.747,4.6033 8.924,4.6377 19.92,3.8651 7.205,-0.5063 14.279,-1.9463 20.174,-4.1067 z m -7.892,-115.6247 c -2.634,-4.9242 -0.687,-9.0582 6.57,-13.9456 7.653,-5.1535 12.541,-5.6723 15.372,-1.6314 1.079,1.5411 1.962,3.5063 1.962,4.3668 0,0.8607 -3.433,4.4223 -7.629,7.9149 -8.775,7.3013 -13.607,8.2799 -16.275,3.2953 z m -23.534,-10.5183 c -0.779,-0.5096 -1.819,-2.7819 -2.312,-5.0499 -0.769,-3.5488 -0.368,-4.6151 2.884,-7.6532 2.079,-1.9414 6.77,-4.4956 10.424,-5.6759 l 6.644,-2.1462 3.552,3.8883 c 1.953,2.1385 3.552,4.369 3.552,4.9569 0,1.0646 -20.546,12.6623 -22.368,12.6256 -0.526,-0.011 -1.596,-0.4362 -2.376,-0.9456 z m -51.538,106.8751 c 0.442,-0.7121 -0.592,-1.2608 -2.371,-1.2608 -1.734,0 -3.504,0.5673 -3.932,1.2608 -0.44,0.712 0.593,1.2608 2.373,1.2608 1.734,0 3.502,-0.5674 3.93,-1.2608 z m 23.326,-17.6517 c 0,-0.6934 -0.992,-1.2522 -2.206,-1.2415 -1.885,0.016 -1.931,0.1969 -0.315,1.2415 2.38,1.5377 2.521,1.5377 2.521,0 z m -5.674,-1.2608 c -0.428,-0.6936 -1.346,-1.261 -2.039,-1.261 -0.694,0 -0.911,0.5674 -0.482,1.261 0.428,0.6934 1.346,1.2608 2.04,1.2608 0.694,0 0.911,-0.5674 0.481,-1.2608 z m -4.753,-0.7619 c -0.419,-0.4188 -1.507,-0.4637 -2.417,-0.099 -1.006,0.4025 -0.708,0.7014 0.762,0.7619 1.328,0.055 2.073,-0.2434 1.655,-0.6622 z m 91.713,-152.1272 c -6.14,-7.0414 -8.13,-16.7539 2.244,-17.2819 8.267,0.4646 13.746,2.91 10.589,9.5558 -2.253,7.3431 -5.631,12.5696 -12.833,7.7261 z m -3.633,-53.4878 c 0.711,-3.8572 3.168,-7.0748 12.366,-16.1999 14.695,-14.5773 19.379,-20.3471 20.905,-25.7496 0.891,-6.5261 -1.87,-13.2232 -8.257,-16.4842 -5.98,-2.854 -14.399,4.5115 -17.102,7.5282 -2.359,2.6874 -4.005,3.5149 -5.97,3.0011 -3.321,-0.8685 -9.001,-7.3897 -8.951,-10.2758 0.06,-3.4687 7.2,-10.2682 14.206,-13.5299 9.089,-4.2317 21.855,-4.0835 26.906,-0.2426 10.792,8.2066 23.614,24.2824 13.995,40.9814 -1.994,3.4612 -6.033,10.0079 -14.386,17.9421 -4.733,4.496 -10.461,10.3783 -12.728,13.0713 -3.807,4.5234 -4.058,5.3682 -3.3,11.0847 0.657,4.9615 0.374,6.6817 -1.433,8.678 -9.051,7.8568 -17.389,-12.4658 -16.251,-19.8048 z" fill="#000000" transform="translate(151.84358,44.918062) matrix(0.26458333,0,0,0.26458333,-3239.6991,-1060.8048)"/>
</svg>