<?xml version="1.0" encoding="UTF-8" standalone="no"?>
<!DOCTYPE svg PUBLIC "-//W3C//DTD SVG 1.1//EN"
 "http://www.w3.org/Graphics/SVG/1.1/DTD/svg11.dtd">
<!-- Generated by graphviz version 2.43.0 (0)
 -->
<!-- Title: G Pages: 1 -->
<svg width="494pt" height="148pt"
 viewBox="0.00 0.00 494.20 148.20" xmlns="http://www.w3.org/2000/svg" xmlns:xlink="http://www.w3.org/1999/xlink">
<g id="graph0" class="graph" transform="scale(1 1) rotate(0) translate(21.6 126.6)">
<title>G</title>
<polygon fill="#111111" stroke="transparent" points="-21.6,21.6 -21.6,-126.6 472.6,-126.6 472.6,21.6 -21.6,21.6"/>
<!-- bin/shared&#45;config.js -->
<g id="node1" class="node">
<title>bin/shared&#45;config.js</title>
<path fill="none" stroke="#c6c5fe" d="M126.33,-64C126.33,-64 7.67,-64 7.67,-64 3.83,-64 0,-60.17 0,-56.33 0,-56.33 0,-48.67 0,-48.67 0,-44.83 3.83,-41 7.67,-41 7.67,-41 126.33,-41 126.33,-41 130.17,-41 134,-44.83 134,-48.67 134,-48.67 134,-56.33 134,-56.33 134,-60.17 130.17,-64 126.33,-64"/>
<text text-anchor="middle" x="67" y="-48.8" font-family="Arial" font-size="14.00" fill="#c6c5fe">bin/shared&#45;config.js</text>
</g>
<!-- lib/index.js -->
<g id="node2" class="node">
<title>lib/index.js</title>
<path fill="none" stroke="#c6c5fe" d="M242.33,-64C242.33,-64 177.67,-64 177.67,-64 173.83,-64 170,-60.17 170,-56.33 170,-56.33 170,-48.67 170,-48.67 170,-44.83 173.83,-41 177.67,-41 177.67,-41 242.33,-41 242.33,-41 246.17,-41 250,-44.83 250,-48.67 250,-48.67 250,-56.33 250,-56.33 250,-60.17 246.17,-64 242.33,-64"/>
<text text-anchor="middle" x="210" y="-48.8" font-family="Arial" font-size="14.00" fill="#c6c5fe">lib/index.js</text>
</g>
<!-- bin/shared&#45;config.js&#45;&gt;lib/index.js -->
<g id="edge1" class="edge">
<title>bin/shared&#45;config.js&#45;&gt;lib/index.js</title>
<path fill="none" stroke="#757575" d="M134.37,-52.5C142.91,-52.5 151.53,-52.5 159.72,-52.5"/>
<polygon fill="#757575" stroke="#757575" points="159.84,-56 169.84,-52.5 159.84,-49 159.84,-56"/>
</g>
<!-- lib/parts/dependencies.js -->
<g id="node3" class="node">
<title>lib/parts/dependencies.js</title>
<path fill="none" stroke="#cfffac" d="M443.33,-105C443.33,-105 293.67,-105 293.67,-105 289.83,-105 286,-101.17 286,-97.33 286,-97.33 286,-89.67 286,-89.67 286,-85.83 289.83,-82 293.67,-82 293.67,-82 443.33,-82 443.33,-82 447.17,-82 451,-85.83 451,-89.67 451,-89.67 451,-97.33 451,-97.33 451,-101.17 447.17,-105 443.33,-105"/>
<text text-anchor="middle" x="368.5" y="-89.8" font-family="Arial" font-size="14.00" fill="#cfffac">lib/parts/dependencies.js</text>
</g>
<!-- lib/index.js&#45;&gt;lib/parts/dependencies.js -->
<g id="edge2" class="edge">
<title>lib/index.js&#45;&gt;lib/parts/dependencies.js</title>
<path fill="none" stroke="#757575" d="M250.25,-63.75C261.75,-66.97 274.36,-70.44 286,-73.5 293.53,-75.48 301.47,-77.5 309.31,-79.46"/>
<polygon fill="#757575" stroke="#757575" points="308.62,-82.9 319.17,-81.91 310.31,-76.11 308.62,-82.9"/>
</g>
<!-- lib/parts/scripts.js -->
<g id="node4" class="node">
<title>lib/parts/scripts.js</title>
<path fill="none" stroke="#cfffac" d="M420.83,-64C420.83,-64 316.17,-64 316.17,-64 312.33,-64 308.5,-60.17 308.5,-56.33 308.5,-56.33 308.5,-48.67 308.5,-48.67 308.5,-44.83 312.33,-41 316.17,-41 316.17,-41 420.83,-41 420.83,-41 424.67,-41 428.5,-44.83 428.5,-48.67 428.5,-48.67 428.5,-56.33 428.5,-56.33 428.5,-60.17 424.67,-64 420.83,-64"/>
<text text-anchor="middle" x="368.5" y="-48.8" font-family="Arial" font-size="14.00" fill="#cfffac">lib/parts/scripts.js</text>
</g>
<!-- lib/index.js&#45;&gt;lib/parts/scripts.js -->
<g id="edge3" class="edge">
<title>lib/index.js&#45;&gt;lib/parts/scripts.js</title>
<path fill="none" stroke="#757575" d="M250.09,-52.5C264.63,-52.5 281.61,-52.5 298.06,-52.5"/>
<polygon fill="#757575" stroke="#757575" points="298.21,-56 308.21,-52.5 298.21,-49 298.21,-56"/>
</g>
<!-- lib/parts/snapshots.js -->
<g id="node5" class="node">
<title>lib/parts/snapshots.js</title>
<path fill="none" stroke="#cfffac" d="M432.33,-23C432.33,-23 304.67,-23 304.67,-23 300.83,-23 297,-19.17 297,-15.33 297,-15.33 297,-7.67 297,-7.67 297,-3.83 300.83,0 304.67,0 304.67,0 432.33,0 432.33,0 436.17,0 440,-3.83 440,-7.67 440,-7.67 440,-15.33 440,-15.33 440,-19.17 436.17,-23 432.33,-23"/>
<text text-anchor="middle" x="368.5" y="-7.8" font-family="Arial" font-size="14.00" fill="#cfffac">lib/parts/snapshots.js</text>
</g>
<!-- lib/index.js&#45;&gt;lib/parts/snapshots.js -->
<g id="edge4" class="edge">
<title>lib/index.js&#45;&gt;lib/parts/snapshots.js</title>
<path fill="none" stroke="#757575" d="M250.3,-41.95C261.8,-38.89 274.4,-35.54 286,-32.5 294.52,-30.27 303.55,-27.92 312.38,-25.64"/>
<polygon fill="#757575" stroke="#757575" points="313.41,-28.98 322.22,-23.1 311.66,-22.21 313.41,-28.98"/>
</g>
</g>
</svg>
