<?xml version="1.0" standalone="no"?>
<!DOCTYPE svg PUBLIC "-//W3C//DTD SVG 20010904//EN"
 "http://www.w3.org/TR/2001/REC-SVG-20010904/DTD/svg10.dtd">
<svg version="1.0" xmlns="http://www.w3.org/2000/svg"
 width="442.000000pt" height="442.000000pt" viewBox="0 0 442.000000 442.000000"
 preserveAspectRatio="xMidYMid meet">
<metadata>
Created by potrace 1.14, written by Peter Selinger 2001-2017
</metadata>
<g transform="translate(0.000000,442.000000) scale(0.100000,-0.100000)"
fill="#000000" stroke="none">
<path d="M2618 4043 c-25 -29 -27 -38 -39 -118 -10 -73 -9 -83 30 -243 23 -92
45 -180 50 -197 5 -16 7 -75 5 -131 -3 -80 -9 -112 -27 -153 -41 -87 -95 -121
-162 -103 -27 8 -30 12 -28 48 1 21 3 84 6 139 2 55 7 138 12 185 l8 86 -37
32 c-39 34 -83 42 -92 17 -3 -8 8 -39 26 -70 31 -54 32 -57 21 -118 -6 -34
-10 -113 -9 -175 2 -143 -1 -146 -100 -136 -72 7 -72 7 -83 43 -6 20 -13 95
-16 166 -5 126 -4 133 25 211 17 46 33 113 36 155 4 41 9 97 12 125 3 40 0 56
-14 73 -17 22 -18 22 -34 4 -12 -13 -17 -46 -21 -123 -3 -67 -13 -129 -26
-170 -12 -36 -26 -78 -31 -95 -15 -47 -28 -185 -23 -240 3 -27 13 -66 23 -87
13 -27 15 -40 6 -47 -6 -5 -72 -12 -146 -16 -377 -18 -774 -65 -970 -115 -41
-11 -86 -22 -100 -26 -222 -55 -469 -152 -593 -232 -172 -111 -257 -236 -257
-377 0 -54 7 -78 46 -162 130 -280 224 -435 320 -534 l44 -45 -37 -15 c-20 -7
-49 -21 -64 -29 -160 -90 -225 -149 -286 -267 -38 -71 -43 -88 -43 -147 0 -68
21 -128 54 -155 9 -8 16 -18 16 -23 0 -19 47 -71 117 -129 72 -59 90 -70 188
-122 98 -51 359 -146 460 -168 33 -7 68 -16 77 -21 9 -4 50 -15 90 -24 40 -9
114 -25 163 -35 113 -25 279 -53 415 -70 119 -15 629 -18 865 -6 227 12 491
37 511 50 5 3 32 7 60 10 83 9 246 37 257 44 6 3 42 14 81 24 261 63 410 123
575 228 114 74 184 145 224 231 26 54 31 77 32 140 0 67 -4 84 -34 143 -39 76
-116 155 -223 227 -37 25 -68 50 -68 57 0 7 23 43 51 80 28 37 62 91 76 118
13 28 49 91 79 140 60 98 134 247 158 316 20 57 20 123 1 139 -8 7 -15 19 -15
27 0 38 -90 164 -184 258 -97 96 -108 104 -262 182 -136 69 -181 86 -290 112
-71 18 -156 39 -189 48 -91 24 -134 32 -200 38 -33 3 -76 10 -95 15 -30 8 -95
18 -310 46 -25 3 -48 8 -52 11 -5 2 1 22 12 44 57 110 62 314 14 489 -15 52
-36 131 -49 176 -23 84 -23 134 1 169 19 27 17 59 -4 79 -18 15 -20 15 -34 -1z
m-479 -1067 c12 -15 11 -97 -1 -89 -5 2 -8 -5 -8 -16 0 -25 -19 -29 -220 -41
-276 -16 -532 -44 -645 -70 -22 -5 -88 -19 -147 -30 -125 -24 -479 -138 -535
-172 -21 -13 -65 -37 -97 -53 -111 -56 -199 -155 -226 -255 -10 -39 -32 -30
-63 25 -33 60 -31 102 9 185 24 49 104 140 123 140 5 0 26 14 47 31 32 26 144
84 229 119 87 36 316 110 390 126 65 13 336 54 425 64 58 6 119 13 135 15 17
2 91 9 165 15 74 7 137 14 139 16 2 2 64 4 136 4 101 0 135 -3 144 -14z m187
2 c4 -7 -7 -24 -28 -42 -20 -17 -43 -46 -53 -64 -12 -25 -22 -32 -38 -30 -15
2 -21 9 -19 23 1 11 5 38 8 60 3 22 7 46 10 53 5 16 110 16 120 0z m117 -23
c-7 -72 -17 -116 -29 -126 -14 -11 -77 -3 -72 10 26 63 76 141 88 138 8 -1 14
-11 13 -22z m367 -6 c167 -20 273 -36 410 -64 41 -8 91 -18 110 -21 52 -9 326
-101 395 -133 113 -51 130 -61 190 -104 75 -53 213 -184 222 -212 4 -11 6 -27
5 -36 -2 -8 8 -20 21 -26 20 -9 23 -17 19 -39 -3 -14 -13 -29 -23 -31 -10 -3
-21 -15 -25 -26 -7 -24 -63 -87 -77 -87 -4 0 -21 28 -37 63 -24 53 -91 134
-142 172 -7 6 -30 22 -50 38 -84 62 -302 158 -488 213 -255 76 -411 106 -762
150 -86 10 -93 18 -73 79 9 28 27 59 39 71 26 23 13 23 266 -7z m-830 -258 c6
-13 -2 -32 -35 -76 -52 -68 -65 -113 -41 -130 25 -19 19 -41 -19 -73 l-35 -29
25 -11 c14 -6 25 -16 25 -22 0 -5 6 -10 13 -10 8 0 13 18 14 51 4 95 58 220
124 287 27 27 39 32 68 30 l36 -3 -3 -90 c-3 -68 2 -111 17 -169 27 -103 50
-129 81 -91 10 11 10 26 0 67 -7 29 -17 59 -23 66 -12 15 -14 155 -3 190 7 20
14 22 75 22 88 0 98 -11 70 -71 -30 -60 -36 -151 -15 -223 10 -35 23 -59 34
-62 9 -3 25 -10 34 -15 24 -12 52 -11 66 3 19 19 15 26 -23 44 -53 25 -39 38
38 35 53 -2 67 1 67 12 0 28 -28 40 -73 33 -85 -14 -82 -16 -85 39 -4 62 24
172 48 185 35 19 494 -33 680 -76 102 -24 253 -70 335 -101 22 -8 49 -19 60
-23 59 -23 198 -94 250 -128 73 -48 149 -122 167 -162 7 -17 19 -30 27 -30 7
0 11 -6 8 -15 -4 -8 -2 -17 2 -20 5 -3 14 -18 19 -34 8 -23 8 -29 -2 -25 -13
5 -144 -56 -176 -82 -8 -6 -33 -17 -55 -24 -22 -7 -53 -18 -70 -25 -125 -53
-319 -110 -460 -136 -170 -31 -337 -58 -400 -65 -33 -3 -73 -10 -90 -15 -16
-5 -84 -11 -150 -14 -144 -7 -643 -8 -653 -1 -4 2 -50 6 -102 7 -52 1 -120 5
-150 10 -30 4 -77 10 -105 13 -331 33 -816 160 -1065 278 -87 42 -190 109
-190 124 0 30 48 143 76 177 86 109 411 248 719 307 52 10 283 44 420 61 64 8
246 20 393 26 12 0 27 -7 32 -16z m-1541 -755 c102 -52 498 -185 641 -216 19
-4 87 -19 150 -33 189 -43 281 -57 585 -88 126 -13 746 -12 800 1 22 5 63 10
91 10 28 0 73 7 100 15 27 8 70 15 95 15 25 0 119 11 210 24 225 34 242 37
259 46 8 4 42 13 74 20 78 16 335 104 406 138 30 15 76 42 102 60 26 17 49 32
52 32 11 0 5 -45 -8 -70 -12 -21 -12 -26 3 -37 14 -11 14 -12 -6 -13 -25 0
-39 -15 -23 -25 5 -3 10 -11 10 -17 0 -7 -5 -7 -14 1 -11 9 -18 4 -35 -24 -11
-19 -25 -41 -31 -48 -113 -139 -154 -187 -206 -240 -129 -132 -148 -157 -154
-205 -5 -43 -9 -49 -65 -89 -61 -43 -197 -113 -220 -113 -7 0 -37 -11 -66 -24
-63 -27 -195 -59 -329 -81 -314 -49 -305 -48 -650 -48 -385 0 -520 13 -750 69
-140 34 -254 69 -275 85 -8 6 -35 13 -95 24 -25 5 -118 42 -160 64 -8 5 -18
24 -21 44 -3 20 -12 44 -20 55 -37 52 -78 103 -134 167 -67 77 -169 199 -228
273 -20 26 -55 79 -76 118 -22 39 -47 76 -56 84 -9 7 -21 22 -26 32 -14 26 10
24 70 -6z m223 -550 c60 -61 110 -118 114 -128 3 -10 9 -18 14 -18 4 0 11 -12
16 -27 7 -27 9 -41 12 -125 2 -43 29 -60 132 -84 36 -8 81 -19 100 -24 82 -21
408 -89 465 -97 17 -2 64 -11 105 -19 186 -35 406 -48 665 -39 326 12 352 13
444 24 47 6 122 13 166 16 141 12 370 77 504 143 31 16 81 40 111 55 96 47
110 63 121 141 7 50 16 75 32 91 12 11 51 52 86 89 l64 68 51 -24 c62 -28 152
-99 200 -157 46 -55 52 -66 61 -118 12 -72 -25 -147 -108 -222 -22 -20 -47
-42 -54 -50 -22 -21 -122 -84 -168 -105 -22 -10 -58 -27 -79 -37 -22 -11 -44
-19 -50 -19 -5 0 -37 -11 -71 -24 -93 -38 -263 -81 -430 -110 -82 -15 -167
-31 -188 -37 -21 -5 -109 -17 -195 -25 -86 -8 -175 -17 -197 -19 -22 -3 -223
-5 -446 -5 -357 0 -422 3 -545 21 -76 11 -164 24 -194 29 -30 4 -80 13 -110
19 -30 5 -73 12 -95 15 -109 13 -363 84 -573 161 -117 42 -288 147 -370 226
-53 52 -92 126 -92 175 0 80 94 203 205 268 24 15 71 44 102 65 45 30 61 36
73 28 8 -6 63 -61 122 -121z"/>
<path d="M1656 2551 c-16 -18 -16 -19 6 -19 13 0 43 -8 68 -17 25 -10 61 -18
80 -19 29 -1 35 3 35 19 0 17 -8 20 -50 23 -27 2 -54 7 -60 11 -25 20 -62 21
-79 2z"/>
<path d="M1205 2448 c-21 -11 -54 -48 -55 -60 0 -5 9 -8 19 -8 27 0 81 48 74
65 -6 18 -11 18 -38 3z"/>
<path d="M1050 2371 c0 -6 5 -13 10 -16 6 -3 10 1 10 9 0 9 -4 16 -10 16 -5 0
-10 -4 -10 -9z"/>
<path d="M985 2310 c-19 -8 -19 -9 3 -9 12 -1 22 4 22 9 0 6 -1 10 -2 9 -2 0
-12 -4 -23 -9z"/>
<path d="M1757 2302 c-9 -2 -15 -8 -12 -13 8 -12 45 -12 45 0 0 13 -12 18 -33
13z"/>
<path d="M920 2285 c-8 -9 -8 -15 -2 -15 12 0 26 19 19 26 -2 2 -10 -2 -17
-11z"/>
<path d="M1061 2281 c-42 -7 -75 -60 -65 -106 8 -42 33 -95 44 -95 15 0 11 21
-8 58 -11 19 -16 47 -14 70 l4 38 60 -4 c63 -5 92 8 71 29 -14 14 -46 17 -92
10z"/>
<path d="M842 2216 c-17 -46 7 -97 55 -120 42 -20 43 -20 43 3 0 11 -15 28
-35 40 -32 18 -35 24 -35 66 0 54 -11 58 -28 11z"/>
<path d="M2876 2214 c-4 -11 -1 -21 9 -26 27 -16 55 -51 55 -70 0 -10 -9 -37
-20 -59 -18 -34 -24 -38 -45 -33 -15 4 -32 1 -42 -7 -12 -11 -51 -14 -158 -12
-138 1 -186 -7 -157 -25 7 -5 57 -14 110 -21 75 -10 112 -10 161 -1 84 15 108
27 159 78 36 37 42 48 42 86 0 37 -5 48 -31 70 -17 14 -34 26 -39 26 -5 0 -15
3 -23 6 -8 3 -17 -2 -21 -12z"/>
<path d="M3120 2157 c0 -2 7 -18 16 -35 14 -29 14 -34 -1 -60 -25 -42 -79 -74
-142 -84 -54 -9 -113 -39 -113 -59 0 -6 8 -8 18 -5 9 3 49 13 87 21 39 9 86
26 105 39 19 13 47 30 63 40 35 21 35 58 1 108 -24 34 -34 44 -34 35z"/>
<path d="M2870 2100 c0 -5 5 -10 10 -10 6 0 10 5 10 10 0 6 -4 10 -10 10 -5 0
-10 -4 -10 -10z"/>
<path d="M2195 1958 c-33 -5 -66 -15 -74 -23 -25 -24 48 -29 139 -9 131 28 77
55 -65 32z"/>
<path d="M1503 1951 c-50 -3 -94 -9 -98 -13 -12 -11 52 -38 92 -38 40 0 107
20 111 33 4 15 2 27 -5 25 -5 -1 -49 -4 -100 -7z"/>
</g>
</svg>
