<?xml version="1.0" standalone="no"?>
<!DOCTYPE svg PUBLIC "-//W3C//DTD SVG 20010904//EN"
 "http://www.w3.org/TR/2001/REC-SVG-20010904/DTD/svg10.dtd">
<svg version="1.0" xmlns="http://www.w3.org/2000/svg"
 width="668.000000pt" height="668.000000pt" viewBox="0 0 668.000000 668.000000"
 preserveAspectRatio="xMidYMid meet">
<metadata>
Created by potrace 1.14, written by Peter Selinger 2001-2017
</metadata>
<g transform="translate(0.000000,668.000000) scale(0.100000,-0.100000)"
fill="#000000" stroke="none">
<path d="M3751 6661 c-47 -25 -156 -134 -203 -204 -99 -146 -133 -260 -132
-447 0 -155 17 -239 83 -413 88 -230 92 -399 19 -700 -24 -97 -29 -135 -22
-155 13 -38 53 -40 109 -7 87 50 133 178 142 395 8 188 -12 316 -83 526 -107
321 -96 445 66 729 92 161 112 207 108 253 -3 31 -7 37 -28 39 -14 2 -40 -6
-59 -16z"/>
<path d="M3090 6601 c-56 -30 -128 -115 -167 -197 -34 -71 -35 -80 -30 -148 7
-98 35 -193 117 -399 81 -204 92 -242 91 -316 0 -64 -7 -88 -55 -181 -19 -36
-41 -87 -51 -115 -15 -46 -15 -52 1 -86 26 -59 42 -58 101 5 124 133 157 211
157 371 0 141 -19 212 -120 433 -124 272 -131 358 -36 483 86 114 93 124 90
144 -4 27 -53 30 -98 6z"/>
<path d="M2930 4413 c-625 -45 -1123 -188 -1505 -431 -290 -185 -447 -371
-544 -645 -94 -267 -105 -585 -31 -882 144 -574 568 -1335 946 -1695 44 -42
133 -114 198 -160 159 -113 213 -163 221 -203 33 -152 271 -318 517 -361 154
-27 410 -39 693 -33 361 8 621 32 780 73 128 33 259 116 351 223 83 95 169
167 334 277 260 173 403 312 562 548 368 549 510 1354 402 2291 -25 223 -91
365 -229 493 -306 287 -866 440 -1830 502 -144 9 -752 11 -865 3z m980 -217
c660 -57 1045 -129 1288 -241 94 -44 252 -148 326 -216 36 -33 67 -73 87 -115
30 -59 31 -69 27 -146 -4 -61 -12 -99 -32 -143 -29 -63 -61 -105 -82 -105 -7
0 -50 26 -96 57 -134 92 -393 208 -723 325 -318 112 -436 133 -839 148 -304
10 -341 18 -416 85 -28 25 -57 45 -65 45 -28 0 -129 -43 -278 -119 -84 -43
-202 -94 -264 -114 -102 -34 -120 -37 -220 -36 -118 1 -117 2 26 39 30 8 40
15 33 22 -16 16 -329 22 -514 9 -238 -16 -327 -33 -426 -82 -212 -103 -440
-338 -430 -442 2 -17 8 -32 15 -34 6 -2 34 29 62 70 76 110 217 216 418 316
127 63 263 106 263 83 0 -17 -25 -31 -124 -72 -161 -65 -286 -149 -392 -262
-61 -66 -94 -120 -94 -156 0 -52 32 -38 153 68 195 170 445 271 677 274 122 1
189 -14 240 -54 21 -17 23 -21 10 -30 -8 -5 -38 -10 -67 -10 -208 0 -422 -145
-557 -377 -54 -92 -83 -123 -116 -123 -29 0 -70 39 -70 67 0 31 52 112 120
188 94 105 99 115 62 115 -55 0 -149 -58 -235 -145 -91 -91 -111 -105 -157
-105 -48 0 -158 57 -210 109 -74 75 -95 127 -95 246 0 83 4 107 22 140 74 140
314 340 543 455 291 146 686 242 1140 280 157 13 776 4 990 -14z m-540 -445
c0 -17 -102 -98 -188 -150 -133 -79 -362 -163 -362 -133 0 21 95 77 310 184
210 105 240 118 240 99z m785 -121 c66 -11 134 -24 150 -29 l30 -9 -40 -17
c-186 -79 -268 -141 -354 -270 -90 -135 -108 -242 -56 -330 29 -51 117 -144
215 -228 l55 -48 -345 3 c-321 3 -348 5 -385 23 -37 19 -40 24 -50 78 -12 72
-38 97 -99 97 -53 0 -126 -35 -199 -94 -70 -58 -126 -83 -206 -94 -115 -16
-215 14 -261 78 -35 50 -28 62 65 109 104 52 139 95 139 169 0 66 -28 115
-111 203 -40 42 -73 79 -73 83 0 8 230 6 302 -3 32 -4 61 -10 65 -15 4 -4 -7
-20 -25 -35 -18 -14 -31 -29 -27 -32 3 -4 29 -2 58 3 124 23 307 -15 485 -103
104 -51 182 -113 164 -131 -6 -6 -44 6 -103 30 -52 22 -128 48 -169 56 -151
33 -408 37 -445 6 -37 -31 35 -59 235 -91 224 -35 308 -70 422 -175 l72 -66
18 63 c10 35 26 104 34 152 l17 88 -34 35 c-94 98 -403 224 -551 224 -82 0
-68 14 111 115 63 36 136 83 162 105 26 22 60 45 76 51 89 34 457 34 658 -1z
m740 -215 c106 -24 129 -41 136 -101 4 -27 19 -88 34 -136 38 -123 22 -184
-65 -247 -79 -57 -321 -128 -392 -115 -94 18 -235 124 -263 199 -16 42 -16 46
1 82 15 29 33 45 79 68 56 28 68 30 195 33 126 4 137 3 163 -18 23 -18 27 -29
27 -71 0 -106 -88 -132 -198 -59 -64 43 -88 48 -131 26 -40 -21 -55 -60 -36
-95 20 -39 98 -89 152 -97 138 -21 339 54 380 142 45 93 -70 209 -258 260 -89
24 -255 24 -333 1 -98 -30 -196 -139 -196 -218 0 -52 29 -96 127 -194 52 -52
93 -100 91 -107 -8 -23 -75 -21 -131 5 -123 57 -267 241 -267 342 0 12 16 55
36 94 26 52 50 83 85 111 54 42 179 95 261 110 81 14 420 4 503 -15z m-2371
-236 c49 -18 96 -57 96 -80 0 -18 -34 -39 -72 -46 -87 -13 -155 -113 -146
-213 4 -43 2 -53 -16 -65 -27 -19 -115 -19 -236 0 -99 16 -157 38 -174 67 -17
28 21 91 107 178 89 89 164 144 223 165 58 21 154 18 218 -6z m2766 -17 c51
-64 -16 -182 -77 -137 -14 11 -18 27 -18 80 0 53 4 69 18 80 24 17 53 9 77
-23z m-4198 -228 c234 -244 663 -356 1583 -414 276 -18 1045 -24 1255 -11 581
36 1065 142 1569 341 124 50 135 52 146 36 34 -45 46 -297 24 -494 -23 -211
-65 -368 -172 -641 -189 -484 -443 -822 -763 -1014 -271 -163 -668 -247 -1167
-247 -597 0 -1153 126 -1472 334 -425 277 -913 1090 -1051 1751 -33 160 -46
425 -20 425 2 0 33 -30 68 -66z m2165 -151 c15 -40 -109 -100 -163 -79 -15 6
-15 8 1 26 22 24 112 70 137 70 10 0 21 -7 25 -17z m398 -2493 c273 -15 391
-35 382 -64 -6 -19 -101 -45 -207 -55 -280 -29 -1046 10 -1156 58 -41 19 -61
37 -50 48 20 20 730 29 1031 13z"/>
</g>
</svg>
