<?xml version="1.0" standalone="no"?>
<!DOCTYPE svg PUBLIC "-//W3C//DTD SVG 20010904//EN"
 "http://www.w3.org/TR/2001/REC-SVG-20010904/DTD/svg10.dtd">
<svg version="1.0" xmlns="http://www.w3.org/2000/svg"
 width="500.000000pt" height="500.000000pt" viewBox="0 0 500.000000 500.000000"
 preserveAspectRatio="xMidYMid meet">
<metadata>
Created by potrace 1.14, written by Peter Selinger 2001-2017
</metadata>
<g transform="translate(0.000000,500.000000) scale(0.100000,-0.100000)"
fill="#000000" stroke="none">
<path d="M2961 4569 c-47 -51 -60 -187 -31 -318 12 -53 26 -104 31 -114 29
-55 52 -207 51 -332 -1 -116 -3 -136 -25 -183 -40 -87 -110 -138 -173 -126
-49 9 -58 25 -48 91 4 32 8 99 9 148 0 50 5 135 9 190 l9 101 -37 32 c-39 34
-92 44 -102 18 -3 -8 11 -46 31 -85 28 -52 35 -75 29 -93 -14 -40 -15 -50 -21
-174 -3 -74 -1 -129 5 -140 12 -21 -3 -60 -26 -69 -9 -3 -51 -3 -94 1 l-78 7
-11 36 c-6 20 -13 104 -16 187 -6 149 -5 154 25 245 33 102 43 160 47 257 2
35 6 66 9 69 12 12 5 39 -17 66 -22 28 -23 28 -39 10 -12 -14 -17 -47 -21
-138 -3 -75 -12 -137 -22 -165 -71 -192 -90 -401 -45 -505 14 -33 16 -46 7
-53 -7 -6 -79 -13 -162 -17 -82 -4 -170 -9 -195 -12 -25 -3 -137 -14 -250 -24
-180 -17 -446 -51 -505 -64 -121 -28 -202 -46 -265 -60 -41 -9 -88 -23 -105
-30 -36 -16 -129 -45 -146 -45 -6 0 -37 -13 -68 -29 -31 -16 -72 -32 -91 -36
-45 -10 -178 -74 -260 -125 -81 -50 -196 -153 -206 -183 -4 -12 -17 -36 -30
-53 -37 -48 -54 -110 -54 -193 0 -58 5 -84 20 -109 11 -18 20 -38 20 -45 0 -7
5 -18 12 -25 6 -6 17 -26 24 -44 27 -75 49 -123 56 -129 5 -3 24 -41 43 -84
18 -43 41 -82 49 -87 9 -5 16 -14 16 -20 0 -6 17 -34 38 -62 20 -28 49 -69 64
-91 14 -22 47 -62 73 -89 l47 -49 -53 -24 c-30 -13 -61 -28 -69 -33 -8 -5 -40
-24 -70 -41 -120 -71 -196 -154 -262 -291 -50 -103 -33 -259 33 -306 11 -7 19
-22 19 -33 0 -20 124 -149 144 -149 6 0 28 -18 49 -40 20 -22 43 -40 50 -40
16 0 124 -58 132 -71 4 -5 13 -9 21 -9 17 0 133 -43 174 -64 33 -17 245 -87
256 -85 5 1 22 -3 37 -9 16 -7 36 -12 46 -12 10 0 34 -6 52 -14 19 -7 57 -17
84 -21 28 -4 64 -12 80 -20 51 -21 419 -85 493 -85 21 0 43 -5 48 -10 20 -20
378 -32 709 -25 402 8 508 14 519 25 6 6 37 10 70 10 64 0 203 15 276 31 25 5
65 11 90 13 128 13 240 30 240 38 0 4 7 8 16 8 8 0 36 6 62 14 26 7 83 22 127
32 44 9 85 20 90 24 6 4 44 17 85 29 217 65 449 195 569 320 66 69 121 166
121 213 0 15 5 30 10 33 24 15 -8 158 -53 235 -41 70 -202 215 -289 259 -28
15 -39 53 -18 66 21 13 124 161 140 200 8 22 29 60 45 85 73 110 189 333 220
423 20 56 19 141 0 157 -8 7 -15 20 -15 30 0 9 -8 28 -19 41 -10 13 -31 48
-46 78 -18 36 -65 92 -144 170 -102 101 -131 123 -217 167 -54 28 -110 55
-123 59 -12 4 -39 17 -57 30 -44 30 -98 49 -199 70 -44 9 -88 21 -99 26 -10 6
-46 15 -80 20 -33 6 -83 16 -111 24 -75 21 -153 37 -220 46 -33 4 -87 12 -120
18 -33 5 -123 17 -200 26 -76 9 -145 21 -152 27 -11 9 -8 20 13 57 37 67 57
193 50 322 -5 106 -18 186 -35 224 -9 20 -38 121 -62 220 -7 28 -16 55 -21 62
-5 7 -5 14 2 18 5 3 10 21 10 38 0 18 7 41 15 51 21 27 19 70 -4 90 -18 16
-20 16 -40 -5z m-542 -1203 c13 -15 11 -107 -1 -99 -5 2 -8 -7 -8 -20 0 -31
-18 -35 -203 -42 -78 -3 -178 -10 -222 -15 -44 -5 -147 -14 -230 -20 -82 -6
-157 -14 -165 -17 -8 -3 -24 -7 -35 -9 -11 -2 -40 -8 -65 -13 -25 -5 -99 -18
-165 -29 -136 -23 -176 -32 -190 -42 -5 -3 -39 -15 -75 -24 -108 -30 -193 -57
-225 -71 -16 -7 -55 -21 -85 -31 -30 -9 -73 -29 -95 -44 -22 -14 -70 -40 -106
-57 -102 -48 -229 -175 -229 -230 0 -7 -5 -13 -10 -13 -6 0 -9 -3 -8 -7 0 -5
-2 -16 -5 -25 -4 -10 -9 -25 -12 -34 -7 -22 -27 -12 -45 22 -8 16 -18 31 -21
34 -31 28 -34 126 -4 160 7 8 18 32 25 53 14 43 91 127 141 153 19 9 40 25 47
35 7 11 18 19 23 19 6 0 41 17 77 39 37 21 78 42 92 46 14 4 39 13 55 20 17 7
46 18 65 25 19 7 53 20 75 30 22 10 81 28 130 40 50 12 106 29 125 38 19 9 76
21 125 28 50 7 136 19 192 28 57 9 118 16 137 16 19 0 37 4 40 9 3 4 43 11 88
15 46 4 94 9 108 10 14 2 95 9 180 16 85 7 157 14 159 16 2 2 73 4 156 4 119
0 155 -3 164 -14z m217 2 c5 -7 -8 -26 -33 -47 -22 -20 -50 -53 -63 -74 -16
-28 -28 -37 -44 -35 -14 2 -20 9 -19 23 5 49 15 121 18 133 6 16 131 17 141 0z
m127 -28 c-8 -86 -17 -131 -29 -141 -16 -13 -84 -3 -84 12 0 5 19 43 43 84 43
76 74 96 70 45z m372 5 c99 -9 189 -21 200 -26 11 -6 65 -16 120 -24 55 -8
138 -22 185 -30 47 -8 103 -18 125 -21 22 -3 58 -15 81 -25 22 -10 46 -19 54
-19 25 0 150 -44 150 -53 0 -4 4 -6 9 -3 5 3 34 -5 65 -19 31 -14 63 -25 70
-25 7 0 28 -10 47 -22 19 -13 52 -29 74 -37 55 -19 149 -89 257 -191 95 -90
120 -125 112 -156 -4 -14 2 -22 24 -30 27 -11 29 -14 23 -45 -5 -24 -13 -35
-28 -37 -13 -2 -24 -13 -28 -29 -7 -30 -74 -105 -87 -97 -5 3 -22 35 -39 70
-29 61 -134 184 -158 184 -6 0 -11 7 -11 15 0 8 -4 15 -10 15 -5 0 -42 22 -82
49 -40 27 -84 52 -98 56 -14 4 -54 23 -89 41 -35 19 -70 34 -76 34 -7 0 -39
12 -71 27 -33 15 -66 28 -74 30 -27 5 -285 75 -305 83 -55 22 -309 70 -412 77
-35 3 -63 8 -63 12 0 4 -56 13 -125 21 -69 7 -132 18 -141 25 -16 11 -16 16 1
71 24 78 51 104 100 98 11 -2 101 -10 200 -19z m-899 -300 c14 -19 3 -42 -57
-111 -34 -40 -47 -103 -25 -120 27 -20 18 -51 -24 -85 l-40 -33 30 -12 c16 -7
30 -18 30 -24 0 -5 6 -10 13 -10 8 0 13 20 15 61 1 34 11 80 22 104 11 24 20
50 20 57 0 23 56 109 101 155 37 38 47 44 78 41 l36 -3 -3 -106 c-2 -65 1
-124 9 -150 7 -24 12 -47 11 -51 -1 -5 2 -8 8 -8 6 0 10 -12 10 -28 0 -55 50
-93 79 -58 13 15 4 96 -10 96 -5 0 -9 10 -9 23 0 13 -5 28 -12 35 -13 13 -16
172 -4 210 7 20 14 22 85 22 58 0 82 -4 91 -15 8 -10 9 -19 3 -27 -5 -7 -18
-39 -28 -72 -32 -105 -5 -286 43 -286 11 0 25 -7 32 -15 17 -21 54 -19 74 4
20 22 14 41 -12 41 -24 1 -55 26 -50 41 3 8 28 12 81 10 61 -2 77 1 77 12 0
28 -28 40 -78 33 -106 -13 -97 -18 -100 49 -4 74 24 192 48 205 30 16 629 -39
669 -61 9 -5 72 -20 141 -34 69 -14 142 -34 163 -45 21 -11 43 -20 50 -20 21
0 184 -55 198 -67 8 -6 25 -14 39 -18 76 -22 267 -132 331 -190 59 -52 109
-116 109 -137 0 -10 7 -18 16 -18 9 0 14 -6 11 -12 -2 -7 3 -24 13 -38 28 -41
31 -58 11 -53 -10 2 -36 -5 -57 -16 -21 -12 -44 -21 -51 -21 -7 0 -13 -5 -13
-11 0 -5 -4 -8 -9 -5 -5 3 -11 -1 -15 -9 -3 -8 -14 -15 -24 -15 -11 0 -25 -6
-31 -13 -6 -8 -30 -19 -53 -26 -24 -7 -61 -21 -83 -31 -47 -22 -189 -70 -209
-70 -8 0 -16 -3 -18 -7 -4 -10 -163 -52 -238 -65 -30 -4 -62 -11 -70 -15 -8
-4 -29 -7 -45 -8 -17 -1 -35 -4 -41 -8 -12 -7 -241 -41 -378 -57 -49 -5 -92
-14 -95 -19 -4 -5 -74 -12 -156 -16 -187 -7 -723 -8 -734 -1 -4 3 -47 6 -95 7
-47 1 -89 6 -92 11 -3 5 -12 4 -20 -3 -12 -9 -20 -9 -39 1 -13 7 -35 10 -49 8
-14 -3 -27 -2 -28 2 -2 4 -34 10 -73 13 -127 10 -318 38 -365 54 -8 3 -24 7
-35 8 -78 12 -318 71 -343 85 -9 5 -44 17 -77 25 -121 32 -169 46 -199 59 -69
30 -93 39 -133 51 -23 7 -54 22 -70 32 -15 11 -38 24 -51 27 -12 4 -43 23 -68
42 -25 19 -57 39 -70 44 -24 9 -33 43 -15 54 4 3 16 32 25 65 28 102 130 199
268 257 34 14 70 32 82 39 12 8 59 26 106 40 47 15 108 37 135 50 45 20 172
50 265 62 19 2 42 7 50 10 36 14 59 18 426 63 45 6 159 13 253 17 95 3 174 9
176 13 8 13 48 3 61 -15z m-1743 -854 c28 -16 84 -39 122 -51 39 -13 72 -26
75 -29 7 -8 124 -47 190 -62 30 -8 61 -19 68 -26 7 -7 20 -13 27 -13 8 0 34
-6 57 -14 24 -7 79 -21 123 -31 44 -9 88 -21 97 -26 9 -5 77 -20 150 -34 73
-15 158 -31 188 -37 30 -7 59 -11 64 -9 5 1 21 -3 35 -8 25 -10 108 -19 371
-42 117 -11 854 -14 870 -4 4 3 60 9 123 14 63 6 132 17 152 25 21 9 57 16 81
16 101 0 515 60 537 78 6 6 38 15 70 21 74 13 198 50 214 63 7 5 16 7 22 4 5
-3 11 -3 13 1 1 5 44 21 93 37 50 16 97 35 105 42 9 7 31 20 50 29 39 17 61
30 106 62 17 12 34 19 38 16 10 -10 7 -53 -4 -53 -5 0 -9 -3 -8 -7 0 -5 -3
-17 -7 -27 -6 -13 -4 -21 3 -24 19 -6 14 -22 -7 -22 -23 0 -36 -16 -21 -25 5
-3 10 -11 10 -17 0 -7 -5 -6 -15 2 -12 10 -17 7 -27 -16 -7 -16 -23 -39 -35
-50 -13 -12 -23 -26 -23 -32 0 -14 -136 -174 -221 -260 -26 -26 -77 -80 -113
-120 -60 -67 -66 -77 -66 -117 0 -43 -2 -45 -75 -100 -41 -30 -80 -55 -86 -55
-7 0 -40 -16 -75 -35 -34 -19 -72 -35 -84 -35 -11 0 -33 -6 -48 -14 -86 -45
-235 -80 -442 -106 -52 -7 -102 -16 -111 -20 -66 -34 -815 -49 -1054 -21 -60
8 -117 13 -125 13 -8 0 -24 3 -35 8 -11 5 -47 13 -80 19 -33 6 -78 15 -100 20
-22 5 -64 14 -94 20 -30 6 -60 16 -67 22 -7 5 -18 9 -26 8 -7 -1 -20 0 -28 4
-8 3 -37 13 -65 23 -27 9 -54 21 -59 26 -6 4 -18 8 -28 8 -22 0 -145 38 -173
53 -11 6 -38 16 -60 22 -31 9 -42 19 -48 41 -25 84 -32 99 -58 122 -16 13 -29
30 -29 37 0 7 -37 55 -82 107 -46 51 -105 120 -132 153 -28 33 -72 83 -98 112
-26 29 -52 63 -58 77 -5 14 -14 26 -19 26 -6 0 -24 28 -40 63 -17 34 -48 84
-71 111 -22 26 -40 52 -40 57 0 16 30 9 83 -20z m255 -620 c67 -69 125 -136
128 -148 4 -13 10 -23 15 -23 5 0 9 -6 9 -14 0 -8 5 -16 11 -18 6 -2 12 -28
14 -58 1 -30 3 -70 3 -88 1 -21 8 -35 20 -39 9 -3 24 -12 33 -19 8 -8 49 -21
90 -29 41 -9 92 -20 114 -25 22 -5 54 -12 70 -15 17 -4 39 -11 51 -16 11 -6
24 -9 30 -8 5 1 16 0 24 -4 8 -3 31 -8 50 -11 56 -9 141 -24 200 -36 30 -6 78
-13 105 -17 28 -3 55 -9 60 -13 9 -7 93 -23 190 -35 134 -18 406 -26 620 -20
364 12 401 13 499 24 50 6 136 13 191 17 55 3 105 10 110 14 6 4 54 17 107 28
53 12 126 32 161 46 35 14 67 26 71 26 19 0 152 64 159 76 4 8 17 14 28 14 22
0 139 58 139 69 0 3 10 11 23 16 12 6 22 17 23 25 0 8 3 22 7 30 3 8 8 39 11
69 4 37 12 60 28 75 13 12 56 57 97 100 l74 77 40 -16 c87 -35 213 -138 278
-227 46 -65 48 -145 5 -238 -13 -28 -132 -150 -147 -150 -5 0 -9 -7 -9 -15 0
-9 -12 -20 -27 -26 -15 -5 -48 -24 -73 -42 -47 -33 -64 -42 -140 -73 -25 -10
-52 -23 -60 -30 -8 -6 -28 -14 -45 -17 -29 -6 -198 -60 -240 -77 -39 -15 -151
-40 -255 -55 -58 -9 -114 -20 -125 -25 -11 -6 -49 -14 -85 -20 -36 -5 -90 -14
-120 -19 -54 -9 -256 -27 -435 -38 -49 -3 -96 -10 -102 -15 -9 -7 -17 -7 -26
0 -9 8 -140 11 -402 12 -333 0 -412 3 -540 20 -83 12 -181 25 -220 30 -38 5
-84 13 -102 18 -17 6 -34 8 -37 5 -3 -3 -11 -1 -19 5 -7 6 -35 13 -62 15 -58
4 -318 57 -325 66 -3 3 -9 7 -15 8 -41 6 -266 80 -290 95 -16 10 -38 18 -47
18 -15 0 -82 33 -209 103 -112 61 -236 175 -274 250 -37 74 -34 128 11 203 19
32 50 74 67 92 37 39 142 116 178 131 13 6 49 28 79 49 43 31 58 37 70 29 8
-6 70 -67 138 -136z"/>
<path d="M1876 2892 c-19 -22 -21 -34 -3 -31 20 4 90 -13 120 -28 40 -20 92
-14 92 12 0 17 -8 20 -55 23 -30 2 -62 9 -70 16 -27 24 -66 27 -84 8z"/>
<path d="M1353 2763 c-17 -9 -34 -23 -37 -32 -3 -9 -9 -22 -12 -30 -5 -11 0
-13 25 -8 35 7 82 54 74 74 -6 16 -10 16 -50 -4z"/>
<path d="M1190 2681 c0 -6 5 -13 10 -16 6 -3 10 1 10 9 0 9 -4 16 -10 16 -5 0
-10 -4 -10 -9z"/>
<path d="M1115 2610 c-19 -8 -19 -9 3 -9 12 -1 22 4 22 9 0 6 -1 10 -2 9 -2 0
-12 -4 -23 -9z"/>
<path d="M1987 2603 c-24 -6 -11 -23 18 -23 18 0 23 4 19 15 -6 16 -7 16 -37
8z"/>
<path d="M1040 2585 c-8 -9 -8 -15 -2 -15 12 0 26 19 19 26 -2 2 -10 -2 -17
-11z"/>
<path d="M1205 2582 c-83 -10 -53 -51 38 -52 43 0 59 4 64 16 12 31 -26 45
-102 36z"/>
<path d="M957 2516 c-9 -21 -17 -42 -17 -47 0 -27 37 -77 70 -97 48 -27 50
-27 50 1 0 16 -12 31 -37 48 -35 22 -38 29 -43 79 l-5 55 -18 -39z"/>
<path d="M1133 2518 c-20 -45 10 -154 45 -166 18 -6 14 29 -7 65 -11 17 -21
53 -23 80 -3 46 -4 47 -15 21z"/>
<path d="M3256 2505 c-3 -10 9 -28 34 -51 22 -20 40 -44 40 -54 0 -10 -12 -39
-26 -65 -23 -41 -30 -46 -51 -40 -17 4 -32 0 -45 -12 -18 -16 -39 -18 -182
-16 -156 1 -208 -6 -178 -25 29 -19 235 -34 307 -23 97 16 123 28 178 84 44
45 47 52 47 101 0 59 -19 85 -79 105 -42 14 -38 14 -45 -4z"/>
<path d="M3530 2438 c0 -3 7 -19 16 -36 19 -39 13 -61 -29 -102 -42 -42 -72
-56 -132 -63 -59 -7 -99 -24 -115 -50 -6 -11 -10 -20 -8 -22 10 -9 195 43 228
65 8 5 29 17 45 26 75 41 84 78 34 140 -36 46 -39 49 -39 42z"/>
<path d="M3250 2374 c0 -8 5 -12 10 -9 6 3 10 10 10 16 0 5 -4 9 -10 9 -5 0
-10 -7 -10 -16z"/>
<path d="M2482 2218 c-54 -7 -75 -15 -82 -28 -16 -30 44 -36 148 -15 102 20
107 22 91 41 -13 16 -48 16 -157 2z"/>
<path d="M1708 2213 c-67 -3 -100 -8 -108 -18 -16 -20 36 -45 92 -45 54 0 133
23 132 39 -2 26 -4 31 -11 29 -5 -1 -51 -4 -105 -5z"/>
</g>
</svg>
