<svg width="66" height="30" viewBox="0 0 66 30" fill="none" xmlns="http://www.w3.org/2000/svg">
<g clip-path="url(#clip0)">
<path d="M28.0529 5.46252C29.0985 5.04786 30.2884 4.83151 31.6406 4.83151V10.6007C31.0637 10.5286 30.5769 10.4926 30.1983 10.4926C28.8281 10.4926 27.7464 10.8712 26.9711 11.6104C26.1959 12.3495 25.7993 13.4854 25.7993 15.0178V23.4373H19.381V11.2678C19.381 7.89642 22.1214 5.15603 25.4928 5.15603V7.35555C26.1598 6.5082 27.0072 5.89521 28.0529 5.46252Z" fill="#2F80ED"/>
<path d="M34.2728 5.15616C37.8065 5.15616 40.6911 8.02275 40.6911 11.5744V23.4374H34.2728V5.15616Z" fill="#2F80ED"/>
<path d="M60.8834 6.00324C62.2356 6.77848 63.3173 7.87824 64.1286 9.30252C64.9219 10.7268 65.3185 12.3855 65.3185 14.2785C65.3185 16.1715 64.9219 17.8302 64.1286 19.2544C63.3353 20.6787 62.2536 21.7785 60.8834 22.5537C59.5132 23.329 58.0168 23.7256 56.3401 23.7256C54.1947 23.7256 52.5 23.0766 51.238 21.7965V29.9636H44.8197V11.2677C44.8197 7.89627 47.5601 5.15589 50.9315 5.15589V6.9768C52.1214 5.55252 53.9243 4.8494 56.3401 4.8494C58.0168 4.8494 59.5312 5.228 60.8834 6.00324ZM57.7644 17.4876C58.4856 16.7124 58.8461 15.6487 58.8461 14.2965C58.8461 12.9443 58.4856 11.8806 57.7644 11.1054C57.0433 10.3302 56.1238 9.93353 54.988 9.93353C53.8702 9.93353 52.9327 10.3302 52.2115 11.1054C51.4904 11.8806 51.1298 12.9443 51.1298 14.2965C51.1298 15.6487 51.4904 16.7124 52.2115 17.4876C52.9327 18.2629 53.8522 18.6595 54.988 18.6595C56.1238 18.6595 57.0433 18.2629 57.7644 17.4876Z" fill="#2F80ED"/>
<path d="M14.1887 0.306405C14.5673 -0.252489 15.4327 -0.0181142 15.4868 0.666982C15.7392 4.68742 16.1899 13.0708 16.0096 16.4603C15.613 23.4374 7.9327 24.6273 4.12861 22.7163C-1.1899 20.03 -1.73076 9.95184 4.65145 8.34727C9.1226 7.22948 12.5481 2.77636 14.1887 0.306405Z" fill="#2F80ED"/>
<path d="M7.1214 9.98793C7.26563 9.87976 7.46395 10.006 7.42789 10.1682C7.21155 11.1598 6.76083 13.2331 6.49039 14.0444C5.91347 15.7211 3.85818 15.4507 3.01083 14.7115C1.82092 13.6658 2.36179 11.1778 4.12862 11.25C5.35458 11.304 6.52645 10.4567 7.1214 9.98793Z" fill="white"/>
</g>
<defs>
<clipPath id="clip0">
<rect width="65.3365" height="30" fill="white"/>
</clipPath>
</defs>
</svg>
