<svg width="100" height="40" viewBox="0 0 100 40" fill="none" xmlns="http://www.w3.org/2000/svg">
<path d="M19.4445 22.444H30.5556V33.5551H19.4445V22.444Z" fill="#2160FD"/>
<path d="M25.0001 5.82291C24.541 5.79269 24.0779 5.77734 23.6112 5.77734C12.1052 5.77734 2.77783 15.1047 2.77783 26.6107C2.77783 27.077 2.79315 27.5398 2.82332 27.9985H16.6667V19.6652H25.0001V5.82291Z" fill="#2160FD"/>
<path d="M36.1113 20.2253C36.1113 18.6729 36.4139 17.296 37.019 16.0947C37.6424 14.8934 38.4858 13.9693 39.5493 13.3224C40.6128 12.6756 41.7955 12.3522 43.0973 12.3522C44.0875 12.3522 45.0318 12.5739 45.9303 13.0175C46.8287 13.4426 47.5438 14.0155 48.0756 14.7363V7.44531H51.9811V27.9598H48.0756V25.6866C47.5988 26.4443 46.9296 27.0542 46.0678 27.5163C45.206 27.9783 44.2067 28.2093 43.0698 28.2093C41.7863 28.2093 40.6128 27.8767 39.5493 27.2113C38.4858 26.546 37.6424 25.6127 37.019 24.4114C36.4139 23.1916 36.1113 21.7962 36.1113 20.2253ZM48.1031 20.2808C48.1031 19.3382 47.9197 18.5342 47.553 17.8689C47.1863 17.1851 46.6912 16.6676 46.0678 16.3165C45.4444 15.9468 44.7751 15.762 44.06 15.762C43.3449 15.762 42.6848 15.9376 42.0797 16.2887C41.4746 16.6399 40.9795 17.1574 40.5945 17.8412C40.2278 18.5065 40.0444 19.3012 40.0444 20.2253C40.0444 21.1494 40.2278 21.9626 40.5945 22.6649C40.9795 23.3487 41.4746 23.8754 42.0797 24.245C42.7031 24.6147 43.3632 24.7995 44.06 24.7995C44.7751 24.7995 45.4444 24.6239 46.0678 24.2728C46.6912 23.9031 47.1863 23.3857 47.553 22.7203C47.9197 22.0365 48.1031 21.2233 48.1031 20.2808Z" fill="#262626"/>
<path d="M70.319 12.6017L60.8851 35.2231H56.787L60.0875 27.5717L53.9816 12.6017H58.2998L62.2328 23.3302L66.2209 12.6017H70.319Z" fill="#262626"/>
<path d="M76.8779 15.7897V23.2193C76.8779 23.7368 76.997 24.1157 77.2354 24.3559C77.4921 24.5777 77.9138 24.6886 78.5006 24.6886H80.2883V27.9598H77.868C74.6225 27.9598 72.9998 26.3704 72.9998 23.1916V15.7897H71.1845V12.6017H72.9998V8.80371H76.8779V12.6017H80.2883V15.7897H76.8779Z" fill="#262626"/>
<path d="M97.2224 19.9481C97.2224 20.5025 97.1858 21.0015 97.1124 21.4451H85.9733C86.065 22.554 86.45 23.4226 87.1285 24.051C87.8069 24.6794 88.6412 24.9935 89.6313 24.9935C91.0615 24.9935 92.0792 24.3744 92.6843 23.1361H96.8374C96.3973 24.6147 95.5539 25.8345 94.307 26.7955C93.0602 27.7381 91.5291 28.2093 89.7138 28.2093C88.247 28.2093 86.9268 27.8859 85.7533 27.2391C84.5981 26.5737 83.6905 25.6404 83.0304 24.4391C82.3886 23.2378 82.0677 21.8517 82.0677 20.2808C82.0677 18.6913 82.3886 17.296 83.0304 16.0947C83.6721 14.8934 84.5706 13.9693 85.7258 13.3224C86.8809 12.6756 88.2103 12.3522 89.7138 12.3522C91.1624 12.3522 92.4551 12.6664 93.5919 13.2947C94.7471 13.9231 95.6364 14.8195 96.2598 15.9838C96.9016 17.1296 97.2224 18.4511 97.2224 19.9481ZM93.2344 18.8392C93.216 17.8412 92.8585 17.0465 92.1617 16.4551C91.4649 15.8452 90.6123 15.5402 89.6038 15.5402C88.6504 15.5402 87.8436 15.8359 87.1835 16.4273C86.5417 17.0003 86.1475 17.8042 86.0008 18.8392H93.2344Z" fill="#262626"/>
</svg>
