<svg width="1181" height="304" viewBox="0 0 1181 304" fill="none" xmlns="http://www.w3.org/2000/svg">
<path d="M36.9205 170.313C38.1512 181.301 42.4586 189.847 49.8427 195.952C57.2268 202.056 66.1493 205.108 76.6101 205.108C85.8402 205.108 93.532 203.277 99.6854 199.614C106.044 195.748 111.582 190.966 116.3 185.269L142.759 205.108C134.145 215.689 124.504 223.218 113.838 227.695C103.172 232.171 91.9936 234.409 80.3021 234.409C69.226 234.409 58.7652 232.578 48.9197 228.915C39.0742 225.253 30.562 220.064 23.383 213.349C16.204 206.634 10.4608 198.597 6.15342 189.237C2.05114 179.673 0 169.092 0 157.494C0 145.895 2.05114 135.416 6.15342 126.056C10.4608 116.492 16.204 108.353 23.383 101.638C30.562 94.9234 39.0742 89.7347 48.9197 86.072C58.7652 82.4094 69.226 80.5781 80.3021 80.5781C90.5578 80.5781 99.8905 82.4094 108.3 86.072C116.915 89.5312 124.197 94.6182 130.145 101.333C136.298 108.048 141.016 116.391 144.298 126.361C147.785 136.128 149.528 147.421 149.528 160.241V170.313H36.9205ZM112.608 142.843C112.402 132.059 109.018 123.614 102.454 117.51C95.8908 111.202 86.7632 108.048 75.0717 108.048C63.9956 108.048 55.1757 111.202 48.612 117.51C42.2535 123.818 38.3563 132.262 36.9205 142.843H112.608Z" fill="#1D3557"/>
<path d="M541.771 84.2407V217.622C541.771 230.848 540.13 242.752 536.849 253.333C533.567 264.118 528.439 273.172 521.465 280.498C514.696 288.027 506.082 293.826 495.621 297.895C485.16 301.965 472.751 304 458.393 304C444.65 304 431.625 302.27 419.318 298.811C407.012 295.352 395.628 289.044 385.167 279.887L407.319 249.976C414.703 256.691 422.395 261.879 430.394 265.542C438.394 269.205 447.624 271.036 458.085 271.036C466.905 271.036 474.289 269.815 480.237 267.373C486.391 264.931 491.211 261.574 494.698 257.301C498.39 253.028 500.954 247.839 502.389 241.735C504.03 235.834 504.851 229.221 504.851 221.895V211.213H504.236C498.903 218.334 491.826 223.727 483.006 227.389C474.186 230.849 465.161 232.578 455.931 232.578C444.855 232.578 434.804 230.645 425.779 226.779C416.754 222.709 408.96 217.317 402.396 210.602C396.038 203.887 391.115 195.952 387.628 186.795C384.141 177.638 382.398 167.871 382.398 157.494C382.398 146.709 384.039 136.637 387.321 127.277C390.602 117.917 395.423 109.778 401.781 102.859C408.14 95.9408 415.729 90.5486 424.549 86.6825C433.574 82.6129 443.829 80.5781 455.316 80.5781C465.777 80.5781 475.52 82.6129 484.545 86.6825C493.57 90.7521 500.749 97.2635 506.082 106.217H506.697V84.2407H541.771ZM463.008 113.542C456.444 113.542 450.496 114.661 445.163 116.899C439.83 118.934 435.215 121.885 431.318 125.751C427.625 129.413 424.651 133.992 422.395 139.486C420.344 144.776 419.318 150.677 419.318 157.189C419.318 163.089 420.344 168.583 422.395 173.67C424.651 178.757 427.728 183.234 431.625 187.1C435.522 190.966 440.137 194.019 445.47 196.257C450.803 198.495 456.546 199.614 462.7 199.614C469.469 199.614 475.52 198.495 480.853 196.257C486.391 194.019 491.006 191.068 494.698 187.405C498.595 183.539 501.569 178.961 503.62 173.67C505.671 168.38 506.697 162.682 506.697 156.578C506.697 143.759 502.8 133.381 495.005 125.446C487.211 117.51 476.545 113.542 463.008 113.542Z" fill="#1D3557"/>
<path d="M663.573 210.602H662.65C657.317 218.945 650.548 225.049 642.344 228.915C634.139 232.578 625.114 234.409 615.269 234.409C608.5 234.409 601.834 233.494 595.27 231.662C588.912 229.831 583.168 227.084 578.041 223.421C573.118 219.759 569.118 215.18 566.041 209.687C562.965 204.193 561.426 197.783 561.426 190.458C561.426 182.522 562.862 175.807 565.734 170.313C568.605 164.616 572.4 159.936 577.117 156.273C582.04 152.407 587.681 149.354 594.039 147.116C600.398 144.878 606.962 143.25 613.73 142.233C620.704 141.012 627.678 140.3 634.652 140.096C641.626 139.689 648.19 139.486 654.343 139.486H663.573V135.518C663.573 126.361 660.394 119.545 654.035 115.068C647.677 110.388 639.575 108.048 629.729 108.048C621.935 108.048 614.653 109.472 607.885 112.321C601.116 114.966 595.27 118.629 590.347 123.309L570.964 104.08C579.169 95.7374 588.706 89.7347 599.577 86.072C610.654 82.4094 622.037 80.5781 633.729 80.5781C644.19 80.5781 653.01 81.7989 660.189 84.2407C667.368 86.479 673.316 89.4295 678.034 93.0921C682.751 96.7548 686.341 101.028 688.802 105.911C691.469 110.591 693.315 115.373 694.34 120.257C695.571 125.14 696.289 129.922 696.494 134.602C696.699 139.079 696.802 143.047 696.802 146.506V230.747H663.573V210.602ZM661.419 165.124H653.728C648.6 165.124 642.857 165.328 636.498 165.735C630.139 166.142 624.089 167.159 618.345 168.787C612.807 170.211 608.09 172.45 604.193 175.502C600.295 178.35 598.347 182.42 598.347 187.711C598.347 191.17 599.065 194.12 600.5 196.562C602.141 198.8 604.193 200.733 606.654 202.361C609.115 203.989 611.884 205.21 614.961 206.024C618.038 206.634 621.114 206.94 624.191 206.94C636.908 206.94 646.241 203.989 652.189 198.088C658.343 191.984 661.419 183.743 661.419 173.365V165.124Z" fill="#1D3557"/>
<path d="M876.207 84.2407V217.622C876.207 230.848 874.566 242.752 871.284 253.333C868.003 264.118 862.875 273.172 855.901 280.498C849.132 288.027 840.518 293.826 830.057 297.895C819.596 301.965 807.187 304 792.829 304C779.086 304 766.061 302.27 753.754 298.811C741.447 295.352 730.064 289.044 719.603 279.887L741.755 249.976C749.139 256.691 756.831 261.879 764.83 265.542C772.83 269.205 782.06 271.036 792.521 271.036C801.341 271.036 808.725 269.815 814.673 267.373C820.827 264.931 825.647 261.574 829.134 257.301C832.826 253.028 835.39 247.839 836.826 241.735C838.466 235.834 839.287 229.221 839.287 221.895V211.213H838.672C833.339 218.334 826.262 223.727 817.442 227.389C808.622 230.849 799.597 232.578 790.367 232.578C779.291 232.578 769.24 230.645 760.215 226.779C751.19 222.709 743.396 217.317 736.832 210.602C730.474 203.887 725.551 195.952 722.064 186.795C718.577 177.638 716.834 167.871 716.834 157.494C716.834 146.709 718.475 136.637 721.756 127.277C725.038 117.917 729.858 109.778 736.217 102.859C742.576 95.9408 750.165 90.5486 758.985 86.6825C768.01 82.6129 778.265 80.5781 789.752 80.5781C800.213 80.5781 809.956 82.6129 818.981 86.6825C828.006 90.7521 835.184 97.2635 840.517 106.217H841.133V84.2407H876.207ZM797.443 113.542C790.88 113.542 784.932 114.661 779.599 116.899C774.266 118.934 769.651 121.885 765.753 125.751C762.061 129.413 759.087 133.992 756.831 139.486C754.78 144.776 753.754 150.677 753.754 157.189C753.754 163.089 754.78 168.583 756.831 173.67C759.087 178.757 762.164 183.234 766.061 187.1C769.958 190.966 774.573 194.019 779.906 196.257C785.239 198.495 790.982 199.614 797.136 199.614C803.905 199.614 809.955 198.495 815.288 196.257C820.826 194.019 825.442 191.068 829.134 187.405C833.031 183.539 836.005 178.961 838.056 173.67C840.107 168.38 841.133 162.682 841.133 156.578C841.133 143.759 837.236 133.381 829.441 125.446C821.647 117.51 810.981 113.542 797.443 113.542Z" fill="#1D3557"/>
<path d="M935.244 170.313C936.475 181.301 940.782 189.847 948.166 195.952C955.55 202.056 964.473 205.108 974.934 205.108C984.164 205.108 991.856 203.277 998.009 199.614C1004.37 195.748 1009.91 190.966 1014.62 185.269L1041.08 205.108C1032.47 215.689 1022.83 223.218 1012.16 227.695C1001.5 232.171 990.317 234.409 978.626 234.409C967.55 234.409 957.089 232.578 947.243 228.915C937.398 225.253 928.886 220.064 921.707 213.349C914.528 206.634 908.784 198.597 904.477 189.237C900.375 179.673 898.324 169.092 898.324 157.494C898.324 145.895 900.375 135.416 904.477 126.056C908.784 116.492 914.528 108.353 921.707 101.638C928.886 94.9234 937.398 89.7347 947.243 86.072C957.089 82.4094 967.55 80.5781 978.626 80.5781C988.881 80.5781 998.214 82.4094 1006.62 86.072C1015.24 89.5312 1022.52 94.6182 1028.47 101.333C1034.62 108.048 1039.34 116.391 1042.62 126.361C1046.11 136.128 1047.85 147.421 1047.85 160.241V170.313H935.244ZM1010.93 142.843C1010.73 132.059 1007.34 123.614 1000.78 117.51C994.214 111.202 985.087 108.048 973.395 108.048C962.319 108.048 953.499 111.202 946.936 117.51C940.577 123.818 936.68 132.262 935.244 142.843H1010.93Z" fill="#1D3557"/>
<path d="M364.871 229.398L364.871 92.4328C364.871 83.3018 358.133 81.4757 351.396 86.9543C327.44 106.434 279.977 144.455 272.79 150.299C265.603 156.143 268.298 161.053 272.79 164.908C299.74 188.04 346.904 229.398 351.396 233.05C355.888 236.703 364.871 236.702 364.871 229.398Z" fill="#1D3557"/>
<path d="M171.076 86.2275V223.192C171.076 232.323 177.813 234.149 184.551 228.671C208.507 209.191 255.97 171.17 263.157 165.326C270.344 159.482 267.649 154.572 263.157 150.717C236.206 127.585 189.043 86.2271 184.551 82.5747C180.059 78.9223 171.076 78.9228 171.076 86.2275Z" fill="#1D3557"/>
<path d="M1070.69 0H1107.61V230.747H1070.69V0Z" fill="#2287BA"/>
<path d="M1138.6 84.241H1175.52V230.747H1138.6V84.241ZM1133.37 34.49C1133.37 28.589 1135.53 23.502 1139.83 19.2289C1144.35 14.7523 1149.99 12.5141 1156.76 12.5141C1163.52 12.5141 1169.16 14.6506 1173.68 18.9237C1178.39 22.9933 1180.75 28.1821 1180.75 34.49C1180.75 40.7979 1178.39 46.0884 1173.68 50.3615C1169.16 54.4311 1163.52 56.4659 1156.76 56.4659C1149.99 56.4659 1144.35 54.3293 1139.83 50.0562C1135.53 45.5797 1133.37 40.3909 1133.37 34.49Z" fill="#2287BA"/>
</svg>
